<svg width="50" height="43" viewBox="0 0 50 43" fill="none" xmlns="http://www.w3.org/2000/svg">
<path d="M25 20.3056C26.9229 20.3056 28.8026 19.8152 30.4014 18.8965C32.0002 17.9778 33.2463 16.6719 33.9822 15.1441C34.718 13.6164 34.9105 11.9352 34.5354 10.3133C34.1603 8.69142 33.2343 7.20161 31.8746 6.03229C30.515 4.86297 28.7826 4.06665 26.8967 3.74403C25.0108 3.42142 23.056 3.587 21.2795 4.21983C19.503 4.85266 17.9846 5.92433 16.9163 7.2993C15.848 8.67428 15.2778 10.2908 15.2778 11.9445C15.2778 14.162 16.3021 16.2887 18.1253 17.8567C19.9486 19.4247 22.4215 20.3056 25 20.3056ZM25 5.97227C26.3735 5.97227 27.7161 6.32253 28.8581 6.97877C30.0001 7.635 30.8902 8.56774 31.4158 9.65902C31.9414 10.7503 32.079 11.9511 31.811 13.1096C31.5431 14.2681 30.8817 15.3323 29.9105 16.1675C28.9393 17.0027 27.7019 17.5715 26.3548 17.802C25.0077 18.0324 23.6114 17.9141 22.3425 17.4621C21.0735 17.0101 19.989 16.2446 19.2259 15.2625C18.4628 14.2804 18.0555 13.1257 18.0555 11.9445C18.0555 10.3606 18.7872 8.8415 20.0895 7.72149C21.3919 6.60148 23.1582 5.97227 25 5.97227Z" fill="white"/>
<path d="M42.3195 29.1086C40.0921 27.084 37.408 25.4714 34.4313 24.3693C31.4546 23.2672 28.2478 22.6987 25.007 22.6987C21.7661 22.6987 18.5593 23.2672 15.5826 24.3693C12.6059 25.4714 9.92181 27.084 7.69446 29.1086C7.21156 29.5522 6.94337 30.1373 6.94446 30.745V37.0278C6.94446 37.6613 7.23712 38.2689 7.75805 38.717C8.27899 39.165 8.98553 39.4166 9.72224 39.4166H40.2778C41.0145 39.4166 41.721 39.165 42.242 38.717C42.7629 38.2689 43.0556 37.6613 43.0556 37.0278V30.745C43.0604 30.139 42.7973 29.554 42.3195 29.1086ZM40.2778 37.0278H9.72224V30.733C11.6906 28.9505 14.0601 27.5311 16.6866 26.5612C19.3131 25.5912 22.1416 25.091 25 25.091C27.8584 25.091 30.6869 25.5912 33.3134 26.5612C35.9399 27.5311 38.3094 28.9505 40.2778 30.733V37.0278Z" fill="white"/>
</svg>
