<svg width="33" height="30" viewBox="0 0 33 30" fill="none" xmlns="http://www.w3.org/2000/svg">
<path fill-rule="evenodd" clip-rule="evenodd" d="M26.0917 16.6875C26.2901 17.8125 26.4885 18.75 26.8853 19.875L28.0757 23.0625L27.0837 24.375H20.1399C20.1399 25.3125 19.7431 26.25 18.9495 27C18.1559 27.75 17.164 28.125 16.172 28.125C15.18 28.125 13.9897 27.75 13.3945 27C12.6009 26.25 12.2041 25.3125 12.2041 24.375H5.26028L4.26831 23.0625L5.45868 19.875C5.85547 18.375 6.25226 16.875 6.25226 15.375V11.25C6.25226 9.9375 6.45065 8.625 7.04584 7.5C7.64102 6.1875 8.4346 5.25 9.42658 4.3125C10.4186 3.375 11.6089 2.8125 12.9977 2.4375C13.9897 2.0625 15.18 1.875 16.172 1.875C15.7752 2.4375 15.3784 3.1875 14.9816 3.9375C14.5848 3.9375 14.1881 3.9375 13.5929 4.3125C12.6009 4.5 11.6089 5.0625 10.8153 5.8125C10.0218 6.375 9.22818 7.3125 8.83139 8.25C8.4346 9.1875 8.23621 10.125 8.23621 11.25V15.375C8.23621 17.0625 7.83942 18.75 7.44263 20.4375L6.64905 22.5H25.695L24.9014 20.4375C24.5542 19.4513 24.3578 18.3188 24.1812 17.2987L24.1078 16.875C24.9014 16.875 25.4966 16.875 26.0917 16.6875ZM16.172 26.25C16.5688 26.25 17.164 26.0625 17.5608 25.6875C17.9576 25.3125 18.156 24.9375 18.156 24.375H14.1881C14.1881 24.9375 14.3864 25.3125 14.7832 25.6875C15.18 26.0625 15.7752 26.25 16.172 26.25ZM30.0596 7.5C30.0596 8.99184 29.4326 10.4226 28.3164 11.4775C27.2002 12.5324 25.6863 13.125 24.1078 13.125C22.5293 13.125 21.0154 12.5324 19.8992 11.4775C18.783 10.4226 18.156 8.99184 18.156 7.5C18.156 6.00816 18.783 4.57742 19.8992 3.52252C21.0154 2.46763 22.5293 1.875 24.1078 1.875C25.6863 1.875 27.2002 2.46763 28.3164 3.52252C29.4326 4.57742 30.0596 6.00816 30.0596 7.5Z" fill="black"/>
</svg>
