<svg width="38" height="30" viewBox="0 0 38 30" fill="none" xmlns="http://www.w3.org/2000/svg">
<path d="M18.8516 18.2811C19.9539 18.2811 21.0111 17.9354 21.7905 17.3201C22.57 16.7047 23.0078 15.8701 23.0078 14.9999C23.0078 14.9038 23.0023 14.8086 22.9919 14.7145L18.4901 18.2685C18.6093 18.2767 18.7295 18.2811 18.8516 18.2811ZM32.6088 4.85028L31.0235 3.59989C30.9678 3.55597 30.8923 3.5313 30.8136 3.5313C30.7349 3.5313 30.6594 3.55597 30.6038 3.59989L26.547 6.8035C24.309 5.90057 21.7934 5.44911 19 5.44911C11.8676 5.44911 6.54612 8.38173 3.03558 14.247C2.89447 14.4829 2.82129 14.7405 2.82129 15.0014C2.82129 15.2622 2.89447 15.5199 3.03558 15.7558C4.43831 18.0884 6.12741 19.958 8.10286 21.3646L4.17706 24.4628C4.12143 24.5067 4.09018 24.5663 4.09018 24.6285C4.09018 24.6906 4.12143 24.7502 4.17706 24.7941L5.76126 26.0448C5.81693 26.0887 5.89241 26.1134 5.97111 26.1134C6.04982 26.1134 6.1253 26.0887 6.18097 26.0448L32.6088 5.18192C32.6364 5.16015 32.6583 5.1343 32.6732 5.10585C32.6882 5.0774 32.6958 5.0469 32.6958 5.0161C32.6958 4.9853 32.6882 4.9548 32.6732 4.92635C32.6583 4.8979 32.6364 4.87205 32.6088 4.85028ZM12.3203 14.9999C12.3202 14.1093 12.6123 13.2338 13.1682 12.4588C13.724 11.6838 14.5246 11.0357 15.4921 10.5776C16.4595 10.1195 17.5607 9.86703 18.6885 9.84478C19.8162 9.82253 20.932 10.0313 21.9272 10.4507L20.123 11.8751C19.3953 11.6911 18.6176 11.669 17.875 11.8111C17.1325 11.9531 16.4539 12.2539 15.9136 12.6804C15.3734 13.1069 14.9924 13.6427 14.8124 14.2289C14.6325 14.8151 14.6605 15.4292 14.8935 16.0036L13.0892 17.428C12.5829 16.6812 12.3188 15.847 12.3203 14.9999Z" fill="black"/>
<path d="M34.9645 14.244C33.6582 12.0721 32.1035 10.3011 30.3002 8.93103L24.9512 13.1542C25.4021 14.0847 25.5021 15.0984 25.239 16.0728C24.9759 17.0471 24.3611 17.9405 23.4687 18.645C22.5764 19.3495 21.4448 19.8349 20.2105 20.0426C18.9763 20.2503 17.6923 20.1714 16.5137 19.8154L11.9767 23.3973C14.0815 24.1662 16.4226 24.5507 19 24.5507C26.1324 24.5507 31.4539 21.6181 34.9645 15.7528C35.1056 15.5169 35.1788 15.2593 35.1788 14.9984C35.1788 14.7375 35.1056 14.4799 34.9645 14.244Z" fill="black"/>
</svg>
