<svg width="25" height="25" viewBox="0 0 25 25" fill="none" xmlns="http://www.w3.org/2000/svg">
<path d="M12.5 -0.00012207C8.19219 -0.00012207 4.6875 2.80363 4.6875 6.24988V9.99988H3.125C2.2962 9.99988 1.50134 10.2633 0.915291 10.7321C0.32924 11.201 0 11.8368 0 12.4999V22.4999C0 23.1629 0.32924 23.7988 0.915291 24.2676C1.50134 24.7365 2.2962 24.9999 3.125 24.9999H21.875C22.7038 24.9999 23.4987 24.7365 24.0847 24.2676C24.6708 23.7988 25 23.1629 25 22.4999V12.4999C25 11.8368 24.6708 11.201 24.0847 10.7321C23.4987 10.2633 22.7038 9.99988 21.875 9.99988H20.3125V6.24988C20.3125 2.80363 16.8078 -0.00012207 12.5 -0.00012207ZM7.8125 6.24988C7.8125 4.18238 9.91562 2.49988 12.5 2.49988C15.0844 2.49988 17.1875 4.18238 17.1875 6.24988V9.99988H7.8125V6.24988ZM14.0625 19.6536V22.4999H10.9375V19.6536C10.3912 19.4034 9.95259 19.0265 9.67942 18.5728C9.40625 18.1191 9.31138 17.6098 9.40732 17.1121C9.50326 16.6144 9.78549 16.1516 10.2168 15.7848C10.6481 15.418 11.2083 15.1644 11.8234 15.0574C12.2803 14.9766 12.7541 14.9788 13.2098 15.064C13.6654 15.1492 14.0914 15.3151 14.4562 15.5495C14.8211 15.7839 15.1155 16.0808 15.3178 16.4184C15.5201 16.7559 15.625 17.1255 15.625 17.4999C15.6241 17.9371 15.4792 18.3663 15.2049 18.7444C14.9306 19.1225 14.5365 19.4361 14.0625 19.6536Z" fill="black"/>
</svg>
