<svg width="49" height="45" viewBox="0 0 49 45" fill="none" xmlns="http://www.w3.org/2000/svg">
<path d="M39.2174 42.1875H21.2174C20.422 42.1868 19.6594 41.8902 19.097 41.3629C18.5345 40.8356 18.2182 40.1207 18.2174 39.375V35.1562H21.2174V39.375H39.2174V5.625H21.2174V9.84375H18.2174V5.625C18.2182 4.87931 18.5345 4.16437 19.097 3.63708C19.6594 3.1098 20.422 2.81324 21.2174 2.8125H39.2174C40.0128 2.81324 40.7754 3.1098 41.3378 3.63708C41.9003 4.16437 42.2166 4.87931 42.2174 5.625V39.375C42.2166 40.1207 41.9003 40.8356 41.3378 41.3629C40.7754 41.8902 40.0128 42.1868 39.2174 42.1875Z" fill="white"/>
<path d="M17.3384 28.9491L11.9594 23.9062H33.2174V21.0938H11.9594L17.3384 16.0509L15.2174 14.0625L6.21741 22.5L15.2174 30.9375L17.3384 28.9491Z" fill="white"/>
</svg>
