<svg width="35" height="32" viewBox="0 0 35 32" fill="none" xmlns="http://www.w3.org/2000/svg">
<path fill-rule="evenodd" clip-rule="evenodd" d="M6.5625 27.9999C6.5625 27.9999 4.375 27.9999 4.375 25.9999C4.375 23.9999 6.5625 17.9999 17.5 17.9999C28.4375 17.9999 30.625 23.9999 30.625 25.9999C30.625 27.9999 28.4375 27.9999 28.4375 27.9999H6.5625ZM17.5 15.9999C19.2405 15.9999 20.9097 15.3677 22.1404 14.2425C23.3711 13.1173 24.0625 11.5912 24.0625 9.99988C24.0625 8.40858 23.3711 6.88246 22.1404 5.75724C20.9097 4.63202 19.2405 3.99988 17.5 3.99988C15.7595 3.99988 14.0903 4.63202 12.8596 5.75724C11.6289 6.88246 10.9375 8.40858 10.9375 9.99988C10.9375 11.5912 11.6289 13.1173 12.8596 14.2425C14.0903 15.3677 15.7595 15.9999 17.5 15.9999Z" fill="black"/>
</svg>
