<svg width="23" height="22" viewBox="0 0 23 22" fill="none" xmlns="http://www.w3.org/2000/svg">
<path fill-rule="evenodd" clip-rule="evenodd" d="M14.9935 14.3578C15.1202 14.23 15.2706 14.1286 15.4362 14.0594C15.6018 13.9902 15.7793 13.9546 15.9585 13.9546C16.1378 13.9546 16.3153 13.9902 16.4808 14.0594C16.6464 14.1286 16.7968 14.23 16.9235 14.3578L22.1748 19.6516C22.4307 19.9094 22.5746 20.2592 22.5747 20.6239C22.5748 20.9887 22.4312 21.3385 22.1754 21.5966C21.9197 21.8546 21.5727 21.9996 21.2109 21.9997C20.8491 21.9998 20.5021 21.8551 20.2461 21.5972L14.9949 16.3035C14.8681 16.1758 14.7675 16.0241 14.6988 15.8572C14.6302 15.6903 14.5948 15.5113 14.5948 15.3306C14.5948 15.15 14.6302 14.971 14.6988 14.8041C14.7675 14.6372 14.8681 14.4855 14.9949 14.3578H14.9935Z" fill="black"/>
<path fill-rule="evenodd" clip-rule="evenodd" d="M9.61684 16.5001C10.602 16.5001 11.5775 16.3045 12.4876 15.9244C13.3978 15.5444 14.2248 14.9873 14.9214 14.2851C15.618 13.5828 16.1706 12.7491 16.5476 11.8316C16.9246 10.9141 17.1186 9.93067 17.1186 8.93755C17.1186 7.94442 16.9246 6.96102 16.5476 6.04349C16.1706 5.12596 15.618 4.29227 14.9214 3.59002C14.2248 2.88778 13.3978 2.33072 12.4876 1.95067C11.5775 1.57062 10.602 1.37501 9.61684 1.37501C7.62724 1.37501 5.71914 2.17177 4.31228 3.59002C2.90542 5.00827 2.11506 6.93184 2.11506 8.93755C2.11506 10.9433 2.90542 12.8668 4.31228 14.2851C5.71914 15.7033 7.62724 16.5001 9.61684 16.5001ZM18.4826 8.93755C18.4826 11.3079 17.5485 13.5812 15.8859 15.2573C14.2232 16.9335 11.9682 17.8751 9.61684 17.8751C7.2655 17.8751 5.01046 16.9335 3.34781 15.2573C1.68516 13.5812 0.751099 11.3079 0.751099 8.93755C0.751099 6.56716 1.68516 4.29386 3.34781 2.61775C5.01046 0.941632 7.2655 0 9.61684 0C11.9682 0 14.2232 0.941632 15.8859 2.61775C17.5485 4.29386 18.4826 6.56716 18.4826 8.93755Z" fill="black"/>
</svg>
