<svg width="45" height="45" viewBox="0 0 45 45" fill="none" xmlns="http://www.w3.org/2000/svg">
<path d="M41.8315 19.99C41.5309 19.6479 41.3651 19.208 41.3651 18.7526C41.3651 18.2971 41.5309 17.8572 41.8315 17.5151L44.2315 14.815C44.4959 14.5201 44.6602 14.1489 44.7006 13.7548C44.741 13.3606 44.6555 12.9638 44.4565 12.6213L40.7065 6.1338C40.5094 5.79165 40.2094 5.52044 39.8491 5.35884C39.4889 5.19723 39.0868 5.15347 38.7002 5.2338L35.1752 5.9463C34.7267 6.03898 34.2597 5.96428 33.8625 5.7363C33.4653 5.50832 33.1652 5.14283 33.019 4.7088L31.8752 1.27755C31.7494 0.905136 31.5098 0.581672 31.1901 0.352879C30.8705 0.124085 30.4871 0.00153524 30.094 0.00254992H22.594C22.1851 -0.0187914 21.7805 0.0942869 21.4419 0.324514C21.1033 0.554741 20.8494 0.889461 20.719 1.27755L19.669 4.7088C19.5227 5.14283 19.2227 5.50832 18.8254 5.7363C18.4282 5.96428 17.9613 6.03898 17.5127 5.9463L13.894 5.2338C13.5275 5.18201 13.1539 5.23984 12.8202 5.4C12.4866 5.56016 12.2078 5.81548 12.019 6.1338L8.26897 12.6213C8.0649 12.96 7.97314 13.3546 8.00681 13.7486C8.04049 14.1426 8.19787 14.5159 8.45647 14.815L10.8377 17.5151C11.1383 17.8572 11.3041 18.2971 11.3041 18.7526C11.3041 19.208 11.1383 19.6479 10.8377 19.99L8.45647 22.6901C8.19787 22.9892 8.04049 23.3625 8.00681 23.7565C7.97314 24.1505 8.0649 24.5451 8.26897 24.8838L12.019 31.3713C12.216 31.7134 12.5161 31.9847 12.8763 32.1463C13.2366 32.3079 13.6386 32.3516 14.0252 32.2713L17.5502 31.5588C17.9988 31.4661 18.4657 31.5408 18.8629 31.7688C19.2602 31.9968 19.5602 32.3623 19.7065 32.7963L20.8502 36.2276C20.9807 36.6156 21.2346 36.9504 21.5732 37.1806C21.9117 37.4108 22.3163 37.5239 22.7252 37.5025H30.2252C30.6183 37.5036 31.0018 37.381 31.3214 37.1522C31.641 36.9234 31.8807 36.6 32.0065 36.2276L33.1502 32.7963C33.2965 32.3623 33.5965 31.9968 33.9938 31.7688C34.391 31.5408 34.8579 31.4661 35.3065 31.5588L38.8315 32.2713C39.2181 32.3516 39.6201 32.3079 39.9804 32.1463C40.3406 31.9847 40.6407 31.7134 40.8377 31.3713L44.5877 24.8838C44.7868 24.5413 44.8723 24.1445 44.8318 23.7503C44.7914 23.3562 44.6272 22.985 44.3627 22.6901L41.8315 19.99ZM39.0377 22.5026L40.5377 24.19L38.1377 28.3526L35.9252 27.9025C34.5748 27.6265 33.17 27.8559 31.9776 28.5472C30.7851 29.2385 29.888 30.3435 29.4565 31.6525L28.744 33.7525H23.944L23.269 31.6151C22.8374 30.306 21.9403 29.201 20.7479 28.5097C19.5554 27.8184 18.1506 27.589 16.8002 27.8651L14.5877 28.3151L12.1502 24.1713L13.6502 22.4838C14.5726 21.4525 15.0826 20.1174 15.0826 18.7338C15.0826 17.3502 14.5726 16.0151 13.6502 14.9838L12.1502 13.2963L14.5502 9.1713L16.7627 9.6213C18.1131 9.89734 19.5179 9.66795 20.7104 8.97667C21.9028 8.28539 22.7999 7.18035 23.2315 5.8713L23.944 3.75255H28.744L29.4565 5.89005C29.888 7.1991 30.7851 8.30414 31.9776 8.99542C33.17 9.6867 34.5748 9.91609 35.9252 9.64005L38.1377 9.19005L40.5377 13.3525L39.0377 15.0401C38.1257 16.069 37.622 17.3963 37.622 18.7713C37.622 20.1463 38.1257 21.4736 39.0377 22.5026ZM26.344 11.2526C24.8606 11.2526 23.4106 11.6924 22.1772 12.5165C20.9438 13.3406 19.9825 14.512 19.4149 15.8824C18.8472 17.2529 18.6987 18.7609 18.9881 20.2157C19.2775 21.6706 19.9918 23.007 21.0407 24.0559C22.0896 25.1047 23.4259 25.8191 24.8808 26.1084C26.3357 26.3978 27.8436 26.2493 29.2141 25.6816C30.5845 25.114 31.7559 24.1527 32.58 22.9193C33.4041 21.686 33.844 20.2359 33.844 18.7526C33.844 16.7634 33.0538 14.8558 31.6473 13.4492C30.2407 12.0427 28.3331 11.2526 26.344 11.2526ZM26.344 22.5026C25.6023 22.5026 24.8773 22.2826 24.2606 21.8706C23.6439 21.4585 23.1633 20.8728 22.8794 20.1876C22.5956 19.5024 22.5213 18.7484 22.666 18.021C22.8107 17.2935 23.1679 16.6253 23.6923 16.1009C24.2168 15.5765 24.885 15.2193 25.6124 15.0746C26.3398 14.9299 27.0938 15.0042 27.779 15.288C28.4643 15.5718 29.0499 16.0525 29.462 16.6692C29.874 17.2858 30.094 18.0109 30.094 18.7526C30.094 19.7471 29.6989 20.7009 28.9956 21.4042C28.2924 22.1075 27.3385 22.5026 26.344 22.5026Z" fill="white"/>
</svg>
