<svg width="97" height="159" viewBox="0 0 97 159" fill="none" xmlns="http://www.w3.org/2000/svg">
<path d="M45.7074 0.0687756C28.4616 -0.883224 27.8586 14.8248 30.8736 25.2968C32.0796 31.0088 24.2406 34.3408 20.6829 38.72C19.1754 40.624 17.7885 42.8611 17.0649 45.7171C15.075 53.2855 20.7432 59.7116 21.6477 66.6136C21.8889 68.3272 21.8286 70.0883 21.2859 71.8971C20.6226 73.8487 19.4166 75.7528 18.2106 77.6568C8.56258 86.2248 -7.11542 96.2208 3.73858 107.645C5.72848 109.644 7.89928 111.405 10.251 112.976C29.0646 125.733 57.4056 124.781 79.1136 116.689C86.9526 113.357 94.7916 108.597 96.6006 101.457C97.8066 93.8408 93.5856 86.7007 87.1335 81.6551C85.2039 79.9891 83.0934 78.4184 80.9226 77.038C79.3548 75.134 78.39 73.3252 77.9076 71.564C76.7619 67.1848 78.5106 63.0912 80.199 58.95C81.0432 56.9032 81.8271 54.8088 82.2492 52.6668C84.5406 41.9092 71.2746 35.2452 64.0386 27.6292C61.0236 24.2972 62.2296 20.0132 63.4356 16.2052C65.8476 7.16117 56.8026 -0.454827 46.0089 0.0211727" fill="#01D392"/>
<path d="M48.4209 45.146C45.6471 55.4752 45.0441 65.614 45.4059 75.7528C45.5265 78.2756 53.7876 120.497 48.4812 138.966C48.3606 141.631 48.3606 143.202 48.3606 143.202" stroke="#00354C" stroke-width="6" stroke-miterlimit="10" stroke-linecap="round" stroke-linejoin="round"/>
<path d="M57.4056 85.0824L48.4209 95.3163" stroke="#00354C" stroke-width="6" stroke-miterlimit="10" stroke-linecap="round" stroke-linejoin="round"/>
<path d="M62.8326 158.577H35.0946C34.7328 158.577 34.4313 158.386 34.371 158.101L27.2556 134.396H70.6716L63.5562 158.148C63.4959 158.386 63.1944 158.577 62.8326 158.577Z" fill="#F7BF46"/>
<path opacity="0.68" d="M31.5972 147.534H66.33" stroke="#F7BF46" stroke-miterlimit="10"/>
<path opacity="0.68" d="M32.1399 149.247H65.7873" stroke="#F7BF46" stroke-miterlimit="10"/>
<path d="M6.4521 72.6111C10.0155 72.6111 12.9042 68.903 12.9042 64.3287C12.9042 59.7545 10.0155 56.0463 6.4521 56.0463C2.8887 56.0463 0 59.7545 0 64.3287C0 68.903 2.8887 72.6111 6.4521 72.6111Z" fill="#01D392"/>
</svg>
