<svg width="560" height="484" viewBox="0 0 560 484" fill="none" xmlns="http://www.w3.org/2000/svg">
<path opacity="0.1" d="M103.533 180.547C172.088 107.795 270.906 89.1703 325.946 139.283C352.867 163.794 364.37 200.259 361.391 239.955C394.769 279.009 396.721 340.522 369.817 398.607C398.829 453.42 382.232 535.505 324.693 598.701C256.025 674.121 155.154 694 99.3252 643.169C82.9495 628.213 71.6818 608.258 66.6928 585.38C45.3103 582.275 26.0212 573.558 10.5748 560.018C-4.87158 546.478 -15.9867 528.543 -21.7626 507.841C-44.0294 504.691 -64.0484 495.496 -79.879 481.148C-135.708 430.317 -125.349 328.029 -56.6811 252.609C-10.0665 201.411 51.3938 175.814 103.533 180.547Z" fill="#6C63FF"/>
<g opacity="0.65">
<path d="M232.751 211.589C193.255 138.891 61.7936 125.044 1 127.208V513.667C191.9 535.802 570.911 566.792 559.759 513.667C545.819 447.26 429.653 456.247 348.918 420.297C268.182 384.348 282.122 302.462 232.751 211.589Z" fill="#7C5DF5"/>
<path d="M232.751 211.589C193.255 138.891 61.7936 125.044 1 127.208V513.667C191.9 535.802 570.911 566.792 559.759 513.667C545.819 447.26 429.653 456.247 348.918 420.297C268.182 384.348 282.122 302.462 232.751 211.589Z" fill="url(#paint0_linear)"/>
</g>
<g opacity="0.65">
<path d="M177.487 272.172C143.148 221.318 28.8546 211.632 -24 213.145V483.481C141.97 498.965 471.486 520.643 461.791 483.481C449.671 437.028 348.675 443.315 278.483 418.167C208.291 393.02 220.41 335.739 177.487 272.172Z" fill="#7C5DF5"/>
<path d="M177.487 272.172C143.148 221.318 28.8546 211.632 -24 213.145V483.481C141.97 498.965 471.486 520.643 461.791 483.481C449.671 437.028 348.675 443.315 278.483 418.167C208.291 393.02 220.41 335.739 177.487 272.172Z" fill="url(#paint1_linear)"/>
</g>
<defs>
<linearGradient id="paint0_linear" x1="560.34" y1="589.061" x2="145.768" y2="-197.513" gradientUnits="userSpaceOnUse">
<stop stop-color="#FAD9D9"/>
<stop offset="1" stop-color="white" stop-opacity="0"/>
</linearGradient>
<linearGradient id="paint1_linear" x1="462.296" y1="536.221" x2="209.59" y2="-59.6868" gradientUnits="userSpaceOnUse">
<stop stop-color="#FAD9D9"/>
<stop offset="1" stop-color="white" stop-opacity="0"/>
</linearGradient>
</defs>
</svg>
