<svg width="290" height="357" viewBox="0 0 290 357" fill="none" xmlns="http://www.w3.org/2000/svg">
<path fill-rule="evenodd" clip-rule="evenodd" d="M8.27211 289C3.70353 289 0 292.928 0 297.774V348.226C0 353.072 3.70353 357 8.27211 357H67.7279C72.2967 357 76 353.072 76 348.226V297.774C76 292.928 72.2967 289 67.7279 289H8.27211ZM16.5442 304.355C15.4021 304.355 14.4762 305.337 14.4762 306.548V339.452C14.4762 340.663 15.4021 341.645 16.5442 341.645H59.4558C60.5979 341.645 61.5238 340.663 61.5238 339.452V306.548C61.5238 305.337 60.5979 304.355 59.4558 304.355H16.5442Z" fill="#EBF1F4"/>
<path fill-rule="evenodd" clip-rule="evenodd" d="M177.102 151.769C173.354 161.944 179.849 173.705 191.609 178.037L314.049 223.139C325.81 227.471 338.381 222.734 342.13 212.559L390.91 80.1338C394.658 69.9579 388.164 58.1979 376.403 53.8657L253.963 8.76365C242.203 4.43162 229.631 9.16815 225.882 19.3441L177.102 151.769ZM221.153 147.071C220.216 149.615 221.84 152.555 224.78 153.638L304.632 183.053C307.572 184.136 310.715 182.951 311.652 180.408L346.859 84.8314C347.796 82.2877 346.172 79.3474 343.232 78.2644L263.38 48.85C260.44 47.767 257.297 48.9514 256.36 51.4951L221.153 147.071Z" fill="#EDF4F9"/>
<path fill-rule="evenodd" clip-rule="evenodd" d="M46.0136 252C40.4832 252 36 256.91 36 262.968V326.032C36 332.09 40.4832 337 46.0136 337H117.986C123.517 337 128 332.09 128 326.032V262.968C128 256.91 123.517 252 117.986 252H46.0136ZM56.0272 271.194C54.6446 271.194 53.5238 272.421 53.5238 273.935V315.065C53.5238 316.579 54.6446 317.806 56.0272 317.806H107.973C109.355 317.806 110.476 316.579 110.476 315.065V273.935C110.476 272.421 109.355 271.194 107.973 271.194H56.0272Z" fill="#EBF1F4"/>
</svg>
