<svg width="422" height="253" viewBox="0 0 422 253" fill="none" xmlns="http://www.w3.org/2000/svg">
<path opacity="0.8" d="M361 248H246V250H361V248Z" fill="#3F3D56"/>
<path opacity="0.8" d="M325 226H297V253H325V226Z" fill="#CFCCE0"/>
<path opacity="0.8" d="M321 249H292V221H321V249ZM293.45 247.6H319.55V222.4H293.45L293.45 247.6Z" fill="#3F3D56"/>
<path opacity="0.8" d="M330.799 70.0066C317.544 70.2945 307 80.0213 307 80.0213C307 80.0213 317.946 89.2813 331.201 88.9934C344.456 88.7055 355 78.9787 355 78.9787C355 78.9787 344.054 69.7187 330.799 70.0066Z" fill="#6C63FF"/>
<path opacity="0.8" d="M396.49 25.9119C384.616 31.5621 371 27.7306 371 27.7306C371 27.7306 376.636 14.7383 388.51 9.08811C400.384 3.43792 414 7.2694 414 7.2694C414 7.2694 408.364 20.2616 396.49 25.9119Z" fill="#6C63FF"/>
<path opacity="0.8" d="M395.857 20.1196C382.602 18.9076 371 27.3054 371 27.3054C371 27.3054 380.888 37.6683 394.143 38.8804C407.398 40.0924 419 31.6946 419 31.6946C419 31.6946 409.112 21.3317 395.857 20.1196Z" fill="#3F3D56"/>
<path opacity="0.8" d="M347.868 22.6198C349.138 35.5985 340.8 47 340.8 47C340.8 47 330.402 37.3589 329.132 24.3802C327.862 11.4015 336.2 0 336.2 0C336.2 0 346.598 9.64108 347.868 22.6198Z" fill="#3F3D56"/>
<path opacity="0.8" d="M285.228 102.215C291.92 113.26 289.617 127 289.617 127C289.617 127 276.465 122.831 269.772 111.785C263.08 100.74 265.383 87 265.383 87C265.383 87 278.535 91.169 285.228 102.215Z" fill="#3F3D56"/>
<path opacity="0.8" d="M305.901 223L304.9 222.329C308.43 217.252 310.357 211.249 310.437 205.083C310.409 196.063 305.94 187.721 301.617 179.654C300.815 178.156 300.015 176.663 299.246 175.172C296.017 169.089 293.444 162.686 291.569 156.068C284.865 131.372 291.466 102.235 309.226 78.1269C323.316 59.002 344.319 42.2783 373.435 27L374 28.0588C345.05 43.2499 324.181 59.8586 310.202 78.8335C292.655 102.651 286.126 131.408 292.736 155.757C294.589 162.294 297.132 168.618 300.322 174.626C301.089 176.113 301.886 177.599 302.685 179.092C307.076 187.288 311.617 195.763 311.646 205.079C311.566 211.485 309.566 217.723 305.901 223Z" fill="#3F3D56"/>
<path opacity="0.8" d="M430.5 29C436.851 29 442 23.8513 442 17.5C442 11.1487 436.851 6 430.5 6C424.149 6 419 11.1487 419 17.5C419 23.8513 424.149 29 430.5 29Z" fill="#3F3D56"/>
<path d="M12.2752 175.573C12.2752 175.573 -33.0426 209.997 50.47 263C50.47 263 68.8706 219.97 48.5268 184.896C44.577 178.057 38.7718 173.28 32.2114 171.47C25.651 169.66 18.7912 170.942 12.9319 175.075L12.2752 175.573Z" fill="#D3D0FF"/>
<path d="M12.7979 174.848C12.7979 174.848 51.5823 212.208 50.49 263" stroke="#9FA0AB" stroke-miterlimit="10"/>
<path d="M52.6877 263.624C52.6877 263.624 38.4886 202.876 55.3681 158.235C62.5363 139.55 64.6972 118.441 61.5262 98.0774C59.9619 88.4268 57.6987 78.977 54.765 69.8464" stroke="#9FA0AB" stroke-width="2" stroke-miterlimit="10"/>
<path d="M65.2386 41.6071C65.2386 49.0488 54.5172 70.6228 54.5172 70.6228C54.5172 70.6228 43.7959 49.0488 43.7959 41.6071C43.9758 38.1888 45.181 34.9844 47.1675 32.6434C49.154 30.3025 51.773 29 54.4938 29C57.2146 29 59.8336 30.3025 61.82 32.6434C63.8065 34.9844 65.0118 38.1888 65.1917 41.6071H65.2386Z" fill="#D3D0FF"/>
<path d="M82.9219 82.8229C79.7122 89.0665 61.4189 99.8577 61.4189 99.8577C61.4189 99.8577 61.754 74.4278 64.9637 68.1843C65.6789 66.5715 66.6495 65.1606 67.8153 64.0391C68.981 62.9176 70.3171 62.1093 71.741 61.6641C73.1649 61.219 74.6461 61.1466 76.0931 61.4513C77.5401 61.756 78.922 62.4314 80.1533 63.4357C81.3847 64.44 82.4392 65.7518 83.2516 67.29C84.0641 68.8281 84.6172 70.5598 84.8768 72.3779C85.1363 74.196 85.0967 76.0618 84.7604 77.8599C84.4242 79.6579 83.7984 81.35 82.9219 82.8313V82.8229Z" fill="#D3D0FF"/>
<path d="M82.1512 153.24C76.8777 156.615 56.7617 154.278 56.7617 154.278C56.7617 154.278 67.2418 132.535 72.5221 129.186C73.7859 128.247 75.1892 127.646 76.6451 127.418C78.1011 127.19 79.5786 127.341 80.9864 127.861C82.3941 128.382 83.7021 129.26 84.8293 130.442C85.9565 131.625 86.8791 133.086 87.5398 134.735C88.2005 136.384 88.5853 138.187 88.6705 140.031C88.7556 141.875 88.5392 143.722 88.0347 145.457C87.5302 147.191 86.7484 148.777 85.7375 150.116C84.7266 151.455 83.5083 152.518 82.1579 153.24H82.1512Z" fill="#D3D0FF"/>
<path d="M72.0397 206.361C67.2888 210.782 47.1528 212.782 47.1528 212.782C47.1528 212.782 54.5639 189.157 59.3148 184.694C61.6042 182.829 64.3719 182.133 67.0547 182.746C69.7376 183.36 72.1339 185.238 73.7561 187.997C75.3783 190.757 76.1045 194.191 75.7869 197.601C75.4693 201.011 74.1317 204.14 72.0464 206.352L72.0397 206.361Z" fill="#D3D0FF"/>
<path d="M38.9575 101.258C43.1924 106.439 62.9399 111.813 62.9399 111.813C62.9399 111.813 58.1018 87.1175 53.8669 81.937C51.7943 79.719 49.1296 78.5758 46.4126 78.739C43.6957 78.9022 41.1295 80.3596 39.234 82.816C37.3385 85.2724 36.2554 88.5441 36.2041 91.9684C36.1527 95.3927 37.137 98.7136 38.9575 101.258Z" fill="#D3D0FF"/>
<path d="M27.7538 163.609C33.0273 166.984 53.1432 164.647 53.1432 164.647C53.1432 164.647 42.6631 142.896 37.4164 139.546C36.1526 138.608 34.7493 138.007 33.2934 137.779C31.8374 137.551 30.3599 137.702 28.9521 138.222C27.5444 138.742 26.2364 139.621 25.1092 140.803C23.9819 141.985 23.0595 143.447 22.3987 145.096C21.738 146.745 21.3532 148.548 21.2681 150.392C21.1829 152.236 21.3993 154.083 21.9038 155.817C22.4083 157.552 23.1902 159.138 24.201 160.477C25.2119 161.816 26.4302 162.879 27.7806 163.601L27.7538 163.609Z" fill="#D3D0FF"/>
<path d="M23.4653 226.053C28.2162 230.474 48.3523 232.474 48.3523 232.474C48.3523 232.474 40.9411 208.85 36.1902 204.386C35.07 203.198 33.7683 202.311 32.3655 201.781C30.9626 201.251 29.4883 201.088 28.0335 201.303C26.5787 201.518 25.1743 202.106 23.907 203.03C22.6396 203.955 21.5362 205.197 20.6648 206.679C19.7933 208.162 19.1725 209.853 18.8403 211.649C18.5082 213.446 18.4719 215.309 18.7337 217.123C18.9954 218.938 19.5498 220.666 20.3624 222.2C21.1751 223.735 22.2288 225.043 23.4586 226.045L23.4653 226.053Z" fill="#D3D0FF"/>
<path opacity="0.25" d="M65.2386 41.6071C65.2386 49.0488 54.5172 70.6228 54.5172 70.6228C54.5172 70.6228 43.7959 49.0488 43.7959 41.6071C43.9758 38.1888 45.181 34.9844 47.1675 32.6434C49.154 30.3025 51.773 29 54.4938 29C57.2146 29 59.8336 30.3025 61.82 32.6434C63.8065 34.9844 65.0118 38.1888 65.1917 41.6071H65.2386Z" fill="black"/>
<path opacity="0.25" d="M82.9219 82.8229C79.7122 89.0665 61.4189 99.8577 61.4189 99.8577C61.4189 99.8577 61.754 74.4278 64.9637 68.1843C65.6789 66.5715 66.6495 65.1606 67.8153 64.0391C68.981 62.9176 70.3171 62.1093 71.741 61.6641C73.1649 61.219 74.6461 61.1466 76.0931 61.4513C77.5401 61.756 78.922 62.4314 80.1533 63.4357C81.3847 64.44 82.4392 65.7518 83.2516 67.29C84.0641 68.8281 84.6172 70.5598 84.8768 72.3779C85.1363 74.196 85.0967 76.0618 84.7604 77.8599C84.4242 79.6579 83.7984 81.35 82.9219 82.8313V82.8229Z" fill="black"/>
<path opacity="0.25" d="M82.1512 153.24C76.8777 156.615 56.7617 154.278 56.7617 154.278C56.7617 154.278 67.2418 132.535 72.5221 129.186C73.7859 128.247 75.1892 127.646 76.6451 127.418C78.1011 127.19 79.5786 127.341 80.9864 127.861C82.3941 128.382 83.7021 129.26 84.8293 130.442C85.9565 131.625 86.8791 133.086 87.5398 134.735C88.2005 136.384 88.5853 138.187 88.6705 140.031C88.7556 141.875 88.5392 143.722 88.0347 145.457C87.5302 147.191 86.7484 148.777 85.7375 150.116C84.7266 151.455 83.5083 152.518 82.1579 153.24H82.1512Z" fill="black"/>
<path opacity="0.25" d="M72.0397 206.361C67.2888 210.782 47.1528 212.782 47.1528 212.782C47.1528 212.782 54.5639 189.157 59.3148 184.694C61.6042 182.829 64.3719 182.133 67.0547 182.746C69.7376 183.36 72.1339 185.238 73.7561 187.997C75.3783 190.757 76.1045 194.191 75.7869 197.601C75.4693 201.011 74.1317 204.14 72.0464 206.352L72.0397 206.361Z" fill="black"/>
<path opacity="0.25" d="M38.9575 101.258C43.1924 106.439 62.9399 111.813 62.9399 111.813C62.9399 111.813 58.1018 87.1175 53.8669 81.937C51.7943 79.719 49.1296 78.5758 46.4126 78.739C43.6957 78.9022 41.1295 80.3596 39.234 82.816C37.3385 85.2724 36.2554 88.5441 36.2041 91.9684C36.1527 95.3927 37.137 98.7136 38.9575 101.258Z" fill="black"/>
<path opacity="0.25" d="M27.7538 163.609C33.0273 166.984 53.1432 164.647 53.1432 164.647C53.1432 164.647 42.6631 142.896 37.4164 139.546C36.1526 138.608 34.7493 138.007 33.2934 137.779C31.8374 137.551 30.3599 137.702 28.9521 138.222C27.5444 138.742 26.2364 139.621 25.1092 140.803C23.9819 141.985 23.0595 143.447 22.3987 145.096C21.738 146.745 21.3532 148.548 21.2681 150.392C21.1829 152.236 21.3993 154.083 21.9038 155.817C22.4083 157.552 23.1902 159.138 24.201 160.477C25.2119 161.816 26.4302 162.879 27.7806 163.601L27.7538 163.609Z" fill="black"/>
<path opacity="0.25" d="M23.4653 226.053C28.2162 230.474 48.3523 232.474 48.3523 232.474C48.3523 232.474 40.9411 208.85 36.1902 204.386C35.07 203.198 33.7683 202.311 32.3655 201.781C30.9626 201.251 29.4883 201.088 28.0335 201.303C26.5787 201.518 25.1743 202.106 23.907 203.03C22.6396 203.955 21.5362 205.197 20.6648 206.679C19.7933 208.162 19.1725 209.853 18.8403 211.649C18.5082 213.446 18.4719 215.309 18.7337 217.123C18.9954 218.938 19.5498 220.666 20.3624 222.2C21.1751 223.735 22.2288 225.043 23.4586 226.045L23.4653 226.053Z" fill="black"/>
<path d="M85.5486 264.78C85.5486 264.78 71.3494 204.032 88.2289 159.391C95.3972 140.706 97.558 119.597 94.387 99.2334C92.8227 89.5828 90.5595 80.133 87.6258 71.0024" stroke="#9FA0AB" stroke-width="2" stroke-miterlimit="10"/>
<path d="M98.0995 42.7629C98.0995 50.2045 87.3781 71.7785 87.3781 71.7785C87.3781 71.7785 76.6567 50.2045 76.6567 42.7629C76.8366 39.3446 78.0419 36.1402 80.0284 33.7992C82.0149 31.4582 84.6339 30.1558 87.3547 30.1558C90.0754 30.1558 92.6945 31.4582 94.6809 33.7992C96.6674 36.1402 97.8727 39.3446 98.0525 42.7629H98.0995Z" fill="#D3D0FF"/>
<path d="M115.816 83.9789C112.607 90.2225 94.3135 101.014 94.3135 101.014C94.3135 101.014 94.6485 75.5838 97.8582 69.3403C98.5734 67.7275 99.544 66.3166 100.71 65.1951C101.876 64.0736 103.212 63.2653 104.635 62.8201C106.059 62.375 107.541 62.3026 108.988 62.6073C110.435 62.912 111.817 63.5874 113.048 64.5917C114.279 65.596 115.334 66.9078 116.146 68.446C116.959 69.9841 117.512 71.7158 117.771 73.5339C118.031 75.352 117.991 77.2178 117.655 79.0159C117.319 80.814 116.693 82.5061 115.816 83.9874V83.9789Z" fill="#D3D0FF"/>
<path d="M115.012 154.413C109.739 157.788 89.6226 155.451 89.6226 155.451C89.6226 155.451 100.103 133.708 105.383 130.358C106.647 129.416 108.051 128.811 109.509 128.58C110.967 128.35 112.446 128.499 113.856 129.018C115.266 129.538 116.576 130.417 117.705 131.6C118.834 132.784 119.758 134.247 120.419 135.899C121.08 137.55 121.465 139.356 121.549 141.202C121.633 143.049 121.415 144.898 120.908 146.634C120.401 148.37 119.616 149.956 118.602 151.294C117.587 152.632 116.366 153.694 115.012 154.413Z" fill="#D3D0FF"/>
<path d="M104.894 207.517C100.143 211.938 80.0068 213.937 80.0068 213.937C80.0068 213.937 87.418 190.313 92.1689 185.85C94.4582 183.985 97.226 183.288 99.9088 183.902C102.592 184.516 104.988 186.393 106.61 189.153C108.232 191.913 108.959 195.347 108.641 198.757C108.323 202.167 106.986 205.296 104.9 207.508L104.894 207.517Z" fill="#D3D0FF"/>
<path d="M71.812 102.448C76.047 107.628 95.7944 113.003 95.7944 113.003C95.7944 113.003 90.9564 88.307 86.7214 83.1265C84.6488 80.9085 81.9842 79.7652 79.2672 79.9284C76.5502 80.0916 73.984 81.549 72.0885 84.0054C70.193 86.4618 69.1099 89.7336 69.0586 93.1579C69.0072 96.5822 69.9915 99.903 71.812 102.448Z" fill="#D3D0FF"/>
<path d="M60.6147 164.765C65.8882 168.14 86.0042 165.803 86.0042 165.803C86.0042 165.803 75.524 144.052 70.2505 140.702C67.7451 139.363 64.9289 139.273 62.373 140.451C59.8171 141.63 57.7129 143.988 56.4871 147.048C55.2613 150.108 55.0058 153.641 55.7723 156.929C56.5388 160.218 58.2699 163.016 60.6147 164.757V164.765Z" fill="#D3D0FF"/>
<path d="M56.3261 227.209C61.077 231.63 81.213 233.63 81.213 233.63C81.213 233.63 73.8019 210.006 69.051 205.542C67.9308 204.354 66.6291 203.467 65.2263 202.937C63.8234 202.407 62.3491 202.244 60.8943 202.459C59.4395 202.673 58.0351 203.261 56.7678 204.186C55.5004 205.111 54.397 206.353 53.5256 207.835C52.6542 209.317 52.0333 211.009 51.7011 212.805C51.369 214.602 51.3327 216.464 51.5945 218.279C51.8563 220.094 52.4106 221.821 53.2233 223.356C54.0359 224.89 55.0896 226.199 56.3194 227.201L56.3261 227.209Z" fill="#D3D0FF"/>
</svg>
