<svg width="330" height="219" viewBox="0 0 330 219" fill="none" xmlns="http://www.w3.org/2000/svg">
<path d="M324.776 0H4.60209C3.38196 0.00131098 2.21218 0.471249 1.34941 1.3067C0.486647 2.14215 0.00135384 3.27489 0 4.4564V214.544C0.00135557 215.725 0.486647 216.858 1.34941 217.693C2.21218 218.529 3.38196 218.999 4.60209 219H324.776C325.996 218.999 327.166 218.529 328.029 217.693C328.892 216.858 329.377 215.725 329.378 214.544V4.4564C329.377 3.27489 328.892 2.14215 328.029 1.3067C327.166 0.471249 325.996 0.00131098 324.776 0ZM328.064 214.544C328.063 215.388 327.717 216.197 327.1 216.794C326.484 217.391 325.648 217.726 324.776 217.727H4.60209C3.73038 217.726 2.89446 217.391 2.27806 216.794C1.66167 216.197 1.31523 215.388 1.31488 214.544V4.4564C1.31523 3.61228 1.66167 2.80283 2.27806 2.20595C2.89446 1.60907 3.73038 1.27359 4.60209 1.27326H324.776C325.648 1.27359 326.484 1.60907 327.1 2.20595C327.717 2.80283 328.063 3.61228 328.064 4.4564V214.544Z" fill="#3F3D56"/>
<path d="M328.721 17.851H0.65741V19.1243H328.721V17.851Z" fill="#3F3D56"/>
<path d="M11.8339 13.3692C14.0125 13.3692 15.7786 11.659 15.7786 9.54941C15.7786 7.43981 14.0125 5.72964 11.8339 5.72964C9.65536 5.72964 7.88928 7.43981 7.88928 9.54941C7.88928 11.659 9.65536 13.3692 11.8339 13.3692Z" fill="#3F3D56"/>
<path d="M23.1748 13.3692C25.3534 13.3692 27.1195 11.659 27.1195 9.54941C27.1195 7.43981 25.3534 5.72964 23.1748 5.72964C20.9962 5.72964 19.2302 7.43981 19.2302 9.54941C19.2302 11.659 20.9962 13.3692 23.1748 13.3692Z" fill="#3F3D56"/>
<path d="M34.5158 13.3692C36.6943 13.3692 38.4604 11.659 38.4604 9.54941C38.4604 7.43981 36.6943 5.72964 34.5158 5.72964C32.3372 5.72964 30.5711 7.43981 30.5711 9.54941C30.5711 11.659 32.3372 13.3692 34.5158 13.3692Z" fill="#3F3D56"/>
<path d="M265.493 61.412H61.6857C58.983 61.412 56.3911 60.3724 54.48 58.5218C52.569 56.6713 51.4953 54.1614 51.4953 51.5443C51.4953 48.9272 52.569 46.4173 54.48 44.5667C56.3911 42.7162 58.983 41.6765 61.6857 41.6765H265.493C268.195 41.6765 270.787 42.7162 272.698 44.5667C274.609 46.4173 275.683 48.9272 275.683 51.5443C275.683 54.1614 274.609 56.6713 272.698 58.5218C270.787 60.3724 268.195 61.412 265.493 61.412ZM61.6857 42.9498C59.3318 42.9498 57.0743 43.8553 55.4098 45.4671C53.7453 47.0789 52.8102 49.2649 52.8102 51.5443C52.8102 53.8237 53.7453 56.0097 55.4098 57.6215C57.0743 59.2333 59.3318 60.1388 61.6857 60.1388H265.493C267.847 60.1388 270.104 59.2333 271.769 57.6215C273.433 56.0097 274.368 53.8237 274.368 51.5443C274.368 49.2649 273.433 47.0789 271.769 45.4671C270.104 43.8553 267.847 42.9498 265.493 42.9498H61.6857Z" fill="#3F3D56"/>
<path d="M114.281 111.706H74.8345C72.1319 111.706 69.5399 110.666 67.6289 108.815C65.7178 106.965 64.6442 104.455 64.6442 101.838C64.6442 99.2208 65.7178 96.7109 67.6289 94.8604C69.5399 93.0098 72.1319 91.9702 74.8345 91.9702H114.281C116.984 91.9702 119.576 93.0098 121.487 94.8604C123.398 96.7109 124.471 99.2208 124.471 101.838C124.471 104.455 123.398 106.965 121.487 108.815C119.576 110.666 116.984 111.706 114.281 111.706ZM74.8345 93.2434C72.4806 93.2434 70.2231 94.1489 68.5586 95.7607C66.8941 97.3725 65.959 99.5585 65.959 101.838C65.959 104.117 66.8941 106.303 68.5586 107.915C70.2231 109.527 72.4806 110.432 74.8345 110.432H114.281C116.635 110.432 118.892 109.527 120.557 107.915C122.221 106.303 123.157 104.117 123.157 101.838C123.157 99.5585 122.221 97.3725 120.557 95.7607C118.892 94.1489 116.635 93.2434 114.281 93.2434H74.8345Z" fill="#3F3D56"/>
<path d="M114.281 144.81H74.8345C72.1319 144.81 69.5399 143.771 67.6289 141.92C65.7178 140.07 64.6442 137.56 64.6442 134.943C64.6442 132.325 65.7178 129.816 67.6289 127.965C69.5399 126.114 72.1319 125.075 74.8345 125.075H114.281C116.984 125.075 119.576 126.114 121.487 127.965C123.398 129.816 124.471 132.325 124.471 134.943C124.471 137.56 123.398 140.07 121.487 141.92C119.576 143.771 116.984 144.81 114.281 144.81ZM74.8345 126.348C72.4806 126.348 70.2231 127.254 68.5586 128.865C66.8941 130.477 65.959 132.663 65.959 134.943C65.959 137.222 66.8941 139.408 68.5586 141.02C70.2231 142.632 72.4806 143.537 74.8345 143.537H114.281C116.635 143.537 118.892 142.632 120.557 141.02C122.221 139.408 123.157 137.222 123.157 134.943C123.157 132.663 122.221 130.477 120.557 128.865C118.892 127.254 116.635 126.348 114.281 126.348H74.8345Z" fill="#3F3D56"/>
<path d="M114.281 177.915H74.8345C72.1319 177.915 69.5399 176.875 67.6289 175.025C65.7178 173.174 64.6442 170.664 64.6442 168.047C64.6442 165.43 65.7178 162.92 67.6289 161.07C69.5399 159.219 72.1319 158.179 74.8345 158.179H114.281C116.984 158.179 119.576 159.219 121.487 161.07C123.398 162.92 124.471 165.43 124.471 168.047C124.471 170.664 123.398 173.174 121.487 175.025C119.576 176.875 116.984 177.915 114.281 177.915ZM74.8345 159.453C72.4806 159.453 70.2231 160.358 68.5586 161.97C66.8941 163.582 65.959 165.768 65.959 168.047C65.959 170.327 66.8941 172.513 68.5586 174.124C70.2231 175.736 72.4806 176.642 74.8345 176.642H114.281C116.635 176.642 118.892 175.736 120.557 174.124C122.221 172.513 123.157 170.327 123.157 168.047C123.157 165.768 122.221 163.582 120.557 161.97C118.892 160.358 116.635 159.453 114.281 159.453H74.8345Z" fill="#3F3D56"/>
<path d="M120.198 56.0007H64.9729C63.7523 56.0007 62.5817 55.5312 61.7187 54.6955C60.8556 53.8597 60.3708 52.7262 60.3708 51.5443C60.3708 50.3624 60.8556 49.2289 61.7187 48.3932C62.5817 47.5574 63.7523 47.0879 64.9729 47.0879H120.198C121.419 47.0879 122.589 47.5574 123.452 48.3932C124.315 49.2289 124.8 50.3624 124.8 51.5443C124.8 52.7262 124.315 53.8597 123.452 54.6955C122.589 55.5312 121.419 56.0007 120.198 56.0007Z" fill="#6C63FF"/>
<path d="M258.589 53.7725C257.679 53.7725 256.79 53.5112 256.033 53.0215C255.276 52.5318 254.686 51.8358 254.338 51.0215C253.989 50.2072 253.898 49.3112 254.076 48.4467C254.253 47.5823 254.692 46.7882 255.335 46.165C255.979 45.5417 256.799 45.1173 257.692 44.9454C258.584 44.7734 259.51 44.8617 260.351 45.199C261.192 45.5363 261.91 46.1074 262.416 46.8403C262.922 47.5731 263.192 48.4347 263.192 49.3161C263.19 50.4976 262.705 51.6304 261.842 52.4658C260.979 53.3013 259.81 53.7712 258.589 53.7725ZM258.589 46.133C257.939 46.133 257.304 46.3197 256.763 46.6694C256.223 47.0192 255.801 47.5163 255.553 48.098C255.304 48.6796 255.239 49.3197 255.365 49.9371C255.492 50.5546 255.805 51.1218 256.265 51.567C256.725 52.0121 257.311 52.3153 257.948 52.4381C258.586 52.5609 259.247 52.4979 259.847 52.257C260.448 52.0161 260.961 51.6081 261.323 51.0846C261.684 50.5611 261.877 49.9457 261.877 49.3161C261.876 48.4722 261.529 47.6631 260.913 47.0664C260.297 46.4696 259.461 46.134 258.589 46.133Z" fill="#3F3D56"/>
<path d="M265.709 57.8039C265.622 57.804 265.537 57.7876 265.457 57.7556C265.377 57.7236 265.305 57.6766 265.244 57.6174L260.625 53.1442C260.564 53.0851 260.515 53.0149 260.482 52.9377C260.449 52.8605 260.432 52.7777 260.432 52.6941C260.432 52.6105 260.449 52.5277 260.482 52.4505C260.515 52.3733 260.564 52.3031 260.625 52.244C260.686 52.1849 260.758 52.138 260.838 52.106C260.918 52.074 261.003 52.0576 261.089 52.0576C261.176 52.0576 261.261 52.074 261.341 52.106C261.421 52.138 261.493 52.1849 261.554 52.244L266.174 56.7172C266.266 56.8062 266.328 56.9196 266.353 57.0431C266.379 57.1666 266.366 57.2946 266.316 57.4109C266.266 57.5272 266.182 57.6266 266.074 57.6966C265.966 57.7665 265.839 57.8039 265.709 57.8039L265.709 57.8039Z" fill="#3F3D56"/>
<path d="M255.96 107.886H233.607C231.95 107.886 230.362 107.249 229.19 106.114C228.019 104.98 227.361 103.442 227.361 101.838C227.361 100.234 228.019 98.6956 229.19 97.5613C230.362 96.4271 231.95 95.7899 233.607 95.7899H255.96C257.616 95.7899 259.205 96.4271 260.376 97.5613C261.547 98.6956 262.205 100.234 262.205 101.838C262.205 103.442 261.547 104.98 260.376 106.114C259.205 107.249 257.616 107.886 255.96 107.886Z" fill="#6C63FF"/>
<path d="M255.96 140.99H233.607C231.95 140.99 230.362 140.353 229.19 139.219C228.019 138.085 227.361 136.547 227.361 134.943C227.361 133.339 228.019 131.8 229.19 130.666C230.362 129.532 231.95 128.895 233.607 128.895H255.96C257.616 128.895 259.205 129.532 260.376 130.666C261.547 131.8 262.205 133.339 262.205 134.943C262.205 136.547 261.547 138.085 260.376 139.219C259.205 140.353 257.616 140.99 255.96 140.99Z" fill="#6C63FF"/>
<path d="M255.96 174.095H233.607C231.95 174.095 230.362 173.458 229.19 172.324C228.019 171.19 227.361 169.651 227.361 168.047C227.361 166.443 228.019 164.905 229.19 163.771C230.362 162.636 231.95 161.999 233.607 161.999H255.96C257.616 161.999 259.205 162.636 260.376 163.771C261.547 164.905 262.205 166.443 262.205 168.047C262.205 169.651 261.547 171.19 260.376 172.324C259.205 173.458 257.616 174.095 255.96 174.095Z" fill="#6C63FF"/>
</svg>
