<svg width="776" height="648" viewBox="0 0 776 648" fill="none" xmlns="http://www.w3.org/2000/svg">
<g clip-path="url(#clip0)">
<path opacity="0.3" d="M487.559 40.9023H422.975V64.9102H487.559V40.9023Z" fill="#F9A826"/>
<path opacity="0.3" d="M594.902 0H530.318V24.0079H594.902V0Z" fill="#F9A826"/>
<path opacity="0.3" d="M599.356 74.2466H534.772V98.2545H599.356V74.2466Z" fill="#F9A826"/>
<path opacity="0.3" d="M392.687 101.811H328.103V125.819H392.687V101.811Z" fill="#F9A826"/>
<path opacity="0.3" d="M372.199 200.51H307.615V224.518H372.199V200.51Z" fill="#F9A826"/>
<path opacity="0.3" d="M469.743 198.287H405.159V222.295H469.743V198.287Z" fill="#F9A826"/>
<path d="M530.318 11.8525L487.559 52.3502L534.772 86.2507" stroke="#3F3D56" stroke-miterlimit="10"/>
<path d="M422.975 52.3506L360.395 101.811" stroke="#3F3D56" stroke-miterlimit="10"/>
<path d="M339.907 200.492L360.395 125.819L437.451 198.287" stroke="#3F3D56" stroke-miterlimit="10"/>
<path opacity="0.3" d="M51.9446 65.635H-12.6395V89.6429H51.9446V65.635Z" fill="#F9A826"/>
<path opacity="0.3" d="M159.288 24.7326H94.7036V48.7405H159.288V24.7326Z" fill="#F9A826"/>
<path opacity="0.3" d="M163.742 98.9793H99.1577V122.987H163.742V98.9793Z" fill="#F9A826"/>
<path opacity="0.3" d="M34.1283 223.02H-30.4558V247.028H34.1283V223.02Z" fill="#F9A826"/>
<path d="M94.7037 36.5852L51.9448 77.0829L99.1574 110.983" stroke="#3F3D56" stroke-miterlimit="10"/>
<path d="M-95.7078 225.224L-75.2195 150.552L1.83631 223.02" stroke="#3F3D56" stroke-miterlimit="10"/>
<path d="M163.742 110.983H236.984" stroke="#3F3D56" stroke-miterlimit="10"/>
<path d="M280.039 98.6961H204.106V122.631H280.039V98.6961Z" fill="#F9A826"/>
<path d="M280.137 110.663H328.103" stroke="#3F3D56" stroke-miterlimit="10"/>
<path d="M203.742 110.663L159.288 36.5855" stroke="#3F3D56" stroke-miterlimit="10"/>
<path d="M424.311 648C618.544 648 776 612.994 776 569.813C776 526.631 618.544 491.626 424.311 491.626C230.079 491.626 72.6224 526.631 72.6224 569.813C72.6224 612.994 230.079 648 424.311 648Z" fill="#F2F2F2"/>
<path d="M587.354 312.438L553.06 483.947H545.636L544.819 482.681L542.454 479.007L572.152 318.789L576.66 316.905L587.354 312.438Z" fill="#47465A"/>
<path opacity="0.1" d="M576.66 316.905L544.819 482.681L542.454 479.007L572.152 318.789L576.66 316.905Z" fill="black"/>
<path d="M638.973 546.058L630.156 548.895L628.013 549.587L625.184 543.235L576.66 322.29L581.705 321.161L592.304 318.789L638.973 546.058Z" fill="#47465A"/>
<path opacity="0.1" d="M630.156 548.895L628.013 549.587L625.184 543.235L576.66 322.29L581.705 321.161L630.156 548.895Z" fill="black"/>
<path d="M218.602 312.438L210.824 534.765L201.91 536.741L201.278 536.883L198.803 532.295L203.753 314.554L208.515 313.877L218.602 312.438Z" fill="#47465A"/>
<path opacity="0.1" d="M208.515 313.877L201.91 536.741L201.278 536.883L198.803 532.295L203.753 314.554L208.515 313.877Z" fill="black"/>
<path d="M264.917 613.463L255.696 615.05L254.664 615.227L251.836 609.228L206.935 318.789L208.229 318.398L215.067 316.319L264.917 613.463Z" fill="#47465A"/>
<path opacity="0.1" d="M255.696 615.05L254.664 615.227L251.836 609.228L206.935 318.789L208.229 318.398L255.696 615.05Z" fill="black"/>
<path d="M460.076 294.439L494.407 338.226C495.584 339.727 497.127 340.9 498.889 341.633C500.651 342.367 502.573 342.636 504.469 342.414L645.398 325.939C648.108 325.622 650.607 324.323 652.421 322.289C654.234 320.254 655.236 317.626 655.236 314.902V282.441L460.076 294.439Z" fill="#7A799C"/>
<path d="M575.687 301.498H585.233V315.249C585.233 316.188 584.859 317.089 584.194 317.753C583.529 318.417 582.627 318.79 581.686 318.79H579.234C578.293 318.79 577.391 318.417 576.726 317.753C576.061 317.089 575.687 316.188 575.687 315.249V301.498Z" fill="#47465A"/>
<path d="M206.935 322.319L241.265 366.105C242.442 367.606 243.985 368.779 245.748 369.513C247.51 370.246 249.431 370.515 251.327 370.293L392.257 353.818C394.966 353.501 397.465 352.202 399.279 350.168C401.092 348.133 402.094 345.505 402.094 342.782V310.32L206.935 322.319Z" fill="#7A799C"/>
<path d="M322.546 329.377H332.091V343.128C332.091 344.067 331.718 344.968 331.053 345.632C330.387 346.296 329.485 346.669 328.544 346.669H326.092C325.152 346.669 324.25 346.296 323.584 345.632C322.919 344.968 322.546 344.067 322.546 343.128V329.377H322.546Z" fill="#47465A"/>
<path d="M246.377 344.495L665.573 295.755C666.89 295.602 668.122 295.029 669.087 294.122C670.052 293.214 670.698 292.02 670.93 290.717C671.161 289.413 670.965 288.071 670.371 286.887C669.778 285.704 668.817 284.743 667.633 284.148L592.646 246.505C577.877 239.091 561.293 236.041 544.846 237.715L172.423 275.62C171.091 275.759 169.825 276.269 168.771 277.093C167.717 277.916 166.916 279.02 166.461 280.277C166.005 281.533 165.914 282.893 166.197 284.199C166.479 285.505 167.125 286.706 168.059 287.663L211.428 332.077C215.917 336.673 221.4 340.182 227.458 342.335C233.516 344.487 239.988 345.226 246.377 344.495Z" fill="#47465A"/>
<path d="M711.692 289.15L707.208 286.676C707.208 286.676 702.367 290.232 698.424 305.217C694.48 320.201 705.794 305.379 705.794 305.379L710.743 295.145L711.692 289.15Z" fill="#47465A"/>
<path d="M663.721 426.425C663.721 426.425 659.125 447.952 657.004 453.951C655.964 456.887 650.944 459.573 645.379 461.627C640.445 463.461 635.337 464.792 630.134 465.597C624.124 466.303 547.05 454.304 509.573 446.187C484.326 440.721 481.063 434.45 481.622 430.942C481.802 429.897 482.303 428.935 483.057 428.189C483.057 428.189 520.18 403.133 533.261 391.135C546.343 379.136 572.152 388.664 600.436 393.605C628.72 398.545 663.721 426.425 663.721 426.425Z" fill="#47465A"/>
<path d="M707.208 286.676C707.208 286.676 724.532 297.969 666.196 321.26C666.196 321.26 634.489 339.105 638.616 412.614C638.812 415.919 639.82 419.126 641.552 421.95C647.571 431.831 660.469 456.845 638.973 459.95V465.597C638.973 465.597 677.863 446.187 682.106 429.601C686.348 413.014 700.49 320.907 707.561 312.437C714.632 303.968 719.229 290.558 707.208 286.676Z" fill="#47465A"/>
<path opacity="0.1" d="M645.379 461.627C640.445 463.461 635.337 464.792 630.134 465.597C624.124 466.303 547.05 454.304 509.573 446.187C484.326 440.721 481.063 434.45 481.622 430.942C498.217 436.606 552.106 454.583 571.445 456.068C594.425 457.833 638.329 462.738 641.656 459.403C642.936 458.119 644.248 459.474 645.379 461.627Z" fill="black"/>
<path d="M443.46 608.522L477.047 455.363C477.047 455.363 483.057 439.129 496.846 439.835L509.573 446.187C509.573 446.187 488.36 441.247 483.764 457.48C479.168 473.714 449.823 608.522 449.823 608.522H443.46Z" fill="#47465A"/>
<path d="M524.069 538.647L537.504 445.128H543.515L529.726 538.647H524.069Z" fill="#47465A"/>
<path d="M652.761 630.049L640.033 483.948C640.033 483.948 640.033 471.596 646.397 465.597C652.761 459.597 673.305 442.484 673.305 442.484C673.305 442.484 678.57 441.247 682.813 453.245C687.055 465.244 716.4 585.23 716.4 585.23L710.743 587.701L674.328 449.363L649.226 473.008C649.226 473.008 644.276 481.83 646.751 489.947C649.226 498.064 658.418 630.049 658.418 630.049H652.761Z" fill="#47465A"/>
<path d="M613.517 462.068L645.336 471.243L652.408 464.538L634.023 462.068H613.517Z" fill="#47465A"/>
<path d="M330.644 204.486L335.804 281.735L448.586 270.795L444.098 195.281C444.038 194.27 443.776 193.281 443.327 192.372C442.878 191.463 442.252 190.654 441.484 189.99C440.717 189.327 439.825 188.823 438.86 188.51C437.895 188.196 436.876 188.078 435.865 188.163L337.599 196.413C335.61 196.58 333.768 197.52 332.467 199.03C331.166 200.54 330.512 202.499 330.644 204.486Z" fill="#7A799C"/>
<path d="M486.416 293.028L373.987 305.27L369.744 305.732L336.865 284.559V279.97L448.586 269.927L486.416 293.028Z" fill="#7A799C"/>
<path opacity="0.1" d="M373.987 305.27L369.744 305.732L336.865 284.559V280.451L373.987 305.27Z" fill="black"/>
<path d="M338.279 203.743L342.168 272.559L441.162 263.384L437.626 196.332L338.279 203.743Z" fill="#9493B6"/>
<path opacity="0.1" d="M397.322 291.616L409.342 299.733L445.758 296.204L433.383 288.44L397.322 291.616Z" fill="black"/>
<path d="M348.178 281.735L363.38 293.028L460.607 283.853L443.283 272.559L348.178 281.735Z" fill="#9493B6"/>
<path d="M592.481 177.453H520.71V249.092H592.481V177.453Z" fill="#FF6584"/>
<path opacity="0.1" d="M592.481 177.453H520.71V249.092H592.481V177.453Z" fill="black"/>
<path d="M545.427 210.605C545.427 210.605 555.552 237.976 545.427 243.029C535.303 248.082 581.707 243.029 581.707 243.029L594.784 232.502C594.784 232.502 565.254 224.08 569.473 204.71C573.691 185.341 545.427 210.605 545.427 210.605Z" fill="#FBBEBE"/>
<path opacity="0.1" d="M545.427 210.605C545.427 210.605 555.552 237.976 545.427 243.029C535.303 248.082 581.707 243.029 581.707 243.029L594.784 232.502C594.784 232.502 565.254 224.08 569.473 204.71C573.691 185.341 545.427 210.605 545.427 210.605Z" fill="black"/>
<path d="M462.322 485.15C462.322 485.15 500.289 538.627 493.961 553.365C487.633 568.103 491.008 577.366 478.352 582.419C465.697 587.472 462.322 596.736 473.29 596.315C484.258 595.894 498.601 592.946 500.711 589.157C502.82 585.367 507.882 567.26 515.054 564.734C522.225 562.207 535.725 552.522 526.022 540.732C516.319 528.942 491.872 485.514 493.76 481.121C495.648 476.728 462.322 485.15 462.322 485.15Z" fill="#FBBEBE"/>
<path d="M541.631 379.459C541.631 379.459 463.166 384.512 442.917 403.46C422.668 422.409 460.635 493.15 464.853 493.992C469.072 494.835 501.976 491.466 500.711 482.202C499.445 472.938 477.087 435.041 477.087 435.041C477.087 435.041 506.195 424.514 522.225 421.988C538.256 419.461 555.974 407.671 555.974 407.671L541.631 379.459Z" fill="#9493B6"/>
<path d="M505.773 367.668C505.773 367.668 507.039 414.408 518.851 416.093C530.662 417.777 518.851 380.301 518.851 380.301L518.429 365.984L505.773 367.668Z" fill="#FBBEBE"/>
<path d="M541.63 245.134C541.63 245.134 519.694 238.818 515.476 255.661C511.257 272.504 509.992 330.613 509.992 330.613L502.398 376.932C502.398 376.932 516.319 372.721 519.272 374.827L536.99 352.509L541.63 245.134Z" fill="#F9A826"/>
<path opacity="0.1" d="M541.63 245.134C541.63 245.134 519.694 238.818 515.476 255.661C511.257 272.504 509.992 330.613 509.992 330.613L502.398 376.932C502.398 376.932 516.319 372.721 519.272 374.827L536.99 352.509L541.63 245.134Z" fill="black"/>
<path d="M571.604 494.117C571.604 494.117 586.347 523.047 595.206 522.626C604.065 522.205 612.502 516.731 616.721 533.995C620.939 551.259 615.877 546.627 620.939 556.733C626.001 566.839 626.845 584.525 617.142 588.735C607.44 592.946 598.581 593.367 598.159 588.735C597.737 584.104 606.596 584.103 596.472 567.681C586.347 551.259 564.833 521.363 555.974 518.415C547.115 515.467 571.604 494.117 571.604 494.117Z" fill="#FBBEBE"/>
<path d="M609.971 362.194C609.971 362.194 640.344 412.724 620.517 427.462C600.69 442.2 541.631 470.412 541.631 470.412C541.631 470.412 573.27 491.887 574.957 499.045C576.644 506.204 559.77 525.574 553.864 525.995C547.958 526.416 530.662 506.625 512.101 501.572C493.539 496.519 482.149 460.306 502.398 446.831C522.647 433.357 541.631 411.04 541.631 411.04L535.728 378.621L609.971 362.194Z" fill="#9493B6"/>
<path d="M583.642 193.686C583.642 211.593 565.265 226.396 547.326 226.396C538.711 226.396 530.449 222.98 524.357 216.899C518.265 210.819 514.843 202.572 514.843 193.973C514.843 185.374 518.265 177.127 524.357 171.046C530.449 164.966 538.711 161.55 547.326 161.55C565.265 161.55 583.642 175.779 583.642 193.686Z" fill="#FBBEBE"/>
<path d="M555.552 240.502C555.552 240.502 584.66 227.87 584.66 226.185C584.66 224.501 601.534 229.975 605.331 233.344C609.127 236.712 611.237 236.291 613.768 243.029C616.299 249.766 601.112 312.507 601.112 312.507C601.112 312.507 609.549 360.931 614.19 365.563C618.83 370.195 576.645 376.932 576.645 376.932C576.645 376.932 548.802 381.985 544.162 384.09C539.521 386.196 531.084 389.143 532.772 384.09C534.459 379.038 541.631 375.248 529.397 368.932C529.397 368.932 533.615 348.299 529.397 339.035C525.178 329.771 505.773 296.085 521.382 271.662C536.99 247.239 544.162 238.397 544.162 238.397C544.162 238.397 549.646 243.029 555.552 240.502Z" fill="#F9A826"/>
<path d="M564.833 355.457C564.833 355.457 531.928 370.024 522.014 371.373C512.101 372.721 482.149 380.301 498.602 387.038C515.054 393.775 539.943 383.669 539.943 383.669L574.957 368.932L564.833 355.457Z" fill="#FBBEBE"/>
<path opacity="0.1" d="M600.259 239.21C600.259 239.21 612.41 233.344 615.784 253.977C619.159 274.61 630.971 339.877 615.784 349.562C600.598 359.247 565.584 374.827 565.584 374.827C565.584 374.827 544.913 360.931 554.616 355.878C564.318 350.825 587.52 336.508 590.895 331.455C594.27 326.402 597.68 270.001 591.774 260.737C585.868 251.474 600.259 239.21 600.259 239.21Z" fill="black"/>
<path d="M599.425 234.186C599.425 234.186 616.299 233.344 619.674 253.977C623.048 274.61 634.86 339.877 619.674 349.562C604.487 359.247 569.473 374.827 569.473 374.827C569.473 374.827 548.802 360.931 558.505 355.878C568.207 350.825 591.409 336.508 594.784 331.455C598.159 326.402 592.253 273.767 586.347 264.504C580.441 255.24 599.425 234.186 599.425 234.186Z" fill="#F9A826"/>
<path d="M539.324 139.392C534.145 140.096 528.591 141.987 525.985 146.509C524.71 148.722 524.297 151.318 523.315 153.675C520.604 160.179 514.021 164.064 509.268 169.271C503.074 176.058 499.998 186.286 503.651 194.711C505.065 197.974 507.363 200.769 509.105 203.87C513.965 212.521 514.225 222.91 514.363 232.828L514.635 252.328C514.676 255.305 514.709 258.343 513.811 261.183C512.913 264.023 510.907 266.682 508.063 267.579C511.201 268.665 514.614 268.673 517.757 267.601C520.901 266.53 523.596 264.44 525.413 261.665C525.802 264.121 525.581 266.634 524.769 268.985C523.958 271.335 522.581 273.451 520.76 275.147C528.494 273.329 534.979 267.715 539.065 260.913C543.151 254.111 545.046 246.199 545.895 238.313C546.344 234.143 546.502 229.83 545.182 225.847C544.252 223.043 542.631 220.528 541.091 218.005C537.122 211.499 533.548 204.58 532.269 197.071C530.99 189.563 532.274 181.324 537.159 175.472C539.034 173.211 541.396 171.402 544.069 170.178C546.742 168.955 549.657 168.349 552.597 168.407C555.537 168.52 558.398 169.385 560.907 170.918C563.416 172.451 565.489 174.601 566.927 177.163C568.056 179.283 569.662 182.157 571.949 181.412C572.372 181.233 572.786 181.03 573.187 180.805C575.737 179.647 578.634 181.932 579.758 184.494C583.305 192.573 576.77 201.393 576.095 210.188C575.467 218.369 580.037 226.086 585.499 232.218C594.934 242.766 607.259 250.324 620.95 253.958C618.945 253.454 617.148 252.34 615.807 250.769C621.374 250.992 626.946 250.525 632.398 249.381C626.462 244.916 620.485 240.413 615.529 234.884C610.574 229.355 606.649 222.665 605.58 215.323C604.146 205.47 607.822 194.8 603.619 185.771C599.776 177.516 590.245 172.903 586.764 164.489C583.229 155.943 580.937 148.519 571.576 144.799C561.36 140.738 550.363 137.893 539.324 139.392Z" fill="#FF6584"/>
</g>
<defs>
<clipPath id="clip0">
<rect width="904" height="648" fill="white" transform="translate(-128)"/>
</clipPath>
</defs>
</svg>
