<svg width="268" height="394" viewBox="0 0 268 394" fill="none" xmlns="http://www.w3.org/2000/svg">
<g opacity="0.4">
<path fill-rule="evenodd" clip-rule="evenodd" d="M146.873 64.5798C141.401 67.6447 136.023 69.1254 133.5 68.521C127.17 67.0051 126.589 45.4917 131.486 37.0104C136.382 28.5292 161.558 24.8325 162.827 41.6366C163.267 47.4688 160.632 52.6736 156.738 56.9206L163.72 87.1593H143.438L146.873 64.5798Z" fill="#B28B67"/>
<path fill-rule="evenodd" clip-rule="evenodd" d="M143.046 27.2356C145.719 26.8282 152.916 26.5482 154.244 26.5483C155.092 26.5483 156.011 26.7284 156.514 26.0047C156.925 25.4121 156.774 24.4099 156.897 23.7222C157.04 22.9233 157.242 22.1347 157.447 21.3481C158.03 19.1098 158.912 16.9804 160.145 14.981C162.458 11.2301 165.849 8.292 170.128 6.58232C174.855 4.69456 180.203 4.2623 185.287 4.64521C190.727 5.05487 195.651 6.72351 200.787 8.2938C205.682 9.79019 210.809 10.3792 215.928 9.64846C221.086 8.91224 224.983 6.31476 229.334 3.8494C233.788 1.32546 238.877 -0.325288 244.143 0.0541789C249.057 0.408517 253.587 2.2941 257.651 4.81298C261.454 7.16969 264.591 10.0051 266.363 13.9958C268.268 18.2885 268.267 23.0005 265.133 26.7943C260.591 32.2933 252.159 33.7154 245.144 33.574C241.086 33.4925 237.101 32.8043 233.27 31.5523C228.161 29.8826 223.746 27.0526 218.966 24.7564C216.723 23.6789 214.404 22.794 211.974 22.1565C209.616 21.5377 207.293 21.2539 205.158 22.5777C202.899 23.978 200.875 25.3536 198.291 26.2302C195.812 27.0712 193.186 27.5416 190.545 27.5226C185.406 27.4857 180.34 25.9981 175.349 25.0015C171.28 24.1892 166.925 23.3794 162.776 24.1604C161.045 24.4864 158.515 25.1592 157.89 26.8311C168.415 28.6035 172.549 40.6981 169.582 49.5766C167.98 54.3686 158.354 59.9705 154.611 57.4512C152.24 55.8553 153.68 53.7599 154.611 52.3767C156.395 49.7279 157.006 46.3254 153.704 44.4811C150.856 42.8906 147.862 46.6677 147.805 46.6635C147.023 46.6062 140.26 43.0524 135.601 37.8665C131.004 38.1197 130.306 35.3035 131.404 33.0003C132.502 30.6972 139.353 27.7987 143.046 27.2356Z" fill="#191847"/>
<path fill-rule="evenodd" clip-rule="evenodd" d="M180.078 152.333C178.554 171.657 80.3884 228.548 79.8163 230.145C79.4343 231.209 110.371 297.424 110.371 297.424L101.79 300.522C101.79 300.522 54.3377 230.396 56.7749 222.924C60.2652 212.226 132.94 152.538 132.94 152.538L180.078 152.333Z" fill="#B28B67"/>
<path fill-rule="evenodd" clip-rule="evenodd" d="M108.113 287.455L94.1026 292.194C64.5608 261.222 52.9814 235.669 55.0925 222.648C57.2035 209.629 130.995 152.38 130.995 152.38H181.083C179.374 197.131 88.3864 230.315 87.1695 232.222C85.9526 234.13 97.9292 252.807 108.113 287.455Z" fill="#2F3676"/>
<path fill-rule="evenodd" clip-rule="evenodd" d="M111.004 295.821C111.719 295.185 112.869 295.195 113.503 295.9C114.662 297.187 116.308 299.145 116.798 300.397C117.58 302.393 118.364 306.465 118.364 306.465C115.873 307.307 73.5746 321.612 73.5746 321.612C73.5746 321.612 69.7277 316.839 73.3219 315.14C76.916 313.44 79.2688 312.253 79.2688 312.253L96.7089 296.59C97.0511 296.283 97.5996 296.299 97.9207 296.625L100.44 299.189C100.44 299.189 104.514 299.521 106.691 298.785C108.016 298.336 109.806 296.887 111.004 295.821Z" fill="#E4E4E4"/>
<path fill-rule="evenodd" clip-rule="evenodd" d="M168.79 152.333L212.52 249.878L255.5 332.344H245.36L134.417 152.333H168.79Z" fill="#997659"/>
<path fill-rule="evenodd" clip-rule="evenodd" d="M253.765 327.66C254.67 327.29 255.747 327.664 256.084 328.529C256.699 330.105 257.525 332.469 257.525 333.802C257.525 335.926 256.763 340 256.763 340C254.111 340 209.099 340 209.099 340C209.099 340 207.241 334.293 211.244 333.838C215.247 333.383 217.894 333.016 217.894 333.016L240.048 323.84C240.483 323.659 240.992 323.848 241.174 324.257L242.598 327.467C242.598 327.467 246.304 329.074 248.62 329.074C250.031 329.074 252.247 328.28 253.765 327.66Z" fill="#E4E4E4"/>
<path fill-rule="evenodd" clip-rule="evenodd" d="M251.619 315.213L229.087 319.139C211.666 295.341 138.755 197.759 130.762 152.333H180.923C207.618 185.171 235.013 291.021 251.619 315.213Z" fill="#5C63AB"/>
<path fill-rule="evenodd" clip-rule="evenodd" d="M62.111 118.336L92.7328 130.831L82.9551 142.469L60.0219 126.132C48.5667 124.177 43.2536 122.497 44.0844 121.093C44.7841 119.91 46.0864 119.843 47.2856 119.781C48.2202 119.733 49.0924 119.689 49.569 119.122C50.6566 117.827 47.9718 113.826 45.2489 110.131C42.526 106.436 45.0782 106.569 46.5715 107.011C51.5676 109.595 56.7472 113.369 62.111 118.336ZM199.214 137.465L216.531 134.272C228.276 163.035 235.278 178.796 237.537 181.557C239.193 183.581 249.41 188.796 256.325 191.581C259.101 192.698 258.505 194.878 257.691 195.575C252.556 199.973 247.782 198.432 242.585 196.754C241.081 196.268 239.541 195.771 237.947 195.403C233.82 194.451 232.564 196.423 231.378 198.286C230.327 199.936 229.33 201.5 226.443 200.876C226.575 200.349 226.736 199.76 226.91 199.123C228.036 195.008 229.695 188.939 227.233 185.414C225.969 183.605 216.629 167.621 199.214 137.465Z" fill="#B28B67"/>
<path fill-rule="evenodd" clip-rule="evenodd" d="M152.147 74.0713L144.839 72.9067C128.923 87.2528 122.427 121.718 111.82 126.281C101.791 130.595 87.5742 126.42 70.6758 120.784L65.5013 131.528C80.8549 146.962 113.565 160.002 126.823 152.558C148.022 140.656 152.915 98.1477 152.147 74.0713Z" fill="#DB2721"/>
<path fill-rule="evenodd" clip-rule="evenodd" d="M184.002 159.4C184.002 159.4 140.051 159.4 119.344 159.4C116.389 159.4 116.945 155.436 117.373 153.435C122.302 130.35 141.544 105.464 141.544 72.6019L160.195 69.8845C175.622 92.937 180.956 121.32 184.002 159.4Z" fill="#DDE3E9"/>
<path fill-rule="evenodd" clip-rule="evenodd" d="M161.185 69.8845H161.398C203.231 93.8369 228.512 130.968 237.243 181.275L223.69 183.741C214.712 174.023 203.632 158.118 190.451 136.026C194.495 149.334 197.448 162.982 198.369 175.889H140.166C128.898 149.431 154.013 69.8845 154.013 69.8845H158.032H161.185Z" fill="#FF4133"/>
</g>
<path fill-rule="evenodd" clip-rule="evenodd" d="M116.002 196.194C110.816 199.381 105.722 200.921 103.331 200.292C97.3336 198.716 96.7827 176.343 101.423 167.524C106.062 158.704 129.915 154.859 131.117 172.334C131.534 178.399 129.038 183.812 125.348 188.229L131.963 219.675H112.747L116.002 196.194Z" fill="#B28B67"/>
<path fill-rule="evenodd" clip-rule="evenodd" d="M139.496 166.517C140.116 165.89 140.455 164.995 140.747 164.145C141.051 163.261 141.347 162.369 141.549 161.45C141.952 159.613 141.956 157.501 140.672 156.075C139.641 154.931 138.095 154.418 136.668 154.307C135.718 154.233 134.741 154.368 133.83 154.674C132.926 154.977 132.147 155.581 131.27 155.956C131.237 153.977 130.904 151.906 129.919 150.216C128.972 148.59 127.462 147.677 125.741 147.436C123.976 147.188 122.232 147.609 120.651 148.481C120.256 148.7 119.864 148.928 119.488 149.187C119.174 149.404 118.848 149.665 118.479 149.753C118.068 149.852 117.864 149.609 117.598 149.304C117.284 148.945 116.931 148.629 116.558 148.35C114.907 147.112 112.741 146.603 110.829 147.345C109.948 147.687 109.09 148.267 108.493 149.067C107.96 149.78 107.579 150.911 106.844 151.407C106.532 151.618 106.312 151.339 106.028 151.132C105.601 150.822 105.193 150.48 104.762 150.178C104.155 149.754 103.498 149.437 102.795 149.271C101.764 149.028 100.341 149.085 100.047 150.461C99.9361 150.977 100.021 151.53 100.056 152.051C100.105 152.766 100.156 153.481 100.217 154.194C100.264 154.736 100.322 155.26 100.422 155.792C100.476 156.076 100.643 156.605 100.524 156.889C100.375 157.244 99.687 157.042 99.3924 157.055C98.8119 157.079 98.229 157.183 97.6917 157.436C97.2762 157.632 96.8382 157.921 96.6628 158.407C96.5547 158.706 96.5836 159.013 96.634 159.32C96.6957 159.689 96.6252 159.885 96.5796 160.257C95.7997 159.865 93.0974 158.995 92.7579 160.42C92.6442 160.895 92.902 161.431 93.099 161.831C93.4441 162.533 93.8965 163.175 94.3585 163.787C95.3233 165.064 96.4747 166.165 97.7133 167.106C96.2617 167.764 95.883 169.705 97.1393 170.862C97.6941 171.373 98.4404 171.486 99.1402 171.454C99.3964 171.442 99.7655 171.341 99.9673 171.387C100.076 171.411 100.192 171.505 100.342 171.515C101.33 171.584 102.445 171.342 103.411 171.118C105.131 170.72 106.76 169.889 108.09 168.622C108.431 168.298 108.713 168.111 109.173 168.116C109.575 168.12 109.97 168.232 110.372 168.243C111.436 168.27 112.395 167.74 113.383 167.387C113.444 168.748 113.824 170.247 114.369 171.471C114.814 172.47 115.744 172.615 116.658 172.703C119.579 172.983 122.511 172.67 125.436 172.674C122.604 173.327 119.679 173.596 116.872 174.364C115.604 174.711 116.573 175.583 117.115 176.188C118.008 177.183 118.672 178.416 119.133 179.715C120.518 177.874 122.966 176.661 125.135 177.226C127.532 177.851 129.22 181.157 127.687 183.533C126.797 184.912 125.191 185.445 123.853 186.038C124.896 187.143 125.149 188.777 125.777 190.153C126.086 190.831 126.521 191.598 127.213 191.835C127.469 191.922 127.77 191.93 127.971 192.142C128.222 192.406 128.281 192.701 128.602 192.928C129.877 193.832 131.87 193.762 133.001 192.582C134.023 191.514 133.757 189.825 132.903 188.743C134.262 188.165 136.739 187.422 136.198 185.262C139.144 185.063 146.296 180.19 142.343 176.63C144.513 175.38 146.506 172.323 145.113 169.629C144.039 167.555 141.543 166.627 139.496 166.517Z" fill="#191847"/>
<path fill-rule="evenodd" clip-rule="evenodd" d="M166.695 321.746H104.839L96.7334 423H188.813L166.695 321.746Z" fill="#C5CFD6"/>
<path fill-rule="evenodd" clip-rule="evenodd" d="M166.695 321.746H147.671L136.284 423H188.813L166.695 321.746Z" fill="black" fill-opacity="0.1"/>
<path fill-rule="evenodd" clip-rule="evenodd" d="M70.8525 341.806C77.8036 356.84 88.6649 393.336 88.6649 393.336L79.4442 397.633C79.4442 397.633 56.0471 359.269 41.7482 333.044C42.4145 338.947 43.0929 345.594 43.7218 352.582C45.2117 369.133 43.7226 404.894 42.9212 415.224C42.4174 421.716 33.7674 420.356 32.96 415.208C32.8233 414.335 32.2658 411.273 31.4342 406.705C27.3562 384.305 16.6835 325.68 16.6646 311.325C16.6569 305.549 27.722 300.36 34.3171 304.398C38.8472 299.469 47.4209 296.628 52.3465 304.771C55.4777 309.948 62.9178 324.644 70.8525 341.806Z" fill="#B28B67"/>
<path fill-rule="evenodd" clip-rule="evenodd" d="M88.0058 379.824L56.3566 303.362C48.7747 290.924 27.5168 305.894 30.1024 313.108C35.9725 329.486 65.827 382.51 67.5758 387.39L88.0058 379.824Z" fill="#1F28CF"/>
<path fill-rule="evenodd" clip-rule="evenodd" d="M87.3941 388.855C87.949 388.084 89.0227 387.901 89.7402 388.517C91.0493 389.64 92.9317 391.369 93.6115 392.57C94.694 394.482 96.1465 398.52 96.1465 398.52C93.971 399.801 57.0367 421.548 57.0367 421.548C57.0367 421.548 52.6024 417.306 55.6549 414.963C58.7075 412.618 60.693 411.009 60.693 411.009L74.1922 392.041C74.4572 391.669 74.9713 391.593 75.3287 391.874L78.1336 394.076C78.1336 394.076 81.9935 393.733 83.8943 392.614C85.0513 391.932 86.4653 390.148 87.3941 388.855Z" fill="#E4E4E4"/>
<path fill-rule="evenodd" clip-rule="evenodd" d="M14.4458 317.2C14.4458 338.893 24.5479 389.496 24.5543 394.273L46.2895 394.29C46.2895 394.29 41.5175 326.562 42.9053 325.832C44.293 325.102 99.7948 331.483 116.441 331.483C140.444 331.483 150.374 316.046 151.18 287.45H103.63C93.9482 288.506 43.448 298.894 24.6933 302.465C16.664 303.994 14.4458 311.224 14.4458 317.2Z" fill="#2B44FF"/>
<path fill-rule="evenodd" clip-rule="evenodd" d="M68.4308 221.055L96.2225 236.577L85.9593 247.812L65.7654 228.955C55.1273 225.965 50.2623 223.778 51.1706 222.393C51.9363 221.226 53.1714 221.266 54.3091 221.304C55.1953 221.333 56.0224 221.36 56.5225 220.813C57.6645 219.563 55.4856 215.192 53.2441 211.134C51.0026 207.077 53.3994 207.43 54.7701 208.014C59.2556 211.11 63.8091 215.457 68.4308 221.055ZM40.4878 242.836L52.6955 249.675L52.0003 262.169C52.0003 262.169 44.0938 256.349 37.2915 254.415C28.6183 251.949 25.1093 250.066 20.871 244.558C18.6033 241.611 16.6787 235.687 18.8372 233.759C19.6651 233.018 22.7502 234.766 25.8979 236.551C28.2969 237.91 30.7323 239.29 32.2327 239.605C34.2526 240.029 34.0161 237.359 33.8272 235.225C33.6915 233.695 33.5804 232.44 34.345 232.802C37.9184 232.865 40.4878 242.836 40.4878 242.836Z" fill="#997659"/>
<path fill-rule="evenodd" clip-rule="evenodd" d="M109.757 233.119C100.022 233.015 87.0416 230.918 73.1909 221.952L67.7515 234.323C77.3054 243.992 90.7392 251.937 102.485 251.601C111.742 251.335 116.473 239.917 109.757 233.119Z" fill="#2026A2"/>
<path fill-rule="evenodd" clip-rule="evenodd" d="M136.011 317.874C145.265 316.644 153.769 315.513 158.808 316.524C164.463 297.798 159.767 286.008 155.433 275.124C152.821 268.563 150.34 262.333 150.334 255.111C150.319 234.08 133.762 201.71 131.325 201.71H130.626H111.319H109.108C108.116 214.724 103.876 228.814 99.6099 242.996C98.6131 246.307 97.6154 249.624 96.657 252.933C80.5111 256.671 44.6595 243.66 44.6595 243.66C44.6595 243.66 35.6088 262.756 36.2917 270.887C57.1595 282.004 75.0451 286.961 89.7807 287.288C89.3123 296.204 90.3764 304.689 93.9515 312.442C98.742 322.829 118.691 320.177 136.011 317.874Z" fill="#1F28CF"/>
</svg>
