<svg width="750" height="707" viewBox="0 0 750 707" fill="none" xmlns="http://www.w3.org/2000/svg">
<g clip-path="url(#clip0)">
<path opacity="0.1" d="M420.149 110.579C379.04 109.115 339.888 95.4852 302.523 80.5855C265.157 65.6858 228.083 49.1541 187.961 41.2146C162.152 36.1334 132.643 35.41 111.848 49.6216C91.8428 63.304 85.3691 86.9194 81.9004 108.832C79.3247 125.32 77.7449 142.672 84.9141 158.101C89.8853 168.819 98.7201 177.826 104.825 188.095C126.083 223.805 111.058 267.842 88.0221 302.714C77.2211 319.069 64.6858 334.675 56.3489 352.115C48.0121 369.555 44.1484 389.475 51.4464 407.241C58.6757 424.885 75.9075 438.064 94.5732 447.371C132.488 466.258 177.16 471.666 220.725 474.718C317.161 481.493 414.104 478.564 510.798 475.6C546.575 474.506 582.516 473.403 617.718 467.722C637.268 464.564 657.453 459.554 671.645 447.433C689.676 432.074 694.123 406.077 682.052 386.819C661.797 354.523 605.818 346.496 591.66 311.835C583.872 292.754 591.874 271.503 603.19 253.816C627.48 215.883 668.185 182.555 670.332 139.135C671.809 109.344 652.233 79.5005 621.976 65.3947C590.26 50.6185 546.275 52.4798 522.878 76.9422C498.786 102.19 456.441 111.876 420.149 110.579Z" fill="#6C63FF"/>
<path opacity="0.05" d="M376.672 101.945C336.798 112.055 295.397 109.938 255.353 106.101C215.31 102.264 175.09 96.779 134.35 100.396C108.151 102.748 79.62 110.319 63.6384 129.787C48.2668 148.525 48.6672 173.008 51.4754 195.016C53.6211 211.565 56.9651 228.665 68.1691 241.468C75.9436 250.365 86.9477 256.536 95.6841 264.684C126.094 293.009 124.006 339.492 111.66 379.421C105.873 398.147 98.2108 416.639 95.093 435.716C91.9751 454.794 93.8457 474.998 105.828 490.009C117.71 504.921 137.944 512.746 158.469 516.452C200.157 523.962 244.556 516.64 287.231 507.368C381.705 486.858 473.946 456.892 565.939 426.962C599.978 415.89 634.17 404.764 666.372 389.45C684.254 380.942 702.228 370.478 712.457 354.867C725.464 335.073 722.451 308.87 705.468 293.765C676.979 268.435 620.991 276.41 597.691 247.103C584.871 230.967 586.6 208.325 592.508 188.176C605.2 144.958 634.94 101.562 624.838 59.2787C617.911 30.267 590.76 7.10153 557.763 2.03564C523.178 -3.26501 481.475 10.8426 465.867 40.8793C449.812 71.8645 411.875 93.0243 376.672 101.945Z" fill="#9563FF"/>
<path opacity="0.1" d="M338.497 707C482.635 707 599.481 690.759 599.481 670.725C599.481 650.692 482.635 634.451 338.497 634.451C194.36 634.451 77.5131 650.692 77.5131 670.725C77.5131 690.759 194.36 707 338.497 707Z" fill="#6C63FF"/>
<path d="M402.908 184.901C402.908 184.901 394.829 168.519 395.919 163.65C397.01 158.78 390.236 148.379 390.236 148.379L390.674 131.124C390.674 131.124 389.738 132.889 384.861 134.433C384.449 133.877 384.002 133.33 383.539 132.809C381.773 130.92 379.809 129.236 377.683 127.79L369.097 108.753L360.795 95.688C360.795 95.688 347.701 68.3409 334.179 62.3069L332.049 58.0284C332.119 57.9859 332.171 57.918 332.195 57.838C332.219 57.758 332.213 57.6718 332.178 57.5962L330.014 53.2471C329.976 53.1719 329.911 53.1141 329.834 53.0848C329.756 53.0554 329.671 53.0567 329.594 53.0883L327.525 48.9245C326.734 43.5286 324.671 38.4132 321.514 34.0248C321.3 33.7161 321.068 33.4338 320.845 33.1427L324.21 33.0192C327.164 32.9045 330.461 32.6398 332.444 30.3727C333.155 29.5276 333.679 28.5345 333.981 27.4615C334.236 26.6207 334.403 25.7542 334.479 24.8768C334.479 24.7445 334.479 24.6121 334.479 24.4886C334.479 24.1887 334.479 23.8947 334.479 23.6065C334.479 23.3683 334.479 23.1389 334.479 22.9008C334.479 22.6626 334.479 22.5214 334.479 22.3362C334.479 22.1509 334.385 21.7275 334.333 21.454C334.333 21.3393 334.333 21.2246 334.264 21.11C334.193 20.7644 334.104 20.4228 333.998 20.0867C333.973 20.0207 333.953 19.9529 333.938 19.8838C333.818 19.5309 333.689 19.178 333.543 18.834C333.52 18.7886 333.5 18.7414 333.483 18.6928C333.329 18.3488 333.157 18.0136 332.977 17.6872L332.925 17.5813C332.862 17.4444 332.79 17.3118 332.71 17.1843C330.384 13.4263 326.297 11.2297 322.407 9.24488C318.778 7.28428 315.053 5.51761 311.246 3.95191C297.092 -1.50198 281.457 -1.2752 267.458 4.58707C266.075 5.12498 264.765 5.84242 263.56 6.7219C261.88 8.18319 260.444 9.91757 259.31 11.8561L252.656 21.9568C251.726 23.1856 250.998 24.5623 250.501 26.0324C249.256 30.8314 253.162 35.6392 252.725 40.5881C252.501 43.0493 251.214 45.3077 250.965 47.7689C250.647 50.9447 252.081 54.0058 253.48 56.8728L263.002 76.2804C262.495 78.8298 261.937 81.441 261.328 83.964C256.94 88.6218 255.463 91.1625 255.06 92.5386L254.931 92.6092C254.062 93.1858 253.315 93.9357 252.733 94.8146L243.684 103.848C243.684 103.848 227.954 108.047 224.683 113.366C224.683 113.366 199.999 112.255 200.214 147.674C200.214 147.674 199.123 160.959 198.496 162.732C197.87 164.505 198.496 182.431 198.496 182.431L198.204 218.741C198.204 218.741 197.26 237.998 198.204 244.862C199.149 251.725 200.239 277.846 200.239 277.846C200.239 277.846 206.138 303.305 203.957 312.382C201.862 321.072 203.957 340.073 207.391 340.153C208.044 341.538 208.791 342.217 209.606 341.829C209.961 341.671 210.326 341.535 210.697 341.423V363.115C210.697 363.115 206.447 393.506 211.212 399.284C208.052 403.907 204.343 411.793 203.399 413.866L170 412.022L165.75 413.249L161.852 414.369L159.491 470.183L160.435 470.254L160.367 471.957L162.599 472.124L159.491 528.336L205.726 532.244C203.691 536.928 201.33 541.947 200.411 542.432C198.694 543.315 194.95 540.668 194.075 541.762C193.199 542.856 190.58 544.197 187.524 543.526C184.467 542.856 182.501 546.402 182.501 546.402C182.501 546.402 182.947 546.808 183.617 547.558C178.654 546.94 172.378 549.675 168.97 551.439C167.441 552.233 166.488 552.824 166.488 552.824H157.473L162.427 585.297L165.922 587.749L166.78 613.332C166.78 613.332 180.758 657.608 187.163 657.316C187.579 657.301 187.987 657.194 188.359 657.002C188.731 656.811 189.058 656.539 189.318 656.205C192.752 652.129 190.374 638.129 190.374 638.129V614.823C190.374 614.823 195.612 612.458 195.028 610.685C194.444 608.912 203.476 589.513 204.283 587.749C204.306 587.734 204.325 587.714 204.337 587.689C204.349 587.664 204.354 587.636 204.352 587.608C204.352 585.614 208.284 583.4 208.061 582.518C207.838 581.636 217.677 576.096 218.364 571.226C219.051 566.357 225.568 569.012 225.568 569.012L233.861 559.22C234.11 571.156 234.583 579.51 235.398 581.627C239.331 591.816 240.859 607.757 240.859 607.757C240.859 607.757 238.455 619.93 240.859 623.918C242.336 626.353 245.77 628.964 248.157 631.125C245.676 638.853 246.028 655.279 246.028 655.279V664.718L264.376 670.011C264.376 670.011 264.951 665.291 265.827 665.291C266.702 665.291 278.353 674.439 278.353 674.439C278.353 674.439 323.206 675.03 334.556 674.439C338.849 674.219 340.017 672.322 339.356 670.028C338.265 666.209 332.144 661.26 326.7 660.88C317.96 660.289 306.893 650.85 306.893 650.85C306.893 650.85 307.751 648.777 303.106 645.831C299.895 643.802 291.009 635.589 285.514 630.781C285.772 630.419 286.038 630.058 286.287 629.669C286.287 629.669 278.86 619.084 280.397 614.39C281.934 609.697 279.736 602.922 279.736 602.922C279.736 602.922 275.589 589.858 275.589 583.215C275.589 579.007 274.971 555.074 274.524 538.101L278.353 538.427L278.431 536.734L280.148 536.893L296.384 538.427L295.886 520.599C303.707 517.07 310.215 513.798 312.911 511.707C322.081 504.65 329.946 504.182 329.946 504.182C329.946 504.182 348.508 494.002 351.35 489.794C354.192 485.586 353.926 455.037 353.926 455.037L352.398 389.563V389.51C352.398 389.51 351.093 357.858 348.465 350.994C347.504 348.454 345.126 339.985 342.524 330.317C344.019 330.158 345.529 330.224 347.006 330.511C347.1 332.875 347.16 334.498 347.16 335.054C347.16 338.812 352.398 342.005 352.398 342.005L348.689 257.318V199.704C360.125 203.444 387.78 204.609 387.78 204.609C407.708 203.532 402.908 184.901 402.908 184.901ZM295.036 112.14H294.976C295.382 109.92 295.912 107.726 296.564 105.568L295.036 112.14ZM219.978 402.61C226.752 403.757 234.574 403.421 235.167 402.072C235.227 401.939 235.304 401.701 235.407 401.392C235.622 401.781 235.828 402.178 236.042 402.583L235.381 415.357V415.648L213.058 414.413C214.621 407.576 217.574 404.242 219.978 402.61ZM294.392 467.061L293.817 446.374C294.812 442.563 295.705 439.105 296.47 436.141C296.813 438.602 297.105 440.869 297.328 442.96C299.44 462.588 296.324 466.417 294.392 467.061ZM357.927 156.91C356.648 157.413 351.78 154.264 347.16 151C347.16 150.4 347.203 149.809 347.229 149.235C347.882 135.729 326.477 127.322 319.926 125.77C318.336 125.348 316.794 124.757 315.324 124.005C311.834 122.229 308.44 120.259 305.158 118.104L305.244 117.848C305.244 117.848 296.796 112.352 296.615 105.498C298.541 99.2631 300.971 93.205 303.879 87.3868C304.042 87.0428 304.223 86.6811 304.394 86.337C308.387 85.0611 312.114 83.0329 315.384 80.356C316.698 97.9992 341.545 113.181 341.545 113.181L344.198 117.592L344.825 118.633C343.486 119.445 342.842 120.097 343.297 120.477C345.186 122.029 349.753 130.816 351.642 134.53C352.157 135.535 352.501 136.162 352.501 136.162C352.501 136.162 356.562 147.515 358.889 157.016C358.579 156.883 358.239 156.846 357.91 156.91H357.927Z" fill="url(#paint0_linear)"/>
<path d="M367.526 111.152L367.234 111.549L366.238 112.917L347.135 126.784L343.082 119.939L340.506 115.528C340.506 115.528 302.428 92.0624 318.801 69.4438C335.175 46.8252 359.369 98.1141 359.369 98.1141L367.526 111.152Z" fill="#FFC5D3"/>
<path d="M329.105 55.8958C329.024 55.7304 328.828 55.6639 328.667 55.7472C328.506 55.8304 328.441 56.032 328.522 56.1974L330.646 60.5308C330.727 60.6961 330.923 60.7626 331.084 60.6794C331.245 60.5961 331.31 60.3945 331.229 60.2292L329.105 55.8958Z" fill="#3A3768"/>
<path d="M307.305 61.9547L307.297 61.9587C307.208 62.0047 307.172 62.1161 307.217 62.2074L307.85 63.4996C307.895 63.591 308.004 63.6278 308.092 63.5817L308.1 63.5778C308.189 63.5317 308.225 63.4204 308.18 63.329L307.547 62.0368C307.502 61.9455 307.394 61.9087 307.305 61.9547Z" fill="#3A3768"/>
<path d="M309.039 65.0142C308.987 64.9098 308.864 64.8678 308.762 64.9204C308.66 64.973 308.619 65.1003 308.67 65.2047L309.872 67.6551C309.923 67.7595 310.047 67.8015 310.148 67.7489C310.25 67.6963 310.291 67.569 310.24 67.4646L309.039 65.0142Z" fill="#3A3768"/>
<path d="M310.89 68.828C310.841 68.7279 310.722 68.6877 310.625 68.7381C310.528 68.7885 310.488 68.9105 310.537 69.0106L311.758 71.5003C311.807 71.6004 311.926 71.6406 312.023 71.5902C312.12 71.5398 312.16 71.4178 312.111 71.3178L310.89 68.828Z" fill="#3A3768"/>
<path d="M322.442 47.3871L306.4 55.6878C305.451 56.1787 305.07 57.3668 305.547 58.3415L323.752 95.4827C324.23 96.4574 325.386 96.8496 326.335 96.3588L342.377 88.058C343.325 87.5672 343.707 86.3791 343.229 85.4044L325.025 48.2632C324.547 47.2885 323.391 46.8962 322.442 47.3871Z" fill="#3A3768"/>
<path d="M320.39 49.7451C320.298 49.7918 320.216 49.857 320.149 49.9367C320.081 50.0164 320.03 50.109 319.998 50.2092C319.966 50.3094 319.954 50.4151 319.962 50.5202C319.971 50.6253 319.999 50.7276 320.046 50.8213L320.115 50.9713C320.162 51.0656 320.191 51.1686 320.199 51.2743C320.208 51.3801 320.195 51.4865 320.163 51.5874C320.132 51.6883 320.08 51.7817 320.013 51.8622C319.946 51.9427 319.864 52.0087 319.771 52.0563L311.512 56.326C311.421 56.3744 311.321 56.4037 311.219 56.4122C311.117 56.4206 311.014 56.4081 310.916 56.3752C310.819 56.3424 310.728 56.2899 310.651 56.2209C310.573 56.1518 310.51 56.0676 310.464 55.9731L310.387 55.8231C310.342 55.7287 310.278 55.6445 310.201 55.5752C310.123 55.5059 310.034 55.453 309.936 55.4194C309.839 55.3858 309.736 55.3722 309.634 55.3794C309.532 55.3867 309.432 55.4145 309.34 55.4615L307.734 56.2995C307.558 56.3885 307.401 56.5126 307.272 56.6646C307.144 56.8166 307.046 56.9934 306.984 57.1848C306.923 57.3761 306.899 57.5782 306.914 57.7791C306.929 57.98 306.983 58.1758 307.073 58.355L324.623 94.1443C324.803 94.5067 325.115 94.7814 325.491 94.9086C325.867 95.0358 326.277 95.0053 326.632 94.8235L341.039 87.3693C341.391 87.1842 341.659 86.8635 341.783 86.4769C341.906 86.0903 341.877 85.6691 341.7 85.305L324.142 49.498C324.053 49.3178 323.931 49.1571 323.782 49.0254C323.634 48.8936 323.461 48.7933 323.274 48.7302C323.088 48.6671 322.891 48.6425 322.695 48.6577C322.499 48.6729 322.308 48.7276 322.133 48.8188L320.39 49.7451Z" fill="#6C63FF"/>
<path d="M315.59 52.4554L313.42 53.5783C313.267 53.6572 313.206 53.8482 313.283 54.0048C313.359 54.1615 313.545 54.2245 313.698 54.1456L315.868 53.0227C316.02 52.9438 316.082 52.7529 316.005 52.5962C315.928 52.4396 315.742 52.3766 315.59 52.4554Z" fill="#E6E8EC"/>
<path d="M316.715 52.5593C316.909 52.5593 317.067 52.3974 317.067 52.1976C317.067 51.9979 316.909 51.8359 316.715 51.8359C316.521 51.8359 316.363 51.9979 316.363 52.1976C316.363 52.3974 316.521 52.5593 316.715 52.5593Z" fill="#E6E8EC"/>
<path d="M332.753 187.018L327.387 334.975C327.387 334.975 345.417 328.799 348.208 333.431C350.998 338.062 345.203 259.329 345.203 259.329L332.753 187.018Z" fill="#5F5570"/>
<path opacity="0.15" d="M332.753 187.018L327.387 334.975C327.387 334.975 345.417 328.799 348.208 333.431C350.998 338.062 345.203 259.329 345.203 259.329L332.753 187.018Z" fill="black"/>
<path d="M333.612 674.704C322.45 675.295 278.379 674.704 278.379 674.704C278.379 674.704 266.926 665.591 266.067 665.591C265.208 665.591 264.642 670.293 264.642 670.293L246.611 665V655.596C246.611 655.596 246.036 628.823 251.471 627.658C256.906 626.494 280.955 627.658 280.955 627.658C281.813 627.367 298.127 643.246 302.703 646.184C307.279 649.121 306.42 651.186 306.42 651.186C306.42 651.186 317.299 660.59 325.885 661.181C331.234 661.551 337.252 666.473 338.325 670.293C338.978 672.596 337.819 674.484 333.612 674.704Z" fill="#BC8487"/>
<path opacity="0.1" d="M333.612 674.704C322.45 675.295 278.379 674.704 278.379 674.704C278.379 674.704 266.926 665.591 266.067 665.591C265.208 665.591 264.642 670.293 264.642 670.293L246.611 665V655.782L263.491 662.063L276.945 670.293H338.325C338.978 672.596 337.819 674.484 333.612 674.704Z" fill="black"/>
<g opacity="0.1">
<path d="M283.496 660.889C283.496 660.889 297.234 647.366 306.421 651.186L283.496 660.889Z" fill="black"/>
<path d="M283.496 660.889C283.496 660.889 297.234 647.366 306.421 651.186" stroke="black" stroke-miterlimit="10"/>
</g>
<path d="M196.522 611.188C197.097 612.953 191.945 615.308 191.945 615.308V638.535C191.945 638.535 194.281 652.482 190.906 656.549C190.653 656.879 190.333 657.149 189.968 657.339C189.604 657.529 189.203 657.636 188.794 657.652C182.501 657.943 168.764 613.835 168.764 613.835L167.905 588.349L164.471 585.906L159.602 553.557H168.48C168.48 553.557 169.416 552.966 170.919 552.172C175.211 549.922 184.201 545.997 189.086 549.737L205.683 588.155C205.683 588.155 195.955 609.424 196.522 611.188Z" fill="#BC8487"/>
<path opacity="0.1" d="M190.906 656.549C190.653 656.879 190.333 657.149 189.968 657.339C189.604 657.529 189.203 657.636 188.794 657.652C182.501 657.943 168.764 613.835 168.764 613.835L167.905 588.349L164.471 585.906L159.602 553.557H168.48C168.48 553.557 169.416 552.966 170.919 552.172L173.056 585.314L174.198 613.835C174.198 613.835 184.982 644.887 190.906 656.549Z" fill="black"/>
<path d="M350.14 490.703C347.349 494.893 329.104 505.038 329.104 505.038C329.104 505.038 321.377 505.479 312.362 512.536C307.7 516.188 291.498 523.431 276.945 529.58C263.354 535.322 251.188 540.104 251.188 540.104L237.176 556.865L226.503 569.63C226.503 569.63 220.064 566.983 219.42 571.835C218.776 576.687 209.117 582.201 209.332 583.083C209.546 583.965 205.683 586.17 205.683 588.155C205.683 590.14 191.301 573.82 191.516 563.896C191.731 553.971 184.218 547.135 184.218 547.135C184.218 547.135 186.15 543.606 189.155 544.268C192.16 544.929 194.736 543.606 195.594 542.503C196.453 541.401 200.102 544.047 201.819 543.165C203.536 542.283 210.405 524.86 210.405 524.86L237.167 506.414L290.399 469.751L292.855 468.058C292.855 468.058 299.938 471.392 297.062 444.072C296.504 438.779 295.568 432.348 294.143 424.514C285.342 376.216 316.895 370.702 316.895 370.702L344.585 380.185L351.239 390.771V390.824L352.741 456.051C352.741 456.051 352.93 486.512 350.14 490.703Z" fill="#433A59"/>
<path opacity="0.1" d="M276.731 521.578C276.731 521.578 276.816 524.71 276.945 529.58C263.354 535.322 251.188 540.104 251.188 540.104L237.176 556.865C236.944 542.971 236.995 524.922 237.176 506.423L290.408 469.76C283.823 494.84 276.731 521.578 276.731 521.578Z" fill="black"/>
<path opacity="0.1" d="M351.213 390.798V390.851L309.571 391.68C309.571 391.68 302.274 421.012 301.2 427.187C300.934 428.704 299.32 435.188 297.036 444.098C296.478 438.805 295.542 432.374 294.117 424.54C285.316 376.242 316.869 370.729 316.869 370.729L344.559 380.212L351.213 390.798Z" fill="black"/>
<path d="M241.529 310.742L236.162 416.601C236.162 416.601 232.299 572.082 236.162 582.227C240.026 592.372 241.529 608.251 241.529 608.251C241.529 608.251 239.168 620.381 241.529 624.35C243.89 628.32 251.402 632.731 251.188 634.936C250.973 637.142 274.155 649.051 286.175 630.084C286.175 630.084 278.877 619.498 280.38 614.867C281.882 610.236 279.736 603.399 279.736 603.399C279.736 603.399 275.657 590.387 275.657 583.744C275.657 577.102 274.155 521.552 274.155 521.552C274.155 521.552 297.551 433.336 298.625 427.161C299.698 420.985 306.996 391.653 306.996 391.653L351.213 390.771C351.213 390.771 349.925 359.234 347.349 352.397C344.773 345.561 332.109 295.498 332.109 295.498L241.529 310.742Z" fill="#433A59"/>
<path d="M167.733 414.519L163.895 415.648L163.741 419.547L278.808 421.074V419.539L167.733 414.519Z" fill="#7B728F"/>
<path d="M303.458 89.8658C286.716 124.755 297.113 132.051 298.771 132.951C295.225 131.257 249.136 109.009 255.197 103.363C259.138 99.6843 262.512 83.6819 264.496 72.2138C265.672 65.3682 266.359 60.137 266.359 60.137L314.723 69.2497C310.035 77.0127 306.309 83.8495 303.458 89.8658Z" fill="#FFC5D3"/>
<path opacity="0.1" d="M367.268 111.55L366.272 112.917L347.135 126.784L343.082 119.939C348.981 116.41 366.667 110.235 366.667 110.235L367.268 111.55Z" fill="black"/>
<path d="M384.912 143.351C383.195 149.527 354.218 143.351 354.218 143.351L351.213 138.499C351.213 138.499 350.912 137.882 350.406 136.876C348.551 133.18 344.061 124.429 342.206 122.876C339.845 120.892 367.535 111.188 367.535 111.188L376.017 130.154C378.108 131.599 380.038 133.276 381.77 135.156C383.916 137.547 385.694 140.537 384.912 143.351Z" fill="#E5E8EF"/>
<path d="M336.832 146.192C336.832 146.192 354.003 160.112 356.579 159.107C359.155 158.101 400.796 186.992 400.796 186.992C400.796 186.992 405.518 205.517 385.986 206.62C385.986 206.62 344.559 204.856 342.842 198.681C341.125 192.505 336.832 146.192 336.832 146.192Z" fill="#5F5570"/>
<path opacity="0.1" d="M290.039 118.21L271.364 138.058L297.551 309.198L307.854 303.023C307.854 303.023 334.47 315.152 336.617 303.905C338.763 292.657 338.171 248.329 338.171 248.329L334.685 168.246C334.685 168.246 322.45 140.237 322.45 139.355C322.45 138.473 304.806 124.8 304.806 124.8L296.478 118.183L290.039 118.21Z" fill="black"/>
<path d="M290.039 115.563L271.364 135.412L297.551 306.551L307.854 300.376C307.854 300.376 334.47 312.506 336.617 301.258C338.763 290.011 338.171 245.682 338.171 245.682L334.685 165.6C334.685 165.6 322.45 137.591 322.45 136.709C322.45 135.827 304.806 122.153 304.806 122.153L296.478 115.537L290.039 115.563Z" fill="#E5E8EF"/>
<path opacity="0.1" d="M291.112 118.43L285.96 129.237L291.112 134.821C291.112 134.821 309.571 173.124 305.923 195.84L309.786 270.603L322.236 283.174L332.109 271.459L327.387 203.532C327.387 203.532 314.723 147.515 301.415 130.092L297.551 114.655L291.112 118.43Z" fill="black"/>
<path d="M291.112 116.666L285.96 127.473L291.112 133.057C291.112 133.057 309.571 171.36 305.923 194.076L309.786 268.839L322.236 281.41L332.109 269.695L327.387 201.768C327.387 201.768 314.723 145.751 301.415 128.328L297.551 112.89L291.112 116.666Z" fill="#BC8487"/>
<path opacity="0.1" d="M314.723 69.2496C310.035 77.0126 306.343 83.8494 303.458 89.8657C300.42 90.7864 297.268 91.2528 294.1 91.2507C283.488 91.2507 277.375 83.7082 271.364 75.6982C269.991 73.881 265.475 74.3044 264.496 72.1696C265.672 65.324 266.359 60.0928 266.359 60.0928L314.723 69.2496Z" fill="black"/>
<path d="M327.009 56.5466C327.009 64.5995 324.211 72.3879 319.12 78.5103C314.028 84.6327 306.977 88.687 299.236 89.9437C291.494 91.2005 283.57 89.5771 276.889 85.3658C270.209 81.1544 265.211 74.6316 262.794 66.9711C260.377 59.3105 260.701 51.0153 263.706 43.578C266.712 36.1407 272.202 30.0498 279.189 26.4012C286.176 22.7526 294.201 21.7859 301.82 23.6752C309.439 25.5644 316.152 30.1854 320.75 36.7068C324.819 42.4772 327.01 49.4209 327.009 56.5466Z" fill="#FFC5D3"/>
<path opacity="0.1" d="M283.599 131.883L256.554 98.361C256.554 98.361 254.055 97.3289 262.495 88.2515C262.495 88.2515 293.49 113.075 295.413 117.292C297.337 121.509 283.599 131.883 283.599 131.883Z" fill="black"/>
<path d="M282.741 130.119L255.695 96.5966C255.695 96.5966 253.197 95.5645 261.637 86.4871C261.637 86.4871 292.632 111.311 294.555 115.528C296.478 119.745 282.741 130.119 282.741 130.119Z" fill="#E5E8EF"/>
<path d="M351.213 343.47C351.213 343.47 346.061 340.294 346.061 336.545C346.061 332.796 343.486 279.866 343.486 279.866C343.486 279.866 339.708 248.276 335.758 223.169C333.44 208.376 331.062 195.822 329.379 193.335L329.31 193.229C324.803 187.274 325.661 158.163 297.543 115.599C297.921 115.863 307.614 122.85 314.714 126.361C316.16 127.107 317.676 127.698 319.239 128.125C325.679 129.669 346.714 138.05 346.07 151.503C345.426 164.956 347.572 195.831 347.572 195.831V259.109L351.213 343.47Z" fill="#5F5570"/>
<path d="M351.213 138.499C351.213 138.499 360.228 164.082 358.94 170.478C357.652 176.873 379.761 202.015 379.761 202.015L400.796 187.018C400.796 187.018 392.854 170.698 393.928 165.846C395.001 160.994 388.347 150.629 388.347 150.629L388.776 133.445C388.776 133.445 384.912 140.899 351.213 138.499Z" fill="#5F5570"/>
<path opacity="0.1" d="M320.75 36.7068L304.437 37.342C302.844 37.3312 301.256 37.5359 299.715 37.9506C293.885 39.7944 291.198 46.1636 290.983 51.8888C290.768 57.614 287.549 64.0274 281.307 64.5302C280.686 64.6386 280.048 64.4929 279.53 64.1244C279.134 63.6917 278.871 63.1485 278.774 62.563C277.879 59.2269 276.495 56.0501 274.67 53.1415C272.094 53.6178 270.188 56.132 269.518 58.7608C268.849 61.3897 269.029 64.1597 269.038 66.8856C269.045 70.3475 268.72 73.8017 268.067 77.198C265.406 73.6479 263.458 69.5896 262.336 65.259C261.214 60.9284 260.942 56.412 261.534 51.9722C262.126 47.5323 263.571 43.2578 265.785 39.3969C268 35.5361 270.939 32.166 274.432 29.4825C277.925 26.7991 281.903 24.8558 286.133 23.7657C290.364 22.6756 294.763 22.4604 299.075 23.1326C303.387 23.8048 307.526 25.351 311.252 27.6813C314.977 30.0116 318.215 33.0796 320.776 36.7068H320.75Z" fill="black"/>
<path d="M298.865 37.0683C300.406 36.6536 301.994 36.4489 303.587 36.4596L323.395 35.701C326.297 35.5863 329.534 35.3216 331.483 33.1074C332.182 32.2619 332.698 31.2723 332.994 30.2051C333.504 28.5 333.653 26.7027 333.433 24.9333C333.212 23.164 332.626 21.4635 331.714 19.9456C329.422 16.1964 325.404 14.0174 321.575 12.0061C318.011 10.0498 314.351 8.28312 310.61 6.71313C296.716 1.29167 281.332 1.51883 267.595 7.34829C266.238 7.88356 264.951 8.59189 263.766 9.45666C262.11 10.9143 260.7 12.6432 259.593 14.5732L253.077 24.6651C252.177 25.8974 251.484 27.2747 251.025 28.7407C249.797 33.5309 253.6 38.321 253.205 43.2523C252.982 45.7047 251.72 47.9542 251.488 50.4066C251.179 53.5736 252.587 56.5818 253.97 59.4664L265.423 83.2054C267.273 77.6698 268.21 71.8559 268.196 66.0032C268.196 63.2774 267.973 60.5074 268.677 57.8785C269.381 55.2497 271.253 52.7355 273.829 52.2592C275.658 55.1664 277.045 58.3435 277.941 61.6807C278.036 62.2669 278.299 62.8106 278.697 63.2421C279.215 63.6115 279.853 63.7572 280.474 63.6479C286.75 63.145 289.919 56.7935 290.15 51.0065C290.382 45.2195 293.035 38.9121 298.865 37.0683Z" fill="#8F7080"/>
<path d="M163.895 415.648L171.915 413.293L292.829 420.059L279.521 421.823L163.895 415.648Z" fill="#7B728F"/>
<path opacity="0.1" d="M163.895 415.648L171.915 413.293L292.829 420.059L279.521 421.823L163.895 415.648Z" fill="black"/>
<path d="M296.117 539.151L280.165 537.625L274.567 537.096V445.933L276.044 424.77L276.37 420.059H292.829L296.117 539.151Z" fill="#7B728F"/>
<path opacity="0.1" d="M291.756 535.913L279.032 534.467L274.567 533.964V447.53L275.743 427.469L276.001 422.997H289.129L291.756 535.913Z" fill="black"/>
<path d="M204.498 415.648C204.498 415.648 212.44 397.749 215.771 397.194C219.102 396.638 225.216 397.194 225.216 397.194L224.675 402.381C224.675 402.381 216.518 403.042 213.942 417.042L204.498 415.648Z" fill="#7B728F"/>
<path opacity="0.1" d="M204.498 415.648C204.498 415.648 212.44 397.749 215.771 397.194C219.102 396.638 225.216 397.194 225.216 397.194L224.675 402.381C224.675 402.381 216.518 403.042 213.942 417.042L204.498 415.648Z" fill="black"/>
<path d="M235.304 395.323C235.304 395.323 256.657 406.236 253.867 419.027L242.276 418.365C242.276 418.365 236.695 399.293 232.299 398.296C227.903 397.299 235.304 395.323 235.304 395.323Z" fill="#7B728F"/>
<path d="M314.723 222.525V223.169L314.294 296.627C314.294 296.627 303.347 358.378 300.342 360.804C297.337 363.23 231.44 356.614 231.44 356.614L201.604 149.967C201.39 114.681 225.645 115.784 225.645 115.784C228.864 110.491 244.319 106.3 244.319 106.3L252.905 97.6993L253.18 97.3024C253.75 96.4285 254.486 95.6814 255.343 95.1058C257.112 94.056 258.237 95.441 258.881 96.8084C259.17 97.4503 259.395 98.1214 259.55 98.8109C294.332 125.02 314.723 222.525 314.723 222.525Z" fill="#5F5570"/>
<path opacity="0.1" d="M313.864 223.408V224.052C303.072 203.762 261.491 126.89 250.114 123.062L254.493 119.974C254.493 119.974 257.412 118.21 252.046 116.445C252.046 116.445 243.675 117.548 243.46 107.183L252.321 98.1846L254.485 95.988L258.022 97.6906C258.312 98.3326 258.536 99.0037 258.692 99.6931C293.473 125.902 313.864 223.408 313.864 223.408Z" fill="black"/>
<path d="M314.723 222.525V223.169C303.931 202.88 262.349 126.008 250.973 122.18L255.352 119.092C255.352 119.092 258.271 117.328 252.905 115.563C252.905 115.563 244.534 116.666 244.319 106.301L253.18 97.3025L255.343 95.106L258.881 96.8085C259.171 97.4505 259.395 98.1216 259.55 98.811C294.332 125.02 314.723 222.525 314.723 222.525Z" fill="#433A59"/>
<path opacity="0.1" d="M330.246 194.181L330.178 194.076C325.67 188.121 326.529 159.01 298.41 116.445C298.788 116.71 308.481 123.697 315.582 127.208L313.598 133.93L317.891 136.285L330.246 194.181Z" fill="black"/>
<path d="M329.388 193.299L329.319 193.194C324.811 187.239 325.67 158.128 297.551 115.563C297.929 115.828 307.623 122.815 314.723 126.326L312.74 133.048L317.033 135.403L329.388 193.299Z" fill="#433A59"/>
<path opacity="0.1" d="M296.315 108.771L294.555 116.41C294.555 116.41 295.843 124.058 303.561 124.72L304.806 121.077C304.806 121.077 296.478 115.59 296.315 108.771Z" fill="black"/>
<path d="M296.315 107.888L294.555 115.528C294.555 115.528 295.843 123.176 303.561 123.838L304.806 120.195C304.806 120.195 296.478 114.708 296.315 107.888Z" fill="#E5E8EF"/>
<path opacity="0.1" d="M285.213 421.294L280.165 537.625L274.567 537.096V445.933L276.044 424.77L285.213 421.294Z" fill="black"/>
<path d="M165.046 466.223L161.612 529.147L278.379 539.151L283.496 421.294L165.046 466.223Z" fill="#7B728F"/>
<path opacity="0.1" d="M162.47 472.989L164.754 417.413L284.355 423.058L278.662 481.81L162.47 472.989Z" fill="black"/>
<path d="M161.612 471.224L163.895 415.648L283.496 421.294L277.804 480.046L161.612 471.224Z" fill="#7B728F"/>
<path d="M226.289 471.295H211.907V488.497H226.289V471.295Z" fill="#C3BBC8"/>
<path d="M214.054 358.599L211.907 364.553C211.907 364.553 207.4 397.193 212.981 401.163C218.561 405.133 235.089 405.354 235.948 403.369C236.806 401.384 242.817 378.889 242.817 378.889C242.817 378.889 248.183 395.429 250.973 394.106C253.763 392.783 244.534 361.342 244.534 361.342L214.054 358.599Z" fill="#FFC5D3"/>
<path opacity="0.1" d="M211.907 333.898V365.436C211.907 365.436 234.66 369.847 244.534 362.225C244.534 362.225 235.304 331.693 238.738 323.974C242.173 316.255 211.907 333.898 211.907 333.898Z" fill="black"/>
<path d="M211.907 333.016V364.554C211.907 364.554 234.66 368.964 244.534 361.343C244.534 361.343 235.304 330.811 238.738 323.092C242.173 315.373 211.907 333.016 211.907 333.016Z" fill="#E5E8EF"/>
<path opacity="0.1" d="M209.332 148.424L203.322 151.732C203.322 151.732 202.248 164.964 201.604 166.729C200.96 168.493 201.604 186.357 201.604 186.357L201.312 222.525C201.312 222.525 200.385 241.712 201.312 248.549C202.24 255.386 203.279 281.41 203.279 281.41C203.279 281.41 209.083 306.772 206.936 315.814C204.79 324.856 207.151 345.146 210.8 343.381C214.449 341.617 248.148 334.78 249.865 333.457C251.583 332.134 250.724 319.784 249.865 318.24C249.007 316.696 243.855 295.745 244.285 290.893C244.714 286.041 242.782 243.477 242.782 243.477C242.782 243.477 246.002 198.045 247.29 187.459C248.578 176.873 244.714 145.777 241.28 145.336C237.845 144.895 227.791 120.856 209.332 148.424Z" fill="black"/>
<path d="M207.614 146.66L201.604 149.968C201.604 149.968 200.531 163.2 199.887 164.964C199.243 166.729 199.887 184.592 199.887 184.592L199.595 220.761C199.595 220.761 198.668 239.948 199.595 246.785C200.523 253.622 201.561 279.645 201.561 279.645C201.561 279.645 207.366 305.008 205.219 314.05C203.073 323.092 205.434 343.382 209.083 341.617C212.732 339.853 246.431 333.016 248.148 331.693C249.865 330.37 249.007 318.019 248.148 316.476C247.29 314.932 242.138 293.981 242.568 289.129C242.997 284.277 241.065 241.712 241.065 241.712C241.065 241.712 244.285 196.281 245.573 185.695C246.86 175.109 242.997 144.013 239.562 143.572C236.128 143.131 226.074 119.092 207.614 146.66Z" fill="#5F5570"/>
<g opacity="0.1">
<path opacity="0.1" d="M272.532 48.9512C269.956 49.4275 268.05 51.9417 267.381 54.5705C266.711 57.1994 266.891 59.9694 266.9 62.6953C266.916 68.5474 265.982 74.3614 264.135 79.8974L252.673 56.1584C252.45 55.6909 252.218 55.2057 251.995 54.7205C252.525 56.3542 253.183 57.9413 253.961 59.4665L265.423 83.2055C267.27 77.6695 268.204 71.8555 268.188 66.0034C268.188 63.2775 267.973 60.5075 268.668 57.8787C269.364 55.2498 271.244 52.7356 273.82 52.2593C274.651 53.5974 275.394 54.9914 276.044 56.4319C275.171 53.8018 273.992 51.2899 272.532 48.9512Z" fill="black"/>
<path opacity="0.1" d="M331.921 20.325C332.424 22.4952 332.353 24.7646 331.714 26.8971C331.415 27.9648 330.897 28.9544 330.195 29.7994C328.246 32.0136 325.043 32.2782 322.107 32.3929L302.308 33.1516C300.712 33.1408 299.121 33.3454 297.577 33.7603C291.756 35.604 289.06 41.9732 288.845 47.6984C288.631 53.4237 285.411 59.837 279.169 60.3398C278.548 60.4482 277.91 60.3026 277.392 59.934C277.589 60.5074 277.778 61.0897 277.941 61.6984C278.029 62.2849 278.29 62.8297 278.688 63.2598C279.206 63.6283 279.844 63.774 280.465 63.6656C286.75 63.1627 289.91 56.8112 290.142 51.0242C290.374 45.2372 293.052 38.9298 298.874 37.086C300.418 36.6712 302.008 36.4665 303.604 36.4773L323.403 35.7187C326.305 35.604 329.542 35.3394 331.491 33.1251C332.193 32.2801 332.712 31.2905 333.011 30.2228C333.498 28.5841 333.652 26.8602 333.464 25.1577C333.277 23.4553 332.751 21.8104 331.921 20.325Z" fill="black"/>
</g>
<path opacity="0.1" d="M299.681 382.144C299.681 382.144 307.116 378.174 309.984 378.395C312.851 378.615 338.6 412.261 338.6 412.261L299.681 382.144Z" fill="black"/>
<path opacity="0.1" d="M223.412 154.44C223.412 154.44 209.821 160.404 210.182 164.523C210.542 168.643 223.412 154.44 223.412 154.44Z" fill="black"/>
<path opacity="0.1" d="M216.793 173.936C216.793 173.936 202.532 192.673 205.683 193.299C208.834 193.926 216.793 173.936 216.793 173.936Z" fill="black"/>
<path opacity="0.1" d="M264.496 202.015C264.496 202.015 265.801 243.918 255.343 249.211L264.496 202.015Z" fill="black"/>
<path opacity="0.1" d="M210.147 313.9C210.147 313.9 220.21 308.025 222.52 309.198C224.829 310.371 210.147 313.9 210.147 313.9Z" fill="black"/>
<path opacity="0.1" d="M211.907 322.024C211.907 322.024 218.261 322.492 221.275 321.142C224.288 319.792 211.907 322.024 211.907 322.024Z" fill="black"/>
<path opacity="0.1" d="M363.577 167.726C363.577 167.726 371.458 190.988 376 190.988L363.577 167.726Z" fill="black"/>
<path opacity="0.1" d="M251.497 613.253C251.497 613.253 266.282 609.133 268.462 613.253C270.643 617.372 251.497 613.253 251.497 613.253Z" fill="black"/>
<path opacity="0.1" d="M204.498 552.172C204.498 552.172 200.814 557.967 205.683 559.732C210.551 561.496 204.498 552.172 204.498 552.172Z" fill="black"/>
<path opacity="0.1" d="M302.703 471.295C302.703 471.295 313.864 481.51 319.136 481.81C324.408 482.11 302.703 471.295 302.703 471.295Z" fill="black"/>
<path d="M742.333 52.7797C742.333 52.7797 670.049 48.2718 678.566 100.319C678.566 100.319 676.849 109.52 684.988 113.702C684.988 113.702 685.117 109.838 692.406 111.152C694.998 111.594 697.632 111.725 700.254 111.54C703.793 111.293 707.158 109.872 709.844 107.491C709.844 107.491 730.167 98.8726 738.066 64.7418C738.066 64.7418 743.913 57.2963 743.681 55.382L731.48 60.7368C731.48 60.7368 735.653 69.7789 732.339 77.2949C732.339 77.2949 731.944 61.0632 729.6 61.416C729.119 61.4954 723.255 64.5477 723.255 64.5477C723.255 64.5477 730.433 80.3031 725.015 91.7448C725.015 91.7448 727.076 72.3372 721.023 65.6857L712.437 70.8375C712.437 70.8375 720.825 87.1046 715.141 100.381C715.141 100.381 716.601 80.0208 710.634 72.0902L702.855 78.3271C702.855 78.3271 710.728 94.3648 705.929 105.374C705.929 105.374 705.302 81.6705 701.164 79.8797C701.164 79.8797 694.364 86.0548 693.325 88.5778C693.325 88.5778 698.717 100.222 695.368 106.362C695.368 106.362 693.316 90.5715 691.633 90.4833C691.633 90.4833 684.851 100.946 684.147 108.127C684.147 108.127 684.438 97.4524 689.993 89.4864C689.993 89.4864 683.434 90.6421 679.605 95.0176C679.605 95.0176 680.661 87.6162 691.625 86.9723C691.625 86.9723 697.223 79.0328 698.725 78.5476C698.725 78.5476 687.778 77.6125 681.141 80.6295C681.141 80.6295 686.988 73.6516 700.734 76.8274L708.462 70.3876C708.462 70.3876 694.046 68.3586 687.941 70.5993C687.941 70.5993 694.973 64.4242 710.531 68.9232L718.893 63.7802C718.893 63.7802 706.607 61.0632 699.292 62.0159C699.292 62.0159 707.019 57.7374 721.34 62.3776L727.351 59.6164C727.351 59.6164 718.353 57.7992 715.717 57.5169C713.081 57.2346 712.935 56.4759 712.935 56.4759C718.638 55.4994 724.494 56.1682 729.849 58.4079C729.849 58.4079 742.556 53.5648 742.333 52.7797Z" fill="#6C63FF"/>
<path d="M598.855 42.8025C598.855 42.8025 566.228 40.7823 570.041 64.3007C570.041 64.3007 569.276 68.4557 572.943 70.3436C572.943 70.3436 573.003 68.5792 576.291 69.1879C577.464 69.395 578.658 69.4543 579.846 69.3644C581.431 69.2424 582.937 68.599 584.139 67.5295C584.139 67.5295 593.317 63.6303 596.888 48.2101C596.888 48.2101 599.533 44.8491 599.464 43.9845L593.935 46.4017C593.935 46.4017 595.815 50.4861 594.338 53.8824C594.338 53.8824 594.158 46.5516 593.094 46.7192C592.879 46.7192 590.234 48.1395 590.234 48.1395C590.234 48.1395 593.471 55.2586 591.024 60.4281C591.024 60.4281 591.96 51.6594 589.221 48.6512L585.349 50.9801C585.349 50.9801 589.135 58.3285 586.568 64.3272C586.568 64.3272 587.229 55.1263 584.533 51.5447L581.022 54.3676C581.022 54.3676 584.576 61.6102 582.404 66.5855C582.404 66.5855 582.121 55.8761 580.258 55.0645C580.258 55.0645 577.184 57.8521 576.712 58.999C576.712 58.999 579.15 64.2919 577.639 67.0354C577.639 67.0354 576.712 59.8988 575.922 59.8635C575.922 59.8635 572.857 64.5919 572.539 67.8029C572.688 64.8081 573.6 61.9059 575.183 59.3871C573.414 59.7294 571.781 60.5974 570.487 61.8836C570.487 61.8836 570.968 58.5402 575.939 58.2491C575.939 58.2491 578.472 54.6587 579.15 54.447C579.15 54.447 574.205 54.0147 571.2 55.3821C571.2 55.3821 573.844 52.2328 580.052 53.6178L583.486 50.7066C583.486 50.7066 576.969 49.8245 574.213 50.8037C574.213 50.8037 577.39 48.016 584.413 50.045L588.2 47.7249C588.2 47.7249 582.645 46.4987 579.339 46.9398C579.339 46.9398 582.825 45.0079 589.307 47.0986L592.003 45.8547C592.003 45.8547 587.942 45.0343 586.749 44.902C585.555 44.7697 585.495 44.4345 585.495 44.4345C588.073 43.9995 590.717 44.3048 593.136 45.3166C593.136 45.3166 598.958 43.173 598.855 42.8025Z" fill="#6C63FF"/>
<path opacity="0.1" d="M726.878 641.711C739.648 641.711 750 639.914 750 637.697C750 635.481 739.648 633.684 726.878 633.684C714.109 633.684 703.757 635.481 703.757 637.697C703.757 639.914 714.109 641.711 726.878 641.711Z" fill="#6C63FF"/>
<path opacity="0.1" d="M23.1217 581.962C35.8915 581.962 46.2434 580.165 46.2434 577.948C46.2434 575.732 35.8915 573.935 23.1217 573.935C10.3519 573.935 0 575.732 0 577.948C0 580.165 10.3519 581.962 23.1217 581.962Z" fill="#6C63FF"/>
<path opacity="0.1" d="M710.788 563.966C723.558 563.966 733.91 562.169 733.91 559.952C733.91 557.736 723.558 555.938 710.788 555.938C698.019 555.938 687.667 557.736 687.667 559.952C687.667 562.169 698.019 563.966 710.788 563.966Z" fill="#6C63FF"/>
<path opacity="0.1" d="M112.552 603.496C125.322 603.496 135.674 601.699 135.674 599.482C135.674 597.265 125.322 595.468 112.552 595.468C99.7822 595.468 89.4302 597.265 89.4302 599.482C89.4302 601.699 99.7822 603.496 112.552 603.496Z" fill="#6C63FF"/>
<path opacity="0.1" d="M607.724 606.945C620.494 606.945 630.846 605.148 630.846 602.931C630.846 600.715 620.494 598.917 607.724 598.917C594.954 598.917 584.602 600.715 584.602 602.931C584.602 605.148 594.954 606.945 607.724 606.945Z" fill="#6C63FF"/>
<path d="M676.273 686.71C695.34 686.71 710.797 684.025 710.797 680.712C710.797 677.399 695.34 674.713 676.273 674.713C657.206 674.713 641.75 677.399 641.75 680.712C641.75 684.025 657.206 686.71 676.273 686.71Z" fill="#6C63FF"/>
<path d="M690.543 670.902C692.116 669.583 693.263 667.805 693.831 665.803C694.261 663.774 693.419 661.392 691.53 660.607C689.418 659.778 687.16 661.277 685.452 662.795C683.743 664.312 681.777 666.05 679.536 665.732C680.689 664.659 681.552 663.297 682.041 661.778C682.53 660.26 682.628 658.638 682.326 657.07C682.226 656.42 681.956 655.81 681.545 655.305C680.377 654.017 678.248 654.573 676.849 655.587C672.384 658.816 671.139 665.044 671.113 670.655C670.667 668.626 671.044 666.518 671.027 664.48C671.01 662.442 670.469 660.069 668.761 658.993C667.706 658.411 666.523 658.122 665.326 658.155C663.317 658.084 661.085 658.287 659.72 659.795C658.003 661.666 658.458 664.815 659.934 666.853C661.411 668.891 663.669 670.205 665.747 671.634C667.411 672.65 668.829 674.04 669.894 675.701C670.024 675.929 670.128 676.171 670.203 676.424H682.79C685.604 674.95 688.212 673.093 690.543 670.902Z" fill="#6C63FF"/>
<path d="M113.745 500.821C113.745 500.821 118.468 507.155 111.573 516.7C104.679 526.245 98.9949 534.343 101.27 540.307C101.27 540.307 111.676 522.54 120.159 522.293C128.642 522.046 123.061 511.531 113.745 500.821Z" fill="#6C63FF"/>
<path opacity="0.1" d="M113.745 500.821C114.158 501.431 114.482 502.1 114.707 502.806C122.967 512.774 127.371 522.081 119.429 522.319C112.037 522.531 103.168 536.116 101.038 539.548C101.108 539.814 101.191 540.076 101.287 540.333C101.287 540.333 111.693 522.566 120.176 522.319C128.659 522.072 123.061 511.531 113.745 500.821Z" fill="black"/>
<path d="M122.511 508.919C122.511 511.151 122.271 512.96 121.971 512.96C121.67 512.96 121.43 511.195 121.43 508.919C121.43 506.643 121.73 507.737 122.031 507.737C122.331 507.737 122.511 506.687 122.511 508.919Z" fill="#FFD037"/>
<path d="M125.525 511.583C123.619 512.651 121.953 513.295 121.816 513.03C121.679 512.766 123.095 511.672 125.001 510.604C126.907 509.537 126.161 510.313 126.298 510.604C126.435 510.895 127.431 510.525 125.525 511.583Z" fill="#FFD037"/>
<path d="M88.8378 500.821C88.8378 500.821 84.1156 507.155 91.01 516.7C97.9045 526.245 103.588 534.343 101.313 540.307C101.313 540.307 90.9156 522.54 82.4242 522.293C73.9328 522.046 79.5222 511.531 88.8378 500.821Z" fill="#6C63FF"/>
<path opacity="0.1" d="M88.8378 500.821C88.4237 501.432 88.097 502.1 87.8676 502.806C79.608 512.774 75.2121 522.081 83.1454 522.319C90.5464 522.531 99.4156 536.116 101.545 539.548C101.476 539.815 101.39 540.077 101.287 540.333C101.287 540.333 90.8898 522.566 82.3984 522.319C73.907 522.072 79.5222 511.531 88.8378 500.821Z" fill="black"/>
<path d="M80.063 508.919C80.063 511.151 80.3121 512.96 80.6126 512.96C80.9131 512.96 81.1535 511.195 81.1535 508.919C81.1535 506.643 80.853 507.737 80.5525 507.737C80.2519 507.737 80.063 506.687 80.063 508.919Z" fill="#FFD037"/>
<path d="M77.0666 511.583C78.9727 512.651 80.6298 513.295 80.7757 513.03C80.9217 512.766 79.4878 511.672 77.5818 510.604C75.6757 509.537 76.4313 510.313 76.2853 510.604C76.1394 510.895 75.152 510.525 77.0666 511.583Z" fill="#FFD037"/>
<path d="M81.5656 539.53C81.5656 539.53 94.7535 539.116 98.7373 536.205C102.721 533.293 119.026 529.826 120.004 534.493C120.983 539.16 139.829 557.685 124.941 557.809C110.053 557.932 90.3404 555.427 86.3737 552.939C82.407 550.451 81.5656 539.53 81.5656 539.53Z" fill="#A8A8A8"/>
<path opacity="0.2" d="M125.199 556.186C110.311 556.309 90.598 553.804 86.6313 551.316C83.6177 549.428 82.407 542.644 82.0035 539.513H81.5656C81.5656 539.513 82.4242 550.443 86.3651 552.922C90.306 555.4 110.045 557.915 124.933 557.791C129.226 557.791 130.711 556.186 130.634 553.857C130.033 555.277 128.393 556.159 125.199 556.186Z" fill="black"/>
</g>
<defs>
<linearGradient id="paint0_linear" x1="280.448" y1="674.704" x2="280.448" y2="-0.000171495" gradientUnits="userSpaceOnUse">
<stop stop-color="#808080" stop-opacity="0.25"/>
<stop offset="0.54" stop-color="#808080" stop-opacity="0.12"/>
<stop offset="1" stop-color="#808080" stop-opacity="0.1"/>
</linearGradient>
<clipPath id="clip0">
<rect width="750" height="707" fill="white"/>
</clipPath>
</defs>
</svg>
