<svg width="317" height="528" viewBox="0 0 317 528" fill="none" xmlns="http://www.w3.org/2000/svg">
<g opacity="0.2">
<path d="M556.259 1.19913L38.6831 152.615L108.418 426.33L625.993 274.914L556.259 1.19913Z" fill="#F5F5F5"/>
<path d="M559.099 -6.10109e-05L35 153.324L106.441 433.738L630.54 280.415L559.099 -6.10109e-05Z" fill="url(#paint0_linear)"/>
<path d="M563.294 28.8175L45.7178 180.233L108.37 426.148L625.945 274.732L563.294 28.8175Z" fill="white"/>
<path d="M54.7769 168.605C58.3619 167.565 60.481 163.607 59.51 159.765C58.5391 155.924 54.8458 153.653 51.2608 154.693C47.6758 155.734 45.5566 159.691 46.5276 163.533C47.4985 167.375 51.1918 169.645 54.7769 168.605Z" fill="#FF5252"/>
<path d="M75.7448 163.58C79.3473 162.526 81.4705 158.542 80.4869 154.681C79.5034 150.821 75.7857 148.546 72.1831 149.6C68.5806 150.654 66.4575 154.638 67.441 158.498C68.4245 162.358 72.1422 164.633 75.7448 163.58Z" fill="#FFFF00"/>
<path d="M95.3195 157.851C98.922 156.797 101.045 152.813 100.062 148.953C99.0781 145.092 95.3604 142.817 91.7578 143.871C88.1553 144.925 86.0322 148.909 87.0157 152.769C87.9992 156.63 91.7169 158.905 95.3195 157.851Z" fill="#69F0AE"/>
<path d="M181.911 140.037L45.6318 179.905L108.367 426.147L244.646 386.278L181.911 140.037Z" fill="#6C63FF"/>
<path d="M169.641 226.263C164.45 205.886 144.011 194.115 123.999 199.956C103.988 205.796 91.9864 227.097 97.1489 247.481C101.224 263.476 114.684 274.164 129.968 275.194L127.549 265.685C125.795 258.816 129.891 251.577 136.667 249.601C143.415 247.624 150.373 251.63 152.098 258.507L154.518 268.015C167.186 258.793 173.716 242.22 169.641 226.263Z" fill="url(#paint1_linear)"/>
<path d="M135.421 243.799L134.934 243.941C133.865 244.254 133.235 245.436 133.527 246.581L136.457 258.081C136.749 259.226 137.851 259.901 138.92 259.589L139.407 259.446C140.476 259.133 141.106 257.952 140.814 256.806L137.885 245.306C137.593 244.161 136.49 243.486 135.421 243.799Z" fill="url(#paint2_linear)"/>
<path d="M135.732 245.967C143.426 243.716 148.046 235.541 146.051 227.708C144.055 219.875 136.2 215.35 128.505 217.601C120.81 219.852 116.191 228.027 118.186 235.86C120.182 243.693 128.037 248.218 135.732 245.967Z" fill="url(#paint3_linear)"/>
<path d="M136.639 249.593C129.891 251.57 125.802 258.808 127.52 265.678L129.94 275.186C138.638 275.754 147.267 273.231 154.49 268.008L152.07 258.5C150.344 251.63 143.386 247.624 136.639 249.593Z" fill="url(#paint4_linear)"/>
<path d="M117.875 235.109C116.207 233.255 115.062 230.934 114.572 228.412C114.341 227.143 114.349 225.836 114.596 224.57C114.843 223.304 115.324 222.103 116.01 221.039C117.588 218.686 120.218 217.281 122.785 216.266C125.353 215.251 128.116 214.612 130.599 213.327C134.688 211.209 137.837 207.454 139.367 202.872C140.156 204.869 140.671 206.978 140.896 209.133C140.998 210.231 140.885 211.339 140.565 212.387C140.245 213.435 139.725 214.4 139.037 215.221C140.896 213.605 141.268 215.973 141.142 217.544C142.544 218.528 145.119 217.995 145.673 219.626C146.3 221.23 146.542 222.977 146.374 224.707C146.129 226.428 147.504 228.946 145.897 229.54" fill="url(#paint5_linear)"/>
<path d="M166.413 221.362C164.69 214.607 161.27 208.489 156.525 203.674C151.78 198.859 145.892 195.533 139.504 194.057C133.116 192.581 126.473 193.013 120.298 195.305C114.123 197.597 108.654 201.661 104.486 207.055C100.319 212.449 97.6133 218.966 96.6645 225.894C95.7156 232.822 96.5598 239.897 99.1051 246.347C101.65 252.796 105.799 258.373 111.099 262.47C116.399 266.567 122.647 269.026 129.161 269.579L126.741 260.071C125.906 256.758 126.329 253.226 127.917 250.246C129.504 247.266 132.128 245.08 135.214 244.166C138.306 243.272 141.602 243.725 144.383 245.426C147.164 247.127 149.203 249.939 150.056 253.246L152.476 262.754C158.493 258.231 163.06 251.828 165.554 244.42C168.049 237.012 168.349 228.96 166.413 221.362Z" fill="#6C63FF"/>
<path d="M133.902 238.407L133.632 238.486C132.563 238.799 131.933 239.981 132.225 241.126L135.154 252.626C135.446 253.771 136.549 254.446 137.618 254.133L137.889 254.054C138.958 253.742 139.587 252.56 139.296 251.414L136.366 239.914C136.074 238.769 134.971 238.094 133.902 238.407Z" fill="white" stroke="white" stroke-miterlimit="10"/>
<path d="M134.322 240.543C141.631 238.405 145.939 230.322 143.944 222.489C141.948 214.656 134.405 210.039 127.095 212.178C119.785 214.316 115.477 222.4 117.473 230.233C119.468 238.066 127.012 242.682 134.322 240.543Z" fill="white" stroke="white" stroke-miterlimit="10"/>
<path d="M135.221 244.166C132.135 245.08 129.511 247.266 127.924 250.246C126.336 253.226 125.913 256.758 126.748 260.071L129.161 269.579C137.436 270.266 145.677 267.854 152.476 262.754L150.056 253.246C149.203 249.94 147.165 247.13 144.385 245.429C141.606 243.728 138.312 243.274 135.221 244.166Z" fill="white" stroke="white" stroke-miterlimit="10"/>
<path d="M117.16 229.442C115.541 227.553 114.426 225.232 113.933 222.722C113.453 220.194 113.913 217.564 115.217 215.394C116.697 213.071 119.152 211.681 121.621 210.726C124.09 209.772 126.685 209.155 129.035 207.9C130.976 206.853 132.704 205.402 134.117 203.633C135.531 201.864 136.602 199.812 137.27 197.595C138.047 199.597 138.564 201.704 138.806 203.857C138.916 204.93 138.822 206.017 138.529 207.051C138.236 208.084 137.751 209.043 137.101 209.87C138.855 208.284 139.205 210.681 139.156 212.215C140.482 213.214 142.958 212.718 143.505 214.349C144.13 215.952 144.387 217.692 144.256 219.423C144.038 221.136 145.385 223.662 143.856 224.233" fill="white"/>
<path d="M117.16 229.442C115.541 227.553 114.426 225.232 113.933 222.722C113.453 220.194 113.913 217.564 115.217 215.394C116.697 213.071 119.152 211.681 121.621 210.726C124.09 209.772 126.685 209.155 129.035 207.9C130.976 206.853 132.704 205.402 134.117 203.633C135.531 201.864 136.602 199.812 137.27 197.595C138.047 199.597 138.564 201.704 138.806 203.857C138.916 204.93 138.822 206.017 138.529 207.051C138.236 208.084 137.751 209.043 137.101 209.87C138.855 208.284 139.205 210.681 139.156 212.215C140.482 213.214 142.958 212.718 143.505 214.349C144.13 215.952 144.387 217.692 144.256 219.423C144.038 221.136 145.385 223.662 143.856 224.233" stroke="white" stroke-miterlimit="10"/>
<path d="M137.747 209.381C137.747 209.381 147.202 207.539 144.368 224.15L137.747 209.381Z" fill="white"/>
<path opacity="0.1" d="M212.921 263.259L76.6416 303.127L107.909 425.856L244.188 385.988L212.921 263.259Z" fill="black"/>
<path d="M176.157 302.402L109.466 321.913L111.247 328.903L177.938 309.392L176.157 302.402Z" fill="white"/>
<path d="M196.261 314.049L113.621 338.225L115.402 345.215L198.042 321.039L196.261 314.049Z" fill="white"/>
<path d="M307.563 119.491L208.981 148.331L222.241 200.378L320.823 171.538L307.563 119.491Z" fill="#F5F5F5"/>
<path d="M320.43 169.977L221.847 198.817L235.107 250.864L333.69 222.024L320.43 169.977Z" fill="#E0E0E0"/>
<path d="M334.62 237.527L236.517 265.998L249.608 317.792L347.71 289.32L334.62 237.527Z" fill="#E0E0E0"/>
<path d="M350.505 288.05L251.923 316.89L265.183 368.937L363.765 340.097L350.505 288.05Z" fill="#BDBDBD"/>
<path d="M239.309 206.232C245.315 204.475 248.943 198.181 247.412 192.174C245.882 186.168 239.773 182.722 233.767 184.479C227.762 186.236 224.134 192.53 225.665 198.537C227.195 204.544 233.304 207.989 239.309 206.232Z" fill="url(#paint6_linear)"/>
<path d="M236.549 204.471C241.73 202.968 244.792 197.249 243.389 191.697C241.986 186.146 236.649 182.865 231.468 184.368C226.288 185.872 223.226 191.591 224.629 197.142C226.032 202.693 231.369 205.975 236.549 204.471Z" fill="#6C63FF"/>
<path d="M269.59 325.078C275.595 323.321 279.223 317.027 277.693 311.02C276.162 305.014 270.053 301.568 264.048 303.325C258.042 305.082 254.414 311.376 255.945 317.383C257.475 323.389 263.584 326.835 269.59 325.078Z" fill="url(#paint7_linear)"/>
<path d="M269.195 323.53C274.4 322.007 277.468 316.25 276.047 310.672C274.626 305.093 269.254 301.806 264.048 303.329C258.842 304.852 255.774 310.608 257.195 316.187C258.617 321.765 263.989 325.053 269.195 323.53Z" fill="#2196F3"/>
<path d="M650.97 225.676H114.453V509.408H650.97V225.676Z" fill="#F5F5F5"/>
<path d="M654 225.323H110.721V516H654V225.323Z" fill="url(#paint8_linear)"/>
<path d="M650.97 254.313H114.453V509.228H650.97V254.313Z" fill="white"/>
<path d="M127.226 246.722C130.96 246.722 133.987 243.478 133.987 239.476C133.987 235.474 130.96 232.23 127.226 232.23C123.491 232.23 120.464 235.474 120.464 239.476C120.464 243.478 123.491 246.722 127.226 246.722Z" fill="#FF5252"/>
<path d="M147.511 246.722C151.245 246.722 154.272 243.478 154.272 239.476C154.272 235.474 151.245 232.23 147.511 232.23C143.776 232.23 140.749 235.474 140.749 239.476C140.749 243.478 143.776 246.722 147.511 246.722Z" fill="#FFFF00"/>
<path d="M167.802 246.722C171.537 246.722 174.564 243.478 174.564 239.476C174.564 235.474 171.537 232.23 167.802 232.23C164.068 232.23 161.041 235.474 161.041 239.476C161.041 243.478 164.068 246.722 167.802 246.722Z" fill="#69F0AE"/>
<path d="M255.719 253.975H114.453V509.228H255.719V253.975Z" fill="#6C63FF"/>
<path d="M222.682 333.693C222.682 312.572 205.848 295.442 185.114 295.442C164.38 295.442 147.539 312.564 147.539 333.693C147.539 350.274 157.899 364.382 172.39 369.688V359.834C172.39 352.709 178.114 346.884 185.114 346.884C192.128 346.884 197.837 352.709 197.837 359.834V369.688C212.322 364.382 222.682 350.266 222.682 333.693Z" fill="url(#paint9_linear)"/>
<path d="M185.359 340.953H184.854C183.746 340.953 182.848 341.916 182.848 343.103V355.024C182.848 356.211 183.746 357.174 184.854 357.174H185.359C186.467 357.174 187.365 356.211 187.365 355.024V343.103C187.365 341.916 186.467 340.953 185.359 340.953Z" fill="url(#paint10_linear)"/>
<path d="M185.135 343.133C193.111 343.133 199.577 336.551 199.577 328.431C199.577 320.312 193.111 313.729 185.135 313.729C177.158 313.729 170.692 320.312 170.692 328.431C170.692 336.551 177.158 343.133 185.135 343.133Z" fill="url(#paint11_linear)"/>
<path d="M185.114 346.884C178.1 346.884 172.39 352.709 172.39 359.834V369.688C180.639 372.688 189.582 372.688 197.831 369.688V359.834C197.831 352.709 192.107 346.884 185.114 346.884Z" fill="url(#paint12_linear)"/>
<path d="M170.545 327.612C169.391 325.352 168.856 322.788 169.002 320.216C169.092 318.927 169.421 317.669 169.97 316.518C170.52 315.367 171.278 314.345 172.201 313.512C174.305 311.685 177.16 311.039 179.916 310.813C182.673 310.588 185.465 310.723 188.179 310.182C192.644 309.291 196.604 306.557 199.205 302.568C199.476 304.717 199.455 306.897 199.142 309.039C198.97 310.126 198.589 311.163 198.023 312.083C197.456 313.003 196.717 313.786 195.853 314.383C198.048 313.354 197.81 315.774 197.333 317.225C198.42 318.562 201.064 318.78 201.198 320.509C201.416 322.236 201.226 323.994 200.643 325.62C199.977 327.214 200.692 330.025 198.995 330.13" fill="url(#paint13_linear)"/>
<path d="M220.774 328.055C220.773 321.052 218.978 314.184 215.585 308.198C212.191 302.213 207.329 297.341 201.529 294.114C195.729 290.886 189.214 289.427 182.693 289.895C176.172 290.363 169.896 292.741 164.549 296.768C159.203 300.796 154.991 306.319 152.373 312.736C149.755 319.153 148.831 326.217 149.702 333.158C150.573 340.098 153.205 346.65 157.313 352.097C161.42 357.545 166.844 361.68 172.993 364.051V354.212C173.002 350.78 174.279 347.492 176.543 345.066C178.808 342.639 181.876 341.272 185.079 341.262C188.287 341.262 191.365 342.625 193.637 345.052C195.909 347.48 197.19 350.774 197.199 354.212V364.066C204.109 361.392 210.08 356.499 214.299 350.054C218.518 343.61 220.779 335.928 220.774 328.055Z" fill="#6C63FF"/>
<path d="M185.226 335.316H184.946C183.838 335.316 182.939 336.279 182.939 337.466V349.387C182.939 350.574 183.838 351.536 184.946 351.536H185.226C186.334 351.536 187.232 350.574 187.232 349.387V337.466C187.232 336.279 186.334 335.316 185.226 335.316Z" fill="white" stroke="white" stroke-miterlimit="10"/>
<path d="M185.107 337.496C192.684 337.496 198.826 330.914 198.826 322.794C198.826 314.675 192.684 308.092 185.107 308.092C177.529 308.092 171.387 314.675 171.387 322.794C171.387 330.914 177.529 337.496 185.107 337.496Z" fill="white" stroke="white" stroke-miterlimit="10"/>
<path d="M185.086 341.247C181.881 341.257 178.81 342.626 176.545 345.056C174.28 347.486 173.006 350.778 173 354.212V364.066C180.814 367.066 189.357 367.066 197.171 364.066V354.212C197.165 350.778 195.891 347.486 193.626 345.056C191.361 342.626 188.29 341.257 185.086 341.247Z" fill="white" stroke="white" stroke-miterlimit="10"/>
<path d="M171.247 321.982C170.147 319.703 169.64 317.148 169.781 314.586C169.94 312.011 171.033 309.605 172.825 307.882C174.824 306.055 177.531 305.409 180.148 305.183C182.764 304.958 185.415 305.093 187.997 304.552C190.127 304.09 192.15 303.179 193.949 301.872C195.748 300.565 197.287 298.888 198.476 296.938C198.734 299.088 198.715 301.265 198.42 303.41C198.265 304.481 197.908 305.508 197.37 306.427C196.832 307.346 196.125 308.138 195.291 308.754C197.396 307.724 197.15 310.144 196.694 311.595C197.725 312.933 200.201 313.151 200.363 314.879C200.571 316.604 200.391 318.356 199.837 319.99C199.205 321.584 199.879 324.395 198.272 324.5" fill="white"/>
<path d="M171.247 321.982C170.147 319.703 169.64 317.148 169.781 314.586C169.94 312.011 171.033 309.605 172.825 307.882C174.824 306.055 177.531 305.409 180.148 305.183C182.764 304.958 185.415 305.093 187.997 304.552C190.127 304.09 192.15 303.179 193.949 301.872C195.748 300.565 197.287 298.888 198.476 296.938C198.734 299.088 198.715 301.265 198.42 303.41C198.265 304.481 197.908 305.508 197.37 306.427C196.832 307.346 196.125 308.138 195.291 308.754C197.396 307.724 197.15 310.144 196.694 311.595C197.725 312.933 200.201 313.151 200.363 314.879C200.571 316.604 200.391 318.356 199.837 319.99C199.205 321.584 199.879 324.395 198.272 324.5" stroke="white" stroke-miterlimit="10"/>
<path d="M196.07 308.363C196.07 308.363 205.644 309.257 198.826 324.485L196.07 308.363Z" fill="white"/>
<path opacity="0.1" d="M255.34 381.602H114.074V508.822H255.34V381.602Z" fill="black"/>
<path d="M210.26 408.976H141.127V416.221H210.26V408.976Z" fill="white"/>
<path d="M377.823 297.051H308.69V304.297H377.823V297.051Z" fill="#BDBDBD"/>
<path d="M555.906 340.532H308.69V347.778H555.906V340.532Z" fill="#E0E0E0"/>
<path d="M555.906 384.014H308.69V391.26H555.906V384.014Z" fill="#E0E0E0"/>
<path d="M377.823 427.496H308.69V434.742H377.823V427.496Z" fill="#64FFDA"/>
<path d="M226.792 425.887H141.127V433.133H226.792V425.887Z" fill="white"/>
</g>
<g opacity="0.95">
<path d="M54.1577 508.835H41.2656V377.59L70.5658 376.977L54.1577 508.835Z" fill="#FFB8B8"/>
<path d="M116.274 508.835H129.166V377.59L99.8662 376.977L116.274 508.835Z" fill="#FFB8B8"/>
<path d="M48.1082 527.09L20.6776 526.827C19.3641 527.167 17.9939 527.189 16.6709 526.893C15.3479 526.596 14.1067 525.989 13.0414 525.116C11.9761 524.243 11.1145 523.128 10.522 521.855C9.92954 520.582 9.62158 519.184 9.62158 517.768C9.62158 516.011 10.0957 514.289 10.9893 512.802C11.883 511.314 13.1598 510.121 14.6729 509.359L20.9302 506.209L41.2657 491.663L55.9157 495.956L58.7216 509.171C59.5382 513.016 58.8851 517.044 56.9018 520.392C54.9186 523.741 51.7625 526.145 48.1082 527.09Z" fill="#2F2E41"/>
<path d="M121.945 526.928L94.5139 526.664C93.2005 527.004 91.8304 527.027 90.5074 526.73C89.1844 526.434 87.9432 525.826 86.8778 524.953C85.8125 524.08 84.9509 522.965 84.3584 521.692C83.7659 520.419 83.458 519.022 83.458 517.606C83.458 515.848 83.9321 514.127 84.8258 512.639C85.7194 511.151 86.9963 509.958 88.5094 509.196L94.7666 506.046L115.102 491.5L129.752 495.794L132.558 509.008C133.375 512.854 132.721 516.881 130.738 520.23C128.755 523.578 125.599 525.982 121.945 526.928Z" fill="#2F2E41"/>
<path d="M132.668 399.101L92.2782 395.327L86.9604 345.745L75.0511 393.717L34.2202 389.902C35.7256 360.526 38.9646 336.022 46.5262 323.666L132.082 307.721L132.668 399.101Z" fill="#2F2E41"/>
<path d="M91.8492 169.479C103.902 169.479 113.673 159.253 113.673 146.639C113.673 134.025 103.902 123.799 91.8492 123.799C79.7962 123.799 70.0254 134.025 70.0254 146.639C70.0254 159.253 79.7962 169.479 91.8492 169.479Z" fill="#FFB8B8"/>
<path d="M109.228 194.262L71.1382 189.355C75.9841 178.555 78.1682 168.47 74.6542 159.917H103.954C99.4244 168.377 103.475 180.915 109.228 194.262Z" fill="#FFB8B8"/>
<path d="M132.083 308.947C105.281 329.515 76.0298 336.532 44.1826 329.186C63.5058 283.016 60.7463 237.511 44.1826 192.421L74.6547 178.929C83.1989 187.652 92.9978 187.841 103.955 180.156L133.841 186.902C128.374 231.883 126.542 273.663 132.083 308.947Z" fill="#3F3D56"/>
<path d="M75.749 126.702L72.0638 125.158C72.0638 125.158 79.7692 116.28 90.4898 117.052L87.4746 113.577C87.4746 113.577 94.845 110.489 101.545 118.596C105.068 122.857 109.143 127.866 111.683 133.508H115.63L113.983 137.304L119.748 141.1L113.831 140.418C114.391 143.695 114.199 147.064 113.271 150.249L113.429 153.249C113.429 153.249 106.571 142.142 106.571 140.598V144.458C106.571 144.458 102.885 140.984 102.885 138.668L100.875 141.37L99.8701 137.124L87.4745 141.37L89.4845 137.896L81.7792 139.054L84.7944 134.808C84.7944 134.808 76.084 139.826 75.7489 144.072C75.4138 148.319 71.0587 153.723 71.0587 153.723L69.0487 149.863C69.0487 149.863 66.0336 132.492 75.749 126.702Z" fill="#2F2E41"/>
<path d="M137.427 357.506H5.0631C3.72076 357.505 2.43383 356.946 1.48465 355.952C0.535478 354.959 0.00156587 353.612 0 352.207V331.012C0.00156587 329.607 0.535478 328.26 1.48465 327.267C2.43383 326.273 3.72076 325.715 5.0631 325.713H137.427C138.769 325.715 140.056 326.273 141.005 327.267C141.955 328.26 142.488 329.607 142.49 331.012V352.207C142.488 353.612 141.955 354.959 141.005 355.952C140.056 356.946 138.769 357.505 137.427 357.506Z" fill="#6C63FF"/>
<path d="M24.852 337.109C23.7239 337.129 22.6482 337.611 21.8571 338.453C21.0659 339.295 20.6226 340.429 20.6226 341.61C20.6226 342.791 21.0659 343.924 21.8571 344.766C22.6482 345.608 23.7239 346.091 24.852 346.111H117.496C118.635 346.127 119.733 345.67 120.55 344.84C121.367 344.01 121.836 342.875 121.854 341.683C121.873 340.492 121.44 339.342 120.649 338.484C119.859 337.627 118.776 337.132 117.638 337.109C117.591 337.108 117.544 337.108 117.496 337.109H24.852Z" fill="white"/>
<path d="M57.6604 320.6L64.3885 333.152C65.1851 334.638 65.6456 336.296 65.7343 337.998C65.823 339.699 65.5378 341.4 64.9004 342.968C64.263 344.536 63.2904 345.93 62.0576 347.044C60.8247 348.157 59.3643 348.96 57.7887 349.39C56.1971 349.824 54.5309 349.867 52.9209 349.515C51.3108 349.162 49.8007 348.425 48.5088 347.359C47.2168 346.294 46.1783 344.929 45.4746 343.373C44.7709 341.817 44.4211 340.112 44.4528 338.391L44.7684 321.213C39.7136 290.679 35.6104 261.769 36.5644 241.485H60.0045L55.3164 264.79L57.6604 320.6Z" fill="#FFB8B8"/>
<path d="M135.013 323.666L130.084 332.262C129.278 333.669 128.151 334.845 126.804 335.685C125.457 336.525 123.932 337.002 122.366 337.075C120.8 337.147 119.241 336.812 117.828 336.1C116.416 335.388 115.194 334.321 114.272 332.994C113.535 331.933 113.006 330.731 112.716 329.455C112.425 328.179 112.379 326.856 112.58 325.561C112.78 324.267 113.224 323.027 113.885 321.913C114.546 320.799 115.411 319.833 116.431 319.07L125.051 312.627L137.357 259.27L129.739 237.192L150.835 233.512C160.74 257.471 150.762 289.41 135.013 323.666Z" fill="#FFB8B8"/>
<path d="M65.2783 246.391L34.2202 244.551L36.354 209.723C36.2469 204.792 37.7284 199.968 40.5599 196.026C43.3914 192.085 47.4082 189.255 51.9633 187.993L55.9023 186.902L65.2783 246.391Z" fill="#3F3D56"/>
<path d="M153.179 235.352L124.465 242.712V185.062L125.65 184.982C130.369 184.663 135.041 186.131 138.813 189.117C142.585 192.104 145.205 196.409 146.196 201.249L153.179 235.352Z" fill="#3F3D56"/>
</g>
<defs>
<linearGradient id="paint0_linear" x1="368.484" y1="357.079" x2="287.284" y2="79.5185" gradientUnits="userSpaceOnUse">
<stop stop-color="#808080" stop-opacity="0.25"/>
<stop offset="0.54" stop-color="#808080" stop-opacity="0.12"/>
<stop offset="1" stop-color="#808080" stop-opacity="0.1"/>
</linearGradient>
<linearGradient id="paint1_linear" x1="142.24" y1="271.594" x2="121.502" y2="200.705" gradientUnits="userSpaceOnUse">
<stop stop-opacity="0.12"/>
<stop offset="0.55" stop-opacity="0.09"/>
<stop offset="1" stop-opacity="0.02"/>
</linearGradient>
<linearGradient id="paint2_linear" x1="-97.2632" y1="4717.73" x2="-195.042" y2="4383.49" gradientUnits="userSpaceOnUse">
<stop stop-opacity="0.12"/>
<stop offset="0.55" stop-opacity="0.09"/>
<stop offset="1" stop-opacity="0.02"/>
</linearGradient>
<linearGradient id="paint3_linear" x1="-8892.09" y1="10148.4" x2="-9213.42" y2="9050.07" gradientUnits="userSpaceOnUse">
<stop stop-opacity="0.12"/>
<stop offset="0.55" stop-opacity="0.09"/>
<stop offset="1" stop-opacity="0.02"/>
</linearGradient>
<linearGradient id="paint4_linear" x1="-10880.6" y1="7379.73" x2="-10880.6" y2="6507.11" gradientUnits="userSpaceOnUse">
<stop stop-opacity="0.12"/>
<stop offset="0.55" stop-opacity="0.09"/>
<stop offset="1" stop-opacity="0.02"/>
</linearGradient>
<linearGradient id="paint5_linear" x1="-12872.5" y1="7193.53" x2="-12872.5" y2="6010.42" gradientUnits="userSpaceOnUse">
<stop stop-opacity="0.12"/>
<stop offset="0.55" stop-opacity="0.09"/>
<stop offset="1" stop-opacity="0.02"/>
</linearGradient>
<linearGradient id="paint6_linear" x1="225.665" y1="198.537" x2="247.609" y2="192.946" gradientUnits="userSpaceOnUse">
<stop stop-opacity="0.09"/>
<stop offset="0.55" stop-opacity="0.07"/>
<stop offset="1" stop-opacity="0.02"/>
</linearGradient>
<linearGradient id="paint7_linear" x1="-2862.44" y1="10007.5" x2="-2157.15" y2="9827.82" gradientUnits="userSpaceOnUse">
<stop stop-opacity="0.09"/>
<stop offset="0.55" stop-opacity="0.07"/>
<stop offset="1" stop-opacity="0.02"/>
</linearGradient>
<linearGradient id="paint8_linear" x1="269159" y1="199778" x2="269159" y2="87364.5" gradientUnits="userSpaceOnUse">
<stop stop-color="#808080" stop-opacity="0.25"/>
<stop offset="0.54" stop-color="#808080" stop-opacity="0.12"/>
<stop offset="1" stop-color="#808080" stop-opacity="0.1"/>
</linearGradient>
<linearGradient id="paint9_linear" x1="28158.7" y1="44738.2" x2="28158.7" y2="37404.2" gradientUnits="userSpaceOnUse">
<stop stop-opacity="0.12"/>
<stop offset="0.55" stop-opacity="0.09"/>
<stop offset="1" stop-opacity="0.02"/>
</linearGradient>
<linearGradient id="paint10_linear" x1="1149.61" y1="8048.6" x2="1149.61" y2="7698.73" gradientUnits="userSpaceOnUse">
<stop stop-opacity="0.12"/>
<stop offset="0.55" stop-opacity="0.09"/>
<stop offset="1" stop-opacity="0.02"/>
</linearGradient>
<linearGradient id="paint11_linear" x1="6353.42" y1="13736.8" x2="6353.42" y2="12586.8" gradientUnits="userSpaceOnUse">
<stop stop-opacity="0.12"/>
<stop offset="0.55" stop-opacity="0.09"/>
<stop offset="1" stop-opacity="0.02"/>
</linearGradient>
<linearGradient id="paint12_linear" x1="9655.86" y1="15419.1" x2="9655.86" y2="14584" gradientUnits="userSpaceOnUse">
<stop stop-opacity="0.12"/>
<stop offset="0.55" stop-opacity="0.09"/>
<stop offset="1" stop-opacity="0.02"/>
</linearGradient>
<linearGradient id="paint13_linear" x1="12213.4" y1="15351.3" x2="12213.4" y2="14339.7" gradientUnits="userSpaceOnUse">
<stop stop-opacity="0.12"/>
<stop offset="0.55" stop-opacity="0.09"/>
<stop offset="1" stop-opacity="0.02"/>
</linearGradient>
</defs>
</svg>
