<svg width="715" height="363" viewBox="0 0 715 363" fill="none" xmlns="http://www.w3.org/2000/svg">
<g opacity="0.5">
<path opacity="0.5" d="M152.275 115.678C150.631 115.546 148.937 114.102 148.773 112.024C148.576 109.542 150.417 107.722 151.585 105.693C153.624 102.081 153.377 96.886 151.535 93.1415C149.694 89.397 146.504 86.8658 143.155 85.6107C140.376 84.5577 137.126 83.972 135.481 80.8899C132.883 75.8833 136.901 69.6006 137.246 63.6178C137.575 57.9208 133.87 52.3354 129.397 51.7636C126.81 51.4499 123.774 52.4609 121.899 50.1599C121.385 49.4853 120.992 48.6763 120.748 47.789C119.542 43.8074 120.107 39.3726 120.26 35.1121C120.414 30.8516 119.953 26.0472 117.372 23.3347C115.881 21.7518 113.908 21.1312 111.995 20.7337C106.19 19.5274 100.244 19.9388 94.4226 21.0266C86.3161 22.5397 77.8643 25.7473 72.4984 33.6199C67.1324 41.4924 66.4308 55.1595 72.9095 61.5119C72.3613 60.9541 72.6025 59.7199 73.3863 58.2416C73.3863 58.381 73.3863 58.5135 73.3863 58.653C73.3832 62.943 74.417 67.1304 76.3475 70.6479C78.278 74.1653 81.0118 76.8426 84.1785 78.3169V79.7882C82.9991 80.1535 81.8738 80.7587 80.846 81.5803C69.8072 85.0458 47.7294 102.353 47.7294 102.353L15.3089 109.326C15.3089 109.326 -0.586189 112.436 0.0167283 115.553C0.619646 118.67 15.3089 116.334 15.3089 116.334H48.0912C51.066 116.329 53.9918 115.37 56.5978 113.545L74.5209 100.993C74.4332 102.806 74.3893 104.675 74.3784 106.572C71.5447 109.152 68.7713 114.786 74.5976 126.389L74.6415 126.068C74.6415 126.173 74.6415 126.284 74.6415 126.389L68.1245 164.615C66.1403 166.484 64.781 168.206 65.2524 169.126C65.5264 169.656 66.2609 169.754 67.264 169.58L58.2421 222.575L83.5208 261.414L87.7412 292.165L83.7674 297.012L69.0234 300.498C68.6946 300.575 68.4004 300.805 68.1985 301.144C67.9967 301.483 67.9019 301.906 67.9328 302.329C67.9638 302.752 68.1182 303.146 68.3657 303.431C68.6132 303.717 68.9358 303.875 69.27 303.873H101.575V296.126H101.871L101.323 286.824L111.535 278.331L108.186 271.818L107.709 272.215L99.5529 257.719L98.1553 234.875L113.064 166.163V166.086L109.402 146.917L115.821 142.775C117.842 141.469 119.425 139.278 120.277 136.606C121.13 133.933 121.196 130.959 120.463 128.23C119.482 124.611 118.271 120.343 116.857 116.006C118.976 118.697 121.427 120.927 124.114 122.609C134.736 128.962 147.474 122.909 157 114.193C155.493 114.981 153.914 115.818 152.275 115.678ZM106.519 131.807L104.245 119.911L107.336 129.966C106.925 130.879 106.618 131.563 106.514 131.814L106.519 131.807ZM93.8252 79.8998V79.0072C95.939 78.3509 97.929 77.1657 99.679 75.5207C99.5278 78.654 99.7664 81.798 100.386 84.8366C98.9445 82.4588 96.8617 80.8132 93.8197 79.9137L93.8252 79.8998ZM76.6585 216.975L89.7254 168.91L81.712 225.97L76.6585 216.975Z" fill="url(#paint0_linear)"/>
</g>
<path d="M107.353 268.785L95.9027 278.31L82.7043 294.411C82.4869 294.677 82.3494 295.032 82.3154 295.414C82.2814 295.796 82.353 296.181 82.5179 296.503C82.6111 296.684 82.7316 296.841 82.8724 296.963C83.0132 297.086 83.1716 297.172 83.3385 297.217C83.5055 297.261 83.6777 297.264 83.8453 297.224C84.013 297.184 84.1729 297.102 84.3157 296.984L110.625 275.116L107.353 268.785Z" fill="#333333"/>
<path d="M83.6911 96.4328L57.223 114.918C54.6884 116.688 51.8436 117.617 48.9521 117.617H17.0742V110.797L48.5958 103.985C48.5958 103.985 84.2885 76.0018 86.6454 85.0807C89.0023 94.1596 83.6911 96.4328 83.6911 96.4328Z" fill="#8484FF"/>
<path d="M112.121 166.051H68.1904L74.7677 127.463C74.7677 106.46 71.4791 81.5175 87.9935 81.5175C104.503 81.5175 102.721 95.8679 102.721 116.864L112.121 166.051Z" fill="#8484FF"/>
<path d="M84.0361 66.8532H93.3978V83.3583C93.3978 84.8138 92.9433 86.2096 92.1344 87.2388C91.3254 88.2679 90.2282 88.8461 89.0842 88.8461H88.3497C87.2057 88.8461 86.1085 88.2679 85.2996 87.2388C84.4906 86.2096 84.0361 84.8138 84.0361 83.3583V66.8532Z" fill="#FDA57D"/>
<path d="M68.1903 165.968L58.8286 220.943L96.9988 279.586L107.078 269.51L76.7079 215.448L90.1584 165.968H68.1903Z" fill="#E0E0E0"/>
<path opacity="0.04" d="M68.1903 165.968L58.8286 220.943L96.9988 279.586L107.078 269.51L76.7079 215.448L90.1584 165.968H68.1903Z" fill="black"/>
<path d="M89.7967 165.968L80.1226 234.903L88.0098 292.409H101.225L97.6236 232.86L112.121 165.968H89.7967Z" fill="#E0E0E0"/>
<path opacity="0.05" d="M105.698 132.755L76.5547 159.253L78.9335 164.552L113.004 142.566C114.974 141.296 116.517 139.162 117.348 136.558C118.178 133.953 118.239 131.055 117.52 128.397C113.459 113.405 105.698 132.755 105.698 132.755Z" fill="black"/>
<path opacity="0.05" d="M97.8592 102.234L107.473 133.508L77.7437 155.424L80.7199 165.263L114.79 143.277C116.761 142.007 118.304 139.873 119.134 137.269C119.964 134.664 120.025 131.766 119.307 129.108C115.245 114.137 106.854 87.6816 99.7337 93.9015C98.728 94.8176 97.9955 96.1395 97.6552 97.6524C97.3148 99.1652 97.3868 100.78 97.8592 102.234Z" fill="black"/>
<path d="M97.2672 100.721L106.886 132.002L77.7437 156.972L79.5195 163.792L114.182 141.806C116.152 140.536 117.695 138.402 118.526 135.797C119.356 133.193 119.417 130.294 118.698 127.637C114.637 112.666 106.245 86.2103 99.1253 92.4302C98.1298 93.3471 97.4054 94.663 97.0684 96.1666C96.7314 97.6702 96.8014 99.2742 97.2672 100.721Z" fill="#8484FF"/>
<path d="M100.939 292.416H87.2368L69.2644 296.705C68.9669 296.776 68.6983 296.978 68.5052 297.274C68.312 297.571 68.2064 297.944 68.2065 298.329C68.2065 298.768 68.3434 299.188 68.587 299.498C68.8306 299.808 69.161 299.982 69.5056 299.982H100.918L100.939 292.416Z" fill="#333333"/>
<path opacity="0.05" d="M98.5605 102.485C98.5605 102.485 105.686 114.59 104.508 123.669L98.5605 102.485Z" fill="black"/>
<path opacity="0.05" d="M84.0361 82.2078C87.037 83.6019 90.2966 83.8252 93.3978 82.8493V68.3663H84.0361V82.2078Z" fill="black"/>
<path d="M89.5447 81.9149C98.3839 81.9149 105.549 72.7989 105.549 61.5537C105.549 50.3085 98.3839 41.1925 89.5447 41.1925C80.7056 41.1925 73.54 50.3085 73.54 61.5537C73.54 72.7989 80.7056 81.9149 89.5447 81.9149Z" fill="#FDA57D"/>
<path d="M17.0737 110.797C17.0737 110.797 1.61163 113.823 2.20359 116.85C2.79554 119.876 17.0737 117.61 17.0737 117.61V110.797Z" fill="#FDA57D"/>
<path d="M78.1384 157.112C78.1384 157.112 64.2987 166.4 65.6416 169.015C66.9844 171.63 79.8923 163.548 79.8923 163.548L78.1384 157.112Z" fill="#FDA57D"/>
<path d="M77.7443 106.272C77.7443 106.272 65.7572 109.605 74.7242 127.456L77.7443 106.272Z" fill="#8484FF"/>
<path opacity="0.05" d="M92.0163 107.785C92.0163 107.785 80.0291 111.118 88.9962 128.969L92.0163 107.785Z" fill="black"/>
<path d="M92.6144 107.785C92.6144 107.785 80.6273 111.118 89.5943 128.969L92.6144 107.785Z" fill="#8484FF"/>
<path d="M101.444 68.0874C98.2817 74.6072 98.4736 83.0724 100.567 90.2546C102.661 97.4368 106.449 103.587 110.285 109.493C113.881 115.03 117.734 120.615 122.842 123.669C133.174 129.847 145.556 123.962 154.824 115.49C153.355 116.285 151.815 117.101 150.226 116.968C148.636 116.836 146.981 115.434 146.817 113.419C146.625 111.006 148.461 109.235 149.557 107.262C151.541 103.775 151.3 98.6989 149.513 95.0242C147.726 91.3494 144.624 88.9437 141.363 87.7025C138.661 86.6775 135.482 86.1057 133.925 83.1142C131.404 78.2331 135.306 72.1387 135.641 66.3232C135.964 60.7867 132.352 55.3547 128.011 54.8247C125.495 54.5179 122.53 55.522 120.721 53.2628C120.229 52.6036 119.855 51.816 119.625 50.9547C118.452 47.0847 119 42.7684 119.148 38.6264C119.296 34.4845 118.847 29.8265 116.342 27.1767C114.889 25.6427 112.976 25.036 111.113 24.6525C105.467 23.481 99.6849 23.8785 94.0284 24.9384C86.1411 26.4097 77.9305 29.5266 72.7071 37.183C67.4836 44.8394 66.804 58.1021 73.1072 64.3359C70.8764 62.1394 81.7508 49.2045 86.8592 53.1791C92.6746 57.6697 92.7952 68.5197 101.444 68.0874Z" fill="#333333"/>
<path opacity="0.1" d="M420 326.496C429.624 331.226 441.367 328.348 452.289 328.681C453.781 328.727 455.366 328.867 456.563 329.685C457.76 330.503 458.353 331.824 459.174 332.96C462.235 337.178 468.507 338.534 473.988 337.818C479.469 337.103 484.494 334.732 489.666 332.93C498.607 329.81 508.825 328.386 517.644 331.794C518.452 332.104 519.32 332.464 520.172 332.339C522.106 332.063 522.683 329.798 524.034 328.507C526.474 326.171 531.777 326.807 532.85 323.728C533.477 321.926 532.032 320.078 530.457 318.848C524.423 314.137 515.807 313.361 507.919 314.088C500.032 314.815 492.278 316.818 484.35 316.825C474.471 316.825 464.927 313.751 455.145 312.49C448.37 311.619 440.975 311.733 434.623 314.296C427.737 317.068 426.222 323.312 420 326.496Z" fill="#8484FF"/>
<path opacity="0.1" d="M292 329.723C308.266 335.178 328.117 331.857 346.574 332.244C349.1 332.298 351.775 332.456 353.804 333.403C355.832 334.351 356.828 335.878 358.219 337.184C363.391 342.052 373.99 343.617 383.252 342.79C392.513 341.963 401.011 339.229 409.755 337.149C424.866 333.55 442.141 331.911 457.046 335.835C458.413 336.195 459.854 336.608 461.321 336.465C464.588 336.144 465.56 333.535 467.848 332.043C471.974 329.336 480.933 330.082 482.746 326.533C483.808 324.454 481.365 322.32 478.702 320.901C468.518 315.469 453.945 314.572 440.61 315.411C427.276 316.25 414.17 318.558 400.776 318.57C384.078 318.57 367.945 315.024 351.41 313.567C339.958 312.562 327.46 312.686 316.721 315.655C305.079 318.859 302.513 326.062 292 329.723Z" fill="#8484FF"/>
<path opacity="0.1" d="M248 342.487C252.61 345.575 258.207 343.697 263.43 343.914C264.144 343.943 264.902 344.035 265.475 344.567C266.047 345.098 266.331 345.968 266.723 346.708C268.184 349.463 271.181 350.35 273.799 349.881C276.416 349.411 278.82 347.867 281.293 346.686C285.573 344.651 290.45 343.723 294.661 345.953C295.022 346.21 295.445 346.338 295.873 346.32C296.795 346.136 297.072 344.658 297.717 343.815C298.883 342.289 301.418 342.715 301.928 340.694C302.228 339.517 301.537 338.31 300.786 337.507C297.908 334.43 293.785 333.924 290.015 334.397C286.245 334.87 282.541 336.154 278.751 336.154C274.032 336.154 269.472 334.147 264.796 333.322C261.556 332.75 258.023 332.824 254.987 334.503C251.698 336.337 250.973 340.415 248 342.487Z" fill="#8484FF"/>
<path d="M387.5 320C391.09 320 394 316.866 394 313C394 309.134 391.09 306 387.5 306C383.91 306 381 309.134 381 313C381 316.866 383.91 320 387.5 320Z" fill="#F6F7F9"/>
<path d="M511.081 126.079C503.224 120.983 500.256 119.719 500.24 119.711L500.081 119.581C499.224 118.839 498.543 117.869 498.098 116.759C498.098 116.554 498.098 116.352 498.098 116.151V116.211C498.224 113.511 499.926 111.055 501.542 108.911L505.67 103.43C506.141 102.889 506.504 102.241 506.734 101.529C506.82 101.148 506.857 100.755 506.847 100.362C506.847 100.202 506.847 100.041 506.847 99.8849C506.827 98.5241 506.791 97.1596 506.748 95.7839C506.708 94.5946 506.437 93.0959 505.383 92.8498C504.834 92.7231 504.11 92.9468 503.819 92.4136C503.722 92.1958 503.697 91.9456 503.75 91.709C503.748 91.7276 503.748 91.7463 503.75 91.7649V91.6978C503.955 90.7797 504.087 89.8427 504.143 88.898C504.164 88.4178 504.106 87.9375 503.971 87.4812C503.36 85.5053 501.258 84.6963 499.397 84.3235C497.536 83.9507 495.454 83.63 494.287 81.9896C493.927 81.4826 493.682 80.8712 493.272 80.4126C492.734 79.8747 492.078 79.5091 491.372 79.3538C489.064 78.7104 486.632 78.9491 484.458 80.0323C483.559 80.4834 482.656 81.0949 481.671 81.0278C480.686 80.9607 479.771 80.1591 478.76 79.9652C477.127 79.6521 475.563 81.0054 474.76 82.6048C474.283 83.5561 474.028 84.6286 474.02 85.7215C474.02 85.7812 474.02 85.8446 474.02 85.9042C473.996 87.0791 474.376 88.2189 475.081 89.0844C475.785 89.9083 476.836 90.475 477.127 91.5599C477.246 91.9998 477.216 92.477 477.322 92.9244C477.322 92.9803 477.352 93.0362 477.368 93.0884L477.315 93.1667C475.63 95.6031 474.717 98.6065 474.724 101.697C474.741 104.695 475.603 107.608 477.185 110.017C478.768 112.426 480.988 114.205 483.526 115.096C483.526 115.234 483.526 115.375 483.526 115.513C483.526 117.206 483.099 118.932 481.817 120.204L470.692 125.251C470.692 125.251 463.985 124.353 461.566 135.411C461.177 137.247 461.036 139.138 461.15 141.022C461.239 142.688 461.034 145.626 459.315 149.425C456.562 155.502 457.19 169.453 462.815 170.836C468.127 172.141 470.206 171.582 470.417 171.533V171.775C470.331 174.385 469.489 196.974 466.425 199.707C465.579 200.453 465.737 200.975 466.425 201.318C466.425 201.318 466.425 201.463 466.405 201.724C466.312 203.376 465.84 209.665 463.79 213.244C461.414 217.386 461.662 241.287 461.662 241.287L460.066 255.391C460.066 255.391 461.057 264.093 460.066 265.614C459.173 266.967 457.983 299.167 457.752 306.143H457.646C457.157 306.176 456.682 306.344 456.263 306.632C455.844 306.92 455.494 307.319 455.243 307.794C453.921 310.203 449.327 314.651 449.327 314.651C448.335 316.25 444.637 317.779 442.684 318.502C442.422 318.597 442.169 318.722 441.93 318.875C441.2 319.324 440.614 320.02 440.254 320.865C440.127 321.115 440.046 321.391 440.014 321.676C439.983 321.962 440.003 322.251 440.073 322.528C440.575 323.908 450.953 324.873 453.577 323.494C455.643 322.405 463.823 320.977 467.218 320.418C467.834 320.33 468.407 320.013 468.847 319.518C469.286 319.023 469.568 318.377 469.647 317.682C469.677 317.44 469.663 317.193 469.606 316.957C469.55 316.722 469.451 316.501 469.317 316.31C468.656 315.4 468.325 312.921 468.183 311.303C468.459 311.177 468.716 311.005 468.946 310.792C468.668 305.773 469.306 300.743 470.821 296.013C473.323 288.557 474.073 274.737 473.465 265.759C473.465 265.759 481.093 228.738 487.095 225.282C487.188 225.413 490.1 229.633 490.47 242.685C490.846 255.947 495.097 264.648 495.097 264.648C495.097 264.648 493.22 287.166 495.097 295.592L492.641 308.887C492.463 308.712 492.347 308.577 492.347 308.577C492.347 308.577 492.42 308.95 492.522 309.539L492.469 309.819L492.575 309.849C492.853 311.511 493.266 314.408 493.097 316.108C492.998 317.074 492.767 318.401 492.595 319.702C492.337 321.749 492.264 323.732 493.22 324.176C494.783 324.884 503.975 325.854 505.538 323.576C505.889 323.111 506.117 322.545 506.198 321.942C506.278 321.338 506.208 320.721 505.994 320.161C505.88 319.848 505.727 319.555 505.538 319.292C505.538 319.292 503.099 314.792 503.786 311.62C503.851 311.309 503.859 310.988 503.809 310.674C503.759 310.36 503.652 310.062 503.495 309.796C503.601 308.238 504.156 301.032 505.601 294.91C507.164 288.263 510.466 273.689 508.037 264.104C507.944 263.731 507.838 263.358 507.726 262.985C506.324 257.754 505.857 252.261 506.351 246.824C505.449 242.181 505.449 237.374 506.351 232.731C507.852 224.995 508.899 217.397 508.899 217.397C508.899 217.397 509.729 207.178 509.005 200.911L508.955 200.509L509.352 200.408C509.352 200.408 507.227 189.771 506.477 183.005C506.298 181.405 506.067 179.381 505.816 177.219C506.508 177.094 507.191 176.903 507.855 176.648C514.584 174.012 516.699 150.256 516.699 150.256V142.725C516.699 142.725 518.96 131.19 511.081 126.079ZM460.776 309.532C460.568 309.412 460.446 309.334 460.446 309.334L460.776 309.532Z" fill="url(#paint1_linear)"/>
<path d="M507.408 263.526C510.433 273.027 506.903 288.445 505.265 295.329C503.626 302.212 503.121 310.479 503.121 310.479C496.693 311.579 492.03 310.199 492.03 310.199L494.676 296.03C492.785 287.632 494.676 265.189 494.676 265.189C494.676 265.189 490.392 256.516 490.013 243.297C489.641 230.284 486.705 226.082 486.599 225.951C480.55 229.393 472.86 266.296 472.86 266.296C473.491 275.246 472.733 289.012 470.214 296.447C468.686 301.17 468.043 306.18 468.323 311.18C467.442 311.993 466.217 312.131 464.892 311.899C461.305 311.247 457 307.861 457 307.861C457 307.861 458.365 267.661 459.39 266.144C460.414 264.626 459.39 255.953 459.39 255.953L461.025 241.91C461.025 241.91 460.775 218.087 463.168 213.945C465.237 210.376 465.711 204.108 465.804 202.464C465.804 202.203 465.824 202.057 465.824 202.057L469.47 197.284C469.47 197.284 504.766 194.395 507.412 197.284C508.064 197.997 508.463 199.607 508.702 201.64C509.429 207.885 508.596 218.072 508.596 218.072C508.596 218.072 507.538 225.645 506.026 233.36C505.115 237.988 505.115 242.775 506.026 247.403C505.524 252.824 505.994 258.301 507.408 263.526Z" fill="#65617D"/>
<path d="M504.353 323.614C502.888 325.83 494.283 324.888 492.818 324.2C491.924 323.774 491.994 321.846 492.235 319.855C492.387 318.589 492.612 317.308 492.704 316.358C492.939 313.938 492 309.033 492 309.033C492 309.033 493.934 311.383 494.4 309.033C494.606 308.006 495.326 307.479 496.071 307.213C497.075 306.867 498.153 306.944 499.112 307.431C500.631 308.188 503.17 309.804 502.714 311.987C502.08 315.073 504.353 319.451 504.353 319.451C504.529 319.708 504.672 319.992 504.778 320.295C504.979 320.84 505.045 321.438 504.97 322.023C504.895 322.608 504.682 323.158 504.353 323.614Z" fill="#A27772"/>
<path opacity="0.1" d="M504.348 323.653C502.875 325.807 494.218 324.891 492.745 324.223C491.845 323.809 491.916 321.934 492.158 320C493.086 320.481 494.668 320.884 497.303 320.612C497.919 320.548 498.537 320.527 499.156 320.548C501.03 320.644 502.907 320.602 504.776 320.424C504.978 320.954 505.045 321.536 504.97 322.105C504.895 322.675 504.68 323.21 504.348 323.653Z" fill="black"/>
<path opacity="0.1" d="M473.708 266.655C474.319 275.534 473.586 289.193 471.148 296.569C469.67 301.255 469.048 306.226 469.319 311.186C468.467 311.993 467.281 312.13 466 311.9C466.736 306.129 469.87 281.313 471.895 261.702C474.167 239.368 484.867 224 484.867 224L487 226.63C481.142 230.041 473.708 266.655 473.708 266.655Z" fill="black"/>
<path d="M501 120.696L499.502 129.033L492.165 143L483.118 138.623C483.118 138.623 470.825 124.031 478.549 121.946C479.475 121.722 480.349 121.281 481.115 120.651C482.633 119.356 483.108 117.47 483.108 115.626C483.108 112.581 481.852 109.646 481.852 109.646L497.677 104C497.024 106.356 496.642 108.797 496.541 111.264C496.422 116.157 498.023 118.551 499.335 119.699C499.827 120.152 500.392 120.491 501 120.696Z" fill="#FBBEBE"/>
<path opacity="0.1" d="M498 104C497.298 106.49 496.888 109.07 496.779 111.677C496.47 112.088 496.14 112.479 495.791 112.847C494.036 114.716 491.86 116.022 489.493 116.624C487.127 117.226 484.658 117.103 482.349 116.268C482.349 113.05 481 109.947 481 109.947L498 104Z" fill="black"/>
<path d="M500 102.004C499.999 104.773 499.265 107.48 497.891 109.782C496.516 112.084 494.563 113.878 492.278 114.937C489.993 115.995 487.479 116.271 485.054 115.729C482.63 115.188 480.403 113.852 478.655 111.893C476.908 109.933 475.719 107.437 475.238 104.721C474.758 102.004 475.007 99.189 475.956 96.6313C476.904 94.0736 478.508 91.8884 480.565 90.352C482.623 88.8156 485.041 87.9971 487.513 88.0001C489.156 87.9942 490.783 88.3525 492.302 89.0544C493.82 89.7563 495.199 90.7878 496.36 92.0896C497.521 93.3914 498.44 94.9377 499.065 96.6392C499.69 98.3408 500.007 100.164 500 102.004Z" fill="#FBBEBE"/>
<path opacity="0.1" d="M501 120.967L499.502 129.202L492.165 143L483.118 138.676C483.118 138.676 470.825 124.261 478.549 122.201C479.475 121.98 480.349 121.544 481.115 120.922C479.719 125.216 485.48 134.147 485.48 134.147C486.145 135.263 487.69 134.556 487.69 134.556C491.398 133.932 498.232 121.985 499.345 120C499.835 120.44 500.397 120.769 501 120.967Z" fill="black"/>
<path opacity="0.1" d="M509 201.269C506.811 201.788 494.686 204.589 490.087 203.888C485.031 203.115 475.191 202.603 475.191 202.603C475.191 202.603 468.928 202.951 467 202.039C467 201.795 467.02 201.659 467.02 201.659L470.589 197.2C470.589 197.2 505.147 194.5 507.737 197.2C508.375 197.858 508.766 199.363 509 201.269Z" fill="black"/>
<path d="M485.104 134.554C485.104 134.554 478.538 124.416 481.012 120.477L469.92 125.542C469.92 125.542 463.243 124.641 460.82 135.74C460.433 137.585 460.293 139.483 460.405 141.373C460.493 143.047 460.291 145.995 458.579 149.806C455.838 155.908 456.462 169.91 462.064 171.299C467.665 172.688 469.654 171.99 469.654 171.99C469.654 171.99 468.909 197.365 465.673 200.275C462.438 203.185 473.921 202.494 473.921 202.494C473.921 202.494 483.843 203.05 488.946 203.88C494.049 204.71 508.36 200.97 508.36 200.97C508.36 200.97 506.244 190.291 505.499 183.498C504.754 176.706 503.008 162.238 503.008 162.238L515.704 143.089C515.704 143.089 517.942 131.512 510.103 126.383C502.263 121.254 499.317 120 499.317 120C499.317 120 491.451 134.268 487.345 134.971C487.345 134.971 485.785 135.669 485.104 134.554Z" fill="#7C7CDD"/>
<path opacity="0.1" d="M471.041 138C471.041 138 470.921 142.786 471.639 144.675C472.358 146.564 475 157 475 157H469C469 157 472.25 152.795 472 150.765C471.75 148.735 471.041 138 471.041 138Z" fill="black"/>
<path d="M489.383 173C489.383 173 475.956 169.329 474.705 166.22C473.454 163.111 470 156.129 470 156.129L471.416 154L477.948 159.715C477.948 159.715 485.729 166.628 489.377 167.307C493.025 167.986 489.383 173 489.383 173Z" fill="#FBBEBE"/>
<path opacity="0.05" d="M489.383 173C489.383 173 475.956 169.329 474.705 166.22C473.454 163.111 470 156.129 470 156.129L471.416 154L477.948 159.715C477.948 159.715 485.729 166.628 489.377 167.307C493.025 167.986 489.383 173 489.383 173Z" fill="black"/>
<path d="M501 155.071V163.364H499.792C493.83 163.365 487.966 165.043 482.753 168.238L480.493 169.625L479.886 170L476 160.335L479.634 156.735H479.821C480.71 156.829 484.555 157.185 486.184 156.578C487.731 155.997 489.652 154.156 494.21 155.453C496.456 156.087 498.373 158.869 500.552 157.999L501 155.071Z" fill="#FBBEBE"/>
<path opacity="0.1" d="M513.475 140.342L516 143.427V150.912C516 150.912 513.854 174.524 507.04 177.134C500.227 179.744 488.066 175.621 488.066 175.621C488.066 175.621 484.922 166.56 486.391 166.014C487.86 165.467 499.376 162.155 499.376 162.155C499.376 162.155 499.215 148.302 501.737 144.182C501.737 144.182 500.097 131.281 505.776 131.006C511.455 130.731 513.475 140.342 513.475 140.342Z" fill="black"/>
<path d="M513.56 140.342L516 143.427V150.912C516 150.912 513.933 174.524 507.33 177.134C500.727 179.744 488.993 175.621 488.993 175.621C488.993 175.621 485.959 166.56 487.378 166.014C488.798 165.467 499.924 162.155 499.924 162.155C499.924 162.155 499.766 148.302 502.206 144.182C502.206 144.182 500.621 131.281 506.108 131.006C511.596 130.731 513.56 140.342 513.56 140.342Z" fill="#7C7CDD"/>
<path opacity="0.1" d="M496.467 108.661C496.518 107.725 496.535 106.736 496.181 105.893C495.828 105.049 494.999 104.376 494.19 104.591C493.116 104.876 492.654 106.459 491.601 106.84C490.714 107.159 489.746 106.455 489.324 105.508C488.903 104.56 488.889 103.467 488.886 102.427C488.886 101.242 488.886 100.052 488.886 98.8659C488.886 97.5723 488.849 96.1708 488.145 95.1621C487.272 93.8953 485.216 93.3448 483.843 93.3948C482.929 93.4069 482.052 93.8082 481.387 94.5191C480.653 95.2237 479.803 95.7473 478.801 95.5586C478.384 95.4871 477.994 95.2836 477.676 94.9716C477.357 94.6595 477.123 94.2517 477 93.7952V93.749C478.067 92.152 479.414 90.8227 480.957 89.8449C482.5 88.8672 484.204 88.2622 485.964 88.0682C487.723 87.8742 489.499 88.0953 491.179 88.7176C492.859 89.3399 494.408 90.3499 495.726 91.6839C497.045 93.0179 498.105 94.647 498.84 96.4684C499.576 98.2899 499.97 100.264 499.998 102.267C500.027 104.27 499.689 106.257 499.005 108.105C498.322 109.952 497.308 111.619 496.028 113C496.246 111.564 496.393 110.115 496.467 108.661Z" fill="black"/>
<path d="M478.959 95.4074C478.554 95.3377 478.175 95.1407 477.865 94.8391C477.556 94.5375 477.328 94.1437 477.209 93.7029C477.107 93.261 477.133 92.7894 477.018 92.3475C476.734 91.2706 475.697 90.7099 475.037 89.893C473.664 88.2516 473.753 85.5557 474.727 83.5802C475.512 81.9908 477.037 80.6503 478.625 80.9585C479.615 81.1516 480.464 81.9426 481.464 82.0131C482.464 82.0837 483.302 81.4747 484.18 81.0254C486.293 79.9487 488.669 79.7117 490.917 80.3532C491.608 80.5094 492.249 80.8725 492.772 81.4041C493.126 81.9057 493.457 82.4275 493.763 82.9675C494.901 84.5977 496.935 84.917 498.747 85.2846C500.559 85.6523 502.605 86.4581 503.203 88.4188C503.596 89.7185 503.203 91.1295 502.988 92.4812C502.912 92.7566 502.928 93.0541 503.035 93.3167C503.318 93.844 504.025 93.6249 504.56 93.7512C505.589 93.9926 505.853 95.4817 505.88 96.6625C505.924 98.0142 505.957 99.3659 505.979 100.718C506.04 101.344 505.968 101.978 505.769 102.568C505.57 103.157 505.249 103.685 504.833 104.108L500.81 109.548C499.024 111.962 497.129 114.773 497.489 117.885C496.644 118.312 495.641 117.487 495.363 116.492C495.086 115.497 495.311 114.427 495.496 113.406C495.821 111.641 496.034 109.851 496.133 108.052C496.182 107.145 496.199 106.195 495.855 105.382C495.512 104.568 494.707 103.896 493.921 104.123C492.878 104.398 492.429 105.924 491.406 106.291C490.548 106.6 489.604 105.92 489.194 105.007C488.785 104.093 488.772 103.038 488.768 102.036V98.5972C488.768 97.3532 488.732 95.9978 488.049 95.0249C487.201 93.8032 485.204 93.2722 483.87 93.3205C482.982 93.3328 482.13 93.7198 481.484 94.4048C480.757 95.0843 479.932 95.5856 478.959 95.4074Z" fill="#7C5C5C"/>
<path opacity="0.1" d="M481 138L485.262 156C485.262 156 488.624 155.981 481 138Z" fill="black"/>
<path opacity="0.1" d="M494 135C494 135 489.715 144.795 491.387 154.917L492.186 155C492.186 155 490.759 150.312 494 135Z" fill="black"/>
<path opacity="0.1" d="M498 188.419C498 188.419 504.526 186.464 505 191C505 191 503.768 187.891 498 188.419Z" fill="black"/>
<path opacity="0.1" d="M480.05 157C480.05 157 478.882 166.511 481 170.316C481 170.316 476.72 172.354 470.712 171.946L470 157H480.05Z" fill="black"/>
<path opacity="0.1" d="M481 169.633L480.324 170L476 160.527L480.045 157H480.252C480.188 157.456 479.063 165.613 481 169.633Z" fill="black"/>
<path d="M480.075 157C480.075 157 478.938 166.51 481 170.316C481 170.316 476.833 172.354 470.982 171.946L467 157H480.075Z" fill="#7C7CDD"/>
<path d="M469.979 318.53C469.909 319.218 469.637 319.859 469.207 320.354C468.777 320.848 468.214 321.167 467.606 321.26C464.296 321.821 456.292 323.247 454.273 324.331C451.707 325.709 441.562 324.745 441.072 323.367C440.934 322.81 440.997 322.213 441.247 321.709C441.6 320.866 442.179 320.169 442.902 319.718C443.136 319.566 443.382 319.441 443.637 319.344C445.547 318.623 449.155 317.103 450.132 315.497C450.132 315.497 454.63 311.056 455.911 308.654C456.153 308.183 456.494 307.785 456.904 307.498C457.313 307.21 457.78 307.04 458.261 307.003C459.334 306.947 460.526 307.556 461.012 310.204C461.012 310.204 466.878 313.981 468.463 310.668C468.463 310.668 468.708 315.755 469.682 317.144C469.81 317.341 469.903 317.565 469.954 317.803C470.005 318.041 470.014 318.288 469.979 318.53Z" fill="#A27772"/>
<path opacity="0.1" d="M469.98 318.405C469.909 319.106 469.638 319.76 469.208 320.264C468.778 320.768 468.215 321.093 467.607 321.188C464.297 321.759 456.292 323.214 454.273 324.318C451.708 325.723 441.562 324.74 441.072 323.335C440.934 322.767 440.997 322.16 441.247 321.645C441.6 320.786 442.179 320.076 442.902 319.616C444.557 320.88 448.228 322.113 456.306 320.663C464.009 319.281 467.822 317.925 469.682 317C469.81 317.2 469.902 317.427 469.953 317.668C470.005 317.909 470.014 318.16 469.98 318.405Z" fill="black"/>
<g opacity="0.1">
<path opacity="0.1" d="M503.138 92.0352V91.9677C503.315 90.9295 503.578 89.8574 503.518 88.8229C503.439 89.672 503.312 90.5145 503.138 91.3455C503.091 91.5724 503.091 91.8083 503.138 92.0352Z" fill="black"/>
<path opacity="0.1" d="M495.938 104.989C496.132 105.489 496.235 106.027 496.242 106.571C496.299 105.82 496.195 105.064 495.938 104.367C495.604 103.539 494.779 102.887 493.984 103.097C492.929 103.374 492.475 104.915 491.439 105.286C490.568 105.597 489.616 104.911 489.198 103.989C488.781 103.067 488.774 102.002 488.771 100.99C488.771 99.8317 488.771 98.6772 488.771 97.519C488.771 96.2633 488.734 94.8952 488.043 93.9131C487.185 92.6799 485.161 92.1439 483.815 92.1926C482.916 92.2043 482.054 92.595 481.4 93.2871C480.676 93.9768 479.844 94.4828 478.859 94.3029C478.449 94.2326 478.066 94.0337 477.753 93.7293C477.44 93.4249 477.21 93.0273 477.089 92.5824C476.985 92.1364 477.012 91.6603 476.895 91.2143C476.605 90.1272 475.559 89.5612 474.892 88.7366C474.242 87.9333 473.873 86.8936 473.853 85.8091C473.801 86.449 473.867 87.094 474.046 87.7044C474.224 88.3148 474.512 88.8778 474.892 89.3588C475.586 90.1835 476.618 90.7532 476.895 91.8402C477.012 92.2825 476.985 92.7586 477.089 93.2046C477.21 93.6495 477.44 94.0471 477.753 94.3515C478.066 94.6559 478.449 94.8548 478.859 94.9251C479.861 95.1051 480.676 94.599 481.4 93.9093C482.054 93.2172 482.916 92.8265 483.815 92.8148C485.151 92.7661 487.185 93.3059 488.043 94.5353C488.734 95.5249 488.768 96.8855 488.771 98.1412C488.771 99.2995 488.771 100.454 488.771 101.612C488.771 102.639 488.771 103.708 489.198 104.611C489.626 105.514 490.568 106.219 491.439 105.908C492.475 105.533 492.929 103.996 493.984 103.719C494.789 103.513 495.594 104.161 495.938 104.989Z" fill="black"/>
<path opacity="0.1" d="M506.074 101.177C505.849 101.888 505.491 102.538 505.025 103.082C503.669 104.913 502.312 106.744 500.954 108.573C499.241 110.886 497.424 113.562 497.558 116.512C497.681 113.806 499.361 111.343 500.954 109.195L505.025 103.707C505.491 103.162 505.848 102.511 506.074 101.8C506.175 101.308 506.211 100.803 506.181 100.3C506.177 100.596 506.141 100.891 506.074 101.177Z" fill="black"/>
<path opacity="0.1" d="M495.457 115.582C495.391 115.339 495.351 115.087 495.337 114.833C495.302 115.292 495.343 115.754 495.457 116.197C495.738 117.202 496.756 118.03 497.611 117.599C497.588 117.397 497.574 117.194 497.568 116.992C496.706 117.389 495.718 116.572 495.457 115.582Z" fill="black"/>
</g>
<path opacity="0.1" d="M454 310C454 310 455.082 312.075 459 310.247L454 310Z" fill="black"/>
<path opacity="0.1" d="M494 310C494 310 497.982 315.357 503 311.754L494 310Z" fill="black"/>
<path opacity="0.1" d="M505 247C505 247 503.064 249.285 503.003 250.593C502.941 251.9 504.001 249.641 504.001 249.641L505 247Z" fill="black"/>
<path opacity="0.1" d="M508 263C506.838 263.926 505.393 264.466 503.883 264.539C501.385 264.644 501.592 267.762 503.224 266.824C504.855 265.886 508 263 508 263Z" fill="black"/>
<path opacity="0.1" d="M508 265C508 265 506.344 272.214 505 270.822L508 265Z" fill="black"/>
<path d="M279.509 318C279.509 318 281.507 320.727 278.584 324.836C275.661 328.946 273.251 332.433 274.216 335C274.216 335 278.624 327.351 282.224 327.244C285.824 327.138 283.458 322.599 279.509 318Z" fill="#8484FF"/>
<path opacity="0.1" d="M279.449 318C279.626 318.262 279.765 318.55 279.862 318.854C283.404 323.143 285.292 327.147 281.887 327.25C278.717 327.341 274.891 333.19 274 334.666C274.03 334.779 274.066 334.891 274.107 335C274.107 335 278.566 327.356 282.207 327.25C285.848 327.143 283.444 322.596 279.449 318Z" fill="black"/>
<path d="M284 320.782C284 322.007 283.78 323 283.504 323C283.228 323 283 322.007 283 320.782C283 319.557 283.283 320.138 283.559 320.138C283.835 320.138 284 319.566 284 320.782Z" fill="#FFD037"/>
<path d="M284.763 322.503C284.373 322.855 284.032 323.068 284.002 322.98C283.972 322.893 284.266 322.532 284.656 322.18C285.046 321.828 284.891 322.084 284.921 322.18C284.951 322.276 285.153 322.151 284.763 322.503Z" fill="#FFD037"/>
<path d="M269.593 318C269.593 318 267.994 320.727 270.332 324.836C272.671 328.946 274.599 332.433 273.827 335C273.827 335 270.3 327.351 267.42 327.244C264.54 327.138 266.436 322.599 269.593 318Z" fill="#8484FF"/>
<path opacity="0.1" d="M269.64 318C269.5 318.263 269.389 318.551 269.31 318.854C266.476 323.143 264.965 327.147 267.69 327.25C270.229 327.341 273.287 333.19 274 334.666C273.977 334.78 273.949 334.891 273.915 335C273.915 335 270.347 327.356 267.434 327.25C264.52 327.143 266.447 322.596 269.64 318Z" fill="black"/>
<path d="M266 320.782C266 322.007 266.22 323 266.496 323C266.772 323 267 322.007 267 320.782C267 319.557 266.717 320.138 266.441 320.138C266.165 320.138 266 319.566 266 320.782Z" fill="#FFD037"/>
<path d="M265.476 322.503C266.257 322.855 266.936 323.068 266.996 322.98C267.056 322.893 266.468 322.532 265.687 322.18C264.906 321.828 265.216 322.084 265.156 322.18C265.096 322.276 264.695 322.151 265.476 322.503Z" fill="#FFD037"/>
<path d="M267 334.145C267 334.145 272.375 333.967 273.998 332.716C275.622 331.466 282.263 329.976 282.665 331.981C283.068 333.986 290.741 341.945 284.674 341.998C278.606 342.051 270.576 340.975 268.959 339.906C267.343 338.837 267 334.145 267 334.145Z" fill="#A8A8A8"/>
<path opacity="0.2" d="M284.783 341.384C278.714 341.431 270.682 340.472 269.065 339.519C267.833 338.796 267.343 336.199 267.178 335H267C267 335 267.35 339.185 268.956 340.134C270.563 341.083 278.606 342.046 284.675 341.998C286.425 341.998 287.034 341.384 286.999 340.492C286.757 341.036 286.089 341.373 284.783 341.384Z" fill="black"/>
<g opacity="0.9">
<path opacity="0.1" d="M699.512 337.172C699.004 337.58 698.482 337.973 697.956 338.361C696.013 339.791 693.985 341.077 691.885 342.209C680.853 348.254 667.262 351.203 654.02 353.208C624.323 357.713 594.001 358.586 563.806 359.443C482.231 361.773 400.44 364.093 319.072 358.73C286.925 356.612 254.059 353.048 224.922 342.199C220.75 340.646 216.655 338.934 212.639 337.064C204.523 333.267 196.726 328.653 190.241 323.157C184.128 317.991 179.209 312.05 176.256 305.303C170.095 291.241 173.354 275.448 180.385 261.67C183.323 256.079 186.623 250.727 190.26 245.655C195.677 237.896 201.654 230.379 207.118 222.63C226.549 195.033 239.227 160.177 221.292 131.909C216.119 123.788 208.684 116.658 204.485 108.181C199.119 97.332 199.538 85.2899 201.245 73.5681C201.461 72.0906 201.715 70.6234 201.946 69.1563C204.875 51.8137 210.33 33.1229 227.217 22.2948C244.758 11.0431 269.658 11.6113 291.435 15.6357C325.293 21.897 356.528 34.9723 388.068 46.782C419.608 58.5916 452.643 69.3784 487.329 70.5459C517.952 71.5792 553.677 63.8972 574.001 43.9613C593.752 24.5989 630.855 23.1265 657.613 34.8225C675.953 42.8506 689.66 57.3105 695.44 73.5681C696.608 76.8232 697.451 80.2078 697.956 83.6626C698.425 86.8084 698.582 90.0006 698.426 93.1837C698.346 94.7335 698.191 96.3092 697.956 97.8331C693.488 129.93 661.318 155.244 641.765 183.915C632.21 197.921 625.461 214.741 632.031 229.842C642.052 252.852 676.902 261.029 697.956 278.16C701.889 281.243 705.377 284.96 708.301 289.185C718.482 304.435 714.716 325.016 699.512 337.172Z" fill="#8484FF"/>
<path opacity="0.1" d="M425.852 353.89C495.881 353.89 552.651 351.771 552.651 349.157C552.651 346.544 495.881 344.425 425.852 344.425C355.823 344.425 299.053 346.544 299.053 349.157C299.053 351.771 355.823 353.89 425.852 353.89Z" fill="#8484FF"/>
<path d="M526.595 346.006C526.595 346.006 553.869 308.051 551.758 270.323C550.869 254.484 554.42 238.717 562.353 225.456C566.127 219.173 570.418 213.285 575.172 207.865" stroke="#535461" stroke-width="2" stroke-miterlimit="10"/>
<path d="M573.963 184.076C572.035 189.355 575.134 208.49 575.134 208.49C575.134 208.49 589.425 197.027 591.353 191.752C591.812 190.497 592.042 189.155 592.028 187.803C592.015 186.45 591.759 185.114 591.276 183.87C590.793 182.626 590.091 181.499 589.211 180.553C588.331 179.607 587.29 178.861 586.148 178.357C585.005 177.853 583.784 177.601 582.553 177.615C581.321 177.63 580.105 177.911 578.973 178.442C577.84 178.973 576.814 179.744 575.953 180.71C575.092 181.677 574.413 182.82 573.954 184.076H573.963Z" fill="#8484FF"/>
<path d="M548.904 206.956C549.896 212.535 561.967 226.747 561.967 226.747C561.967 226.747 568.292 208.594 567.3 203.014C566.799 200.362 565.366 198.033 563.312 196.533C561.259 195.033 558.75 194.482 556.329 195.001C553.908 195.519 551.771 197.065 550.381 199.303C548.991 201.541 548.46 204.291 548.904 206.956Z" fill="#8484FF"/>
<path d="M531.273 257.17C534.692 261.438 551.64 266.986 551.64 266.986C551.64 266.986 548.757 247.809 545.339 243.542C544.526 242.528 543.539 241.699 542.434 241.103C541.33 240.508 540.129 240.157 538.901 240.071C537.673 239.985 536.442 240.166 535.278 240.603C534.113 241.04 533.039 241.724 532.115 242.618C531.191 243.511 530.437 244.595 529.895 245.808C529.353 247.022 529.034 248.341 528.955 249.69C528.877 251.038 529.042 252.391 529.439 253.67C529.837 254.949 530.46 256.13 531.273 257.145V257.17Z" fill="#8484FF"/>
<path d="M525.715 298.463C528.429 303.303 544.281 311.946 544.281 311.946C544.281 311.946 544.389 292.506 541.676 287.666C541.035 286.504 540.191 285.493 539.193 284.69C538.195 283.888 537.063 283.311 535.861 282.992C534.659 282.673 533.411 282.618 532.19 282.831C530.969 283.044 529.798 283.52 528.745 284.233C527.692 284.945 526.778 285.879 526.055 286.981C525.332 288.084 524.815 289.332 524.533 290.655C524.252 291.978 524.211 293.349 524.414 294.689C524.617 296.029 525.059 297.311 525.715 298.463Z" fill="#8484FF"/>
<path d="M579.874 235.829C575.082 237.983 557.645 234.708 557.645 234.708C557.645 234.708 567.991 218.931 572.768 216.777C575.06 215.79 577.612 215.833 579.874 216.897C582.137 217.96 583.928 219.958 584.861 222.459C585.794 224.961 585.794 227.765 584.861 230.267C583.928 232.768 582.136 234.766 579.874 235.829Z" fill="#8484FF"/>
<path d="M572.82 284.029C567.647 284.514 551.913 275.655 551.913 275.655C551.913 275.655 566.072 264 571.226 263.514C572.463 263.375 573.714 263.508 574.904 263.906C576.094 264.303 577.2 264.957 578.158 265.829C579.116 266.7 579.907 267.773 580.483 268.984C581.06 270.195 581.411 271.52 581.517 272.881C581.623 274.243 581.481 275.614 581.1 276.915C580.718 278.215 580.105 279.42 579.295 280.457C578.486 281.495 577.496 282.345 576.384 282.958C575.273 283.571 574.061 283.935 572.82 284.029Z" fill="#8484FF"/>
<path d="M560.086 329.847C555.078 331.278 538.196 325.471 538.196 325.471C538.196 325.471 550.357 311.357 555.365 309.921C557.744 309.319 560.243 309.76 562.331 311.152C564.418 312.543 565.929 314.774 566.542 317.37C567.154 319.967 566.821 322.723 565.611 325.053C564.402 327.384 562.413 329.103 560.067 329.847H560.086Z" fill="#8484FF"/>
<path opacity="0.25" d="M573.963 184.076C572.035 189.355 575.134 208.49 575.134 208.49C575.134 208.49 589.425 197.027 591.353 191.752C591.812 190.497 592.042 189.155 592.028 187.803C592.015 186.45 591.759 185.114 591.276 183.87C590.793 182.626 590.091 181.499 589.211 180.553C588.331 179.607 587.29 178.861 586.148 178.357C585.005 177.853 583.784 177.601 582.553 177.615C581.321 177.63 580.105 177.911 578.973 178.442C577.84 178.973 576.814 179.744 575.953 180.71C575.092 181.677 574.413 182.82 573.954 184.076H573.963Z" fill="black"/>
<path opacity="0.25" d="M548.904 206.956C549.896 212.535 561.967 226.747 561.967 226.747C561.967 226.747 568.292 208.594 567.3 203.014C566.799 200.362 565.366 198.033 563.312 196.533C561.259 195.033 558.75 194.482 556.329 195.001C553.908 195.519 551.771 197.065 550.381 199.303C548.991 201.541 548.46 204.291 548.904 206.956Z" fill="black"/>
<path opacity="0.25" d="M531.273 257.17C534.692 261.438 551.64 266.986 551.64 266.986C551.64 266.986 548.757 247.809 545.339 243.542C544.526 242.528 543.539 241.699 542.434 241.103C541.33 240.508 540.129 240.157 538.901 240.071C537.673 239.985 536.442 240.166 535.278 240.603C534.113 241.04 533.039 241.724 532.115 242.618C531.191 243.511 530.437 244.595 529.895 245.808C529.353 247.022 529.034 248.341 528.955 249.69C528.877 251.038 529.042 252.391 529.439 253.67C529.837 254.949 530.46 256.13 531.273 257.145V257.17Z" fill="black"/>
<path opacity="0.25" d="M525.715 298.463C528.429 303.303 544.281 311.946 544.281 311.946C544.281 311.946 544.389 292.506 541.676 287.666C541.035 286.504 540.191 285.493 539.193 284.69C538.195 283.888 537.063 283.311 535.861 282.992C534.659 282.673 533.411 282.618 532.19 282.831C530.969 283.044 529.798 283.52 528.745 284.233C527.692 284.945 526.778 285.879 526.055 286.981C525.332 288.084 524.815 289.332 524.533 290.655C524.252 291.978 524.211 293.349 524.414 294.689C524.617 296.029 525.059 297.311 525.715 298.463Z" fill="black"/>
<path opacity="0.25" d="M579.874 235.829C575.082 237.983 557.645 234.708 557.645 234.708C557.645 234.708 567.991 218.931 572.768 216.777C575.06 215.79 577.612 215.833 579.874 216.897C582.137 217.96 583.928 219.958 584.861 222.459C585.794 224.961 585.794 227.765 584.861 230.267C583.928 232.768 582.136 234.766 579.874 235.829Z" fill="black"/>
<path opacity="0.25" d="M572.82 284.029C567.647 284.514 551.913 275.655 551.913 275.655C551.913 275.655 566.072 264 571.226 263.514C572.463 263.375 573.714 263.508 574.904 263.906C576.094 264.303 577.2 264.957 578.158 265.829C579.116 266.7 579.907 267.773 580.483 268.984C581.06 270.195 581.411 271.52 581.517 272.881C581.623 274.243 581.481 275.614 581.1 276.915C580.718 278.215 580.105 279.42 579.295 280.457C578.486 281.495 577.496 282.345 576.384 282.958C575.273 283.571 574.061 283.935 572.82 284.029Z" fill="black"/>
<path opacity="0.25" d="M560.086 329.847C555.078 331.278 538.196 325.471 538.196 325.471C538.196 325.471 550.357 311.357 555.365 309.921C557.744 309.319 560.243 309.76 562.331 311.152C564.418 312.543 565.929 314.774 566.542 317.37C567.154 319.967 566.821 322.723 565.611 325.053C564.402 327.384 562.413 329.103 560.067 329.847H560.086Z" fill="black"/>
<path d="M526.83 344.42C526.83 344.42 565.767 321.87 577.749 286.436C582.781 271.558 591.857 258.725 603.985 250.134C609.754 246.071 615.851 242.597 622.198 239.755" stroke="#535461" stroke-width="2" stroke-miterlimit="10"/>
<path d="M629.862 217.464C626.157 221.426 621.929 240.303 621.929 240.303C621.929 240.303 639.22 236.17 642.931 232.223C644.673 230.31 645.66 227.72 645.678 225.014C645.695 222.307 644.742 219.702 643.024 217.762C641.306 215.822 638.962 214.703 636.499 214.647C634.036 214.591 631.651 215.603 629.862 217.464Z" fill="#8484FF"/>
<path d="M598.515 227.233C597.363 232.776 603.156 251.142 603.156 251.142C603.156 251.142 615.632 237.364 616.794 231.82C617.096 230.492 617.154 229.11 616.964 227.757C616.774 226.403 616.34 225.105 615.688 223.938C615.036 222.771 614.178 221.758 613.165 220.96C612.152 220.161 611.005 219.593 609.789 219.288C608.574 218.983 607.316 218.947 606.088 219.183C604.859 219.418 603.687 219.921 602.638 220.661C601.589 221.401 600.684 222.363 599.978 223.492C599.272 224.62 598.778 225.892 598.524 227.233H598.515Z" fill="#8484FF"/>
<path d="M563.886 265.291C565.437 270.716 578.877 283.373 578.877 283.373C578.877 283.373 583.317 264.558 581.765 259.133C581.416 257.816 580.831 256.589 580.044 255.524C579.258 254.458 578.285 253.577 577.184 252.93C576.083 252.283 574.875 251.885 573.631 251.758C572.388 251.631 571.134 251.779 569.943 252.192C568.753 252.605 567.649 253.275 566.698 254.164C565.746 255.052 564.965 256.14 564.402 257.364C563.839 258.588 563.503 259.924 563.416 261.292C563.329 262.661 563.492 264.034 563.895 265.333L563.886 265.291Z" fill="#8484FF"/>
<path d="M543.561 300.571C544.257 306.202 555.558 321.157 555.558 321.157C555.558 321.157 562.828 303.438 562.141 297.802C561.976 296.462 561.572 295.171 560.952 294.002C560.332 292.834 559.509 291.811 558.53 290.992C557.55 290.174 556.434 289.575 555.243 289.23C554.053 288.885 552.813 288.801 551.593 288.983C550.374 289.165 549.199 289.609 548.135 290.29C547.072 290.97 546.141 291.874 545.395 292.95C544.65 294.026 544.105 295.253 543.791 296.561C543.477 297.868 543.401 299.231 543.566 300.571H543.561Z" fill="#8484FF"/>
<path d="M616.154 267.404C610.981 267.244 596.244 256.483 596.244 256.483C596.244 256.483 611.513 246.668 616.686 246.823C619.146 246.938 621.467 248.112 623.145 250.091C624.824 252.071 625.726 254.697 625.656 257.401C625.586 260.106 624.55 262.671 622.772 264.543C620.994 266.415 618.617 267.443 616.154 267.404Z" fill="#8484FF"/>
<path d="M591.927 308.33C587.036 306.475 575.905 291.37 575.905 291.37C575.905 291.37 593.145 287.015 598.04 288.869C600.337 289.804 602.21 291.689 603.258 294.121C604.305 296.554 604.444 299.34 603.645 301.884C602.846 304.427 601.172 306.526 598.982 307.731C596.792 308.936 594.26 309.151 591.927 308.33Z" fill="#8484FF"/>
<path d="M563.416 344.549C558.309 343.63 545.01 330.808 545.01 330.808C545.01 330.808 561.337 323.312 566.444 324.231C568.861 324.714 571.009 326.221 572.425 328.427C573.841 330.633 574.412 333.361 574.015 336.025C573.618 338.688 572.285 341.074 570.302 342.669C568.32 344.263 565.847 344.938 563.416 344.549Z" fill="#8484FF"/>
<g opacity="0.1">
<path opacity="0.1" d="M364.855 28.9022C364.897 27.6504 364.754 26.3995 364.432 25.1981C364.296 24.69 364.192 24.1721 364.121 23.6483C364.061 24.5236 364.167 25.4031 364.432 26.2313C364.655 27.1035 364.797 27.9984 364.855 28.9022Z" fill="black"/>
<path opacity="0.1" d="M397.835 40.2675C398.018 38.7177 398.987 37.3074 399.076 35.7214C399.09 35.4575 399.081 35.1928 399.048 34.931C398.864 36.5325 397.853 37.9531 397.797 39.5804C397.791 39.8102 397.803 40.0402 397.835 40.2675Z" fill="black"/>
<path opacity="0.1" d="M398.865 47.7584C398.562 48.116 398.188 48.3919 397.772 48.5649C397.356 48.7378 396.909 48.803 396.466 48.7554C395.582 48.6486 394.719 48.3833 393.913 47.9702C392.831 47.4897 391.698 46.937 391.044 45.9038C390.447 44.9429 390.254 43.5945 389.323 43.0417C388.251 42.4115 386.972 43.2639 385.81 43.5583C384.428 43.92 382.989 43.4964 381.649 42.9539C379.645 42.1428 376.843 40.6499 374.788 42.1893C373.189 43.3879 373.81 45.9347 373.4 47.748C372.766 50.5584 370.043 52.3975 369.53 55.244C369.3 56.4994 369.45 58.0337 368.524 58.8138C368.165 59.0804 367.757 59.2568 367.329 59.3304C365.834 59.692 363.991 59.7747 363.097 58.4211C362.839 58.0343 362.677 57.5803 362.627 57.1038C362.505 57.9245 362.674 58.7652 363.097 59.4544C364.009 60.8079 365.853 60.7252 367.329 60.3636C367.757 60.29 368.165 60.1136 368.524 59.847C369.464 59.0669 369.3 57.5326 369.53 56.2772C370.043 53.4359 372.766 51.5916 373.4 48.7813C373.81 46.968 373.189 44.4211 374.788 43.2226C376.843 41.6727 379.645 43.1761 381.649 43.9871C382.979 44.5296 384.428 44.9532 385.81 44.5916C386.995 44.2868 388.251 43.4344 389.323 44.075C390.264 44.6277 390.447 45.9761 391.044 46.937C391.698 47.9702 392.831 48.5488 393.913 49.0034C394.719 49.4165 395.582 49.6818 396.466 49.7886C396.909 49.8362 397.356 49.771 397.772 49.5981C398.188 49.4252 398.562 49.1492 398.865 48.7916C399.093 48.4558 399.256 48.072 399.343 47.664C399.431 47.2561 399.441 46.8327 399.373 46.4204C399.323 46.9105 399.147 47.3748 398.865 47.7584Z" fill="black"/>
<path opacity="0.1" d="M360.943 44.2298C360.788 42.9228 359.786 41.9568 359.269 40.7686C359.075 40.3212 358.951 39.8408 358.902 39.3479C358.812 40.1875 358.939 41.0379 359.269 41.8018C359.772 42.9538 360.722 43.9044 360.92 45.1494C360.967 44.8457 360.975 44.536 360.943 44.2298Z" fill="black"/>
<path opacity="0.1" d="M363.558 52.2993C363.625 52.0214 363.636 51.7307 363.589 51.4477C363.543 51.1648 363.441 50.8964 363.29 50.6617C362.758 49.9952 361.747 50.1451 361.098 49.6284C360.926 49.479 360.783 49.2932 360.677 49.082C360.571 48.8709 360.505 48.6386 360.482 48.3989C360.379 49.241 360.482 50.1709 361.098 50.6617C361.714 51.1524 362.758 51.0491 363.29 51.6949C363.422 51.8697 363.514 52.077 363.558 52.2993Z" fill="black"/>
</g>
<path d="M251.929 319.861C251.929 319.861 232.479 318.569 234.769 333.545C234.769 333.545 234.299 336.191 236.5 337.394C236.5 337.394 236.532 336.283 238.493 336.661C239.191 336.788 239.9 336.825 240.605 336.769C241.559 336.698 242.467 336.288 243.191 335.602C243.191 335.602 248.66 333.117 250.786 323.301C250.786 323.301 252.357 321.157 252.295 320.61L249.004 322.159C249.004 322.159 250.128 324.743 249.243 326.923C249.243 326.923 249.135 322.273 248.505 322.361C248.378 322.387 246.798 323.265 246.798 323.265C246.798 323.265 248.731 327.796 247.268 331.092C247.268 331.092 247.823 325.507 246.191 323.59L243.883 325.073C243.883 325.073 246.14 329.754 244.607 333.576C244.607 333.576 245.002 327.718 243.398 325.435L241.301 327.227C241.301 327.227 243.422 331.841 242.128 335.013C242.128 335.013 241.959 328.188 240.849 327.677C240.849 327.677 239.015 329.449 238.738 330.177C238.738 330.177 240.186 333.53 239.288 335.297C239.288 335.297 238.738 330.751 238.282 330.73C238.282 330.73 236.457 333.742 236.269 335.803C236.269 335.803 236.349 332.734 237.84 330.441C236.788 330.662 235.817 331.215 235.046 332.032C235.046 332.032 235.329 329.903 238.291 329.717C238.291 329.717 239.801 327.434 240.205 327.295C240.205 327.295 237.257 327.026 235.474 327.894C235.474 327.894 237.045 325.889 240.741 326.799L242.81 324.944C242.81 324.944 238.935 324.365 237.29 325.006C237.29 325.006 239.171 323.229 243.37 324.526L245.618 323.048C245.618 323.048 242.326 322.263 240.342 322.531C240.342 322.531 242.42 321.302 246.276 322.635L247.889 321.839C247.889 321.839 245.467 321.323 244.757 321.235C244.047 321.147 244.009 320.935 244.009 320.935C245.543 320.657 247.117 320.85 248.557 321.493C248.557 321.493 251.99 320.093 251.929 319.861Z" fill="#8484FF"/>
<path opacity="0.1" d="M238.531 341.259C246.136 341.259 252.3 340.114 252.3 338.701C252.3 337.289 246.136 336.144 238.531 336.144C230.927 336.144 224.762 337.289 224.762 338.701C224.762 340.114 230.927 341.259 238.531 341.259Z" fill="#8484FF"/>
</g>
<path opacity="0.1" d="M303.284 0.243718C291.676 -0.235786 279.55 -0.572937 269.054 5.00879C258.558 10.5905 250.443 24.114 253.963 36.5474C255.112 40.6007 257.349 44.1333 259.236 47.8232C268.67 66.2766 269.108 90.1282 260.362 109.005C253.629 123.536 242.218 134.595 234.003 148.133C225.788 161.672 221.119 180.436 229.201 194.076C234.734 203.415 245.003 207.959 254.952 209.06C264.9 210.162 274.905 208.427 284.897 207.981C304.34 207.143 323.7 211.25 341.528 219.995C366.07 232.065 387.212 252.714 413.053 260.682C416.155 261.637 419.398 262.409 422.571 261.761C428.198 260.611 432.288 255.392 436.693 251.272C450.756 238.209 470.225 235.77 488.479 235.163C506.732 234.556 525.744 235.025 542.244 226.232C556.651 218.557 567.741 204.276 574.637 188.146C581.533 172.015 584.529 154.09 585.658 136.239C586.326 125.615 586.302 114.647 582.913 104.701C579.102 93.5185 571.375 84.6139 563.27 76.8295C554.801 68.6929 545.57 61.3205 535.115 56.9301C522.625 51.6855 509.067 50.9363 495.769 49.6926C468.5 47.1378 441.444 42.2639 414.833 35.1126C389.576 28.3397 361.845 20.9411 338.843 7.14408C327.298 0.217495 316.298 0.768175 303.284 0.243718Z" fill="#AAAAFE"/>
<defs>
<linearGradient id="paint0_linear" x1="143209" y1="195591" x2="143209" y2="80015.4" gradientUnits="userSpaceOnUse">
<stop stop-color="#808080" stop-opacity="0.25"/>
<stop offset="0.54" stop-color="#808080" stop-opacity="0.12"/>
<stop offset="1" stop-color="#808080" stop-opacity="0.1"/>
</linearGradient>
<linearGradient id="paint1_linear" x1="73620" y1="206138" x2="73620" y2="43844.9" gradientUnits="userSpaceOnUse">
<stop stop-color="#808080" stop-opacity="0.25"/>
<stop offset="0.54" stop-color="#808080" stop-opacity="0.12"/>
<stop offset="1" stop-color="#808080" stop-opacity="0.1"/>
</linearGradient>
</defs>
</svg>
