<svg width="216" height="322" viewBox="0 0 216 322" fill="none" xmlns="http://www.w3.org/2000/svg">
<path fill-rule="evenodd" clip-rule="evenodd" d="M106.875 54.3618C102.347 57.34 97.8992 58.779 95.8117 58.1916C90.5756 56.7185 90.0946 35.813 94.1458 27.5714C98.1963 19.3298 119.023 15.7376 120.072 32.0668C120.436 37.7342 118.257 42.792 115.035 46.919L120.811 76.3033H104.033L106.875 54.3618Z" fill="#915B3C"/>
<path fill-rule="evenodd" clip-rule="evenodd" d="M100.773 18.5951C103.066 17.8321 106.394 17.5733 107.793 17.7484C106.997 15.6657 106.681 13.3454 106.939 11.0862C107.189 8.89094 108.088 7.02174 108.919 5.06303C109.302 4.16019 109.736 3.26227 110.384 2.57171C111.044 1.86817 111.878 1.40378 112.754 1.18222C113.649 0.955433 114.586 0.974318 115.483 1.18013C115.88 1.27116 116.236 1.46922 116.625 1.57932C117.024 1.69213 117.217 1.41983 117.507 1.14618C118.204 0.486793 119.226 0.161291 120.108 0.0447909C121.098 -0.0858556 122.125 0.0770825 123.069 0.432175C123.987 0.77786 124.869 1.33919 125.533 2.15695C125.829 2.52096 126.098 2.93529 126.272 3.39274C126.344 3.58046 126.356 3.69167 126.528 3.76043C126.686 3.82409 126.872 3.82594 127.036 3.88653C128.62 4.4721 129.974 5.80798 130.712 7.52313C131.142 8.52377 131.346 10.2855 131.29 12.2602C131.234 14.2348 129.6 19.3872 128.073 21.2666C126.709 22.944 124.704 24.051 122.769 24.5356C124.054 26.1376 124.909 28.1394 125.54 30.1754C126.227 32.3869 126.652 34.6849 126.809 37.0263C126.958 39.2508 126.972 41.6032 126.494 43.7803C126.047 45.8162 125.091 47.4864 123.495 48.5459C122.764 49.0313 121.978 49.3959 121.187 49.7292C120.407 50.0576 119.626 50.3769 118.809 50.5612C117.263 50.9098 115.483 50.8499 114.292 49.5073C113.863 49.0233 113.391 48.4151 113.079 47.8238C112.966 47.6111 112.898 47.4721 113.035 47.2643C113.199 47.0154 113.464 46.8246 113.674 46.6299C114.874 45.5196 115.617 44.0373 115.804 42.2758C115.994 40.4885 115.554 38.1816 113.962 37.4016C111.997 36.4388 109.833 37.544 108.086 38.5742C107.343 35.7145 105.819 33.1397 103.43 31.8279C100.786 30.3767 97.7518 30.2069 95.0352 28.9618C94.327 28.6373 93.6062 28.269 93.0847 27.6079C92.8673 27.3316 92.6114 26.9732 92.5247 26.6077C92.4101 26.1277 92.6939 25.7253 92.9127 25.3511C94.0746 23.3668 98.4803 19.3582 100.773 18.5951Z" fill="#191847"/>
<path fill-rule="evenodd" clip-rule="evenodd" d="M125.005 139.635L73.0591 234.424L34.1137 314.56H25.7254L90.9781 139.635H125.005Z" fill="#784931"/>
<path fill-rule="evenodd" clip-rule="evenodd" d="M37.3051 310.008C38.0545 309.649 38.9451 310.013 39.2241 310.853C39.733 312.384 40.416 314.682 40.416 315.977C40.416 318.041 39.7861 322 39.7861 322C37.5924 322 0.356289 322 0.356289 322C0.356289 322 -1.18101 316.454 2.13056 316.012C5.44213 315.57 7.63239 315.214 7.63239 315.214L25.9589 306.296C26.319 306.121 26.7398 306.304 26.8901 306.702L28.0681 309.821C28.0681 309.821 31.1336 311.382 33.0498 311.382C34.2165 311.382 36.0495 310.611 37.3051 310.008Z" fill="#E4E4E4"/>
<path fill-rule="evenodd" clip-rule="evenodd" d="M44.93 301.729L28.7531 296.387C28.7531 296.387 39.3842 261.698 54.8137 220.039C70.2425 178.38 87.9538 139.635 87.9538 139.635H133.643C133.643 139.635 113.952 188.646 91.8925 228.7C69.8328 268.755 44.93 301.729 44.93 301.729Z" fill="#DB2721"/>
<path fill-rule="evenodd" clip-rule="evenodd" d="M128.419 139.635C133.322 172.945 142.778 215.501 143.67 216.815C144.265 217.69 165.683 225.524 207.924 240.315L206.112 248.389C155.74 240.456 129.199 234.302 126.487 229.926C122.42 223.361 102.111 171.502 94.2456 139.635H128.419Z" fill="#915B3C"/>
<path fill-rule="evenodd" clip-rule="evenodd" d="M193.076 233.336L189.884 246.339C152.209 249.946 129.125 247.339 120.631 238.521C112.137 229.703 102.457 196.74 91.5899 139.635H135.158C142.043 186.397 145.892 210.759 146.705 212.722C147.518 214.685 162.975 221.557 193.076 233.336Z" fill="#FF4133"/>
<path fill-rule="evenodd" clip-rule="evenodd" d="M204.749 238.886C204.555 238.018 205.038 237.124 205.844 236.97C207.315 236.689 209.506 236.354 210.674 236.578C212.537 236.937 216 238.302 216 238.302C215.619 240.66 209.153 280.685 209.153 280.685C209.153 280.685 203.882 281.374 204.058 277.737C204.234 274.101 204.293 271.685 204.293 271.685L199.43 250.437C199.334 250.021 199.573 249.6 199.958 249.507L202.976 248.782C202.976 248.782 204.917 245.759 205.25 243.698C205.453 242.445 205.075 240.34 204.749 238.886Z" fill="#E4E4E4"/>
<path fill-rule="evenodd" clip-rule="evenodd" d="M65.3399 77.5928L89.6052 92.0981L80.6443 102.596L63.0127 84.9752C53.7246 82.1817 49.477 80.1376 50.2705 78.8435C50.9388 77.7531 52.0175 77.7905 53.0102 77.8256C53.7841 77.853 54.5062 77.8782 54.9431 77.367C55.94 76.1988 54.0378 72.1146 52.0804 68.3231C50.1236 64.5317 52.216 64.8618 53.4128 65.4071C57.3291 68.3008 61.3048 72.3626 65.3399 77.5928ZM40.9432 97.946L51.6015 104.337L50.9947 116.012C50.9947 116.012 44.0912 110.573 38.1525 108.766C30.58 106.461 27.5159 104.702 23.8156 99.5552C21.8358 96.8014 20.1552 91.2664 22.04 89.4641C22.7628 88.772 25.4564 90.4057 28.2045 92.0729C30.299 93.3434 32.4256 94.6329 33.7357 94.9274C35.4988 95.3234 35.2925 92.8283 35.1276 90.8353C35.0094 89.4046 34.9122 88.2318 35.5799 88.5706C38.6999 88.6294 40.9432 97.946 40.9432 97.946Z" fill="#915B3C"/>
<path fill-rule="evenodd" clip-rule="evenodd" d="M101.423 88.8666C92.9231 88.769 81.5895 86.8095 69.496 78.4314L64.7471 89.9914C73.0886 99.0264 84.8179 106.451 95.0735 106.136C103.156 105.888 107.286 95.2181 101.423 88.8666Z" fill="#2026A2"/>
<path fill-rule="evenodd" clip-rule="evenodd" d="M124.345 168.065C132.425 166.915 139.85 165.858 144.249 166.804C149.186 149.305 145.087 138.288 141.302 128.117C139.022 121.987 136.856 116.165 136.851 109.417C136.837 89.7647 122.381 59.5166 120.254 59.5166H119.643H102.786H100.856C99.9893 71.6774 96.2876 84.8439 92.5629 98.0955C91.6926 101.19 90.8215 104.289 89.9847 107.381C75.8876 110.874 44.5854 98.7159 44.5854 98.7159C44.5854 98.7159 36.6829 116.56 37.2792 124.158C55.4995 134.546 71.115 139.178 83.9809 139.484C83.572 147.816 84.5011 155.744 87.6225 162.988C91.8051 172.695 109.223 170.217 124.345 168.065Z" fill="#1F28CF"/>
</svg>
