<svg width="738" height="667" viewBox="0 0 738 667" fill="none" xmlns="http://www.w3.org/2000/svg">
<path opacity="0.1" d="M636.441 327.664C613.892 361.076 619.599 407.518 630.953 444.304C634.776 456.618 639.096 469.631 636.529 483.241C633.388 499.886 620.587 512.705 607.464 519.882C583.548 532.97 555.789 531.894 535.194 517.09C517.396 504.292 505.299 482.456 487.134 470.287C456.775 449.996 416.236 460.852 381.229 478.292C356.462 490.617 329.27 506.336 305.797 496.475C289.282 489.535 278.578 470.847 273.259 450.668C270.692 440.926 269.01 430.312 263.537 422.796C260.261 418.331 255.892 415.265 251.364 412.774C210.017 389.782 155.464 406.776 115.459 380.922C88.4642 363.492 72.4025 328.449 66.406 291.249C60.4095 254.05 63.364 214.483 67.3726 175.545C70.218 147.878 74.2976 118.28 89.9661 96.0996C106.541 72.6392 133.427 62.6493 157.14 65.4628C180.853 68.2763 201.705 82.2095 219.852 99.0314C242.533 120.012 263.199 146.619 291.996 153.903C311.608 158.879 332.743 154.21 353.354 151.751C387.815 147.69 421.965 149.949 455.885 152.634C488.363 155.205 521.049 158.223 551.551 169.187C573.134 176.944 589.966 192.394 610.2 202.669C623.389 209.367 638.08 210.539 650.439 219.346C665.665 230.186 679.121 249.843 673.829 274.132C668.8 297.258 648.407 309.911 636.441 327.664Z" fill="#5954FF"/>
<g opacity="0.1">
<path d="M629.991 301.054C620.722 340.284 642.493 381.702 666.128 412.091C674.06 422.256 682.705 432.899 685.12 446.537C688.072 463.216 680.635 479.735 670.899 491.091C653.162 511.794 626.817 520.61 602.317 514.05C581.141 508.377 562.101 492.234 540.806 487.28C505.231 479.042 471.155 503.54 444.584 532.238C425.779 552.529 405.908 576.852 380.465 575.935C362.563 575.287 345.939 561.595 333.824 544.603C327.976 536.399 322.647 527.067 314.87 521.974C310.225 518.957 305.054 517.635 299.938 516.908C253.13 510.032 208.119 545.229 161.554 535.202C130.138 528.451 102.717 501.358 83.9459 468.686C65.1752 436.014 53.939 397.962 43.9114 360.125C36.7834 333.24 30.1265 304.113 36.9337 277.824C44.1358 250.017 65.748 231.16 88.9226 225.401C112.097 219.643 136.529 225.297 159.455 234.61C188.092 246.208 216.836 263.782 246.347 260.406C266.451 258.121 284.567 246.275 302.975 236.683C333.769 220.691 366.509 210.722 399.185 201.231C430.473 192.144 462.112 183.402 494.519 182.864C517.451 182.483 538.661 190.979 561.221 193.43C575.927 195.027 590.083 190.926 604.758 194.79C622.835 199.542 642.376 213.166 646.02 237.756C649.498 261.166 634.902 280.216 629.991 301.054Z" fill="#083EFC"/>
<path d="M629.991 301.054C620.722 340.284 642.493 381.702 666.128 412.091C674.06 422.256 682.705 432.899 685.12 446.537C688.072 463.216 680.635 479.735 670.899 491.091C653.162 511.794 626.817 520.61 602.317 514.05C581.141 508.377 562.101 492.234 540.806 487.28C505.231 479.042 471.155 503.54 444.584 532.238C425.779 552.529 405.908 576.852 380.465 575.935C362.563 575.287 345.939 561.595 333.824 544.603C327.976 536.399 322.647 527.067 314.87 521.974C310.225 518.957 305.054 517.635 299.938 516.908C253.13 510.032 208.119 545.229 161.554 535.202C130.138 528.451 102.717 501.358 83.9459 468.686C65.1752 436.014 53.939 397.962 43.9114 360.125C36.7834 333.24 30.1265 304.113 36.9337 277.824C44.1358 250.017 65.748 231.16 88.9226 225.401C112.097 219.643 136.529 225.297 159.455 234.61C188.092 246.208 216.836 263.782 246.347 260.406C266.451 258.121 284.567 246.275 302.975 236.683C333.769 220.691 366.509 210.722 399.185 201.231C430.473 192.144 462.112 183.402 494.519 182.864C517.451 182.483 538.661 190.979 561.221 193.43C575.927 195.027 590.083 190.926 604.758 194.79C622.835 199.542 642.376 213.166 646.02 237.756C649.498 261.166 634.902 280.216 629.991 301.054Z" fill="url(#paint0_linear)"/>
</g>
<path opacity="0.1" d="M566.367 202.944H544.036V236.243H566.367V202.944Z" fill="#5954FF"/>
<path opacity="0.1" d="M564.193 206.182H546.204V233.005H564.193V206.182Z" fill="#5954FF"/>
<path opacity="0.1" d="M533.004 179.811H498.707V213.111H533.004V179.811Z" fill="#5954FF"/>
<path opacity="0.1" d="M529.667 183.05H502.038V209.872H529.667V183.05Z" fill="#5954FF"/>
<path opacity="0.1" d="M203.124 130.265H98.2942V133.014H203.124V130.265Z" fill="#5954FF"/>
<path opacity="0.1" d="M203.124 143.709H98.2942V146.458H203.124V143.709Z" fill="#5954FF"/>
<path d="M285.847 308.497H275.137V426.385H285.847V308.497Z" fill="#D6D6E3"/>
<path d="M598.671 320.875V212.132C598.672 209.101 599.895 206.195 602.072 204.052C604.248 201.909 607.199 200.706 610.276 200.706C613.349 200.711 616.294 201.917 618.466 204.059C620.638 206.202 621.858 209.105 621.859 212.132V343.738C621.859 346.77 620.637 349.677 618.46 351.821C616.284 353.965 613.332 355.17 610.254 355.17H538.378C535.3 355.17 532.348 353.965 530.172 351.821C527.995 349.677 526.772 346.77 526.772 343.738C526.772 340.706 527.995 337.798 530.172 335.655C532.348 333.511 535.3 332.306 538.378 332.306H587.065C590.143 332.306 593.095 331.102 595.272 328.958C597.448 326.814 598.671 323.907 598.671 320.875Z" fill="#AEBEE1"/>
<path d="M598.671 320.875V212.132C598.672 209.101 599.895 206.195 602.072 204.052C604.248 201.909 607.199 200.706 610.276 200.706C613.349 200.711 616.294 201.917 618.466 204.059C620.638 206.202 621.858 209.105 621.859 212.132V343.738C621.859 346.77 620.637 349.677 618.46 351.821C616.284 353.965 613.332 355.17 610.254 355.17H538.378C535.3 355.17 532.348 353.965 530.172 351.821C527.995 349.677 526.772 346.77 526.772 343.738C526.772 340.706 527.995 337.798 530.172 335.655C532.348 333.511 535.3 332.306 538.378 332.306H587.065C590.143 332.306 593.095 331.102 595.272 328.958C597.448 326.814 598.671 323.907 598.671 320.875Z" fill="#535461"/>
<path d="M526.789 343.125C526.948 340.203 528.238 337.453 530.394 335.44C532.55 333.428 535.407 332.306 538.378 332.306H587.065C590.143 332.306 593.095 331.102 595.271 328.958C597.448 326.814 598.67 323.907 598.67 320.875V212.132C598.668 209.194 599.815 206.367 601.872 204.24C603.929 202.112 606.739 200.847 609.719 200.706V343.125H526.789Z" fill="#D6D6E3"/>
<path d="M168.133 324.544V215.801C168.133 212.774 166.915 209.87 164.744 207.727C162.574 205.584 159.629 204.376 156.556 204.369C153.478 204.369 150.526 205.574 148.349 207.717C146.173 209.861 144.95 212.769 144.95 215.801V347.407C144.947 348.91 145.244 350.4 145.826 351.79C146.407 353.18 147.262 354.443 148.34 355.508C149.418 356.572 150.698 357.417 152.108 357.993C153.518 358.569 155.029 358.865 156.556 358.865H228.426C231.504 358.865 234.456 357.661 236.633 355.517C238.809 353.373 240.032 350.466 240.032 347.434C240.032 344.402 238.809 341.494 236.633 339.35C234.456 337.207 231.504 336.002 228.426 336.002H179.744C178.217 336.003 176.706 335.707 175.295 335.131C173.885 334.555 172.603 333.711 171.525 332.646C170.446 331.582 169.592 330.318 169.01 328.928C168.428 327.537 168.13 326.048 168.133 324.544Z" fill="#AEBEE1"/>
<path d="M168.133 324.544V215.801C168.133 212.774 166.915 209.87 164.744 207.727C162.574 205.584 159.629 204.376 156.556 204.369C153.478 204.369 150.526 205.574 148.349 207.717C146.173 209.861 144.95 212.769 144.95 215.801V347.407C144.947 348.91 145.244 350.4 145.826 351.79C146.407 353.18 147.262 354.443 148.34 355.508C149.418 356.572 150.698 357.417 152.108 357.993C153.518 358.569 155.029 358.865 156.556 358.865H228.426C231.504 358.865 234.456 357.661 236.633 355.517C238.809 353.373 240.032 350.466 240.032 347.434C240.032 344.402 238.809 341.494 236.633 339.35C234.456 337.207 231.504 336.002 228.426 336.002H179.744C178.217 336.003 176.706 335.707 175.295 335.131C173.885 334.555 172.603 333.711 171.525 332.646C170.446 331.582 169.592 330.318 169.01 328.928C168.428 327.537 168.13 326.048 168.133 324.544Z" fill="#535461"/>
<path d="M240.015 346.794C239.856 343.872 238.565 341.122 236.41 339.109C234.254 337.097 231.396 335.975 228.426 335.975H179.744C178.22 335.976 176.71 335.681 175.301 335.107C173.893 334.532 172.613 333.691 171.534 332.629C170.456 331.567 169.601 330.307 169.017 328.92C168.434 327.532 168.133 326.045 168.133 324.544V215.801C168.133 212.867 166.987 210.046 164.934 207.921C162.88 205.796 160.076 204.53 157.102 204.385V346.794H240.015Z" fill="#D6D6E3"/>
<path d="M497.729 308.497H487.02V429.134H497.729V308.497Z" fill="#D6D6E3"/>
<path opacity="0.1" d="M285.847 308.497H275.137V317.212H285.847V308.497Z" fill="black"/>
<path opacity="0.1" d="M497.729 308.497H487.02V317.212H497.729V308.497Z" fill="black"/>
<path opacity="0.1" d="M313.388 236.706C313.217 238.564 313 240.446 312.738 242.354H311.225V236.706H313.388Z" fill="black"/>
<path d="M357.27 295.386C357.302 297.296 355.904 298.862 354.173 298.862H321.487V295.505H348.684C349.859 295.505 350.59 294.106 350.001 292.987L325.337 243.576C325.163 243.219 324.892 242.918 324.555 242.703C324.218 242.489 323.827 242.37 323.426 242.36H311.225V236.711H326.632C326.912 236.718 327.186 236.801 327.422 236.951C327.658 237.101 327.847 237.312 327.97 237.561L356.243 291.357C356.894 292.605 357.246 293.983 357.27 295.386Z" fill="#535461"/>
<path d="M297.239 286.424L296.791 287.166L292.602 284.412L305.562 186.251H308.899C308.899 186.251 309.035 186.703 309.259 187.563C311.493 196.047 322.465 244.092 297.239 286.424Z" fill="#535461"/>
<path opacity="0.1" d="M309.254 187.563L297.239 286.424L296.791 287.166L292.602 284.412L305.562 186.251H308.899C308.899 186.251 309.03 186.719 309.254 187.563Z" fill="black"/>
<path d="M301.106 185.235L288.812 286.343L296.675 287.27L308.969 186.163L301.106 185.235Z" fill="#D6D6E3"/>
<path d="M261.866 295.424C261.865 295.668 261.766 295.901 261.591 296.073C261.416 296.245 261.179 296.343 260.932 296.344H259.534C259.286 296.344 259.049 296.247 258.874 296.075C258.699 295.902 258.6 295.668 258.6 295.424C258.596 295.388 258.596 295.352 258.6 295.316C258.628 295.094 258.737 294.89 258.907 294.741C259.077 294.593 259.296 294.51 259.523 294.51H260.921C261.129 294.512 261.33 294.581 261.493 294.708C261.656 294.834 261.772 295.011 261.822 295.209C261.846 295.278 261.861 295.351 261.866 295.424Z" fill="#E3EDF9"/>
<path d="M266.055 295.424C266.053 295.668 265.955 295.901 265.78 296.073C265.605 296.245 265.368 296.343 265.121 296.344H263.723C263.475 296.344 263.238 296.247 263.063 296.075C262.887 295.902 262.789 295.668 262.789 295.424C262.79 295.338 262.802 295.253 262.827 295.171C262.869 295.022 262.95 294.886 263.062 294.779C263.148 294.693 263.25 294.625 263.362 294.579C263.475 294.532 263.596 294.509 263.717 294.51H265.116C265.296 294.509 265.473 294.559 265.625 294.654C265.777 294.75 265.898 294.886 265.973 295.047C266.026 295.166 266.054 295.294 266.055 295.424Z" fill="#E3EDF9"/>
<path d="M269.779 295.424C269.778 295.668 269.679 295.901 269.504 296.073C269.33 296.245 269.093 296.343 268.846 296.344H267.447C267.2 296.344 266.962 296.247 266.787 296.075C266.612 295.902 266.514 295.668 266.514 295.424C266.511 295.292 266.539 295.162 266.595 295.042C266.671 294.883 266.791 294.749 266.94 294.654C267.09 294.558 267.264 294.507 267.442 294.504H268.84C268.963 294.503 269.085 294.527 269.198 294.573C269.312 294.619 269.415 294.686 269.502 294.772C269.589 294.858 269.658 294.959 269.704 295.071C269.751 295.183 269.775 295.303 269.774 295.424H269.779Z" fill="#E3EDF9"/>
<path d="M273.974 295.424C273.972 295.668 273.873 295.901 273.699 296.073C273.524 296.245 273.287 296.343 273.04 296.344H271.642C271.471 296.344 271.303 296.298 271.158 296.21C271.012 296.123 270.893 295.998 270.814 295.849C270.735 295.7 270.699 295.532 270.71 295.364C270.722 295.196 270.779 295.035 270.877 294.897L270.986 294.779C271.072 294.693 271.174 294.625 271.286 294.579C271.399 294.532 271.52 294.509 271.642 294.51H273.04C273.167 294.511 273.293 294.538 273.409 294.589C273.526 294.64 273.63 294.713 273.717 294.805C273.881 294.971 273.973 295.193 273.974 295.424Z" fill="#E3EDF9"/>
<path opacity="0.1" d="M261.839 295.204C261.858 295.276 261.867 295.35 261.866 295.424C261.865 295.668 261.766 295.901 261.591 296.073C261.416 296.245 261.179 296.343 260.932 296.344H259.534C259.286 296.344 259.049 296.247 258.874 296.075C258.699 295.902 258.6 295.668 258.6 295.424C258.596 295.388 258.596 295.352 258.6 295.317L261.839 295.204Z" fill="black"/>
<path opacity="0.1" d="M265.978 295.058C266.028 295.172 266.054 295.295 266.055 295.419C266.053 295.662 265.955 295.895 265.78 296.068C265.605 296.24 265.368 296.337 265.121 296.339H263.723C263.475 296.339 263.238 296.242 263.063 296.069C262.887 295.897 262.789 295.663 262.789 295.419C262.79 295.333 262.802 295.248 262.827 295.166L265.978 295.058Z" fill="black"/>
<path opacity="0.1" d="M269.643 294.935C269.735 295.08 269.784 295.248 269.785 295.419C269.784 295.662 269.685 295.895 269.51 296.068C269.335 296.24 269.098 296.337 268.851 296.339H267.453C267.205 296.339 266.968 296.242 266.793 296.069C266.618 295.897 266.519 295.663 266.519 295.419C266.517 295.287 266.545 295.156 266.601 295.037L269.643 294.935Z" fill="black"/>
<path opacity="0.1" d="M273.974 295.424C273.972 295.668 273.873 295.901 273.698 296.073C273.524 296.245 273.287 296.343 273.04 296.344H271.642C271.471 296.344 271.303 296.298 271.158 296.21C271.012 296.123 270.893 295.998 270.814 295.849C270.735 295.7 270.699 295.532 270.71 295.364C270.722 295.196 270.779 295.035 270.877 294.897L273.717 294.8C273.882 294.967 273.975 295.191 273.974 295.424Z" fill="black"/>
<path d="M282.351 299.093H255.345V297.882C255.345 297.345 255.557 296.829 255.936 296.442C256.315 296.056 256.832 295.829 257.377 295.811L279.036 295.074C279.467 295.06 279.896 295.131 280.298 295.283C280.699 295.435 281.066 295.665 281.376 295.96C281.686 296.255 281.932 296.608 282.101 296.998C282.269 297.388 282.356 297.808 282.357 298.232L282.351 299.093Z" fill="#D6D6E3"/>
<path d="M415.591 295.386C415.558 297.296 416.956 298.862 418.687 298.862H451.39V295.505H424.16C422.986 295.505 422.254 294.106 422.844 292.987L447.507 243.576C447.681 243.219 447.952 242.918 448.289 242.703C448.626 242.489 449.017 242.37 449.418 242.36H461.624V236.711H446.229C445.952 236.722 445.684 236.806 445.452 236.954C445.22 237.103 445.034 237.311 444.913 237.556L416.639 291.352C415.98 292.599 415.621 293.98 415.591 295.386Z" fill="#535461"/>
<path d="M475.627 286.424L476.075 287.166L480.264 284.412L467.304 186.251H463.967C463.967 186.251 463.831 186.703 463.607 187.563C461.368 196.047 450.374 244.092 475.627 286.424Z" fill="#535461"/>
<path opacity="0.1" d="M463.607 187.563L475.622 286.424L476.07 287.166L480.258 284.412L467.304 186.251H463.967C463.967 186.251 463.831 186.719 463.607 187.563Z" fill="black"/>
<path d="M471.765 185.225L463.902 186.153L476.196 287.26L484.059 286.332L471.765 185.225Z" fill="#D6D6E3"/>
<path d="M510.995 295.424C510.996 295.668 511.095 295.901 511.27 296.073C511.445 296.245 511.681 296.343 511.929 296.344H513.327C513.574 296.344 513.812 296.247 513.987 296.075C514.162 295.902 514.26 295.668 514.26 295.424C514.265 295.388 514.265 295.352 514.26 295.316C514.233 295.094 514.124 294.89 513.954 294.741C513.784 294.593 513.565 294.51 513.338 294.51H511.939C511.732 294.512 511.531 294.581 511.368 294.708C511.205 294.834 511.089 295.011 511.038 295.209C511.014 295.278 511 295.351 510.995 295.424Z" fill="#E3EDF9"/>
<path d="M506.806 295.424C506.807 295.668 506.906 295.901 507.081 296.073C507.256 296.245 507.493 296.343 507.74 296.344H509.138C509.261 296.344 509.382 296.32 509.495 296.274C509.609 296.228 509.712 296.16 509.798 296.075C509.885 295.989 509.954 295.888 510.001 295.776C510.048 295.664 510.072 295.545 510.072 295.424C510.071 295.338 510.058 295.253 510.034 295.171C509.992 295.022 509.911 294.886 509.799 294.779C509.713 294.693 509.611 294.625 509.499 294.579C509.386 294.532 509.265 294.509 509.143 294.51H507.718C507.538 294.509 507.361 294.559 507.209 294.654C507.057 294.75 506.936 294.886 506.861 295.047C506.817 295.168 506.798 295.296 506.806 295.424Z" fill="#E3EDF9"/>
<path d="M503.081 295.424C503.082 295.668 503.181 295.901 503.356 296.073C503.531 296.245 503.768 296.343 504.015 296.344H505.413C505.661 296.344 505.898 296.247 506.073 296.075C506.249 295.902 506.347 295.668 506.347 295.424C506.349 295.292 506.321 295.162 506.265 295.042C506.189 294.883 506.07 294.749 505.92 294.654C505.77 294.558 505.597 294.507 505.418 294.504H504.02C503.898 294.503 503.776 294.527 503.662 294.573C503.549 294.619 503.445 294.686 503.358 294.772C503.272 294.858 503.203 294.959 503.156 295.071C503.109 295.183 503.086 295.303 503.087 295.424H503.081Z" fill="#E3EDF9"/>
<path d="M498.887 295.424C498.888 295.668 498.987 295.901 499.162 296.073C499.337 296.245 499.574 296.343 499.821 296.344H501.219C501.39 296.344 501.557 296.298 501.703 296.21C501.849 296.123 501.968 295.998 502.047 295.849C502.125 295.7 502.161 295.532 502.15 295.364C502.139 295.196 502.081 295.035 501.983 294.897L501.874 294.779C501.789 294.693 501.687 294.625 501.574 294.579C501.462 294.532 501.341 294.509 501.219 294.51H499.821C499.693 294.511 499.568 294.538 499.451 294.589C499.335 294.64 499.23 294.713 499.144 294.805C498.98 294.971 498.887 295.193 498.887 295.424Z" fill="#E3EDF9"/>
<path opacity="0.1" d="M511.022 295.204C511.003 295.276 510.994 295.35 510.995 295.424C510.996 295.668 511.095 295.901 511.27 296.073C511.445 296.245 511.681 296.343 511.929 296.344H513.327C513.574 296.344 513.812 296.247 513.987 296.075C514.162 295.902 514.261 295.668 514.261 295.424C514.265 295.388 514.265 295.352 514.261 295.317L511.022 295.204Z" fill="black"/>
<path opacity="0.1" d="M506.882 295.058C506.833 295.172 506.807 295.295 506.806 295.419C506.807 295.662 506.906 295.895 507.081 296.068C507.256 296.24 507.493 296.337 507.74 296.339H509.138C509.26 296.339 509.382 296.315 509.495 296.269C509.609 296.222 509.711 296.155 509.798 296.069C509.885 295.984 509.954 295.882 510.001 295.771C510.048 295.659 510.072 295.54 510.072 295.419C510.071 295.333 510.058 295.248 510.034 295.166L506.882 295.058Z" fill="black"/>
<path opacity="0.1" d="M503.218 294.935C503.126 295.08 503.077 295.248 503.076 295.419C503.077 295.662 503.176 295.895 503.351 296.068C503.526 296.24 503.762 296.337 504.01 296.339H505.408C505.655 296.339 505.893 296.242 506.068 296.069C506.243 295.897 506.342 295.663 506.342 295.419C506.344 295.287 506.316 295.156 506.26 295.037L503.218 294.935Z" fill="black"/>
<path opacity="0.1" d="M498.887 295.424C498.888 295.668 498.987 295.901 499.162 296.073C499.337 296.245 499.574 296.343 499.821 296.344H501.219C501.39 296.344 501.557 296.298 501.703 296.21C501.849 296.123 501.968 295.998 502.047 295.849C502.125 295.7 502.161 295.532 502.15 295.364C502.139 295.196 502.081 295.035 501.984 294.897L499.144 294.8C498.978 294.967 498.886 295.191 498.887 295.424Z" fill="black"/>
<path d="M490.509 299.093H517.516V297.882C517.516 297.345 517.304 296.829 516.925 296.442C516.546 296.056 516.029 295.829 515.484 295.811L493.824 295.074C493.394 295.06 492.965 295.131 492.563 295.283C492.161 295.435 491.794 295.665 491.485 295.96C491.175 296.255 490.928 296.608 490.76 296.998C490.591 297.388 490.504 297.808 490.504 298.232L490.509 299.093Z" fill="#D6D6E3"/>
<path d="M603.548 313.677C616.147 292.627 611.581 250.166 612.089 249.353C612.542 248.638 610.806 228.642 599.228 223.757C597.136 219.674 595.077 215.075 595.077 215.075C594.875 215.262 594.651 215.426 594.411 215.564C594.32 215.32 594.231 215.073 594.143 214.822C593.996 214.397 593.859 213.961 593.723 213.525C594.047 213.627 594.377 213.71 594.711 213.773C595.594 213.985 596.523 213.904 597.355 213.541C597.638 213.392 597.894 213.197 598.114 212.966C599.026 212.369 599.528 211.293 599.954 210.276L603.324 202.325C604.842 198.737 606.371 195.127 607.179 191.324C608.382 185.6 607.916 179.658 605.836 174.184C605.039 172.097 603.935 170.01 602.062 168.762C598.31 166.255 593.089 167.987 588.802 166.518C587.393 166.034 586.121 165.217 584.712 164.722C581.67 163.646 578.234 164.221 575.307 165.561C572.38 166.9 570.01 169.031 567.448 170.94C566.187 171.893 564.172 172.877 562.686 174.168C561.244 175.276 560.136 176.616 560.349 178.38C560.589 180.398 562.746 181.608 564.756 182.082C565.089 182.157 565.433 182.216 565.772 182.275C563.386 184.656 561.668 187.604 560.783 190.833C559.898 194.062 559.877 197.462 560.722 200.701C561.567 203.941 563.25 206.909 565.606 209.318C567.962 211.726 570.911 213.493 574.166 214.445C575.191 216.341 576.078 218.306 576.82 220.325C576.918 220.601 577.015 220.879 577.109 221.159C573.8 222.084 571.211 222.853 570.692 223.278C569.125 224.559 572.407 235.77 572.407 235.77C571.572 236.813 570.72 238.002 569.857 239.277C563.313 249.068 559.17 260.223 557.755 271.861C557.208 276.117 556.498 280.469 555.597 284.606L516.456 276.875L516.374 277.827L515.44 277.602L512.502 276.886L512.387 277.537L511.94 277.327C504.66 273.965 492.394 269.672 484.087 274.099C475.322 278.747 494.239 284.923 506.38 288.21C502.355 288.404 498.505 289.356 495.457 291.583C486.654 298.082 511.552 301.465 523.31 302.665L523.785 302.713V302.961L527.859 303.332L528.815 303.418L528.908 304.849C528.908 304.849 534.741 305.791 542.534 306.931C533.637 309.121 522.644 310.638 515.009 311.525C506.915 312.461 500.023 318.013 497.849 325.754C497.147 327.974 497.079 330.342 497.653 332.597C499.925 340.414 497.15 397.916 496.522 410.3L482.132 418.461C482.132 418.461 459.74 421.15 474.655 426.32C475.999 426.772 477.373 427.132 478.768 427.396C476.802 428.644 476.971 430.274 482.765 432.275C497.691 437.429 532.387 432.049 532.387 432.049C532.387 432.049 531.628 425.992 530.393 420.957L530.776 420.989C530.776 420.989 527.193 407.857 532.627 401.235C538.061 394.613 531.715 344.212 531.715 344.212C531.715 344.212 541.229 340.333 569.666 340.08C592.603 345.879 603.782 325.119 603.624 314.387C603.575 314.145 603.564 313.898 603.548 313.677Z" fill="url(#paint1_linear)"/>
<path d="M518.777 281.055L516.347 290.738C516.347 290.738 514.162 290.254 510.885 289.426C499.788 286.596 476.381 279.802 485.763 274.815C493.852 270.511 505.763 274.696 512.835 277.962C515.424 279.161 517.368 280.237 518.236 280.743C518.602 280.947 518.777 281.055 518.777 281.055Z" fill="#F8B9BF"/>
<path opacity="0.1" d="M518.094 283.788L516.347 290.781C516.347 290.781 514.162 290.297 510.885 289.469L512.857 278.005C515.445 279.205 517.39 280.28 518.258 280.786L518.094 283.788Z" fill="black"/>
<path d="M518.1 291.443L511.317 289.792L513.425 277.548L518.848 278.866L518.1 291.443Z" fill="#D9DFE8"/>
<path opacity="0.1" d="M518.1 291.443L515.173 290.733L516.276 278.241L518.848 278.865L518.1 291.443Z" fill="black"/>
<path d="M583.548 240.73C583.548 240.73 570.523 233.317 564.734 254.582C558.945 275.848 558.399 285.644 558.399 285.644L517.264 277.542L515.959 292.341C515.959 292.341 559.939 306.328 565.471 305.312C571.004 304.295 588.955 274.648 588.955 274.648C588.955 274.648 605.273 251.672 583.548 240.73Z" fill="#5954FF"/>
<g opacity="0.1">
<path opacity="0.1" d="M518.777 281.055L516.347 290.739C516.347 290.739 514.162 290.254 510.885 289.426C499.788 286.596 476.381 279.802 485.763 274.815C493.852 270.511 505.763 274.697 512.835 277.962C515.424 279.162 517.368 280.238 518.236 280.743C518.602 280.948 518.777 281.055 518.777 281.055Z" fill="black"/>
<path opacity="0.1" d="M518.094 283.788L516.347 290.781C516.347 290.781 514.162 290.297 510.885 289.469L512.857 278.005C515.446 279.205 517.39 280.28 518.258 280.786L518.094 283.788Z" fill="black"/>
<path opacity="0.1" d="M518.1 291.443L511.317 289.792L513.425 277.548L518.848 278.866L518.1 291.443Z" fill="black"/>
<path opacity="0.1" d="M518.1 291.443L515.173 290.733L516.276 278.242L518.848 278.866L518.1 291.443Z" fill="black"/>
<path opacity="0.1" d="M583.548 241.268C583.548 241.268 570.523 233.855 564.734 255.12C558.945 276.386 558.399 286.182 558.399 286.182L517.264 278.08L515.959 292.88C515.959 292.88 559.939 306.866 565.471 305.85C571.004 304.833 588.955 275.186 588.955 275.186C588.955 275.186 605.273 252.21 583.548 241.268Z" fill="black"/>
</g>
<path d="M500.7 405.506L483.907 415.034C483.907 415.034 462.149 417.659 476.643 422.662C491.137 427.665 524.834 422.441 524.834 422.441C524.834 422.441 522.96 407.529 520.35 405.447C517.739 403.365 500.7 405.506 500.7 405.506Z" fill="#68739D"/>
<path d="M566.154 298.614C566.154 298.614 557.798 302.918 542.954 306.635C534.254 308.787 523.364 310.315 515.839 311.186C511.986 311.599 508.345 313.13 505.378 315.585C502.41 318.04 500.25 321.308 499.171 324.974C498.483 327.138 498.417 329.446 498.98 331.645C501.454 340.161 497.762 409.385 497.762 409.385L523.266 411.709C523.266 411.709 519.787 398.954 525.068 392.525C530.349 386.097 524.184 337.164 524.184 337.164C524.184 337.164 533.424 333.398 561.036 333.151C586.617 339.606 597.158 312.025 593.209 304.295C589.261 296.564 566.154 298.614 566.154 298.614Z" fill="#6394E2"/>
<g opacity="0.1">
<path opacity="0.1" d="M500.7 405.506L483.907 415.034C483.907 415.034 462.149 417.659 476.643 422.662C491.137 427.665 524.834 422.441 524.834 422.441C524.834 422.441 522.96 407.529 520.35 405.447C517.739 403.365 500.7 405.506 500.7 405.506Z" fill="black"/>
<path opacity="0.1" d="M566.154 298.614C566.154 298.614 557.798 302.918 542.954 306.635C534.254 308.787 523.365 310.315 515.839 311.186C511.986 311.599 508.345 313.13 505.378 315.585C502.41 318.04 500.25 321.308 499.171 324.974C498.484 327.138 498.418 329.446 498.98 331.645C501.454 340.161 497.762 409.385 497.762 409.385L523.266 411.709C523.266 411.709 519.787 398.954 525.069 392.525C530.35 386.097 524.184 337.164 524.184 337.164C524.184 337.164 533.424 333.398 561.037 333.151C586.617 339.606 597.158 312.025 593.209 304.295C589.261 296.564 566.154 298.614 566.154 298.614Z" fill="black"/>
</g>
<path d="M508.575 411.289L491.782 420.817C491.782 420.817 470.035 423.42 484.518 428.445C499.002 433.469 532.709 428.224 532.709 428.224C532.709 428.224 530.836 413.312 528.225 411.23C525.615 409.148 508.575 411.289 508.575 411.289Z" fill="#68739D"/>
<path d="M568.885 338.934C541.272 339.182 532.032 342.947 532.032 342.947C532.032 342.947 538.198 391.902 532.916 398.309C527.635 404.716 531.114 417.492 531.114 417.492L505.61 415.168C505.61 415.168 505.654 414.351 505.725 412.887C506.336 400.859 509.029 345.018 506.817 337.428C506.259 335.236 506.325 332.936 507.008 330.779C508.082 327.108 510.239 323.834 513.206 321.373C516.173 318.912 519.815 317.376 523.67 316.959C531.191 316.092 542.08 314.586 550.78 312.407L551.206 312.3C565.788 308.609 573.98 304.386 573.98 304.386C573.98 304.386 597.087 302.342 601.035 310.073C601.592 311.299 601.868 312.63 601.844 313.973C602.04 324.404 591.172 344.567 568.885 338.934Z" fill="#6394E2"/>
<path d="M530.42 293.122L529.486 303.074C529.486 303.074 527.242 302.918 523.905 302.574C512.507 301.406 488.33 298.125 496.877 291.814C504.228 286.392 516.636 288.759 524.123 290.954C526.854 291.761 528.951 292.541 529.885 292.912C530.229 293.041 530.42 293.122 530.42 293.122Z" fill="#F8B9BF"/>
<path d="M598.256 228.056C598.256 228.056 594.837 230.692 590.659 233.586C586.077 234.608 580.757 235.452 576.924 236.001C578.294 231.697 577.47 226.856 575.924 222.611C574.243 218.176 571.936 213.996 569.07 210.195L592.183 203.089C590.369 207.613 591.189 212.772 592.729 217.259C594.088 221.078 595.946 224.708 598.256 228.056Z" fill="#F8B9BF"/>
<path opacity="0.1" d="M530.158 295.924L529.487 303.074C529.487 303.074 527.242 302.918 523.905 302.574L524.124 290.948C526.854 291.755 528.952 292.535 529.885 292.906L530.158 295.924Z" fill="black"/>
<path d="M531.322 303.493L524.364 302.858L524.593 290.442L530.158 290.948L531.322 303.493Z" fill="#D9DFE8"/>
<path opacity="0.1" d="M598.255 228.055C598.255 228.055 594.837 230.691 590.659 233.586C586.077 234.608 580.757 235.452 576.923 236.001C578.294 231.697 577.47 226.856 575.924 222.611C581.571 220.997 589.648 218.91 592.734 217.232C594.09 221.06 595.946 224.699 598.255 228.055Z" fill="black"/>
<path d="M593.635 217.501C593.635 217.501 597.502 226.146 599.938 230.051C602.373 233.957 571.637 237.583 571.637 237.583C571.637 237.583 568.448 226.7 569.971 225.452C571.495 224.204 591.063 220.029 593.635 217.501Z" fill="#D9DFE8"/>
<path opacity="0.1" d="M601.887 313.978C600.594 316.225 598.983 318.279 597.103 320.079C583.526 332.785 561.271 319.541 551.228 312.3C565.81 308.609 574.002 304.386 574.002 304.386C574.002 304.386 597.109 302.342 601.057 310.073C601.622 311.298 601.906 312.632 601.887 313.978Z" fill="black"/>
<path d="M597.191 319.17C581.757 333.608 555.138 314.489 547.962 308.857C546.799 307.942 546.149 307.377 546.149 307.377C548.984 304.763 551.474 299.222 553.445 292.444C555.283 285.959 556.61 279.344 557.416 272.658C558.79 261.353 562.813 250.519 569.169 241.01C570.004 239.772 570.807 238.616 571.643 237.604C577.47 230.304 587.262 225.667 587.262 225.667C607.928 219.717 610.707 249.913 610.156 250.784C609.604 251.656 615.131 302.38 597.191 319.17Z" fill="#5954FF"/>
<path opacity="0.1" d="M599.189 277.892C599.189 277.892 585.902 309.847 580.588 311.67C577.546 312.709 561.299 310.74 547.962 308.862C546.799 307.948 546.149 307.383 546.149 307.383C548.984 304.768 551.474 299.227 553.445 292.449L570.621 293.256C570.621 293.256 569.666 283.497 572.189 261.613C574.712 239.729 588.698 245.152 588.698 245.152C611.838 252.785 599.189 277.892 599.189 277.892Z" fill="black"/>
<path opacity="0.1" d="M531.322 303.493L528.318 303.219L527.521 290.711L530.158 290.948L531.322 303.493Z" fill="black"/>
<path d="M588.365 243.742C588.365 243.742 574.378 238.325 571.855 260.204C569.332 282.083 570.288 291.847 570.288 291.847L528.383 289.872L529.328 304.698C529.328 304.698 574.936 312.074 580.249 310.256C585.563 308.437 598.851 276.477 598.851 276.477C598.851 276.477 611.483 251.371 588.365 243.742Z" fill="#5954FF"/>
<path opacity="0.1" d="M589.304 211.346C588.693 208.076 592.161 208.119 593.406 205.042L570.293 212.148C571.898 214.27 573.329 216.513 574.575 218.856C575.774 219.207 577.005 219.441 578.251 219.556C583.761 220.072 585.481 214.73 589.304 211.346Z" fill="black"/>
<path d="M597.779 200.597C598.75 190.254 591.025 181.095 580.525 180.139C570.025 179.183 560.726 186.793 559.756 197.135C558.786 207.478 566.511 216.637 577.011 217.593C587.511 218.549 596.809 210.939 597.779 200.597Z" fill="#F8B9BF"/>
<path opacity="0.1" d="M559.928 181.877C560.163 183.835 562.26 185.029 564.21 185.471C566.159 185.912 568.273 185.933 569.982 186.961C572.713 188.618 573.45 192.297 573.106 195.46C572.915 197.246 572.642 199.436 574.127 200.474C574.594 200.756 575.115 200.939 575.657 201.012C577.206 201.321 578.797 201.376 580.364 201.174C581.282 201.055 582.227 200.851 583.095 201.104C584.526 201.512 585.372 202.997 585.651 204.434C585.929 205.87 585.776 207.365 586 208.813C586.312 210.625 587.175 212.301 588.473 213.62C589.772 214.94 591.446 215.841 593.275 216.204C594.132 216.41 595.035 216.33 595.842 215.978C596.879 215.44 597.409 214.294 597.857 213.224L601.134 205.499C602.608 202.018 604.094 198.505 604.88 194.815C606.048 189.257 605.595 183.486 603.575 178.17C602.799 176.148 601.729 174.12 599.91 172.904C596.268 170.467 591.172 172.151 587.033 170.752C585.662 170.284 584.428 169.488 583.062 169.009C580.108 167.971 576.771 168.519 573.925 169.827C571.08 171.134 568.781 173.194 566.28 175.072C564.111 176.734 559.518 178.493 559.928 181.877Z" fill="black"/>
<path d="M560.43 181.463C560.665 183.421 562.762 184.615 564.712 185.056C566.662 185.498 568.775 185.519 570.485 186.547C573.215 188.204 573.953 191.883 573.608 195.046C573.417 196.832 573.144 199.022 574.63 200.06C575.096 200.342 575.617 200.525 576.159 200.598C577.708 200.907 579.299 200.962 580.867 200.76C581.784 200.641 582.729 200.437 583.597 200.69C585.028 201.098 585.875 202.583 586.153 204.02C586.432 205.456 586.279 206.951 586.503 208.399C586.815 210.21 587.677 211.887 588.975 213.206C590.274 214.526 591.948 215.427 593.777 215.79C594.635 215.996 595.537 215.916 596.344 215.564C597.382 215.026 597.911 213.88 598.359 212.81L601.636 205.085C603.11 201.604 604.596 198.091 605.382 194.401C606.55 188.842 606.098 183.072 604.077 177.756C603.302 175.734 602.231 173.706 600.413 172.49C596.77 170.053 591.674 171.737 587.535 170.338C586.164 169.87 584.93 169.074 583.564 168.595C580.61 167.557 577.273 168.105 574.428 169.413C571.582 170.72 569.283 172.78 566.782 174.658C564.619 176.32 560.026 178.079 560.43 181.463Z" fill="#B96B6B"/>
<path opacity="0.1" d="M576.246 255.76C576.246 255.76 568.956 283.659 561.698 286.241C554.439 288.823 557.645 289.555 557.645 289.555" fill="black"/>
<path d="M576.59 357.962H568.666V409.267H576.59V357.962Z" fill="#D6D6E3"/>
<path opacity="0.1" d="M576.59 357.962H568.666V361.765H576.59V357.962Z" fill="black"/>
<path d="M552.812 357.693V358.769C552.812 359.1 552.878 359.428 553.007 359.734C553.136 360.04 553.324 360.318 553.562 360.553C553.8 360.787 554.082 360.973 554.393 361.1C554.704 361.226 555.037 361.292 555.373 361.292H589.878C590.214 361.292 590.547 361.226 590.858 361.1C591.169 360.973 591.451 360.787 591.689 360.553C591.927 360.318 592.116 360.04 592.244 359.734C592.373 359.428 592.439 359.1 592.439 358.769V357.693C592.439 357.361 592.373 357.033 592.244 356.727C592.116 356.421 591.927 356.143 591.689 355.909C591.451 355.674 591.169 355.489 590.858 355.362C590.547 355.235 590.214 355.17 589.878 355.17H555.373C555.037 355.17 554.704 355.235 554.393 355.362C554.082 355.489 553.8 355.674 553.562 355.909C553.324 356.143 553.136 356.421 553.007 356.727C552.878 357.033 552.812 357.361 552.812 357.693Z" fill="#D6D6E3"/>
<path opacity="0.1" d="M553.402 356.09H591.855C591.615 355.801 591.314 355.569 590.972 355.41C590.63 355.251 590.256 355.169 589.878 355.17H555.373C554.996 355.17 554.624 355.252 554.283 355.412C553.942 355.571 553.641 355.802 553.402 356.09Z" fill="black"/>
<path d="M602.182 406.475H543.085C541.426 406.475 540.082 407.8 540.082 409.434V409.649C540.082 411.283 541.426 412.608 543.085 412.608H602.182C603.841 412.608 605.186 411.283 605.186 409.649V409.434C605.186 407.8 603.841 406.475 602.182 406.475Z" fill="#D6D6E3"/>
<path d="M601.505 420.419C603.695 420.419 605.47 418.67 605.47 416.513C605.47 414.356 603.695 412.607 601.505 412.607C599.315 412.607 597.54 414.356 597.54 416.513C597.54 418.67 599.315 420.419 601.505 420.419Z" fill="#535461"/>
<path d="M543.757 420.419C545.947 420.419 547.722 418.67 547.722 416.513C547.722 414.356 545.947 412.607 543.757 412.607C541.567 412.607 539.792 414.356 539.792 416.513C539.792 418.67 541.567 420.419 543.757 420.419Z" fill="#535461"/>
<path d="M572.631 420.419C574.821 420.419 576.596 418.67 576.596 416.513C576.596 414.356 574.821 412.607 572.631 412.607C570.441 412.607 568.666 414.356 568.666 416.513C568.666 418.67 570.441 420.419 572.631 420.419Z" fill="#535461"/>
<path d="M621.843 294.945H568.852C566.288 294.945 564.209 296.993 564.209 299.518V299.851C564.209 302.377 566.288 304.424 568.852 304.424H621.843C624.407 304.424 626.485 302.377 626.485 299.851V299.518C626.485 296.993 624.407 294.945 621.843 294.945Z" fill="#D6D6E3"/>
<path opacity="0.1" d="M576.59 406.475C576.59 406.475 573.477 409.504 568.666 406.475H576.59Z" fill="black"/>
<path opacity="0.1" d="M626.485 299.781V300.529C626.485 301.564 626.068 302.556 625.325 303.287C624.583 304.019 623.576 304.429 622.525 304.429H568.169C567.119 304.429 566.112 304.019 565.369 303.287C564.627 302.556 564.209 301.564 564.209 300.529V299.781H626.485Z" fill="black"/>
<path d="M522.873 308.497H512.164V442.911H522.873V308.497Z" fill="#D6D6E3"/>
<path opacity="0.1" d="M522.873 308.497H512.164V317.212H522.873V308.497Z" fill="black"/>
<path d="M198.143 361.631H190.219V412.936H198.143V361.631Z" fill="#D6D6E3"/>
<path opacity="0.1" d="M198.143 361.631H190.219V365.434H198.143V361.631Z" fill="black"/>
<path d="M213.992 361.367V362.443C213.992 363.112 213.722 363.754 213.242 364.227C212.761 364.7 212.11 364.966 211.431 364.966H176.926C176.247 364.966 175.595 364.7 175.115 364.227C174.635 363.754 174.365 363.112 174.365 362.443V361.367C174.371 360.702 174.643 360.065 175.123 359.597C175.602 359.128 176.251 358.865 176.926 358.865H211.431C211.767 358.865 212.1 358.931 212.411 359.058C212.722 359.184 213.004 359.37 213.242 359.604C213.48 359.839 213.668 360.117 213.797 360.423C213.926 360.729 213.992 361.057 213.992 361.389V361.367Z" fill="#D6D6E3"/>
<path opacity="0.1" d="M213.408 359.758H174.949C175.192 359.475 175.494 359.248 175.836 359.094C176.178 358.94 176.55 358.861 176.926 358.865H211.431C211.807 358.861 212.179 358.94 212.521 359.094C212.863 359.248 213.165 359.475 213.408 359.758Z" fill="black"/>
<path d="M223.73 410.144H164.633C162.974 410.144 161.629 411.468 161.629 413.102V413.317C161.629 414.952 162.974 416.276 164.633 416.276H223.73C225.389 416.276 226.733 414.952 226.733 413.317V413.102C226.733 411.468 225.389 410.144 223.73 410.144Z" fill="#D6D6E3"/>
<path d="M165.31 424.088C167.5 424.088 169.275 422.339 169.275 420.182C169.275 418.025 167.5 416.276 165.31 416.276C163.12 416.276 161.345 418.025 161.345 420.182C161.345 422.339 163.12 424.088 165.31 424.088Z" fill="#535461"/>
<path d="M223.052 424.088C225.242 424.088 227.017 422.339 227.017 420.182C227.017 418.025 225.242 416.276 223.052 416.276C220.863 416.276 219.087 418.025 219.087 420.182C219.087 422.339 220.863 424.088 223.052 424.088Z" fill="#535461"/>
<path d="M194.179 424.088C196.368 424.088 198.143 422.339 198.143 420.182C198.143 418.025 196.368 416.276 194.179 416.276C191.989 416.276 190.214 418.025 190.214 420.182C190.214 422.339 191.989 424.088 194.179 424.088Z" fill="#535461"/>
<path opacity="0.1" d="M190.219 410.144C190.219 410.144 193.332 413.172 198.143 410.144H190.219Z" fill="black"/>
<path d="M392.38 255.696C392.38 255.696 383.489 239.778 386.739 225.941C388.139 220.147 387.593 214.061 385.182 208.598C384.025 206.014 382.63 203.54 381.015 201.206" stroke="#535461" stroke-width="2" stroke-miterlimit="10"/>
<path d="M382.987 192.469C383.451 194.557 380.966 201.437 380.966 201.437C380.966 201.437 375.783 196.219 375.314 194.132C375.157 193.622 375.108 193.085 375.172 192.555C375.235 192.026 375.409 191.515 375.682 191.055C375.956 190.595 376.323 190.195 376.76 189.882C377.198 189.568 377.696 189.346 378.225 189.232C378.753 189.117 379.3 189.111 379.831 189.214C380.362 189.317 380.866 189.527 381.311 189.831C381.755 190.135 382.131 190.527 382.415 190.981C382.699 191.435 382.884 191.942 382.96 192.469H382.987Z" fill="#5954FF"/>
<path d="M391.905 202.653C391.146 204.654 385.264 209.109 385.264 209.109C385.264 209.109 383.79 201.954 384.554 199.963C384.718 199.468 384.982 199.01 385.33 198.617C385.678 198.224 386.103 197.905 386.579 197.678C387.055 197.451 387.573 197.322 388.102 197.297C388.631 197.272 389.159 197.353 389.655 197.534C390.151 197.716 390.605 197.994 390.989 198.352C391.373 198.711 391.679 199.142 391.89 199.62C392.101 200.098 392.211 200.613 392.215 201.135C392.218 201.656 392.115 202.172 391.911 202.653H391.905Z" fill="#5954FF"/>
<path d="M396.034 222.461C394.352 223.811 386.996 224.72 386.996 224.72C386.996 224.72 389.393 217.813 391.075 216.462C391.474 216.137 391.935 215.892 392.431 215.742C392.927 215.593 393.448 215.541 393.964 215.591C394.48 215.641 394.981 215.791 395.438 216.032C395.895 216.274 396.298 216.602 396.626 216.998C396.953 217.394 397.198 217.85 397.345 218.34C397.493 218.829 397.541 219.343 397.486 219.851C397.431 220.359 397.274 220.851 397.025 221.299C396.776 221.747 396.439 222.142 396.034 222.461Z" fill="#5954FF"/>
<path d="M395.734 238.137C394.308 239.751 387.214 241.87 387.214 241.87C387.214 241.87 388.388 234.662 389.813 233.053C390.147 232.653 390.559 232.322 391.024 232.081C391.489 231.841 391.999 231.694 392.523 231.651C393.047 231.608 393.575 231.669 394.074 231.831C394.574 231.992 395.035 232.251 395.431 232.591C395.827 232.932 396.15 233.347 396.38 233.813C396.61 234.279 396.743 234.785 396.771 235.302C396.799 235.819 396.72 236.337 396.541 236.824C396.362 237.311 396.086 237.757 395.728 238.137H395.734Z" fill="#5954FF"/>
<path d="M377.302 211.244C379.148 212.369 386.559 212.32 386.559 212.32C386.559 212.32 383.282 205.773 381.436 204.649C380.998 204.365 380.506 204.171 379.99 204.077C379.474 203.983 378.945 203.992 378.432 204.104C377.92 204.215 377.436 204.427 377.008 204.725C376.58 205.024 376.217 205.405 375.941 205.844C375.664 206.283 375.48 206.773 375.399 207.283C375.318 207.794 375.342 208.315 375.469 208.816C375.596 209.318 375.823 209.789 376.138 210.202C376.453 210.616 376.849 210.963 377.302 211.223V211.244Z" fill="#5954FF"/>
<path d="M377.192 229.589C379.295 230.127 386.357 227.91 386.357 227.91C386.357 227.91 381.239 222.627 379.137 222.1C378.145 221.893 377.111 222.071 376.249 222.597C375.388 223.124 374.767 223.958 374.516 224.925C374.264 225.893 374.403 226.918 374.902 227.787C375.401 228.657 376.221 229.302 377.192 229.589Z" fill="#5954FF"/>
<path d="M379.557 247.427C381.534 248.299 388.88 247.298 388.88 247.298C388.88 247.298 384.74 241.241 382.763 240.369C381.812 239.951 380.731 239.921 379.758 240.287C378.785 240.654 378 241.385 377.575 242.322C377.15 243.259 377.12 244.323 377.492 245.282C377.863 246.24 378.606 247.014 379.557 247.433V247.427Z" fill="#5954FF"/>
<path d="M382.987 192.469C383.451 194.557 380.966 201.437 380.966 201.437C380.966 201.437 375.783 196.219 375.314 194.132C375.157 193.622 375.108 193.085 375.172 192.555C375.235 192.026 375.409 191.515 375.682 191.055C375.956 190.595 376.323 190.195 376.76 189.882C377.198 189.568 377.696 189.346 378.225 189.232C378.753 189.117 379.3 189.111 379.831 189.214C380.362 189.317 380.866 189.527 381.311 189.831C381.755 190.135 382.131 190.527 382.415 190.981C382.699 191.435 382.884 191.942 382.96 192.469H382.987Z" fill="#5954FF"/>
<path d="M391.905 202.653C391.146 204.654 385.264 209.109 385.264 209.109C385.264 209.109 383.79 201.954 384.554 199.963C384.718 199.468 384.982 199.01 385.33 198.617C385.678 198.224 386.103 197.905 386.579 197.678C387.055 197.451 387.573 197.322 388.102 197.297C388.631 197.272 389.159 197.353 389.655 197.534C390.151 197.716 390.605 197.994 390.989 198.352C391.373 198.711 391.679 199.142 391.89 199.62C392.101 200.098 392.211 200.613 392.215 201.135C392.218 201.656 392.115 202.172 391.911 202.653H391.905Z" fill="#5954FF"/>
<path d="M396.034 222.461C394.352 223.811 386.996 224.72 386.996 224.72C386.996 224.72 389.393 217.813 391.075 216.462C391.474 216.137 391.935 215.892 392.431 215.742C392.927 215.593 393.448 215.541 393.964 215.591C394.48 215.641 394.981 215.791 395.438 216.032C395.895 216.274 396.298 216.602 396.626 216.998C396.953 217.394 397.198 217.85 397.345 218.34C397.493 218.829 397.541 219.343 397.486 219.851C397.431 220.359 397.274 220.851 397.025 221.299C396.776 221.747 396.439 222.142 396.034 222.461Z" fill="#5954FF"/>
<path d="M395.734 238.137C394.308 239.751 387.214 241.87 387.214 241.87C387.214 241.87 388.388 234.662 389.813 233.053C390.147 232.653 390.559 232.322 391.024 232.081C391.489 231.841 391.999 231.694 392.523 231.651C393.047 231.608 393.575 231.669 394.074 231.831C394.574 231.992 395.035 232.251 395.431 232.591C395.827 232.932 396.15 233.347 396.38 233.813C396.61 234.279 396.743 234.785 396.771 235.302C396.799 235.819 396.72 236.337 396.541 236.824C396.362 237.311 396.086 237.757 395.728 238.137H395.734Z" fill="#5954FF"/>
<path d="M377.302 211.244C379.148 212.369 386.559 212.32 386.559 212.32C386.559 212.32 383.282 205.773 381.436 204.649C380.998 204.365 380.506 204.171 379.99 204.077C379.474 203.983 378.945 203.992 378.432 204.104C377.92 204.215 377.436 204.427 377.008 204.725C376.58 205.024 376.217 205.405 375.941 205.844C375.664 206.283 375.48 206.773 375.399 207.283C375.318 207.794 375.342 208.315 375.469 208.816C375.596 209.318 375.823 209.789 376.138 210.202C376.453 210.616 376.849 210.963 377.302 211.223V211.244Z" fill="#5954FF"/>
<path d="M377.192 229.589C379.295 230.127 386.357 227.91 386.357 227.91C386.357 227.91 381.239 222.627 379.137 222.1C378.145 221.893 377.111 222.071 376.249 222.597C375.388 223.124 374.767 223.958 374.516 224.925C374.264 225.893 374.403 226.918 374.902 227.787C375.401 228.657 376.221 229.302 377.192 229.589Z" fill="#5954FF"/>
<path d="M379.557 247.427C381.534 248.299 388.88 247.298 388.88 247.298C388.88 247.298 384.74 241.241 382.763 240.369C381.812 239.951 380.731 239.921 379.758 240.287C378.785 240.654 378 241.385 377.575 242.322C377.15 243.259 377.12 244.323 377.492 245.282C377.863 246.24 378.606 247.014 379.557 247.433V247.427Z" fill="#5954FF"/>
<path d="M388.765 299.846C387.486 299.846 386.22 299.588 385.046 299.088C383.873 298.588 382.815 297.856 381.939 296.937C381.064 296.019 380.389 294.933 379.955 293.748C379.522 292.562 379.34 291.302 379.421 290.044L382.037 249.213H395.494L398.11 290.044C398.19 291.302 398.008 292.562 397.575 293.748C397.142 294.933 396.467 296.019 395.591 296.937C394.715 297.856 393.658 298.588 392.484 299.088C391.31 299.588 390.044 299.846 388.765 299.846Z" fill="#5954FF"/>
<path opacity="0.1" d="M116.306 99.1177H108.66V130.319H116.306V99.1177Z" fill="#5954FF"/>
<path opacity="0.1" d="M126.136 99.1177H118.49V130.319H126.136V99.1177Z" fill="#5954FF"/>
<path opacity="0.1" d="M135.966 99.1177H128.321V130.319H135.966V99.1177Z" fill="#5954FF"/>
<path opacity="0.1" d="M145.797 99.1177H138.151V130.319H145.797V99.1177Z" fill="#5954FF"/>
<path opacity="0.1" d="M165.457 99.1177H157.812V130.319H165.457V99.1177Z" fill="#5954FF"/>
<path opacity="0.1" d="M175.288 99.1177H167.642V130.319H175.288V99.1177Z" fill="#5954FF"/>
<path opacity="0.1" d="M116.306 105.035H108.66V106.649H116.306V105.035Z" fill="#5954FF"/>
<path opacity="0.1" d="M116.306 124.402H108.66V126.015H116.306V124.402Z" fill="#5954FF"/>
<path opacity="0.1" d="M126.136 105.035H118.49V106.649H126.136V105.035Z" fill="#5954FF"/>
<path opacity="0.1" d="M126.136 124.402H118.49V126.015H126.136V124.402Z" fill="#5954FF"/>
<path opacity="0.1" d="M135.966 105.035H128.321V106.649H135.966V105.035Z" fill="#5954FF"/>
<path opacity="0.1" d="M135.966 124.402H128.321V126.015H135.966V124.402Z" fill="#5954FF"/>
<path opacity="0.1" d="M145.797 105.035H138.151V106.649H145.797V105.035Z" fill="#5954FF"/>
<path opacity="0.1" d="M145.797 124.402H138.151V126.015H145.797V124.402Z" fill="#5954FF"/>
<path opacity="0.1" d="M155.627 105.035H147.981V106.649H155.627V105.035Z" fill="#5954FF"/>
<path opacity="0.1" d="M155.627 124.402H147.981V126.015H155.627V124.402Z" fill="#5954FF"/>
<path opacity="0.1" d="M165.457 105.035H157.812V106.649H165.457V105.035Z" fill="#5954FF"/>
<path opacity="0.1" d="M165.457 124.402H157.812V126.015H165.457V124.402Z" fill="#5954FF"/>
<path opacity="0.1" d="M175.288 105.035H167.642V106.649H175.288V105.035Z" fill="#5954FF"/>
<path opacity="0.1" d="M175.288 124.402H167.642V126.015H175.288V124.402Z" fill="#5954FF"/>
<path opacity="0.1" d="M155.627 99.1177H147.981V130.319H155.627V99.1177Z" fill="#5954FF"/>
<path opacity="0.1" d="M182.478 98.9743L175.54 102.138L188.846 130.453L195.784 127.289L182.478 98.9743Z" fill="#5954FF"/>
<path opacity="0.1" d="M185.004 104.35L178.065 107.513L178.753 108.978L185.692 105.814L185.004 104.35Z" fill="#5954FF"/>
<path opacity="0.1" d="M193.259 121.923L186.32 125.086L187.009 126.551L193.947 123.387L193.259 121.923Z" fill="#5954FF"/>
<path d="M275.525 420.844L261.648 412.123C261.577 399.842 261.38 342.824 263.974 335.195C264.643 332.987 264.681 330.64 264.083 328.412C262.281 320.66 255.706 314.871 247.738 313.596C240.223 312.391 229.41 310.417 220.704 307.867C228.465 307.076 234.281 306.393 234.281 306.393L234.434 304.978L239.431 304.742V304.532L239.906 304.505C251.577 303.822 276.36 301.546 267.939 294.736C265.05 292.401 261.282 291.298 257.306 290.927C269.463 288.194 288.463 282.9 279.992 277.924C271.942 273.201 259.616 276.913 252.26 279.931L251.806 280.119L251.724 279.468L248.786 280.049L247.852 280.232L247.809 279.285L206.581 285.558C206.258 280.905 205.697 276.271 204.899 271.673C205.822 265.616 210.115 256.783 208.602 252.043C206.843 246.54 199.624 244.738 196.587 239.767C195.79 238.47 194.998 237.255 194.222 236.189C192.525 233.917 190.574 231.84 188.406 229.998C188.537 226.801 189.263 223.656 190.547 220.718C191.37 218.752 192.334 216.847 193.43 215.015C198.236 213.841 202.405 210.905 205.089 206.807C207.772 202.708 208.767 197.755 207.87 192.959C210.481 194.062 213.654 194.175 215.287 192.023L214.511 191.727C214.588 191.647 214.664 191.566 214.729 191.474C213.14 190.877 211.453 190.199 210.208 189.113C209.892 188.764 209.626 188.375 209.416 187.956C208.662 186.45 208.749 184.642 208.028 183.114C207.689 182.419 207.208 181.8 206.614 181.296C205.349 180.022 203.749 179.121 201.994 178.692C200.022 178.128 197.947 177.843 196.057 177.079C193.482 174.133 190.082 172.001 186.283 170.948C182.484 169.896 178.455 169.97 174.698 171.161L174.015 171.392C174.49 169.141 174.047 166.796 172.784 164.862C171.52 162.928 169.537 161.561 167.26 161.053C164.983 160.545 162.595 160.938 160.609 162.148C158.624 163.357 157.199 165.286 156.643 167.519C156.816 165.558 157.655 163.713 159.024 162.279C158.882 162.398 158.735 162.511 158.598 162.634C157.745 163.424 157.059 164.372 156.578 165.423C156.097 166.474 155.831 167.608 155.795 168.761C155.759 169.913 155.954 171.061 156.368 172.14C156.782 173.218 157.409 174.205 158.21 175.045L158.369 175.196C158.999 175.956 159.754 176.607 160.602 177.122C159.041 176.579 157.665 175.618 156.627 174.348C155.589 173.077 154.931 171.547 154.726 169.929C154.726 170.112 154.726 170.295 154.726 170.467C154.794 171.623 155.094 172.755 155.608 173.796C156.122 174.838 156.84 175.769 157.72 176.536C158.601 177.303 159.627 177.891 160.739 178.265C161.852 178.64 163.028 178.794 164.201 178.719L164.447 178.692L164.316 178.87C161.776 182.55 160.572 186.966 160.9 191.404C161.227 195.842 163.066 200.041 166.118 203.32C166.481 204.138 166.963 204.899 167.549 205.58C167.755 205.812 167.976 206.031 168.21 206.236C169.706 207.79 171.751 208.719 173.923 208.829C174.287 209.256 174.674 209.666 175.086 210.061C174.726 211.57 174.255 213.052 173.677 214.494C172.513 217.365 171.064 220.117 169.351 222.708C157.555 226.011 156.517 245.744 156.943 246.491C157.451 247.384 155.185 278.371 163.923 315.802C163.562 326.502 169.898 344.195 192.387 339.531C220.513 341.011 229.737 345.255 229.737 345.255C229.737 345.255 227.067 393.44 230.879 400.455C233.265 404.85 231.572 411.306 229.786 415.862C229.124 416.989 228.597 418.188 228.213 419.434C227.667 420.569 227.269 421.258 227.269 421.258H227.651C226.209 426.191 225.188 432.146 225.188 432.146C225.188 432.146 259.283 438.962 274.28 434.503C280.101 432.77 280.342 431.167 278.452 429.844C279.844 429.642 281.22 429.346 282.57 428.956C297.578 424.496 275.525 420.844 275.525 420.844Z" fill="url(#paint2_linear)"/>
<path d="M201.338 192.098C201.338 195.929 200.185 199.673 198.025 202.858C195.865 206.042 192.794 208.525 189.201 209.991C185.609 211.456 181.656 211.84 177.842 211.093C174.028 210.345 170.525 208.501 167.775 205.792C165.026 203.084 163.153 199.633 162.395 195.876C161.636 192.12 162.025 188.226 163.513 184.687C165.002 181.148 167.521 178.124 170.755 175.996C173.988 173.868 177.789 172.732 181.678 172.732C184.259 172.732 186.816 173.233 189.201 174.206C191.587 175.179 193.754 176.606 195.58 178.404C197.405 180.202 198.854 182.337 199.842 184.687C200.83 187.037 201.338 189.555 201.338 192.098Z" fill="#FA595F"/>
<path d="M245.624 283.083L247.617 292.885C247.617 292.885 249.835 292.492 253.117 291.809C264.329 289.469 288.02 283.691 278.845 278.301C270.954 273.669 258.868 277.311 251.659 280.27C249.016 281.346 247.028 282.346 246.137 282.814C245.804 282.981 245.624 283.083 245.624 283.083Z" fill="#F8B9BF"/>
<path opacity="0.1" d="M246.187 285.848L247.617 292.885C247.617 292.885 249.835 292.492 253.117 291.809L251.659 280.27C249.016 281.346 247.028 282.346 246.137 282.814L246.187 285.848Z" fill="black"/>
<path d="M245.842 293.493L252.691 292.143L251.14 279.818L245.657 280.899L245.842 293.493Z" fill="#D9DFE8"/>
<path opacity="0.1" d="M245.842 293.493L248.797 292.906L248.256 280.388L245.657 280.899L245.842 293.493Z" fill="black"/>
<path d="M182.721 239.977C182.721 239.977 196.052 233.134 200.896 254.636C205.74 276.138 205.811 285.94 205.811 285.94L247.273 279.629L247.918 294.472C247.918 294.472 203.353 306.538 197.876 305.279C192.398 304.02 175.768 273.62 175.768 273.62C175.768 273.62 160.531 249.977 182.721 239.977Z" fill="#5954FF"/>
<g opacity="0.1">
<path opacity="0.1" d="M245.624 283.083L247.617 292.885C247.617 292.885 249.835 292.492 253.117 291.809C264.329 289.469 288.02 283.691 278.845 278.301C270.954 273.669 258.868 277.311 251.659 280.27C249.016 281.346 247.028 282.346 246.137 282.814C245.804 282.981 245.624 283.083 245.624 283.083Z" fill="black"/>
<path opacity="0.1" d="M246.187 285.848L247.617 292.885C247.617 292.885 249.835 292.492 253.117 291.809L251.659 280.27C249.016 281.345 247.028 282.346 246.137 282.814L246.187 285.848Z" fill="black"/>
<path opacity="0.1" d="M245.842 293.493L252.691 292.142L251.14 279.818L245.657 280.899L245.842 293.493Z" fill="black"/>
<path opacity="0.1" d="M245.842 293.493L248.797 292.906L248.256 280.388L245.657 280.899L245.842 293.493Z" fill="black"/>
<path opacity="0.1" d="M183.813 241.052C183.813 241.052 197.144 234.21 201.988 255.712C206.832 277.214 206.903 287.016 206.903 287.016L248.366 280.705L249.01 295.548C249.01 295.548 204.446 307.614 198.968 306.355C193.49 305.096 176.861 274.696 176.861 274.696C176.861 274.696 161.624 251.053 183.813 241.052Z" fill="black"/>
</g>
<path d="M258.136 408.202L274.487 418.423C274.487 418.423 296.108 421.989 281.401 426.363C266.694 430.737 233.271 424.05 233.271 424.05C233.271 424.05 235.81 409.234 238.513 407.271C241.217 405.307 258.136 408.202 258.136 408.202Z" fill="#F37291"/>
<path d="M197.515 298.56C197.515 298.56 205.669 303.224 220.333 307.582C228.929 310.137 239.742 312.111 247.213 313.311C251.046 313.894 254.616 315.586 257.47 318.172C260.324 320.759 262.333 324.122 263.242 327.836C263.829 330.02 263.793 332.32 263.138 334.485C260.288 342.888 260.866 412.204 260.866 412.204L235.286 413.414C235.286 413.414 239.332 400.821 234.346 394.172C229.36 387.523 237.71 338.907 237.71 338.907C237.71 338.907 228.65 334.743 201.071 333.296C175.222 338.676 165.932 310.621 170.225 303.068C174.518 295.515 197.515 298.56 197.515 298.56Z" fill="#96A2D0"/>
<g opacity="0.1">
<path opacity="0.1" d="M258.136 408.202L274.487 418.423C274.487 418.423 296.108 421.989 281.401 426.363C266.694 430.737 233.271 424.05 233.271 424.05C233.271 424.05 235.81 409.234 238.513 407.271C241.217 405.307 258.136 408.202 258.136 408.202Z" fill="black"/>
<path opacity="0.1" d="M197.515 298.56C197.515 298.56 205.669 303.224 220.333 307.582C228.929 310.137 239.742 312.111 247.213 313.311C251.046 313.894 254.616 315.586 257.47 318.172C260.324 320.759 262.333 324.122 263.242 327.836C263.829 330.02 263.793 332.32 263.138 334.485C260.288 342.888 260.866 412.204 260.866 412.204L235.286 413.414C235.286 413.414 239.332 400.821 234.346 394.172C229.36 387.523 237.71 338.907 237.71 338.907C237.71 338.907 228.65 334.743 201.071 333.296C175.222 338.676 165.932 310.621 170.225 303.068C174.518 295.515 197.515 298.56 197.515 298.56Z" fill="black"/>
</g>
<path d="M249.988 413.64L266.339 423.862C266.339 423.862 287.96 427.428 273.253 431.802C258.546 436.175 225.122 429.489 225.122 429.489C225.122 429.489 227.662 414.673 230.365 412.71C233.069 410.746 249.988 413.64 249.988 413.64Z" fill="#F37291"/>
<path d="M192.95 338.73C220.529 340.177 229.59 344.341 229.59 344.341C229.59 344.341 226.974 391.584 230.682 398.459C234.641 405.754 227.143 418.848 227.143 418.848L252.724 417.637C252.724 417.637 252.724 416.82 252.724 415.357C252.647 403.317 252.462 347.412 255.001 339.919C255.655 337.754 255.691 335.453 255.105 333.269C254.195 329.556 252.186 326.193 249.332 323.607C246.478 321.02 242.908 319.328 239.076 318.745C231.599 317.55 220.791 315.576 212.195 313.021L211.775 312.892C197.373 308.588 189.383 303.999 189.383 303.999C189.383 303.999 172.35 302.837 168.084 310.39C167.538 311.369 165.184 313.295 165.086 314.85C164.447 325.254 170.46 343.394 192.95 338.73Z" fill="#96A2D0"/>
<path d="M233.456 294.633L233.942 304.618C233.942 304.618 236.192 304.559 239.546 304.36C250.987 303.687 275.29 301.46 267.032 294.784C259.933 289.044 247.426 290.873 239.851 292.74C237.072 293.428 234.936 294.117 234.008 294.445C233.647 294.563 233.456 294.633 233.456 294.633Z" fill="#F8B9BF"/>
<path d="M168.57 226.684C168.57 226.684 171.847 229.465 175.91 232.542C180.443 233.758 185.741 234.839 189.525 235.555C188.351 231.17 189.394 226.409 191.126 222.219C193.004 217.86 195.497 213.783 198.531 210.109L175.757 202.002C177.368 206.602 176.304 211.739 174.572 216.134C173.044 219.892 171.026 223.438 168.57 226.684Z" fill="#F8B9BF"/>
<path opacity="0.1" d="M233.593 297.447L233.942 304.618C233.942 304.618 236.192 304.558 239.546 304.359L239.851 292.734C237.072 293.423 234.936 294.111 234.008 294.439L233.593 297.447Z" fill="black"/>
<path d="M232.096 304.957L239.071 304.629L239.398 292.212L233.817 292.476L232.096 304.957Z" fill="#D9DFE8"/>
<path d="M165.583 317.755C180.329 332.855 207.826 314.909 215.221 309.594C216.422 308.728 217.094 308.195 217.094 308.195C214.363 305.457 209.994 302.923 208.318 296.064C206.718 289.064 205.634 281.959 205.074 274.804C204.62 269.129 210.573 258.321 208.853 252.931C207.133 247.54 200.049 245.771 197.073 240.891C196.292 239.622 195.516 238.427 194.752 237.384C189.258 229.852 179.684 224.779 179.684 224.779C159.286 217.92 157.686 246.615 158.194 247.508C158.702 248.401 156.37 280.033 165.583 317.755Z" fill="#5954FF"/>
<path opacity="0.1" d="M165.43 276.429C165.43 276.429 177.276 308.932 182.502 310.982C185.495 312.155 201.819 310.89 215.221 309.594C216.422 308.728 217.094 308.195 217.094 308.195C214.363 305.457 212.141 299.814 210.469 292.96L193.272 293.019C193.272 293.019 194.664 283.336 193.124 261.339C191.584 239.342 177.368 244.178 177.368 244.178C153.923 250.8 165.43 276.429 165.43 276.429Z" fill="black"/>
<path opacity="0.1" d="M232.096 304.957L235.106 304.817L236.466 292.352L233.817 292.476L232.096 304.957Z" fill="black"/>
<path d="M177.773 242.779C177.773 242.779 191.972 237.975 193.529 259.94C195.085 281.905 193.692 291.621 193.692 291.621L235.646 291.47L234.035 306.242C234.035 306.242 188.16 311.622 182.917 309.583C177.674 307.544 165.84 275.035 165.84 275.035C165.84 275.035 154.322 249.402 177.773 242.779Z" fill="#5954FF"/>
<path opacity="0.1" d="M178.291 210.389C179.051 207.161 175.561 207.059 174.469 203.933L197.253 212.003C195.556 214.052 194.026 216.231 192.677 218.517C191.463 218.815 190.223 218.995 188.974 219.055C183.436 219.324 181.956 213.929 178.291 210.389Z" fill="black"/>
<path d="M190.273 217.171C200.806 216.673 208.934 207.858 208.428 197.483C207.922 187.109 198.974 179.102 188.441 179.6C177.909 180.099 169.781 188.913 170.287 199.288C170.793 209.663 179.741 217.669 190.273 217.171Z" fill="#F8B9BF"/>
<path opacity="0.1" d="M179.493 256.729C179.493 256.729 185.533 284.912 192.666 287.79C199.798 290.669 196.565 291.282 196.565 291.282" fill="black"/>
<path opacity="0.1" d="M204.386 272.647C204.386 272.647 199.34 274.201 193.463 266.772L204.386 272.647Z" fill="black"/>
<path d="M166.386 180.801C171.212 180.801 175.124 176.947 175.124 172.194C175.124 167.44 171.212 163.586 166.386 163.586C161.56 163.586 157.648 167.44 157.648 172.194C157.648 176.947 161.56 180.801 166.386 180.801Z" fill="#FA595F"/>
<path d="M160.247 176.74C158.728 175.144 157.883 173.039 157.883 170.852C157.883 168.664 158.728 166.559 160.247 164.964C160.105 165.077 159.963 165.19 159.832 165.313C158.143 166.877 157.154 169.038 157.083 171.32C157.011 173.602 157.862 175.818 159.45 177.482C161.037 179.146 163.231 180.12 165.547 180.19C167.864 180.261 170.115 179.422 171.803 177.858C171.94 177.735 172.06 177.6 172.18 177.471C170.469 178.866 168.283 179.566 166.067 179.43C163.85 179.294 161.769 178.332 160.247 176.74Z" fill="#FA595F"/>
<path d="M165.239 179.989C163.021 180.12 160.836 179.415 159.128 178.016C157.419 176.617 156.316 174.629 156.042 172.458C156.042 172.635 156.042 172.813 156.042 172.995C156.187 175.274 157.245 177.403 158.983 178.913C159.844 179.661 160.845 180.234 161.931 180.601C163.016 180.967 164.165 181.119 165.31 181.049C166.455 180.978 167.575 180.686 168.606 180.189C169.637 179.692 170.558 179 171.317 178.152C172.076 177.304 172.659 176.318 173.031 175.248C173.403 174.179 173.557 173.048 173.486 171.92C173.486 171.737 173.447 171.564 173.426 171.382C173.43 173.573 172.586 175.684 171.064 177.284C169.543 178.883 167.46 179.851 165.239 179.989Z" fill="#FA595F"/>
<path opacity="0.1" d="M196.396 179.677C198.433 180.667 200.765 180.941 202.949 181.565C205.134 182.189 207.362 183.33 208.323 185.363C209.028 186.859 208.946 188.628 209.683 190.108C210.743 192.26 213.189 193.249 215.439 194.094C213.506 196.649 209.355 195.955 206.647 194.218C203.938 192.48 201.606 189.914 198.455 189.242C196.9 188.94 195.288 189.118 193.841 189.753C192.393 190.387 191.179 191.447 190.366 192.787C189.504 194.277 189.198 196.015 188.772 197.672C187.679 202.04 185.495 206.386 181.672 208.866C177.849 211.346 172.153 211.33 169.155 207.936C167.407 205.956 166.823 203.261 166.304 200.689C166.008 199.49 165.867 198.26 165.883 197.026C166.058 193.938 168.144 191.307 170.252 189.016C172.737 186.326 175.381 183.744 178.024 181.178C180.307 178.961 182.939 175.206 186.38 174.943C190.345 174.631 193.146 178.111 196.396 179.677Z" fill="black"/>
<path d="M195.85 179.139C197.887 180.129 200.219 180.403 202.403 181.027C204.588 181.651 206.816 182.792 207.777 184.825C208.482 186.321 208.4 188.091 209.137 189.57C210.197 191.722 212.643 192.712 214.893 193.556C212.96 196.112 208.809 195.418 206.101 193.68C203.392 191.942 201.06 189.376 197.909 188.704C196.354 188.402 194.742 188.58 193.295 189.215C191.847 189.849 190.634 190.909 189.82 192.249C188.958 193.739 188.652 195.477 188.226 197.134C187.134 201.502 184.949 205.849 181.126 208.329C177.303 210.809 171.607 210.792 168.609 207.398C166.861 205.418 166.277 202.723 165.758 200.152C165.463 198.953 165.321 197.722 165.337 196.488C165.512 193.4 167.598 190.77 169.706 188.478C172.191 185.788 174.835 183.206 177.478 180.64C179.761 178.423 182.393 174.669 185.834 174.405C189.799 174.093 192.6 177.574 195.85 179.139Z" fill="#FA595F"/>
<path d="M197.958 298.614H144.967C142.403 298.614 140.324 300.661 140.324 303.187V303.52C140.324 306.046 142.403 308.093 144.967 308.093H197.958C200.521 308.093 202.6 306.046 202.6 303.52V303.187C202.6 300.661 200.521 298.614 197.958 298.614Z" fill="#D6D6E3"/>
<path opacity="0.1" d="M140.324 303.456V304.204C140.324 305.238 140.742 306.23 141.484 306.961C142.227 307.693 143.234 308.104 144.284 308.104H198.64C199.69 308.104 200.698 307.693 201.44 306.961C202.183 306.23 202.6 305.238 202.6 304.204V303.456H140.324Z" fill="black"/>
<path d="M260.703 308.497H249.993V442.895H260.703V308.497Z" fill="#D6D6E3"/>
<path opacity="0.1" d="M260.703 308.497H249.993V317.212H260.703V308.497Z" fill="black"/>
<path d="M527.996 298.862H244.87V316.291H527.996V298.862Z" fill="#D6D6E3"/>
<path d="M492.898 59.05C483.398 -10.95 277.65 -0.89229 253.898 2.54997C219.398 7.54992 195.355 13.1328 192.898 22.55C189.898 34.05 190.898 59.05 253.898 99.55C304.298 131.95 382.898 134.717 415.898 132.05C432.898 130.676 492.898 105.55 492.898 59.05Z" fill="#D3EEFD"/>
<path d="M377 59H263V168H377V59Z" fill="#DFDEE8"/>
<path d="M359 83H275V94H359V83Z" fill="#5954FF"/>
<path d="M345 112H289V117H345V112Z" fill="#5954FF"/>
<path d="M345 121H289V127H345V121Z" fill="#5954FF"/>
<path d="M317 131H289V136H317V131Z" fill="#5954FF"/>
<path d="M361 158H348V163H361V158Z" fill="#5954FF"/>
<path d="M376 39H345V40H376V39Z" fill="#3F3D56"/>
<path d="M320 39H221V40H320V39Z" fill="#3F3D56"/>
<path d="M221 50C227.627 50 233 45.0751 233 39C233 32.9249 227.627 28 221 28C214.373 28 209 32.9249 209 39C209 45.0751 214.373 50 221 50Z" fill="#D0CDE1"/>
<path d="M277 50C283.627 50 289 45.0751 289 39C289 32.9249 283.627 28 277 28C270.373 28 265 32.9249 265 39C265 45.0751 270.373 50 277 50Z" fill="#3F3D56"/>
<path d="M332.5 51C330.028 51 327.611 50.3255 325.555 49.0619C323.5 47.7983 321.898 46.0022 320.952 43.9009C320.005 41.7995 319.758 39.4872 320.24 37.2565C320.723 35.0257 321.913 32.9766 323.661 31.3683C325.409 29.76 327.637 28.6647 330.061 28.221C332.486 27.7772 334.999 28.005 337.284 28.8754C339.568 29.7458 341.52 31.2198 342.893 33.1109C344.267 35.0021 345 37.2255 345 39.5C344.996 42.5489 343.678 45.472 341.335 47.6279C338.991 49.7838 335.814 50.9966 332.5 51ZM332.5 28.5476C330.145 28.5476 327.844 29.19 325.886 30.3934C323.928 31.5969 322.402 33.3074 321.501 35.3087C320.6 37.31 320.365 39.5122 320.824 41.6367C321.283 43.7613 322.417 45.7128 324.082 47.2445C325.747 48.7762 327.868 49.8193 330.177 50.2419C332.487 50.6645 334.88 50.4476 337.056 49.6187C339.231 48.7897 341.09 47.3859 342.398 45.5848C343.707 43.7837 344.405 41.6662 344.405 39.5C344.401 36.5963 343.146 33.8124 340.914 31.7591C338.682 29.7059 335.656 28.5509 332.5 28.5476Z" fill="#3F3D56"/>
<path d="M388.5 51C386.028 51 383.611 50.3255 381.555 49.0619C379.5 47.7983 377.898 46.0022 376.952 43.9009C376.005 41.7995 375.758 39.4872 376.24 37.2565C376.723 35.0257 377.913 32.9766 379.661 31.3683C381.409 29.76 383.637 28.6647 386.061 28.221C388.486 27.7772 390.999 28.005 393.284 28.8754C395.568 29.7458 397.52 31.2198 398.893 33.1109C400.267 35.0021 401 37.2255 401 39.5C400.996 42.5489 399.678 45.472 397.335 47.6279C394.991 49.7838 391.814 50.9966 388.5 51ZM388.5 28.5476C386.145 28.5476 383.844 29.19 381.886 30.3934C379.928 31.5969 378.402 33.3074 377.501 35.3087C376.6 37.31 376.365 39.5122 376.824 41.6367C377.283 43.7613 378.417 45.7128 380.082 47.2445C381.747 48.7762 383.868 49.8193 386.177 50.2419C388.487 50.6645 390.88 50.4476 393.056 49.6187C395.231 48.7897 397.09 47.3859 398.398 45.5848C399.707 43.7837 400.405 41.6662 400.405 39.5C400.401 36.5963 399.146 33.8124 396.914 31.7591C394.682 29.7059 391.656 28.5509 388.5 28.5476Z" fill="#3F3D56"/>
<path d="M219.295 44L214 37.7677L215.907 36.5046L219.553 40.7956L236.314 26L238 27.488L219.295 44Z" fill="#3F3D56"/>
<defs>
<linearGradient id="paint0_linear" x1="605.741" y1="212.759" x2="451.087" y2="583.989" gradientUnits="userSpaceOnUse">
<stop stop-color="#B4C5EE"/>
<stop offset="1" stop-color="white" stop-opacity="0"/>
</linearGradient>
<linearGradient id="paint1_linear" x1="534.913" y1="438.336" x2="559.471" y2="161.323" gradientUnits="userSpaceOnUse">
<stop stop-color="#808080" stop-opacity="0.25"/>
<stop offset="0.54" stop-color="#808080" stop-opacity="0.12"/>
<stop offset="1" stop-color="#808080" stop-opacity="0.1"/>
</linearGradient>
<linearGradient id="paint2_linear" x1="44003.1" y1="195093" x2="44003.1" y2="54371.2" gradientUnits="userSpaceOnUse">
<stop stop-color="#808080" stop-opacity="0.25"/>
<stop offset="0.54" stop-color="#808080" stop-opacity="0.12"/>
<stop offset="1" stop-color="#808080" stop-opacity="0.1"/>
</linearGradient>
</defs>
</svg>
