<svg width="278" height="326" viewBox="0 0 278 326" fill="none" xmlns="http://www.w3.org/2000/svg">
<path fill-rule="evenodd" clip-rule="evenodd" d="M97.3952 49.8265C103.523 53.6254 109.543 55.4608 112.369 54.7115C119.455 52.8326 120.106 26.1668 114.623 15.6542C109.141 5.14173 80.9534 0.559731 79.5332 21.3884C79.0402 28.6173 81.9904 35.0687 86.3504 40.3329L78.5331 77.8138H101.241L97.3952 49.8265Z" fill="#915B3C"/>
<path fill-rule="evenodd" clip-rule="evenodd" d="M84.6057 45.0216C81.7558 31.9787 73.6366 23.0877 74.8761 17.258C76.1165 11.4284 81.4861 10.0075 81.4861 10.0075C81.4861 10.0075 84.2641 -1.55013 99.402 0.175686C114.54 1.9015 123.779 8.36817 119.788 22.5976C116.121 22.5976 111.693 21.2332 105.571 23.5709C102.657 24.6834 101.402 30.4715 101.402 30.4715H98.6356C98.6356 30.4715 94.6077 23.6027 90.6924 25.4233C86.7771 27.2439 88.9127 34.2679 88.9127 34.2679L87.5492 45.0216H84.6057Z" fill="#191847"/>
<path fill-rule="evenodd" clip-rule="evenodd" d="M15.1389 199.474C6.77751 199.474 1.52588e-05 206.445 1.52588e-05 215.046V304.588C1.52588e-05 313.189 6.77751 320.16 15.1389 320.16H123.95C132.311 320.16 139.089 313.189 139.089 304.588V215.046C139.089 206.445 132.311 199.474 123.95 199.474H15.1389ZM30.2778 226.726C28.1877 226.726 26.4931 228.469 26.4931 230.619V289.015C26.4931 291.165 28.1877 292.909 30.2778 292.909H108.811C110.901 292.909 112.596 291.165 112.596 289.015V230.619C112.596 228.469 110.901 226.726 108.811 226.726H30.2778Z" fill="#C5CFD6"/>
<path fill-rule="evenodd" clip-rule="evenodd" d="M232.911 315.294C214.256 291.861 201.634 274.489 195.044 263.179C183.761 243.811 174.526 226.578 171.612 219.994C164.662 204.296 187.611 196.946 192.804 204.268C200.665 215.35 217.453 250.223 243.169 308.887L232.911 315.294Z" fill="#B28B67"/>
<path fill-rule="evenodd" clip-rule="evenodd" d="M194.684 308.481L159.966 218.586C152.541 202.199 188.4 191.427 193.857 199.053C206.246 216.367 235.693 284.669 239.384 289.827L194.684 308.481Z" fill="#2F3676"/>
<path fill-rule="evenodd" clip-rule="evenodd" d="M102.219 290.453C108.982 280.306 133.581 246.166 146.979 232.041C150.829 227.982 154.586 224.086 158.139 220.455C168.7 209.664 189.732 227.802 179.19 237.631C152.936 262.109 114.631 295.154 111.431 298.1C106.945 302.23 97.9685 296.83 102.219 290.453Z" fill="#915B3C"/>
<path fill-rule="evenodd" clip-rule="evenodd" d="M106.601 286.276C105.945 285.357 104.676 285.139 103.828 285.873C102.281 287.211 100.057 289.272 99.2535 290.703C97.9743 292.982 96.2579 297.795 96.2579 297.795C98.8287 299.322 142.474 325.243 142.474 325.243C142.474 325.243 147.714 320.187 144.107 317.393C140.499 314.599 138.154 312.681 138.154 312.681L122.201 290.073C121.888 289.63 121.281 289.539 120.859 289.874L117.544 292.499C117.544 292.499 112.983 292.09 110.736 290.756C109.368 289.943 107.698 287.816 106.601 286.276Z" fill="#E4E4E4"/>
<path fill-rule="evenodd" clip-rule="evenodd" d="M227.509 310.704C226.495 310.246 225.29 310.71 224.912 311.781C224.223 313.735 223.299 316.665 223.299 318.317C223.299 320.95 224.152 326 224.152 326C227.121 326 277.518 326 277.518 326C277.518 326 279.598 318.926 275.116 318.362C270.634 317.798 267.67 317.344 267.67 317.344L242.866 305.969C242.379 305.745 241.809 305.98 241.606 306.487L240.011 310.465C240.011 310.465 235.862 312.457 233.268 312.457C231.689 312.457 229.208 311.473 227.509 310.704Z" fill="#E4E4E4"/>
<path fill-rule="evenodd" clip-rule="evenodd" d="M147.474 223.076C147.474 223.076 104.191 215.823 89.4898 213.156C61.5557 208.089 53.41 192.627 58.2261 158.89H109.695C119.911 161.925 195.072 196.429 195.072 196.429C204.087 201.033 202.408 214.606 200.76 219.077C200.659 219.351 155.166 299.442 155.166 299.442L113.063 271.853L147.553 226.326C147.553 226.326 148.919 223.496 147.474 223.076Z" fill="#5C63AB"/>
<path fill-rule="evenodd" clip-rule="evenodd" d="M181.364 168.947L151.182 146.149L144.51 163.114L174.398 175.863C182.851 186.076 187.577 190.335 188.578 188.636C189.421 187.205 188.762 185.864 188.154 184.629C187.681 183.668 187.24 182.77 187.565 181.944C188.307 180.056 193.985 180.255 199.366 180.681C204.746 181.106 203.178 178.644 201.881 177.427C196.388 174.046 189.549 171.219 181.364 168.947ZM23.0849 209.117C25.8573 203.331 35.3001 146.936 35.3001 146.936L55.0725 147.016C55.0725 147.016 36.7601 207.827 35.3001 211.548C33.404 216.382 36.6248 223.404 38.8086 228.166C39.1464 228.903 39.4595 229.585 39.7254 230.197C36.6948 231.592 35.2396 229.906 33.7049 228.129C31.9715 226.121 30.1368 223.996 25.8194 226.063C24.1513 226.862 22.573 227.805 21.0308 228.728C15.7038 231.912 10.8101 234.839 4.15279 230.613C3.09779 229.943 1.94061 227.421 4.73564 225.451C11.6967 220.539 21.7291 211.946 23.0849 209.117Z" fill="#915B3C"/>
<path fill-rule="evenodd" clip-rule="evenodd" d="M91.4911 61.5913L99.6727 60.1477C130.029 87.1222 142.498 138.944 179.707 166.397L170.752 177.816C106.2 169.594 90.1996 106.384 91.4911 61.5913Z" fill="#E87613"/>
<path fill-rule="evenodd" clip-rule="evenodd" d="M55.8247 167.355C55.8247 167.355 105.034 167.355 128.218 167.355C131.527 167.355 130.903 162.442 130.424 159.962C124.906 131.348 103.362 100.503 103.362 59.7699L82.4805 56.4016C65.208 84.9752 59.2357 120.156 55.8247 167.355Z" fill="#DDE3E9"/>
<path fill-rule="evenodd" clip-rule="evenodd" d="M47.6848 187.794C44.4308 195.833 41.2403 202.846 38.2343 208.233H22.7084C21.0384 152.677 41.4854 109.929 58.598 84.1528C54.7991 83.8734 51.3692 82.2383 49.2015 78.2138C41.5686 64.0478 44.3258 56.2483 52.4819 53.6845C56.9668 52.2748 61.1858 53.237 66.2346 54.3889C70.3666 55.3315 75.0559 56.4011 80.9024 56.4017C80.9042 56.4017 80.9061 56.4017 80.908 56.4017C81.4748 56.4017 81.9905 56.4408 82.4579 56.5154L89.3877 56.9222C89.3877 56.9222 117.521 155 104.905 187.794H47.6848Z" fill="#FF9B21"/>
<path fill-rule="evenodd" clip-rule="evenodd" d="M47.6848 187.794C51.9539 177.248 56.331 164.938 60.5434 152.225C62.1121 166.226 64.7236 180.286 69.0713 187.794H47.6848Z" fill="black" fill-opacity="0.1"/>
</svg>
