<svg width="1063" height="561" viewBox="0 0 1063 561" fill="none" xmlns="http://www.w3.org/2000/svg">
<path d="M530.094 494.897C530.094 494.897 526.656 479.878 502.592 484.884C478.529 489.891 475.091 494.897 475.091 494.897H530.094Z" fill="#3F3D56"/>
<path d="M648.695 475.229C648.695 475.229 645.257 460.21 621.193 465.216C597.129 470.223 593.692 475.229 593.692 475.229H648.695Z" fill="#3F3D56"/>
<path d="M447.589 494.897C447.589 494.897 466.84 482.739 475.091 494.897H447.589Z" fill="#3F3D56"/>
<path d="M537.313 460.568C537.313 460.568 556.564 448.409 564.815 460.568H537.313Z" fill="#3F3D56"/>
<path d="M645.309 449.397C639.577 460.454 627.413 465.2 627.413 465.2C627.413 465.2 624.541 452.02 630.273 440.963C636.004 429.907 648.168 425.16 648.168 425.16C648.168 425.16 651.04 438.34 645.309 449.397Z" fill="#3F3D56"/>
<path d="M641.369 445.759C631.022 452.235 627.036 465.098 627.036 465.098C627.036 465.098 639.828 467.461 650.176 460.986C660.523 454.51 664.508 441.647 664.508 441.647C664.508 441.647 651.717 439.284 641.369 445.759Z" fill="#6C63FF"/>
<path d="M73.2231 485.957C73.2231 485.957 69.7855 470.938 45.7216 475.944C21.6577 480.951 18.22 485.957 18.22 485.957H73.2231Z" fill="#3F3D56"/>
<path d="M128.226 494.897C144.946 492.174 161.021 489.858 176.452 487.949L170.51 475.587C172.573 474.872 181.511 482.023 181.511 482.023L173.948 446.264C184.261 447.694 189.074 484.169 189.074 484.169L200.762 472.011L195.008 485.776C242.23 480.615 282.977 479.004 317.23 479.374L312.144 468.792C314.206 468.077 323.144 475.229 323.144 475.229L315.581 439.47C325.894 440.9 330.707 477.375 330.707 477.375L342.395 465.216L336.301 479.796C359.764 480.505 383.177 482.467 406.446 485.672C401.371 469.226 383.648 453.416 383.648 453.416C397.275 457.826 404.365 465.011 408.034 471.671C408.777 437.882 403.78 404.223 393.273 372.242C393.273 372.242 420.775 436.609 416.65 479.52L416.126 487.143C440.052 491.025 452.058 494.897 452.058 494.897H128.226Z" fill="#3F3D56"/>
<path d="M307.675 527.438C307.675 527.438 181.167 508.128 102.787 527.438H307.675Z" fill="#3F3D56"/>
<path d="M493.998 553.9C493.998 553.9 367.491 534.59 289.111 553.9H493.998Z" fill="#3F3D56"/>
<path d="M259.547 561C259.547 561 184.619 541.233 138.196 561H259.547Z" fill="#3F3D56"/>
<path d="M50.2671 481.636L51.4891 480.98C35.6193 449.065 44.1054 407.619 54.0183 378.47C60.7495 358.878 69.335 340.03 79.6483 322.203L78.4861 321.439C68.1192 339.356 59.489 358.3 52.7225 377.993C42.7182 407.408 34.1723 449.268 50.2671 481.636Z" fill="#3F3D56"/>
<path d="M38.4973 321.695L47.4177 372.477L46.0655 372.734L37.145 321.952L38.4973 321.695Z" fill="#3F3D56"/>
<path d="M97.8148 364.96L98.8218 365.935L52.7567 417.429L51.7497 416.454L97.8148 364.96Z" fill="#3F3D56"/>
<path d="M15.0012 421.524L38.3667 455.146L37.2521 455.985L13.8866 422.362L15.0012 421.524Z" fill="#3F3D56"/>
<path d="M34.377 308.232C30.5799 308.232 27.5016 305.03 27.5016 301.08C27.5016 297.13 30.5799 293.928 34.377 293.928C38.1742 293.928 41.2524 297.13 41.2524 301.08C41.2524 305.03 38.1742 308.232 34.377 308.232Z" fill="#6C63FF"/>
<path d="M109.319 363.302C105.522 363.302 102.444 360.1 102.444 356.15C102.444 352.2 105.522 348.998 109.319 348.998C113.116 348.998 116.194 352.2 116.194 356.15C116.194 360.1 113.116 363.302 109.319 363.302Z" fill="#3F3D56"/>
<path d="M79.0672 370.454C75.2701 370.454 72.1918 367.252 72.1918 363.302C72.1918 359.352 75.2701 356.15 79.0672 356.15C82.8644 356.15 85.9426 359.352 85.9426 363.302C85.9426 367.252 82.8644 370.454 79.0672 370.454Z" fill="#3F3D56"/>
<path d="M92.818 398.346C89.0208 398.346 85.9426 395.144 85.9426 391.194C85.9426 387.244 89.0208 384.042 92.818 384.042C96.6151 384.042 99.6934 387.244 99.6934 391.194C99.6934 395.144 96.6151 398.346 92.818 398.346Z" fill="#6C63FF"/>
<path d="M6.87534 416.226C3.07816 416.226 -6.10352e-05 413.024 -6.10352e-05 409.074C-6.10352e-05 405.124 3.07816 401.922 6.87534 401.922C10.6725 401.922 13.7507 405.124 13.7507 409.074C13.7507 413.024 10.6725 416.226 6.87534 416.226Z" fill="#3F3D56"/>
<path d="M29.5643 424.093C25.7671 424.093 22.6889 420.891 22.6889 416.941C22.6889 412.991 25.7671 409.789 29.5643 409.789C33.3615 409.789 36.4397 412.991 36.4397 416.941C36.4397 420.891 33.3615 424.093 29.5643 424.093Z" fill="#3F3D56"/>
<path d="M13.7508 446.979C9.95365 446.979 6.87543 443.777 6.87543 439.827C6.87543 435.877 9.95365 432.675 13.7508 432.675C17.548 432.675 20.6262 435.877 20.6262 439.827C20.6262 443.777 17.548 446.979 13.7508 446.979Z" fill="#3F3D56"/>
<path d="M85.9427 316.814C82.1455 316.814 79.0673 313.612 79.0673 309.662C79.0673 305.713 82.1455 302.511 85.9427 302.511C89.7399 302.511 92.8181 305.713 92.8181 309.662C92.8181 313.612 89.7399 316.814 85.9427 316.814Z" fill="#3F3D56"/>
<path d="M488.306 271.752C488.306 360.157 538.829 391.024 601.153 391.024C663.477 391.024 714 360.157 714 271.752C714 183.347 601.153 70.8826 601.153 70.8826C601.153 70.8826 488.306 183.347 488.306 271.752Z" fill="#3D4E8C"/>
<path d="M605.263 377.501L604.108 303.515L556.01 211.982L603.927 291.908L603.408 258.641L570.258 192.418L603.27 249.837L602.335 190.004L566.839 137.282L602.189 180.596L601.605 70.8825L605.274 216.122L604.972 210.131L641.062 152.667L605.551 221.633L608.913 288.456L609.014 286.682L650.619 226.21L609.14 292.948L609.56 301.305L609.635 301.431L609.601 302.117L618.133 471.652H606.734L605.366 384.084L563.989 317.51L605.263 377.501Z" fill="#B7B5D2"/>
<path d="M116.082 245.397C116.082 353.399 177.805 391.11 253.945 391.11C330.084 391.11 391.807 353.399 391.807 245.397C391.807 137.395 253.945 0 253.945 0C253.945 0 116.082 137.396 116.082 245.397Z" fill="#3D4E8C"/>
<path d="M258.967 374.589L257.555 284.201L198.795 172.378L257.334 270.022L256.699 229.38L216.201 148.477L256.531 218.624L255.39 145.528L212.024 81.1191L255.21 134.033L254.496 0L258.979 177.436L258.611 170.116L302.701 99.915L259.317 184.167L263.426 265.803L263.548 263.637L314.376 189.761L263.702 271.292L264.216 281.501L264.308 281.655L264.266 282.493L274.689 489.612H260.763L259.092 382.631L208.543 301.299L258.967 374.589Z" fill="#B7B5D2"/>
<path d="M365.302 400.948L359.02 421.175C359.02 421.175 364.703 440.157 362.011 461.317C359.319 482.477 360.814 483.1 360.814 483.1C360.814 483.1 387.715 481.489 385.023 489.891C382.331 498.292 356.028 493.369 356.028 493.369C356.028 493.369 350.977 491.954 348.583 477.017C346.19 462.08 340.173 433.311 340.173 433.311L345.831 406.151L365.302 400.948Z" fill="#FFB8B8"/>
<path d="M363.208 359.561C363.208 359.561 374.575 363.917 374.575 375.742C374.575 387.567 370.387 403.749 367.695 404.682C365.003 405.616 347.054 418.374 343.763 409.35C340.472 400.326 363.208 359.561 363.208 359.561Z" fill="#6C63FF"/>
<path d="M268.078 499.592L244.146 498.659L225.897 495.858L231.282 514.529L275.557 515.773L268.078 499.592Z" fill="#FFB8B8"/>
<path d="M233.676 502.082C233.676 502.082 233.975 495.236 236.667 495.547C239.359 495.858 237.565 493.057 235.171 492.435C232.778 491.813 225.898 488.701 225.898 488.701L198.675 490.568C198.675 490.568 181.025 506.749 188.205 515.462C195.384 524.175 213.932 516.396 213.932 516.396L233.975 516.707C233.975 516.707 240.556 505.505 233.676 502.082Z" fill="#2F2E41"/>
<path d="M222.906 478.121L214.231 520.441L196.282 516.707L206.453 463.806L217.223 457.894L222.906 478.121Z" fill="#FFB8B8"/>
<path d="M326.113 472.831C326.113 472.831 376.37 496.48 355.131 520.441C355.131 520.441 355.131 531.644 332.694 529.465C310.258 527.287 266.881 523.242 264.787 524.487C262.693 525.731 256.112 499.903 261.796 498.659C267.48 497.414 274.36 495.858 274.36 495.858C274.36 495.858 268.377 494.924 268.377 489.634C268.377 489.634 251.326 488.39 246.24 477.187C241.155 465.985 236.368 457.583 236.368 457.583L224.701 488.701C224.701 488.701 211.24 462.873 201.068 474.387C201.068 474.387 212.436 400.014 221.111 393.168C229.787 386.323 235.77 384.144 243.847 390.368C251.924 396.591 259.403 412.462 259.403 412.462L326.113 472.831Z" fill="#2F2E41"/>
<path d="M206.154 507.683C208.245 509.324 210.243 511.09 212.137 512.973C214.53 515.462 217.821 514.218 218.12 512.973C218.419 511.728 223.804 513.906 224.402 522.931C225 531.955 228.59 540.046 219.017 542.846C209.444 545.647 209.744 553.738 209.744 553.738C202.169 557.517 193.476 558.076 185.513 555.294C172.051 550.626 176.837 545.647 176.837 545.647L194.786 514.84C194.786 514.84 199.573 505.505 206.154 507.683Z" fill="#2F2E41"/>
<path d="M255.813 353.337C255.813 353.337 227.094 363.606 224.103 365.785C221.111 367.963 207.65 378.232 214.231 383.522C220.812 388.812 226.197 392.235 239.06 388.19C251.924 384.144 266.283 371.697 266.283 371.697L255.813 353.337Z" fill="#FFB8B8"/>
<path d="M284.531 339.645C284.531 339.645 273.164 337.467 265.086 342.135C257.009 346.803 250.129 356.138 250.129 356.138C250.129 356.138 257.608 372.631 262.992 375.12C268.377 377.609 278.249 365.162 278.249 365.162L284.531 339.645Z" fill="#6C63FF"/>
<path d="M336.882 330.621C336.882 330.621 336.583 342.757 337.78 344.002C338.977 345.247 323.421 381.966 306.369 365.785C289.318 349.603 302.48 343.068 302.48 343.068C302.48 343.068 308.762 330.932 308.463 329.688C308.164 328.443 336.284 329.688 336.284 329.688L336.882 330.621Z" fill="#FFB8B8"/>
<path opacity="0.1" d="M336.882 330.621C336.882 330.621 336.583 342.757 337.78 344.002C338.977 345.247 323.421 381.966 306.369 365.785C289.318 349.603 302.48 343.068 302.48 343.068C302.48 343.068 308.762 330.932 308.463 329.688C308.164 328.443 336.284 329.688 336.284 329.688L336.882 330.621Z" fill="black"/>
<path d="M332.096 353.96C332.096 353.96 320.728 362.05 315.942 360.183C311.156 358.316 305.173 350.225 304.574 349.603C303.976 348.981 273.463 412.773 273.463 412.773C273.463 412.773 277.95 436.111 289.916 442.957C301.882 449.803 301.732 455.249 303.228 459.917C304.724 464.584 324.019 445.135 324.019 445.135L336.284 390.99V358.005L332.096 353.96Z" fill="#6C63FF"/>
<path d="M337.032 339.49C337.032 339.49 340.771 338.712 344.66 342.135C348.549 345.558 366.797 358.316 365.9 359.561C365.002 360.806 356.925 378.543 355.13 385.7C353.336 392.857 350.643 393.791 350.643 393.791C350.643 393.791 344.361 398.459 345.259 401.882C346.156 405.304 350.045 451.982 344.66 462.251C339.276 472.519 340.173 481.544 341.669 484.033C343.165 486.523 327.31 476.876 327.31 476.876C327.31 476.876 303.677 456.96 301.882 451.048C300.721 446.984 299.92 442.817 299.489 438.601C299.489 438.601 314.745 375.742 319.532 372.319C324.318 368.896 337.032 339.49 337.032 339.49Z" fill="#575A89"/>
<path d="M304.168 339.736C304.168 339.736 296.796 334.978 295.301 336.222C293.805 337.467 279.745 337.467 279.446 338.712C279.147 339.957 278.548 369.83 268.377 377.609C258.206 385.389 264.787 400.948 264.787 400.948L257.309 413.395C257.309 413.395 297.992 454.156 295.301 440.157C295.151 439.379 295.301 439.223 295.301 439.223C295.301 439.223 311.156 368.585 309.062 364.851C306.967 361.117 303.163 344.183 304.168 339.736Z" fill="#575A89"/>
<path d="M241.454 368.274L282.138 382.9C282.138 382.9 322.523 392.857 316.241 404.371C309.959 415.885 283.335 396.28 283.335 396.28L229.157 389.966C229.157 389.966 207.65 371.075 241.454 368.274Z" fill="#FFB8B8"/>
<path d="M320.728 342.135C308.502 342.135 298.591 331.825 298.591 319.107C298.591 306.39 308.502 296.08 320.728 296.08C332.954 296.08 342.865 306.39 342.865 319.107C342.865 331.825 332.954 342.135 320.728 342.135Z" fill="#FFB8B8"/>
<path d="M338.358 296.222L342.453 294.673C342.453 294.673 333.89 285.767 321.978 286.542L325.328 283.056C325.328 283.056 317.139 279.959 309.693 288.09C305.78 292.365 301.251 297.39 298.428 303.05H294.043L295.873 306.858L289.467 310.666L296.042 309.982C295.419 313.269 295.634 316.669 296.664 319.844L298.153 324.103C298.153 324.103 304.109 311.712 304.109 310.163V314.035C304.109 314.035 308.204 310.55 308.204 308.227L310.438 310.937L311.555 306.678L325.328 310.937L323.095 307.452L331.657 308.614L328.306 304.354C328.306 304.354 337.985 309.388 338.358 313.648C338.73 317.907 343.569 323.329 343.569 323.329L345.803 319.456C345.803 319.456 349.153 302.031 338.358 296.222Z" fill="#2F2E41"/>
<path d="M785.771 489.642L594.125 488.681L575.082 442.814L642.417 437.794L630.681 387.504L763.862 369.777L636.331 324.248L647.596 321.5L852.664 355.856L841.371 434.338L825.228 477.469L785.771 489.642Z" fill="#56538D"/>
<path d="M895.369 454.073C895.369 454.073 882.639 469.807 892.746 493.593L791.109 538.23L781.355 540.3L776.863 520.398L779.867 495.281V481.555L895.369 454.073Z" fill="#D5D6DB"/>
<path d="M575.082 443.373L715.592 417.427L901.775 447.469L786.133 489.642L575.082 443.373Z" fill="#56538D"/>
<path d="M575.082 443.373L715.592 417.427L901.775 447.469L786.133 489.642L575.082 443.373Z" fill="#56538D"/>
<path d="M575.043 443.295C575.043 443.295 561.878 468.964 577.049 492.672L785.803 539.222C785.803 539.222 772.845 518.775 786.471 490.394L575.043 443.295Z" fill="#56538D"/>
<path opacity="0.1" d="M575.043 443.295C575.043 443.295 561.878 468.964 577.049 492.672L785.803 539.222C785.803 539.222 772.845 518.775 786.471 490.394L575.043 443.295Z" fill="black"/>
<path opacity="0.1" d="M581.488 451.917C581.488 451.917 574.281 470.894 581.488 483.175V451.917Z" fill="black"/>
<path d="M785.173 538.622L901.269 487.486C901.269 487.486 907.763 488.93 903.564 493.842C899.366 498.753 787.412 543.533 787.412 543.533L577.217 492.108L785.173 538.622Z" fill="#56538D"/>
<path opacity="0.1" d="M785.173 538.622L901.269 487.486C901.269 487.486 907.763 488.93 903.564 493.842C899.366 498.753 787.412 543.533 787.412 543.533L577.217 492.108L785.173 538.622Z" fill="black"/>
<path opacity="0.1" d="M775.795 495.031C775.795 495.031 763.784 508.827 775.795 529.521V495.031Z" fill="black"/>
<path opacity="0.1" d="M830.219 495.051L779.919 512.265L780.096 512.81L830.396 495.596L830.219 495.051Z" fill="black"/>
<path opacity="0.1" d="M840.294 493.338L779.903 516.894L780.102 517.432L840.493 493.875L840.294 493.338Z" fill="black"/>
<path opacity="0.1" d="M849.546 493.255L780.24 522.355L780.452 522.887L849.759 493.787L849.546 493.255Z" fill="black"/>
<path opacity="0.1" d="M859.608 490.763L781.049 527.165L781.28 527.69L859.839 491.287L859.608 490.763Z" fill="black"/>
<path opacity="0.1" d="M868.061 490.775L781.671 529.509L781.895 530.037L868.285 491.302L868.061 490.775Z" fill="black"/>
<path opacity="0.1" d="M886.55 487.554L782.973 533.443L783.196 533.971L886.772 488.082L886.55 487.554Z" fill="black"/>
<path opacity="0.3" d="M627.396 446.4L726.249 424.972L786.471 436.844L705.467 463.774L627.396 446.4Z" fill="white"/>
<path d="M901.932 447.606C901.932 447.606 907.027 449.684 904.037 452.895C901.047 456.106 786.471 489.642 786.471 489.642L901.932 447.606Z" fill="#56538D"/>
<path d="M950.885 398.026C950.885 398.026 938.275 413.949 948.292 438.034L847.565 483.223L837.899 485.33L833.447 465.182L836.469 439.761V425.847L950.885 398.026Z" fill="#D5D6DB"/>
<path d="M630.598 387.708L771.103 361.38L957.291 391.871L841.65 434.672L630.598 387.708Z" fill="#3A3768"/>
<path d="M630.563 388.325C630.563 388.325 617.393 413.706 632.563 437.148L841.297 483.175C841.297 483.175 828.346 462.94 841.988 434.889L630.563 388.325Z" fill="#3A3768"/>
<path opacity="0.1" d="M630.563 388.325C630.563 388.325 617.393 413.706 632.563 437.148L841.297 483.175C841.297 483.175 828.346 462.94 841.988 434.889L775.98 420.35L630.563 388.325Z" fill="black"/>
<path opacity="0.1" d="M637.004 396.948C637.004 396.948 629.798 415.264 637.004 427.127V396.948Z" fill="black"/>
<path d="M841.366 483.652L957.846 432.517C957.846 432.517 964.355 433.961 960.143 438.872C955.931 443.784 843.612 488.564 843.612 488.564L632.734 437.139L841.366 483.652Z" fill="#3A3768"/>
<path opacity="0.1" d="M841.366 483.652L957.846 432.517C957.846 432.517 964.355 433.961 960.143 438.872C955.931 443.784 843.612 488.564 843.612 488.564L632.734 437.139L841.366 483.652Z" fill="black"/>
<path opacity="0.1" d="M831.311 440.061C831.311 440.061 821.703 453.858 831.311 474.552V440.061Z" fill="black"/>
<path opacity="0.1" d="M885.895 439.738L835.595 456.952L835.773 457.498L886.073 440.284L885.895 439.738Z" fill="black"/>
<path opacity="0.1" d="M895.977 438.022L835.586 461.579L835.786 462.116L896.176 438.56L895.977 438.022Z" fill="black"/>
<path opacity="0.1" d="M905.222 437.932L835.915 467.031L836.128 467.564L905.434 438.464L905.222 437.932Z" fill="black"/>
<path opacity="0.1" d="M915.29 435.441L836.731 471.843L836.961 472.367L915.52 435.965L915.29 435.441Z" fill="black"/>
<path opacity="0.1" d="M923.735 435.446L837.344 474.18L837.569 474.707L923.959 435.973L923.735 435.446Z" fill="black"/>
<path opacity="0.1" d="M942.228 432.225L838.651 478.114L838.874 478.642L942.45 432.753L942.228 432.225Z" fill="black"/>
<path opacity="0.45" d="M682.912 390.835L781.766 370.002L841.988 381.545L760.984 407.726L682.912 390.835Z" fill="white"/>
<path d="M957.45 392.637C957.45 392.637 962.54 394.715 959.556 397.921C956.571 401.127 841.988 434.672 841.988 434.672L957.45 392.637Z" fill="#3A3768"/>
<path d="M956.223 335.512C956.223 335.512 943.606 363.75 953.624 387.531L852.883 419.652L843.237 421.738L838.785 401.84L841.763 376.729V362.988L956.223 335.512Z" fill="#D5D6DB"/>
<path d="M635.936 324.812L776.444 298.866L962.629 328.908L846.984 371.08L635.936 324.812Z" fill="#56538D"/>
<path d="M635.913 324.733C635.913 324.733 622.726 350.114 637.897 373.556L846.64 419.583C846.64 419.583 833.683 399.348 847.326 371.303L635.913 324.733Z" fill="#56538D"/>
<path opacity="0.1" d="M635.913 324.733C635.913 324.733 622.726 350.114 637.897 373.556L846.64 419.583C846.64 419.583 833.683 399.348 847.326 371.303L635.913 324.733Z" fill="black"/>
<path opacity="0.1" d="M642.342 333.356C642.342 333.356 635.136 352.332 642.342 364.613V333.356Z" fill="black"/>
<path d="M846.704 420.134L963.179 382.282C963.179 382.282 969.694 383.705 965.482 388.543C961.27 393.382 848.951 424.972 848.951 424.972L638.072 374.314L846.704 420.134Z" fill="#56538D"/>
<path opacity="0.1" d="M846.704 420.134L963.179 382.282C963.179 382.282 969.694 383.705 965.482 388.543C961.27 393.382 848.951 424.972 848.951 424.972L638.072 374.314L846.704 420.134Z" fill="black"/>
<path opacity="0.1" d="M836.65 376.469C836.65 376.469 827.041 390.266 836.65 410.96V376.469Z" fill="black"/>
<path opacity="0.1" d="M891.19 376.452L840.89 393.666L841.067 394.212L891.367 376.998L891.19 376.452Z" fill="black"/>
<path opacity="0.1" d="M901.268 374.739L840.877 398.296L841.076 398.834L901.467 375.277L901.268 374.739Z" fill="black"/>
<path opacity="0.1" d="M910.507 374.652L841.201 403.751L841.413 404.284L910.72 375.184L910.507 374.652Z" fill="black"/>
<path opacity="0.1" d="M920.583 372.156L842.024 408.558L842.255 409.082L920.814 372.68L920.583 372.156Z" fill="black"/>
<path opacity="0.1" d="M929.031 372.166L842.641 410.9L842.865 411.427L929.255 372.693L929.031 372.166Z" fill="black"/>
<path opacity="0.1" d="M947.522 368.949L843.946 414.838L844.168 415.366L947.745 369.477L947.522 368.949Z" fill="black"/>
<path opacity="0.3" d="M688.25 327.838L787.104 306.41L847.326 318.283L766.322 345.212L688.25 327.838Z" fill="white"/>
<path d="M962.786 329.045C962.786 329.045 967.882 331.123 964.891 334.334C961.901 337.545 847.326 371.08 847.326 371.08L962.786 329.045Z" fill="#56538D"/>
<path opacity="0.1" d="M655.154 543.533C662.229 543.533 667.965 543.05 667.965 542.455C667.965 541.86 662.229 541.377 655.154 541.377C648.078 541.377 642.342 541.86 642.342 542.455C642.342 543.05 648.078 543.533 655.154 543.533Z" fill="#56538D"/>
<path opacity="0.1" d="M570.811 518.743C577.887 518.743 583.623 518.019 583.623 517.126C583.623 516.233 577.887 515.509 570.811 515.509C563.736 515.509 558 516.233 558 517.126C558 518.019 563.736 518.743 570.811 518.743Z" fill="#56538D"/>
<path opacity="0.1" d="M1049.64 524.132C1057.01 524.132 1062.99 523.408 1062.99 522.515C1062.99 521.622 1057.01 520.899 1049.64 520.899C1042.27 520.899 1036.3 521.622 1036.3 522.515C1036.3 523.408 1042.27 524.132 1049.64 524.132Z" fill="#56538D"/>
<path opacity="0.1" d="M942.344 517.665C949.42 517.665 955.156 516.941 955.156 516.048C955.156 515.155 949.42 514.432 942.344 514.432C935.269 514.432 929.533 515.155 929.533 516.048C929.533 516.941 935.269 517.665 942.344 517.665Z" fill="#56538D"/>
<path d="M943.049 310.145C939.371 299.917 919.126 298.956 910.341 301.563C904.099 303.422 890.939 305.517 883.91 306.571L883.454 306.128C884.365 305.851 884.388 305.172 884.275 304.165C884.21 302.837 884.229 301.507 884.332 300.182C888.639 301.552 892.475 298.312 892.475 298.312C897.536 296.009 896.175 286.156 897.142 283.462C897.868 281.448 898.65 269.58 898.998 263.663H899.071L899.111 261.678C899.161 260.82 899.184 260.32 899.184 260.32C899.184 260.32 899.679 245.85 900.646 242.921C901.546 240.227 902.277 226.656 902.389 224.503C902.389 224.319 902.389 224.221 902.389 224.221L902.316 222.966C902.367 222.051 902.389 221.032 902.384 219.962C902.384 215.041 901.883 208.842 901.821 207.841C901.821 207.697 901.821 207.524 901.821 207.317C901.861 205.216 901.602 194.695 892.857 190.718C889.635 189.245 885.76 187.489 882.009 185.78C881.042 177.233 878.831 168.732 879.023 160.122C879.023 158.827 879.135 157.532 879.259 156.243C879.259 156.617 879.22 156.997 879.214 157.394C879.214 158.228 879.214 159.069 879.214 159.903C879.546 149.135 883.522 138.309 883.151 127.77C883.117 128.801 883.044 129.837 882.948 130.873C883.142 127.308 882.778 123.735 881.868 120.288C881.531 119.074 881.075 117.819 880.102 117.008C879.183 116.354 878.128 115.927 877.021 115.759C874.36 115.062 871.656 114.546 868.928 114.216C868.514 112.918 867.898 111.695 867.106 110.596C861.404 102.584 852.957 95.0561 842.969 93.3295C837.958 92.4662 832.194 93.1856 828.786 96.8518C828.43 97.1739 828.096 97.52 827.785 97.8878C825.951 100.127 825.164 103.068 823.286 105.301C823.162 105.451 823.022 105.589 822.887 105.733C819.209 109.1 813.478 109.802 809.39 112.823C808.669 113.366 807.994 113.968 807.371 114.625C805.723 116.296 804.246 118.133 802.962 120.11C801.123 122.757 799.233 125.514 798.648 128.674C797.473 135.005 801.685 141.008 802.467 147.379C804.21 161.636 788.795 174.286 791.714 188.353C792.493 191.808 794.213 194.968 796.674 197.464C790.663 203.035 785.545 208.439 785.545 208.439V208.762H784.595L784.69 209.913H784.595L785.118 216.158L784.595 225.251C784.595 225.251 784.595 225.349 784.595 225.533V225.579V225.827C784.595 225.827 784.595 225.925 784.595 226.109H784.628C784.803 229.441 785.494 241.424 786.315 243.951C787.283 246.88 787.772 261.35 787.772 261.35C787.772 261.35 788.84 281.799 789.819 284.504C790.798 287.209 789.408 297.034 794.487 299.353C795.972 300.52 797.731 301.266 799.587 301.517C799.329 303.67 799.492 305.23 800.33 305.719C800.688 305.935 801.095 306.054 801.511 306.064C801.166 306.587 800.86 307.135 800.594 307.705C798.578 307.489 796.598 307.011 794.7 306.283C789.245 303.981 771.143 298.801 765.884 302.444C760.626 306.087 747.973 309.391 753.816 324.056C759.659 338.721 762.381 339.089 762.381 339.089C764.179 340.426 765.757 342.048 767.054 343.895C768.809 346.594 785.157 352.77 789.245 352.77C790.983 352.743 792.721 352.831 794.447 353.035C794.447 353.035 790.01 357.018 790.601 359.331C791.191 361.645 789.251 380.166 789.251 380.166C789.251 380.166 793.75 384.805 795.673 378.722L795.741 378.814C796.101 379.314 798.047 381.576 801.708 378.722C803.206 377.558 804.797 376.526 806.465 375.637L824.191 373.07C826.039 372.952 827.892 372.938 829.742 373.029C832.554 373.265 835.315 371.562 837.053 370.244C840.725 371.671 844.853 373.231 846.816 373.801C850.797 374.952 869.097 379.976 873.376 378.405C874.266 378.043 875.057 377.467 875.682 376.724L879.765 376.857L877.853 377.248C877.853 377.248 881.576 377.312 886.637 377.381L886.424 377.507L892.773 377.45C902.063 377.536 912.501 377.565 913.873 377.248C916.021 376.759 927.184 377.104 930.474 377.248H931.391C931.391 377.248 943.656 374.745 938.595 362.008C934.703 352.223 922.742 349.38 917.433 348.597C918.929 348.292 920.217 348.056 921.071 347.918C924.777 347.343 931.976 343.889 932.561 342.709C933.146 341.53 939.18 338.105 940.738 336.154C942.295 334.203 946.744 320.372 943.049 310.145ZM841.456 338.767L840.854 338.968L840.449 339.107L839.673 339.889C839.055 339.463 838.391 339.014 837.699 338.554C838.92 338.629 840.174 338.704 841.456 338.767Z" fill="url(#paint0_linear)"/>
<path d="M877.219 278.04C877.219 278.04 885.984 301 890.968 298.704C895.952 296.408 894.6 286.65 895.551 283.976C896.502 281.301 897.556 261.016 897.556 261.016C897.556 261.016 898.037 246.666 898.988 243.762C899.871 241.093 900.587 227.632 900.707 225.514C900.707 225.331 900.707 225.233 900.707 225.233L899.762 208.587L894.411 207.25L882.003 211.842L880.284 221.674L879.614 225.514L879.327 227.15L877.219 278.04Z" fill="#CBC0C0"/>
<path opacity="0.1" d="M880.422 274.075C880.422 274.075 888.186 280.689 890.526 281.27C892.865 281.851 894.301 287.009 894.301 287.009" fill="black"/>
<path d="M809.959 279.118C809.959 279.118 801.593 302.078 796.835 299.782C792.078 297.486 793.368 287.728 792.46 285.053C791.553 282.379 790.547 262.094 790.547 262.094C790.547 262.094 790.087 247.744 789.179 244.839C788.337 242.17 787.654 228.71 787.539 226.592C787.539 226.409 787.539 226.311 787.539 226.311L788.447 209.665L793.554 208.328L805.398 212.92L807.039 222.752L807.679 226.592L807.952 228.228L809.959 279.118Z" fill="#CBC0C0"/>
<path d="M866.543 155.514H847.326V186.771H866.543V155.514Z" fill="#3E373A"/>
<path opacity="0.1" d="M866.543 155.514H847.326V186.771H866.543V155.514Z" fill="black"/>
<path d="M807.15 301.758C807.15 301.758 800.595 309.075 803.027 310.403C805.459 311.732 821.193 336.636 821.193 336.636C821.193 336.636 872.871 343.097 882.616 333.403C892.362 323.708 892.166 306.389 892.166 306.389C892.166 306.389 884.335 308.1 883.482 307.17C882.628 306.24 877.937 301.758 877.937 301.758C877.937 301.758 811.644 297.675 807.15 301.758Z" fill="#56566D"/>
<path opacity="0.02" d="M807.15 301.758C807.15 301.758 800.595 309.075 803.027 310.403C805.459 311.732 821.193 336.636 821.193 336.636C821.193 336.636 872.871 343.097 882.616 333.403C892.362 323.708 892.166 306.389 892.166 306.389C892.166 306.389 884.335 308.1 883.482 307.17C882.628 306.24 877.937 301.758 877.937 301.758C877.937 301.758 811.644 297.675 807.15 301.758Z" fill="white"/>
<path d="M899.624 208.787L882.884 222.679L877.823 223.061L875.965 223.2L844.757 225.573L812.394 223.119L807.578 222.754L801.44 222.291L788.607 209.557C788.607 209.557 797.691 199.463 805.648 192.65C808.783 189.959 811.746 187.782 813.906 186.926L814.274 186.792C815.632 186.243 816.845 185.366 817.812 184.234C824.095 177.514 829.903 160.931 829.903 160.931C829.903 160.931 857.619 146.078 854.271 165.561C850.923 185.044 866.73 180.229 866.73 180.229L871.942 182.694L874.001 183.673L879.252 186.167L891.098 191.805C900.394 196.244 899.624 208.787 899.624 208.787Z" fill="#D9D9D9"/>
<path opacity="0.1" d="M843.589 177.071C857.445 177.071 868.678 165.489 868.678 151.203C868.678 136.916 857.445 125.335 843.589 125.335C829.733 125.335 818.5 136.916 818.5 151.203C818.5 165.489 829.733 177.071 843.589 177.071Z" fill="black"/>
<path opacity="0.1" d="M900.166 226.651H787.539C787.539 226.468 787.539 226.371 787.539 226.371L788.471 209.821C788.471 209.821 797.607 199.869 805.61 193.152L876.32 190.298L879.609 186.771L891.523 192.33C900.878 196.701 900.126 209.068 900.126 209.068C900.126 209.068 901.406 223.398 900.166 226.651Z" fill="black"/>
<path d="M900.166 226.651H787.539C787.539 226.463 787.539 226.364 787.539 226.364L788.471 209.366C788.471 209.366 797.607 199.145 805.61 192.246L876.32 189.316L879.609 185.693L891.523 191.402C900.878 195.892 900.126 208.593 900.126 208.593C900.126 208.593 901.406 223.31 900.166 226.651Z" fill="#6285B9"/>
<path opacity="0.1" d="M825.526 179.942C825.526 179.942 843.322 203.149 867.026 179.464C890.729 155.779 869.651 232.294 869.651 232.294L818.5 238.507L825.526 179.942Z" fill="black"/>
<path d="M825.526 181.019C825.526 181.019 843.322 204.227 867.026 180.542C890.729 156.857 869.651 233.372 869.651 233.372L818.5 239.585L825.526 181.019Z" fill="#6285B9"/>
<path opacity="0.1" d="M873.502 184.487L875.372 213.891L877.376 223.675L878.906 231.157C878.906 231.157 882.814 288.711 881.697 291.588C880.581 294.466 882.256 296.768 882.49 298.299C882.725 299.83 882.256 303.675 882.44 305.401C882.624 307.128 882.44 307.893 878.163 307.277C873.887 306.662 867.924 305.591 867.924 305.591C867.924 305.591 852.85 306.742 847.641 304.826C842.432 302.909 832.567 302.903 832.567 302.903C832.567 302.903 817.677 303.289 812.842 302.713C808.007 302.138 805.394 308.854 802.234 306.932C799.074 305.01 805.953 286.409 808.186 281.033C810.419 275.658 805.21 262.04 805.21 262.04L811.91 223.727L813.4 215.042V187.739L813.769 187.607C815.128 187.06 816.341 186.188 817.309 185.063L818.983 212.539L871.464 214.461V183.538" fill="black"/>
<path d="M873.502 183.41L875.372 212.814L877.376 222.598L878.906 230.08C878.906 230.08 882.814 287.633 881.697 290.511C880.581 293.388 882.256 295.69 882.49 297.221C882.725 298.752 882.256 302.597 882.44 304.323C882.624 306.05 882.44 306.815 878.163 306.2C873.887 305.584 867.924 304.513 867.924 304.513C867.924 304.513 852.85 305.664 847.641 303.748C842.432 301.831 832.567 301.826 832.567 301.826C832.567 301.826 817.677 302.211 812.842 301.636C808.007 301.06 805.394 307.777 802.234 305.854C799.074 303.932 805.953 285.331 808.186 279.955C810.419 274.58 805.21 260.963 805.21 260.963L811.91 222.649L813.4 213.965V186.661L813.769 186.529C815.128 185.983 816.341 185.111 817.309 183.985L818.983 211.461L871.464 213.383V182.46" fill="#6285B9"/>
<path opacity="0.1" d="M880.412 122.234C880.091 121.033 879.648 119.786 878.726 118.981C877.846 118.335 876.83 117.91 875.76 117.74C873.197 117.051 870.592 116.54 867.962 116.212C867.586 114.936 867.018 113.728 866.277 112.631C860.771 104.678 852.625 97.1788 843.04 95.4835C838.024 94.5928 832.209 95.3916 828.995 99.4372C827.231 101.661 826.473 104.609 824.692 106.793C821.259 111.034 815.063 111.557 810.737 114.838C808.428 116.562 806.754 119.062 805.119 121.487C803.349 124.113 801.529 126.849 800.967 129.986C799.843 136.256 803.894 142.232 804.641 148.559C806.327 162.713 791.495 175.27 794.298 189.234C795.933 197.377 803.287 203.112 810.894 206.02C813.574 207.049 816.636 208.071 817.889 210.703C818.45 211.853 818.546 213.18 819.074 214.341C820.849 218.214 826.686 218.364 829.821 215.542C832.956 212.72 833.945 208.158 834.316 203.899C835.821 185.303 828.54 166.931 829.389 148.289C829.641 142.652 831.192 136.256 836.13 133.704C842.776 130.256 850.771 136.003 858.086 134.905C861.547 143.52 862.282 153.028 860.187 162.093C859.024 167.052 857.013 171.862 856.866 176.976C856.647 184.763 860.754 191.877 864.305 198.762C865.067 200.049 865.576 201.476 865.805 202.963C865.861 204.471 865.586 205.973 865.001 207.359C862.996 212.881 859.535 218.007 859.142 223.886C859.026 224.572 859.178 225.278 859.563 225.851C859.959 226.235 860.47 226.469 861.013 226.518C867.08 227.581 872.327 222.082 875.288 216.559C878.589 210.46 880.512 203.681 880.917 196.722C881.53 185.022 877.428 173.511 877.681 161.8C877.973 148.485 883.855 135.078 880.412 122.234Z" fill="black"/>
<path d="M880.412 122.234C880.091 121.033 879.648 119.786 878.726 118.981C877.846 118.335 876.83 117.91 875.76 117.74C873.197 117.051 870.592 116.54 867.962 116.212C867.586 114.936 867.018 113.728 866.277 112.631C860.771 104.678 852.625 97.1788 843.04 95.4835C838.024 94.5928 832.209 95.3916 828.995 99.4372C827.231 101.661 826.473 104.609 824.692 106.793C821.259 111.034 815.063 111.557 810.737 114.838C808.428 116.562 806.754 119.062 805.119 121.487C803.349 124.113 801.529 126.849 800.967 129.986C799.843 136.256 803.894 142.232 804.641 148.559C806.327 162.713 791.495 175.27 794.298 189.234C795.933 197.377 803.287 203.112 810.894 206.02C813.574 207.049 816.636 208.071 817.889 210.703C818.45 211.853 818.546 213.18 819.074 214.341C820.849 218.214 826.686 218.364 829.821 215.542C832.956 212.72 833.945 208.158 834.316 203.899C835.821 185.303 828.54 166.931 829.389 148.289C829.641 142.652 831.192 136.256 836.13 133.704C842.776 130.256 850.771 136.003 858.086 134.905C861.547 143.52 862.282 153.028 860.187 162.093C859.024 167.052 857.013 171.862 856.866 176.976C856.647 184.763 860.754 191.877 864.305 198.762C865.067 200.049 865.576 201.476 865.805 202.963C865.861 204.471 865.586 205.973 865.001 207.359C862.996 212.881 859.535 218.007 859.142 223.886C859.026 224.572 859.178 225.278 859.563 225.851C859.959 226.235 860.47 226.469 861.013 226.518C867.08 227.581 872.327 222.082 875.288 216.559C878.589 210.46 880.512 203.681 880.917 196.722C881.53 185.022 877.428 173.511 877.681 161.8C877.973 148.485 883.855 135.078 880.412 122.234Z" fill="#3E373A"/>
<path d="M868.678 376.803L890.031 377.547L886.968 360.302L870.611 361.996L868.678 376.803Z" fill="#C3C7D9"/>
<path d="M936.599 336.395C935.105 338.295 929.325 341.719 928.765 342.861C928.205 344.002 921.305 347.426 917.757 347.997C914.209 348.567 903.023 351.044 900.969 352.374C899.497 353.333 887.684 356.369 879.922 358.052C877.82 358.559 875.692 358.95 873.548 359.222C870.191 359.41 833.447 346.667 833.447 346.667L840.531 339.248L840.923 339.111C842.926 338.421 852.182 335.231 857.32 333.713C863.106 332.001 869.821 324.964 869.821 324.964C869.821 324.964 879.704 321.54 881.013 321.158C882.323 320.776 877.656 307.844 877.656 307.844C877.656 307.844 899.106 304.808 907.5 302.234C915.894 299.661 935.296 300.614 938.838 310.697C942.38 320.781 938.116 334.495 936.599 336.395Z" fill="#56566D"/>
<path d="M838.785 368.827C838.785 368.827 834.535 373.442 830.279 373.061C826.023 372.68 811.141 374.215 811.141 374.215C808.444 375.333 805.919 376.855 803.645 378.731C800.166 381.581 798.318 379.308 797.974 378.824L797.913 378.731C796.06 384.794 791.809 380.174 791.809 380.174C791.809 380.174 793.657 361.714 793.091 359.406C792.525 357.099 796.748 353.136 796.748 353.136L801.742 351.815L814.393 348.446L832.52 354.982L838.785 368.827Z" fill="#E7C7CA"/>
<path opacity="0.1" d="M801.418 351.679L797.787 378.81L797.727 378.717C795.931 384.808 791.809 380.166 791.809 380.166C791.809 380.166 793.601 361.623 793.052 359.305C792.503 356.987 796.598 353.006 796.598 353.006L801.418 351.679Z" fill="black"/>
<path opacity="0.1" d="M828.109 275.153C828.109 275.153 837.821 277.578 846.258 275.153H828.109Z" fill="black"/>
<path opacity="0.1" d="M862.273 281.62C862.273 281.62 866.486 284.045 869.746 281.62H862.273Z" fill="black"/>
<path opacity="0.1" d="M862.273 286.799C862.273 286.799 868.554 287.65 869.746 285.932L862.273 286.799Z" fill="black"/>
<path opacity="0.1" d="M860.137 297.788C860.137 297.788 872.967 295.94 876.152 293.476L860.137 297.788Z" fill="black"/>
<path opacity="0.1" d="M820.635 293.476C820.635 293.476 827.37 297.984 832.379 297.781L820.635 293.476Z" fill="black"/>
<path opacity="0.1" d="M880.374 358.031C878.251 358.547 876.103 358.945 873.938 359.222C870.548 359.414 833.447 346.439 833.447 346.439L840.6 338.885L840.996 338.745C842.126 339.565 843.052 340.268 843.714 340.802C846.827 343.324 849.833 340.029 850.963 340.029C852.093 340.029 861.885 348.356 861.885 348.356C861.885 348.356 870.926 350.489 872.435 352.424C873.944 354.358 879.215 353.975 880.153 355.329C880.436 355.747 880.47 356.776 880.374 358.031Z" fill="black"/>
<path d="M811.452 307.874C811.452 307.874 802.4 308.413 797.181 306.137C791.961 303.861 774.619 298.609 769.585 302.298C764.55 305.986 752.427 309.246 758.021 323.92C763.616 338.593 766.228 338.975 766.228 338.975C767.959 340.319 769.47 341.942 770.703 343.781C772.382 346.486 788.046 352.658 791.962 352.658C795.877 352.658 802.775 352.658 812.47 359.607C822.165 366.556 830.931 367.332 830.931 367.332C830.931 367.332 843.238 372.543 847.07 373.701C850.902 374.859 868.412 379.874 872.518 378.334C876.624 376.793 879.231 367.135 879.231 367.135C879.231 367.135 881.094 358.449 880.16 357.1C879.226 355.75 874.006 356.133 872.518 354.204C871.03 352.276 862.074 350.151 862.074 350.151C862.074 350.151 852.401 341.847 851.283 341.847C850.164 341.847 847.188 345.125 844.105 342.617C837.965 337.91 831.514 333.653 824.8 329.878C817.717 326.016 811.452 307.874 811.452 307.874Z" fill="#56566D"/>
<path opacity="0.1" d="M792.877 314.174C794.496 313.841 796.168 313.889 797.766 314.313C799.363 314.738 800.841 315.528 802.085 316.623C806.579 320.395 821.703 327.967 821.703 327.967" fill="black"/>
<path opacity="0.1" d="M904.977 313.955C904.977 313.955 885.185 316.698 881.49 320.422L904.977 313.955Z" fill="black"/>
<path d="M927.955 377.291H927.086C923.964 377.175 913.388 376.829 911.351 377.291C908.955 377.868 877.219 377.291 877.219 377.291L883.424 375.947C883.424 375.947 881.121 367.535 882.582 366.837C882.582 366.837 874.28 361.138 880.54 357.29C886.8 353.442 893.546 355.063 893.546 355.063L909.259 349.513L912.275 348.446C912.275 348.446 929.986 349.409 934.779 362.101C939.572 374.793 927.955 377.291 927.955 377.291Z" fill="#E7C7CA"/>
<path opacity="0.1" d="M927.952 377.547H927.082C932.237 373.073 943.898 359.451 909.248 349.524L912.266 348.446C912.266 348.446 929.984 349.419 934.779 362.236C939.574 375.054 927.952 377.547 927.952 377.547Z" fill="black"/>
<path d="M895.369 362.458C895.959 362.458 896.437 361.975 896.437 361.38C896.437 360.784 895.959 360.302 895.369 360.302C894.779 360.302 894.301 360.784 894.301 361.38C894.301 361.975 894.779 362.458 895.369 362.458Z" fill="#4B4B5B"/>
<path d="M889.497 363.535C889.792 363.535 890.031 363.053 890.031 362.458C890.031 361.862 889.792 361.38 889.497 361.38C889.202 361.38 888.963 361.862 888.963 362.458C888.963 363.053 889.202 363.535 889.497 363.535Z" fill="#4B4B5B"/>
<g opacity="0.1">
<path opacity="0.1" d="M861.676 150.172C861.893 143.846 860.796 137.544 858.457 131.687C851.168 132.802 843.184 127.033 836.545 130.484C831.633 133.038 830.091 139.44 829.817 145.082C829.749 146.572 829.738 148.061 829.766 149.551C829.766 149.022 829.766 148.487 829.817 147.958C830.075 142.315 831.616 135.914 836.545 133.36C843.184 129.909 851.157 135.661 858.457 134.562C860.438 139.524 861.528 144.812 861.676 150.172Z" fill="black"/>
<path opacity="0.1" d="M805.191 149.12C805.287 147.866 805.262 146.606 805.118 145.358C804.523 140.297 801.826 135.46 801.339 130.525C800.711 136.478 804.406 142.195 805.118 148.234C805.191 148.544 805.191 148.82 805.191 149.12Z" fill="black"/>
<path opacity="0.1" d="M834.734 200.734C834.386 205.002 833.405 209.563 830.248 212.393C827.092 215.222 821.277 215.067 819.522 211.191C818.961 210.04 818.877 208.7 818.334 207.55C817.089 204.916 814.027 203.892 811.353 202.862C803.755 199.946 796.427 194.235 794.795 186.062C794.649 185.321 794.55 184.572 794.498 183.819C794.36 185.531 794.46 187.254 794.795 188.938C796.427 197.088 803.766 202.822 811.353 205.738C814.027 206.768 817.089 207.791 818.334 210.426C818.894 211.576 818.99 212.905 819.522 214.066C821.288 217.943 827.114 218.092 830.248 215.268C833.383 212.444 834.358 207.878 834.734 203.61C834.905 201.364 834.963 199.11 834.908 196.858C834.908 198.163 834.835 199.452 834.734 200.734Z" fill="black"/>
<path opacity="0.1" d="M878.043 158.604C878.043 159.438 878.043 160.266 878.043 161.094C878.357 150.396 882.181 139.641 881.805 129.167C881.513 138.853 878.256 148.757 878.043 158.604Z" fill="black"/>
<path opacity="0.1" d="M866.01 201.879C866.148 201.196 866.191 200.497 866.139 199.802C865.913 198.314 865.405 196.885 864.642 195.598C861.401 189.271 857.706 182.795 857.269 175.772C857.269 176.071 857.229 176.347 857.224 176.67C856.999 184.457 861.098 191.583 864.642 198.474C865.244 199.541 865.704 200.686 866.01 201.879Z" fill="black"/>
<path opacity="0.1" d="M881.267 193.556C880.848 200.524 878.915 207.308 875.609 213.411C872.649 218.938 867.417 224.442 861.356 223.378C860.813 223.33 860.303 223.093 859.91 222.705C859.796 222.573 859.706 222.421 859.646 222.257C859.579 222.705 859.523 223.16 859.489 223.62C859.373 224.305 859.524 225.009 859.91 225.581C860.303 225.968 860.813 226.206 861.356 226.254C867.417 227.318 872.649 221.814 875.609 216.286C878.915 210.184 880.848 203.4 881.267 196.432C881.334 195.086 881.34 193.746 881.3 192.406C881.289 192.791 881.289 193.171 881.267 193.556Z" fill="black"/>
</g>
<path opacity="0.1" d="M882.557 366.495C882.557 366.495 896.712 372.491 906.045 359.224" stroke="black" stroke-miterlimit="10"/>
<path opacity="0.1" d="M884.693 377.547C884.693 377.547 896.431 370.43 911.383 377.314" stroke="black" stroke-miterlimit="10"/>
<path opacity="0.1" d="M807.824 375.392C807.824 375.392 812.478 365.11 824.906 372.95" stroke="black" stroke-miterlimit="10"/>
<path opacity="0.1" d="M791.809 208.981L801.749 199.632C801.749 199.632 840.288 197.003 841.882 210.634C841.882 210.634 855.545 194.473 884.279 198.072L896.437 208.145L862.834 223.489L830.18 235.274L806.129 224.073L791.809 208.981Z" fill="black"/>
<path d="M791.809 209.732L801.749 200.651C801.749 200.651 840.288 198.097 841.882 211.338C841.882 211.338 855.545 195.639 884.279 199.135L896.437 208.92L862.834 223.825L830.18 235.274L806.129 224.393L791.809 209.732Z" fill="#D5D6DB"/>
<path opacity="0.1" d="M787.539 210.483L791.865 265.174L837.717 267.608L835.728 213.152L835.69 212.235L787.539 210.483Z" fill="black"/>
<path d="M787.539 209.406L791.865 263.064L837.717 265.453L835.728 212.024L835.69 211.124L787.539 209.406Z" fill="#56538D"/>
<path opacity="0.1" d="M898.572 209.406L850.529 216.783V270.842L897.478 263.896L898.572 209.406Z" fill="black"/>
<path d="M898.572 208.328L850.529 215.705V269.764L897.478 262.818L898.572 208.328Z" fill="#56538D"/>
<path opacity="0.3" d="M886.828 221.262L861.205 224.443L861.764 234.196L886.811 231.139L886.828 221.262Z" fill="white"/>
<path d="M793.998 292.483L796.625 299.863C796.625 299.863 800.529 303.357 804.802 301.61C809.074 299.863 812.8 298.995 814.657 297.294C816.514 295.593 819.119 287.049 819.119 287.049C819.119 287.049 821.724 277.73 824.323 275.4C826.922 273.071 833.805 240.973 824.323 244.112C814.841 247.251 807.59 276.373 807.59 276.373C807.59 276.373 805.917 278.505 803.502 278.703C801.087 278.901 796.251 278.313 795.32 280.45C794.388 282.588 791.209 288.214 793.998 292.483Z" fill="#CBC0C0"/>
<path opacity="0.1" d="M850.529 217.269C848.106 217.83 845.589 217.8 843.179 217.184C840.769 216.567 838.533 215.38 836.65 213.717L838.645 266.636C838.645 266.636 843.343 271.857 850.529 270.665V217.269Z" fill="black"/>
<path d="M850.529 216.191C848.106 216.752 845.589 216.723 843.179 216.106C840.769 215.489 838.533 214.302 836.65 212.639L838.645 265.558C838.645 265.558 843.343 270.779 850.529 269.587V216.191Z" fill="#56538D"/>
<path opacity="0.1" d="M850.529 216.191C848.106 216.752 845.589 216.723 843.179 216.106C840.769 215.489 838.533 214.302 836.65 212.639L838.645 265.558C838.645 265.558 843.343 270.779 850.529 269.587V216.191Z" fill="black"/>
<path opacity="0.1" d="M851.596 209.406C851.596 209.406 871.074 203.231 876.152 204.1L851.596 209.406Z" fill="black"/>
<path opacity="0.1" d="M829.176 207.25C829.176 207.25 810.88 203.034 807.824 204.23L829.176 207.25Z" fill="black"/>
<path opacity="0.1" d="M863.34 210.483C863.34 210.483 876.67 205.53 881.49 207.885L863.34 210.483Z" fill="black"/>
<path opacity="0.1" d="M856.934 333.356C858.964 331.855 861.124 330.534 863.39 329.408C866.763 327.808 872.949 323.656 872.949 323.656" fill="black"/>
<path opacity="0.1" d="M807.824 275.153C807.824 275.153 799.457 281.767 796.943 282.348C794.429 282.929 792.877 288.087 792.877 288.087" fill="black"/>
<path d="M893.175 291.566L890.575 298.826C890.575 298.826 886.669 302.256 882.389 300.541C878.109 298.826 874.393 297.974 872.529 296.305C870.665 294.636 868.065 286.25 868.065 286.25C868.065 286.25 865.465 277.104 862.859 274.817C860.253 272.53 853.373 241.027 862.859 244.108C872.345 247.189 879.599 275.772 879.599 275.772C879.599 275.772 881.273 277.864 883.689 278.058C886.105 278.253 890.943 277.675 891.875 279.773C892.807 281.871 895.965 287.393 893.175 291.566Z" fill="#CBC0C0"/>
<path opacity="0.1" d="M888.963 278.387C888.963 278.387 894.324 281.823 894.301 285.932L888.963 278.387Z" fill="black"/>
<path d="M843.589 175.993C857.445 175.993 868.678 164.411 868.678 150.125C868.678 135.839 857.445 124.257 843.589 124.257C829.733 124.257 818.5 135.839 818.5 150.125C818.5 164.411 829.733 175.993 843.589 175.993Z" fill="#D9D9D9"/>
<path d="M827.684 142.497C830.72 142.013 833.38 140.216 836.281 139.183C842.771 136.862 849.951 138.453 856.52 140.547C859.04 141.351 861.599 142.258 864.243 142.258C866.886 142.258 869.692 141.157 871.041 138.835C872.285 136.702 872.044 133.93 870.996 131.688C869.949 129.447 868.196 127.644 866.427 125.944C860.602 120.343 853.378 115.107 845.387 115.677C842.172 115.911 839.098 117.08 836.141 118.375C832.417 120.009 828.793 121.868 825.287 123.942C822.594 125.534 817.604 127.661 816.053 130.57C812.524 137.124 822.196 143.376 827.684 142.497Z" fill="#3E373A"/>
<path opacity="0.1" d="M871.038 136.67C869.689 139.172 866.883 140.358 864.24 140.358C861.597 140.358 859.038 139.418 856.513 138.551C849.944 136.295 842.771 134.574 836.275 137.082C833.38 138.194 830.715 140.155 827.68 140.647C823.256 141.409 816.133 137.18 815.36 131.802C814.492 138.016 822.752 143.339 827.68 142.491C830.715 141.968 833.38 140.032 836.275 138.926C842.771 136.418 849.944 138.139 856.513 140.395C859.038 141.262 861.592 142.239 864.24 142.202C866.889 142.165 869.689 141.022 871.038 138.514C871.738 137.15 872.013 135.572 871.822 134.021C871.735 134.955 871.468 135.858 871.038 136.67Z" fill="black"/>
<defs>
<linearGradient id="paint0_linear" x1="848.39" y1="381.876" x2="848.39" y2="92.9957" gradientUnits="userSpaceOnUse">
<stop stop-color="#808080" stop-opacity="0.25"/>
<stop offset="0.54" stop-color="#808080" stop-opacity="0.12"/>
<stop offset="1" stop-color="#808080" stop-opacity="0.1"/>
</linearGradient>
</defs>
</svg>
