<svg width="1376" height="760" viewBox="0 0 1376 760" fill="none" xmlns="http://www.w3.org/2000/svg">
<circle opacity="0.04" cx="499" cy="704" r="158" fill="#5E8F2D"/>
<path opacity="0.1" d="M1338.94 0H1370.91C1373.44 0 1375.5 2.12232 1375.5 4.74035V25.3078C1375.5 27.9258 1373.44 30.0481 1370.91 30.0481H1338.94C1336.41 30.0481 1334.35 27.9258 1334.35 25.3078V4.74035C1334.35 2.12232 1336.41 0 1338.94 0Z" fill="#6C63FF"/>
<path opacity="0.1" d="M1297.8 52.8433H1329.76C1332.3 52.8433 1334.35 54.9656 1334.35 57.5836V78.151C1334.35 80.7691 1332.3 82.8914 1329.76 82.8914H1297.8C1295.26 82.8914 1293.21 80.7691 1293.21 78.151V57.5836C1293.21 54.9656 1295.26 52.8433 1297.8 52.8433Z" fill="#6C63FF"/>
<path opacity="0.05" d="M16.5539 357H-15.4088C-17.9445 357 -20 359.122 -20 361.74V382.308C-20 384.926 -17.9445 387.048 -15.4088 387.048H16.5539C19.0896 387.048 21.1451 384.926 21.1451 382.308V361.74C21.1451 359.122 19.0896 357 16.5539 357Z" fill="#6C63FF"/>
<path opacity="0.05" d="M57.6991 409.843H25.7363C23.2007 409.843 21.1451 411.966 21.1451 414.584V435.151C21.1451 437.769 23.2007 439.891 25.7363 439.891H57.6991C60.2347 439.891 62.2903 437.769 62.2903 435.151V414.584C62.2903 411.966 60.2347 409.843 57.6991 409.843Z" fill="#6C63FF"/>
<path opacity="0.1" d="M925.591 5.18066H957.554C960.09 5.18066 962.145 7.30299 962.145 9.92101V30.4884C962.145 33.1065 960.09 35.2288 957.554 35.2288H925.591C923.056 35.2288 921 33.1065 921 30.4884V9.92101C921 7.30299 923.056 5.18066 925.591 5.18066Z" fill="#6C63FF"/>
</svg>
