<svg width="1364" height="806" viewBox="0 0 1364 806" fill="none" xmlns="http://www.w3.org/2000/svg">
<path d="M948.03 614.463L948.078 614.451C1089.03 598.83 1363.08 535.642 1331.62 407.857C1176.29 -32.051 1035.99 268.038 968.109 260.012C935.06 245.544 849.812 293.026 813.365 336.962C784.207 372.111 758.052 357.278 746.609 352.812C688.216 330.027 570.869 327.002 568.625 497.189C565.822 709.777 924.572 620.313 948.03 614.463Z" fill="#EAE9FF"/>
<path d="M918.951 617.224L919 617.222C1060.37 628.515 1341.42 618.244 1334.67 486.816C1265.25 25.4836 1070.78 293.659 1005.64 272.952C975.919 252.5 883.235 283.02 839.143 319.278C803.869 348.285 780.989 328.777 770.595 322.23C717.559 288.822 602.897 263.68 568.538 430.378C525.619 638.607 894.81 618.537 918.951 617.224Z" fill="#F0EFFF"/>
<g opacity="0.15">
<path opacity="0.2" d="M1004.66 593.377C1004.01 595.125 1003.24 596.814 1002.34 598.428C991.951 592.565 981.437 586.883 970.797 581.382C970.941 580.914 971.106 580.424 971.281 579.956C973.008 574.994 975.961 570.612 979.833 567.264C984.851 563.018 990.9 561.418 996.319 563.584C1001.74 565.75 1005.2 571.204 1006.28 577.855C1007.06 583.09 1006.5 588.45 1004.66 593.377Z" fill="#3F3D56"/>
<path opacity="0.2" d="M1014.84 565.202C1019.44 552.454 1015.69 539.115 1006.47 535.408C997.254 531.702 986.059 539.031 981.465 551.78C976.871 564.528 980.619 577.867 989.836 581.574C999.053 585.28 1010.25 577.95 1014.84 565.202Z" fill="#3F3D56"/>
<path opacity="0.2" d="M1025.01 536.995C1029.61 524.247 1025.86 510.908 1016.64 507.201C1007.43 503.495 996.232 510.825 991.638 523.573C987.044 536.321 990.792 549.661 1000.01 553.367C1009.23 557.074 1020.42 549.744 1025.01 536.995Z" fill="#3F3D56"/>
<path opacity="0.2" d="M1035.17 508.774C1039.77 496.026 1036.02 482.687 1026.8 478.98C1017.58 475.274 1006.39 482.604 1001.79 495.352C997.201 508.1 1000.95 521.44 1010.17 525.146C1019.38 528.853 1030.58 521.523 1035.17 508.774Z" fill="#3F3D56"/>
<path opacity="0.2" d="M1045.34 480.579C1049.94 467.83 1046.19 454.491 1036.97 450.784C1027.76 447.078 1016.56 454.408 1011.97 467.156C1007.37 479.905 1011.12 493.244 1020.34 496.95C1029.56 500.657 1040.75 493.327 1045.34 480.579Z" fill="#3F3D56"/>
<path opacity="0.2" d="M1035.69 255.66C1034.52 251.675 1033.6 247.608 1032.96 243.49L1079.55 253.516L1031.99 234.771C1031.21 222.491 1032.81 210.172 1036.69 198.567C1040.57 186.963 1046.66 176.317 1054.57 167.282L1105.63 227.728L1063.39 158.574C1072.5 150.795 1083.04 145.079 1094.33 141.78C1105.63 138.481 1117.44 137.669 1129.05 139.396C1140.65 141.123 1151.8 145.35 1161.79 151.817C1171.79 158.284 1180.41 166.851 1187.14 176.988C1193.87 187.124 1198.56 198.613 1200.91 210.742C1203.26 222.871 1203.22 235.381 1200.81 247.495C1198.39 259.61 1193.64 271.07 1186.86 281.165C1180.07 291.26 1171.4 299.774 1161.37 306.179C1163.2 312.379 1164.39 318.769 1164.93 325.239L1096.75 333.599L1165.2 336.484C1164.67 351.505 1160.59 366.149 1153.35 379.09C1146.11 392.032 1135.94 402.862 1123.74 410.602C1128.51 426.784 1128.89 444.059 1124.81 460.454C1120.74 476.849 1112.38 491.702 1100.69 503.316C1089 514.93 1074.46 522.835 1058.72 526.13C1042.98 529.424 1026.68 527.975 1011.68 521.947C996.684 515.919 983.595 505.555 973.91 492.041C964.224 478.526 958.333 462.406 956.909 445.522C955.485 428.638 958.586 411.671 965.858 396.561C973.129 381.451 984.278 368.806 998.03 360.072C992.308 340.73 992.908 319.917 999.732 300.979C1006.56 282.04 1019.21 266.075 1035.66 255.649L1035.69 255.66Z" fill="#6C63FF"/>
<path opacity="0.1" d="M1159.65 365.275C1152.85 384.234 1140.2 400.21 1123.73 410.613C1128.5 426.795 1128.88 444.07 1124.8 460.465C1120.73 476.86 1112.37 491.713 1100.68 503.327C1088.99 514.94 1074.45 522.846 1058.71 526.141C1042.97 529.435 1026.67 527.986 1011.67 521.958C996.674 515.93 983.585 505.566 973.9 492.052C964.214 478.537 958.323 462.417 956.899 445.533C955.475 428.649 958.576 411.682 965.848 396.572C973.119 381.461 984.268 368.817 998.02 360.083C992.528 341.447 1163.07 355.805 1159.65 365.275Z" fill="black"/>
</g>
<g opacity="0.2">
<path opacity="0.2" d="M183.693 707.22C184.214 709.381 184.903 711.492 185.753 713.533C198.805 708.25 212.004 703.17 225.351 698.294C225.238 697.717 225.125 697.118 224.98 696.53C223.636 690.402 220.765 684.765 216.665 680.202C211.328 674.411 204.414 671.581 197.768 673.301C191.122 675.021 186.227 680.921 184.012 688.541C182.323 694.624 182.212 701.076 183.693 707.22Z" fill="#3F3D56"/>
<path opacity="0.2" d="M202.903 695.535C214.297 692.597 220.581 677.441 216.94 661.684C213.298 645.927 201.11 635.535 189.716 638.474C178.322 641.413 172.037 656.569 175.679 672.326C179.32 688.083 191.509 698.474 202.903 695.535Z" fill="#3F3D56"/>
<path opacity="0.2" d="M194.842 660.668C206.235 657.73 212.52 642.574 208.878 626.817C205.237 611.06 193.048 600.668 181.655 603.607C170.261 606.546 163.976 621.702 167.618 637.459C171.259 653.216 183.448 663.607 194.842 660.668Z" fill="#3F3D56"/>
<path opacity="0.2" d="M186.8 625.798C198.194 622.86 204.479 607.704 200.837 591.947C197.196 576.19 185.007 565.798 173.613 568.737C162.22 571.676 155.935 586.832 159.577 602.589C163.218 618.346 175.407 628.737 186.8 625.798Z" fill="#3F3D56"/>
<path opacity="0.2" d="M178.737 590.921C190.13 587.982 196.415 572.826 192.773 557.069C189.132 541.312 176.943 530.921 165.55 533.859C154.156 536.798 147.871 551.954 151.513 567.711C155.154 583.468 167.343 593.859 178.737 590.921Z" fill="#3F3D56"/>
<path opacity="0.2" d="M194.203 303.886C196.15 299.368 197.795 294.712 199.128 289.952L142.755 294.524L201.487 279.873C204.13 265.497 203.965 250.703 201.005 236.397C198.044 222.092 192.349 208.575 184.27 196.676L115.563 260.05L175.089 185.029C165.422 174.395 153.788 165.976 140.91 160.295C128.031 154.615 114.184 151.795 100.229 152.012C86.275 152.228 72.5119 155.475 59.7965 161.551C47.081 167.628 35.6852 176.403 26.3179 187.332C16.9506 198.261 9.81234 211.109 5.34711 225.078C0.881869 239.046 -0.81478 253.836 0.362714 268.527C1.54021 283.217 5.56665 297.495 12.1916 310.472C18.8165 323.448 27.8981 334.845 38.8714 343.955C35.8448 350.989 33.5407 358.346 31.9988 365.899L111.287 386.375L30.1131 379.114C28.6501 396.92 31.4102 414.83 38.1439 431.226C44.8777 447.622 55.3727 461.987 68.6806 473.022C60.777 491.375 57.9212 511.708 60.4397 531.695C62.9582 551.682 70.7493 570.517 82.9224 586.047C95.0955 601.577 111.159 613.175 129.278 619.515C147.396 625.856 166.837 626.682 185.379 621.901C203.921 617.119 220.815 606.923 234.13 592.477C247.446 578.031 256.645 559.918 260.676 540.209C264.707 520.501 263.407 499.992 256.925 481.027C250.443 462.062 239.041 445.406 224.022 432.964C233.465 411.026 235.653 386.37 230.234 362.96C224.814 339.55 212.102 318.744 194.141 303.886H194.203Z" fill="#6C63FF"/>
<path opacity="0.1" d="M32.617 413.926C37.9928 437.354 50.7006 458.178 68.6806 473.022C60.777 491.375 57.9212 511.708 60.4397 531.695C62.9581 551.682 70.7493 570.517 82.9224 586.047C95.0955 601.577 111.159 613.175 129.278 619.515C147.396 625.856 166.837 626.682 185.379 621.901C203.921 617.12 220.815 606.923 234.13 592.477C247.446 578.031 256.645 559.918 260.676 540.21C264.706 520.501 263.407 499.992 256.925 481.027C250.443 462.062 239.041 445.406 224.022 432.964C233.172 411.792 29.9277 402.213 32.617 413.926Z" fill="black"/>
</g>
<g opacity="0.95">
<path opacity="0.1" d="M678.053 701.305C625.837 701.305 583.508 689.43 583.508 674.783C583.508 660.135 625.837 648.261 678.053 648.261C730.269 648.261 772.598 660.135 772.598 674.783C772.598 689.43 730.269 701.305 678.053 701.305Z" fill="#6C63FF"/>
<path d="M577.136 615.124C578.949 611.221 582.961 609.287 586.702 607.764C590.443 606.24 594.416 604.777 598.35 603.484C593.568 598.726 589.78 592.829 586.339 586.813C584.372 583.39 582.482 579.804 581.541 575.884C580.6 571.965 580.693 567.574 582.559 564.065C584.773 559.898 589.155 557.57 593.521 556.988C597.888 556.406 602.285 557.304 606.589 558.254C609.675 558.939 612.76 559.652 615.846 560.394C614.041 559.426 612.282 558.355 610.577 557.185C604.221 552.811 598.636 547.214 593.336 541.378C591.662 539.529 589.888 537.355 589.934 534.745C589.98 532.332 591.67 530.218 593.706 529.311C595.798 528.519 598.053 528.421 600.194 529.028C603.094 529.714 605.837 531.047 608.257 532.946C610.678 534.846 612.724 537.272 614.272 540.077C615.337 542.045 616.17 544.227 617.643 545.854C619.395 547.779 622.164 548.541 624.108 546.572C624.782 545.738 625.273 544.742 625.543 543.663L625.443 543.517C621.585 537.295 621.3 528.857 623.846 521.848C625.782 516.499 629.13 511.989 632.493 507.521C629.482 505.169 626.2 503.275 622.735 501.89C621.777 501.584 620.869 501.113 620.043 500.495C618.399 499.1 617.898 496.601 617.867 494.316C617.836 492.031 618.16 489.78 617.728 487.581C615.656 488.301 613.497 488.668 611.326 488.668C607.246 488.677 603.252 487.372 599.828 484.911C596.404 482.45 593.699 478.938 592.04 474.803C588.222 473.708 584.496 471.928 581.742 468.813C578.348 465.004 576.257 457.61 579.883 453.151C581.078 451.688 582.891 451.046 584.357 449.993C586.671 448.281 588.214 446.185 589.834 443.728C597 433.022 607.268 431.045 618.831 432.474C624.031 433.116 629.246 434.186 634.028 436.531C637.685 438.46 641.163 440.782 644.412 443.463C644.936 443.874 645.468 444.319 645.954 444.721C646.888 441.538 648.138 438.405 648.878 435.889C649.261 434.858 649.423 433.741 649.349 432.629C649.102 430.754 647.652 429.393 646.263 428.212L626.661 411.165C624.6 409.266 622.399 407.562 620.081 406.072C613.324 402.016 604.776 401.528 599.114 395.803C597.483 394.137 596.186 392.11 595.307 389.853C594.427 387.596 593.984 385.159 594.007 382.7C594.069 379.165 595.55 375.203 598.636 374.227C601.876 373.2 605.039 375.845 607.538 378.318C615.738 386.423 623.915 394.63 633.064 401.425C641.719 407.818 651.254 412.928 658.953 420.647C660.359 421.958 661.567 423.509 662.532 425.243C663.479 427.328 664.132 429.562 664.468 431.867L666.065 440.203C667.354 446.912 668.38 454.692 664.715 460.075C664.946 460.583 665.137 461.113 665.286 461.658C665.842 463.738 664.823 465.937 665.286 467.751C665.795 469.788 668.596 472.03 669.845 473.648C671.573 475.873 673.239 478.175 674.829 480.495C680.962 489.728 686.232 499.629 690.558 510.046C697.184 525.673 702.129 542.071 707.112 558.426C707.984 561.318 708.871 564.271 708.894 567.326C708.885 570.097 708.157 572.807 706.796 575.131C708.123 583.801 711.471 592.085 711.587 600.96L712.798 601.567C713.322 609.809 709.712 618.025 706.626 625.53C704.844 629.809 702.7 634.422 698.735 636.177C696.706 637.033 694.461 637.084 692.278 637.033C689.74 637.033 687.403 637.084 685.096 637.144H685.389C688.166 637.657 691.252 638.856 692.332 641.705C692.781 643.252 692.89 644.895 692.648 646.498C691.753 657.743 690.861 668.989 689.971 680.234C689.779 682.725 689.501 685.412 687.966 687.261C686.562 688.972 684.394 689.554 682.334 689.914C678.474 690.571 674.548 690.609 670.678 690.025C669.051 689.899 667.481 689.309 666.119 688.313C664.831 687.227 664.029 685.258 664.661 683.606C665.556 681.253 668.565 680.919 670.061 678.976C672.021 676.469 670.717 672.635 669.352 669.691C669.143 669.237 668.896 668.758 668.642 668.27C667.283 670.53 665.665 672.584 663.828 674.381C662.324 675.844 660.172 676.88 658.428 675.853C654.155 673.382 649.855 670.957 645.53 668.578L644.527 668.732C636.139 670.005 627.673 670.535 619.209 670.315C617.602 670.384 616 670.069 614.512 669.391C613.069 668.604 611.912 666.926 612.136 665.181C612.398 663.067 614.411 661.826 616.232 661.081C619.665 659.693 623.261 658.866 626.908 658.625C622.182 656.126 617.443 653.638 612.691 651.162C607.947 648.68 603.156 646.181 598.034 644.761C591.469 642.938 583.778 642.493 579.52 636.69C576.967 633.181 576.342 628.474 576.072 623.99C575.925 620.977 575.887 617.845 577.136 615.124ZM643.795 567.848C646.109 568.524 648.724 569.235 651.37 570.107C651.617 567.865 652.002 565.632 652.249 563.398C652.383 562.711 652.327 561.995 652.087 561.344C651.698 560.72 651.146 560.242 650.506 559.975L641.681 555.182C641.676 554.286 641.836 553.399 642.152 552.575C642.468 551.751 642.932 551.007 643.517 550.389C642.661 550.744 641.774 550.997 640.871 551.143C639.977 555.437 638.291 559.478 635.918 563.013C635.407 563.852 634.697 564.518 633.866 564.938L633.728 564.981C637.091 565.905 640.447 566.861 643.795 567.848Z" fill="url(#paint0_linear)"/>
<path d="M635.363 472.732C639.745 474.162 644.62 472.98 648.516 470.396C649.288 469.79 650.153 469.343 651.069 469.078C652.666 468.761 654.247 469.771 655.404 471.038C659.161 475.18 659.593 482.026 657.649 487.487C655.705 492.947 651.817 497.269 647.729 501.009C644.43 504.024 640.942 506.776 637.292 509.242C636.286 506.627 634.822 504.26 632.986 502.278C631.149 500.296 628.976 498.739 626.592 497.697C622.303 495.857 619.163 490.918 616.702 486.571C614.882 483.379 613.254 483.524 614.897 480.212C616.54 476.9 619.102 474.29 621.4 471.491C622.749 469.922 623.924 468.182 624.903 466.305C626.006 464.123 625.759 462.702 627.448 464.431C628.567 465.586 629.053 468.06 630.303 469.412C631.722 470.957 633.459 472.097 635.363 472.732Z" fill="#FABDBD"/>
<path d="M648.809 438.867C649.18 437.844 649.335 436.741 649.264 435.641C649.025 433.792 647.605 432.449 646.286 431.285L627.14 414.451C625.126 412.582 622.977 410.902 620.714 409.427C614.11 405.422 605.764 404.943 600.233 399.277C598.636 397.625 597.368 395.622 596.51 393.395C595.652 391.168 595.223 388.767 595.249 386.346C595.311 382.863 596.792 378.951 599.777 377.976C602.94 376.966 606.026 379.585 608.471 382.024C616.479 390.017 624.463 398.122 633.404 404.797C641.889 411.113 651.146 416.154 658.683 423.779C660.057 425.073 661.237 426.601 662.177 428.307C663.102 430.37 663.739 432.578 664.067 434.854L665.61 443.078C666.929 450.01 667.994 458.098 663.782 463.421C663.168 464.273 662.394 464.965 661.513 465.448C660.631 465.932 659.666 466.195 658.683 466.219C657.288 466.041 655.944 465.533 654.741 464.73C651.609 462.942 645.97 461.23 645.013 456.951C643.81 451.482 647.335 443.9 648.809 438.867Z" fill="#FABDBD"/>
<path d="M618.268 547.377C616.833 545.768 616.016 543.62 614.974 541.677C613.474 538.915 611.481 536.523 609.117 534.646C606.753 532.77 604.068 531.449 601.228 530.765C599.137 530.166 596.933 530.267 594.894 531.056C593.884 531.467 593 532.19 592.347 533.139C591.694 534.088 591.298 535.224 591.207 536.414C591.168 538.981 592.896 541.138 594.54 542.961C599.708 548.721 605.162 554.249 611.364 558.562C617.566 562.876 624.609 565.957 631.922 566.496C632.659 566.595 633.405 566.519 634.113 566.273C634.925 565.854 635.618 565.197 636.119 564.374C639.976 558.845 641.349 551.69 642.398 544.784C642.02 547.274 629.415 541.472 627.988 542.216C625.905 543.303 626.106 546.572 624.586 548.13C622.689 550.03 619.981 549.285 618.268 547.377Z" fill="#FABDBD"/>
<path d="M710.082 601.944C710.152 602.813 709.997 603.686 709.635 604.46C708.779 605.958 706.835 605.975 705.253 605.718C701.599 605.027 697.991 604.063 694.453 602.834L662.324 592.564C661.815 592.451 661.34 592.198 660.943 591.828C660.612 591.377 660.394 590.837 660.311 590.262C659.185 585.123 658.944 579.795 659.601 574.558C659.637 573.806 659.862 573.079 660.249 572.461C660.973 571.723 661.927 571.324 662.91 571.348C667.944 570.783 673.002 570.526 678.061 570.578C681.343 570.737 684.631 570.659 687.904 570.347C692.131 569.782 696.991 567.095 701.226 567.506C704.906 567.857 704.759 571.04 705.137 574.412C706.194 583.706 709.997 592.479 710.082 601.944Z" fill="#FABDBD"/>
<path d="M607.476 559.649C603.272 558.708 598.991 557.809 594.709 558.391C590.428 558.973 586.17 561.267 584.01 565.383C582.189 568.849 582.089 573.171 583.015 577.048C583.94 580.925 585.784 584.442 587.697 587.84C591.554 594.601 595.789 601.208 601.421 606.172C604.152 608.585 607.175 610.579 609.806 613.129C615.414 618.564 618.886 626.155 622.218 633.541C625.358 640.499 628.528 647.568 629.824 655.21C629.839 655.505 629.907 655.795 630.023 656.061C630.14 656.326 630.303 656.564 630.503 656.759C630.939 656.982 631.433 657.019 631.892 656.862L647.32 653.704C648.02 653.656 648.686 653.356 649.218 652.848C649.873 651.992 649.704 650.76 649.48 649.682C646.138 633.732 639.881 618.714 631.097 605.555C635.182 609.834 640.127 612.971 645.523 614.705C650.919 616.439 656.61 616.72 662.123 615.526C664.275 615.176 666.306 614.202 668.009 612.702C671.45 609.278 671.288 603.287 670.524 598.247C669.836 593.743 668.882 589.295 667.67 584.93C664.723 574.463 652.272 571.631 643.81 569.063C631.791 565.503 619.68 562.365 607.476 559.649Z" fill="#3F3D56"/>
<path opacity="0.1" d="M618.878 596.544C621.015 597.656 623.198 598.863 624.748 600.823C621.971 597.28 614.056 595.628 610.169 593.976C605.363 591.982 600.14 589.963 596.036 586.428C603.862 589.179 611.496 592.56 618.878 596.544Z" fill="black"/>
<path d="M668.811 669.742C670.154 672.643 671.419 676.426 669.506 678.908C668.025 680.825 665.086 681.15 664.206 683.478C663.597 685.104 664.376 687.047 665.633 688.125C666.959 689.112 668.492 689.701 670.084 689.837C673.865 690.412 677.7 690.374 681.47 689.725C683.484 689.374 685.598 688.775 686.971 687.107C688.475 685.284 688.737 682.631 688.93 680.174C689.799 669.077 690.668 657.977 691.537 646.874C691.78 645.29 691.677 643.664 691.237 642.133C690.195 639.309 687.187 638.136 684.471 637.632C681.426 637.067 678.329 636.929 675.253 637.221C673.178 637.418 670.987 637.871 669.452 639.429C667.724 641.14 667.176 643.896 666.729 646.446C666.027 650.4 664.06 655.861 664.476 659.9C664.816 663.135 667.5 666.824 668.811 669.742Z" fill="#6C63FF"/>
<path d="M634.252 658.976C628.394 658.122 622.436 658.865 616.895 661.141C615.113 661.877 613.154 663.092 612.892 665.181C612.676 666.892 613.81 668.604 615.206 669.34C616.671 670.012 618.25 670.325 619.834 670.256C628.113 670.504 636.396 670.015 644.605 668.792C646.718 668.476 648.909 668.073 650.637 666.687C652.365 665.3 653.445 662.639 652.527 660.508C651.54 658.231 648.84 657.512 647.544 655.441C646.603 653.944 646.371 651.753 644.898 650.965C643.856 650.409 642.583 650.829 641.534 651.248C639.991 651.856 636.219 652.463 635.132 653.901C634.638 654.509 634.214 658.967 634.252 658.976Z" fill="#6C63FF"/>
<path d="M612.097 490.944C600.747 490.944 591.546 480.737 591.546 468.145C591.546 455.554 600.747 445.346 612.097 445.346C623.447 445.346 632.647 455.554 632.647 468.145C632.647 480.737 623.447 490.944 612.097 490.944Z" fill="#FABDBD"/>
<path d="M660.866 458.089C657.557 455.41 653.391 454.495 649.364 453.647C647.983 453.356 646.456 453.091 645.237 453.878C644.368 454.569 643.684 455.506 643.254 456.591C641.999 458.817 641.069 461.249 640.5 463.797C640.069 466.365 640.5 469.258 642.113 471.132C643.332 472.535 645.083 473.229 646.332 474.555C648.06 476.446 648.562 479.39 648.176 482.043C647.677 484.685 646.752 487.204 645.445 489.481C642.422 495.372 638.981 500.987 635.155 506.272C631.166 511.783 626.669 517.072 624.355 523.636C621.871 530.56 622.125 538.887 625.898 545.032C629.67 551.177 637.268 554.446 643.548 551.827C642.976 552.439 642.522 553.173 642.213 553.985C641.904 554.797 641.746 555.67 641.75 556.551L650.359 561.361C650.985 561.628 651.523 562.099 651.902 562.713C652.135 563.357 652.189 564.063 652.056 564.741C651.632 568.627 650.768 572.504 651.007 576.415C651.246 580.326 652.859 584.442 656.045 586.137C658.984 587.703 662.447 586.873 665.641 586.137C673.106 584.467 680.698 583.587 688.313 583.509C692.093 583.509 696.027 583.612 699.498 581.986C701.84 580.841 703.834 578.97 705.242 576.599C706.65 574.228 707.412 571.457 707.436 568.618C707.436 565.606 706.549 562.696 705.693 559.837C700.856 543.688 696.004 527.496 689.493 512.074C685.274 501.797 680.125 492.022 674.127 482.899C672.584 480.583 670.961 478.321 669.259 476.113C668.048 474.529 665.309 472.304 664.816 470.293C664.368 468.487 665.363 466.331 664.816 464.302C664.132 461.816 662.748 459.638 660.866 458.089Z" fill="#6C63FF"/>
<path d="M711.263 602.44C702.252 597.827 693.227 593.206 683.854 589.603C676.911 586.958 669.251 584.904 662.47 587.891C660.449 588.747 658.613 590.099 656.639 591.16C650.074 594.695 642.568 595.208 635.309 596.107C619.162 598.107 603.294 602.274 588.052 608.516C584.395 610.014 580.477 611.94 578.71 615.782C577.491 618.435 577.522 621.559 577.7 624.529C577.97 628.953 578.579 633.609 581.071 637.067C585.198 642.801 592.711 643.229 599.122 645.034C604.097 646.438 608.772 648.903 613.408 651.35C628.412 659.284 643.417 667.217 658.151 675.827C659.886 676.845 662.008 675.827 663.45 674.38C667.955 669.964 670.964 663.888 672.707 657.504C674.451 651.119 674.952 644.401 675.06 637.743C680.815 637.743 685.497 637.452 691.26 637.469C693.389 637.469 695.587 637.469 697.562 636.613C701.419 634.901 703.533 630.314 705.276 626.104C708.269 618.649 711.779 610.536 711.263 602.44Z" fill="#3F3D56"/>
<path opacity="0.1" d="M606.574 626.155C610.639 623.964 615.337 623.904 619.858 623.956C622.612 623.896 625.365 624.125 628.081 624.64C632.324 625.548 636.181 627.816 640.123 629.656C649.724 634.12 660.045 636.368 670.455 636.262" fill="black"/>
<path d="M583.207 471.363C586.139 474.675 590.196 476.498 594.277 477.525C598.358 478.552 602.555 478.971 606.62 479.973C611.657 481.205 617.181 484.166 618.315 489.755C618.762 491.954 618.438 494.248 618.469 496.507C618.5 498.766 618.986 501.223 620.59 502.609C621.397 503.215 622.285 503.677 623.221 503.978C639.675 510.594 651.485 529.422 651.347 548.84C653.927 547.178 656.135 544.891 657.807 542.149C659.48 539.408 660.573 536.283 661.005 533.008C661.005 539.05 665.633 545.237 663.049 550.552C665.96 548.458 668.446 545.713 670.347 542.493C672.248 539.273 673.523 535.649 674.09 531.851C674.657 528.054 674.503 524.167 673.64 520.439C672.776 516.711 671.221 513.224 669.074 510.2C666.999 507.273 664.445 504.851 662.208 502.053C659.149 498.119 656.852 493.527 655.463 488.565C654.073 483.603 653.62 478.377 654.131 473.212C654.579 468.813 655.736 464.362 654.903 460.049C653.692 454.058 648.948 449.882 644.435 446.356C641.268 443.708 637.873 441.414 634.298 439.509C629.624 437.199 624.532 436.086 619.456 435.496C608.163 434.084 598.134 436.035 591.138 446.621C589.533 449.052 588.052 451.149 585.784 452.809C584.357 453.844 582.583 454.52 581.418 455.924C577.846 460.297 579.867 467.606 583.207 471.363Z" fill="#3F3D56"/>
</g>
<g opacity="0.55">
<path d="M1115.99 394.901L1108 406.06C1106.92 407.572 1105.35 408.641 1103.57 409.074C1101.79 409.507 1099.91 409.277 1098.28 408.425C1097.08 407.797 1096.06 406.858 1095.33 405.702C1094.59 404.545 1094.16 403.211 1094.09 401.832C1094.01 400.454 1094.29 399.079 1094.9 397.845C1095.5 396.611 1096.41 395.561 1097.53 394.799L1107.72 387.901L1136.85 358.061L1140.08 347.377H1162.02L1150.51 372.797L1115.99 394.901Z" fill="#FFB8B8"/>
<path d="M875.891 394.254C874.877 394.255 873.905 394.669 873.188 395.403C872.471 396.138 872.068 397.134 872.066 398.173V583.922C872.068 584.961 872.471 585.957 873.188 586.692C873.905 587.426 874.877 587.839 875.891 587.841H1120.7C1121.71 587.839 1122.68 587.426 1123.4 586.692C1124.12 585.957 1124.52 584.961 1124.52 583.922V398.173C1124.52 397.134 1124.12 396.138 1123.4 395.403C1122.68 394.669 1121.71 394.255 1120.7 394.254H875.891Z" fill="#E6E6E6"/>
<path d="M882.699 577.239H1113.89V404.855H882.699V577.239Z" fill="white"/>
<path d="M1081.3 454.211H942.066C940.747 454.211 939.482 454.748 938.55 455.703C937.617 456.658 937.093 457.954 937.093 459.305C937.093 460.656 937.617 461.952 938.55 462.908C939.482 463.863 940.747 464.4 942.066 464.4H1081.3C1082.62 464.4 1083.88 463.863 1084.82 462.908C1085.75 461.952 1086.27 460.656 1086.27 459.305C1086.27 457.954 1085.75 456.658 1084.82 455.703C1083.88 454.748 1082.62 454.211 1081.3 454.211Z" fill="#E6E6E6"/>
<path d="M942.066 485.561C940.747 485.561 939.482 486.098 938.55 487.053C937.617 488.009 937.093 489.304 937.093 490.655C937.093 492.007 937.617 493.302 938.55 494.258C939.482 495.213 940.747 495.75 942.066 495.75H1081.3C1082.62 495.75 1083.88 495.213 1084.82 494.258C1085.75 493.302 1086.27 492.007 1086.27 490.655C1086.27 489.304 1085.75 488.009 1084.82 487.053C1083.88 486.098 1082.62 485.561 1081.3 485.561H942.066Z" fill="#E6E6E6"/>
<path d="M942.066 516.911C940.748 516.913 939.485 517.45 938.554 518.406C937.623 519.361 937.1 520.656 937.1 522.005C937.1 523.355 937.623 524.65 938.554 525.605C939.485 526.561 940.748 527.098 942.066 527.1H1081.3C1082.62 527.098 1083.88 526.561 1084.81 525.605C1085.74 524.65 1086.27 523.355 1086.27 522.005C1086.27 520.656 1085.74 519.361 1084.81 518.406C1083.88 517.45 1082.62 516.913 1081.3 516.911H942.066Z" fill="#E6E6E6"/>
<path d="M915.673 465.967C919.053 465.967 921.793 463.16 921.793 459.697C921.793 456.234 919.053 453.427 915.673 453.427C912.292 453.427 909.552 456.234 909.552 459.697C909.552 463.16 912.292 465.967 915.673 465.967Z" fill="#6C63FF"/>
<path d="M915.673 497.317C919.053 497.317 921.793 494.51 921.793 491.047C921.793 487.585 919.053 484.777 915.673 484.777C912.292 484.777 909.552 487.585 909.552 491.047C909.552 494.51 912.292 497.317 915.673 497.317Z" fill="#E6E6E6"/>
<path d="M915.673 528.668C919.053 528.668 921.793 525.86 921.793 522.397C921.793 518.935 919.053 516.127 915.673 516.127C912.292 516.127 909.552 518.935 909.552 522.397C909.552 525.86 912.292 528.668 915.673 528.668Z" fill="#E6E6E6"/>
<path d="M1025.84 459.305C1025.84 460.656 1025.31 461.952 1024.38 462.908C1023.45 463.863 1022.18 464.4 1020.86 464.4H942.245C941.017 464.418 939.823 463.981 938.885 463.17C937.946 462.358 937.325 461.226 937.136 459.982C937.044 459.263 937.102 458.531 937.307 457.836C937.512 457.142 937.86 456.5 938.326 455.954C938.793 455.407 939.368 454.969 940.012 454.669C940.657 454.368 941.357 454.212 942.066 454.211H1020.86C1021.52 454.211 1022.16 454.343 1022.77 454.599C1023.37 454.855 1023.92 455.23 1024.38 455.703C1024.84 456.176 1025.21 456.738 1025.46 457.356C1025.71 457.974 1025.84 458.636 1025.84 459.305Z" fill="#6C63FF"/>
<path d="M998.295 372.309C1009.28 372.309 1018.19 363.186 1018.19 351.931C1018.19 340.677 1009.28 331.554 998.295 331.554C987.31 331.554 978.404 340.677 978.404 351.931C978.404 363.186 987.31 372.309 998.295 372.309Z" fill="#E6E6E6"/>
<path d="M998.295 362.12C1003.79 362.12 1008.24 357.559 1008.24 351.931C1008.24 346.304 1003.79 341.743 998.295 341.743C992.802 341.743 988.35 346.304 988.35 351.931C988.35 357.559 992.802 362.12 998.295 362.12Z" fill="white"/>
<path d="M1220.27 556.997L1210.21 561.786L1194.91 532.002C1185.46 517.177 1179.29 499.412 1174.97 480.001L1190.79 481.106C1200.21 494.88 1207.19 508.69 1209.44 522.57L1220.27 556.997Z" fill="#FFB8B8"/>
<path d="M1194.02 484.791H1173.89V449.055L1190.07 446.108L1194.02 484.791Z" fill="#2F2E41"/>
<path d="M1168.15 349.989C1158.33 348.073 1148.3 347.685 1138.37 348.84L1144.19 319.103C1144.75 316.253 1146.17 313.653 1148.24 311.669C1150.31 309.685 1152.94 308.416 1155.76 308.04C1157.8 307.767 1159.87 307.973 1161.82 308.643C1163.77 309.312 1165.55 310.426 1167.02 311.902C1168.49 313.378 1169.61 315.177 1170.3 317.163C1171 319.148 1171.24 321.269 1171.01 323.364L1168.15 349.989Z" fill="#6C63FF"/>
<path d="M1153.93 288.986C1163.26 288.986 1170.83 281.234 1170.83 271.671C1170.83 262.108 1163.26 254.356 1153.93 254.356C1144.6 254.356 1137.03 262.108 1137.03 271.671C1137.03 281.234 1144.6 288.986 1153.93 288.986Z" fill="#FFB8B8"/>
<path d="M1180 291.749L1157.7 307.958L1151.77 279.039L1168.49 272.224C1169.17 279.805 1173.17 286.259 1180 291.749Z" fill="#FFB8B8"/>
<path d="M1170.83 269.829C1169.58 267.19 1168.02 269.021 1166.63 272.24L1164.63 264.068L1162.24 263.251L1160.64 256.713C1153.33 254.923 1147.45 258.668 1139.9 262.829L1137.03 269.829C1135.88 267.425 1135.28 264.787 1135.26 262.111C1135.25 259.435 1135.82 256.79 1136.95 254.374C1138.07 251.958 1139.71 249.833 1141.75 248.158C1143.79 246.484 1146.17 245.302 1148.71 244.701C1149.96 244.413 1151.24 244.261 1152.53 244.248C1154.97 244.222 1157.39 244.702 1159.65 245.66C1161.9 246.617 1163.95 248.033 1165.66 249.82C1167.37 251.608 1168.7 253.731 1169.59 256.062C1170.48 258.393 1170.9 260.884 1170.82 263.385L1170.83 269.829Z" fill="#2F2E41"/>
<path d="M1223.19 571.124L1188.79 582.62C1187.62 582.876 1186.41 582.715 1185.34 582.165C1184.28 581.615 1183.43 580.709 1182.93 579.597C1182.42 578.448 1182.33 577.152 1182.66 575.937C1182.99 574.722 1183.73 573.666 1184.75 572.954C1191.53 568.195 1196.94 563.118 1199.42 557.365C1201.71 547.826 1204.3 547.804 1207.12 554.921C1214.89 559.632 1213.63 555.859 1218.48 549.997L1225.94 564.472C1226.26 565.084 1226.44 565.759 1226.46 566.45C1226.49 567.141 1226.37 567.829 1226.11 568.466C1225.85 569.103 1225.45 569.671 1224.94 570.131C1224.44 570.591 1223.84 570.93 1223.19 571.124Z" fill="#2F2E41"/>
<path d="M1141.88 579.469L1130.38 574.312L1134.5 544.11L1142.6 484.79L1164.54 487.738C1164.06 508.337 1159.07 528.563 1149.92 546.914L1141.88 579.469Z" fill="#FFB8B8"/>
<path d="M1179.28 494L1141.16 486.264L1151.23 432.109L1149.43 417.373H1199.42C1197.6 436.451 1188.9 464.618 1179.28 494Z" fill="#2F2E41"/>
<path d="M1201.22 422.531C1182.77 417.746 1164.62 417.069 1146.92 422.531C1143.61 387.578 1142.7 354.249 1145.59 323.495C1146.28 316.047 1149.79 309.174 1155.38 304.35L1176.4 286.223L1192.02 294.221C1194.03 295.253 1195.74 296.831 1196.94 298.782C1198.15 300.734 1198.81 302.985 1198.85 305.294C1202.26 351.791 1204.88 396.039 1201.22 422.531Z" fill="#6C63FF"/>
<path d="M1219.56 416.636L1222.7 427.908C1223.03 429.081 1223.11 430.311 1222.93 431.518C1222.76 432.725 1222.34 433.881 1221.7 434.909C1221.06 435.937 1220.22 436.814 1219.22 437.483C1218.22 438.151 1217.1 438.594 1215.92 438.785C1214.63 438.994 1213.31 438.891 1212.06 438.485C1210.82 438.079 1209.68 437.381 1208.74 436.446C1207.81 435.511 1207.1 434.365 1206.67 433.099C1206.24 431.834 1206.1 430.483 1206.27 429.155L1207.69 418.11L1200.14 362.113L1190.07 340.009L1210.21 330.799L1218.48 358.429L1219.56 416.636Z" fill="#FFB8B8"/>
<path d="M1138.21 588.84L1102.97 580.409C1101.85 580.009 1100.89 579.226 1100.26 578.19C1099.62 577.154 1099.35 575.928 1099.49 574.714C1099.64 573.462 1100.21 572.302 1101.11 571.439C1102.01 570.576 1103.18 570.065 1104.4 569.996C1112.62 569.527 1119.81 568.056 1124.84 564.451C1131.62 557.509 1133.85 558.866 1132.66 566.448C1136.92 574.604 1137.76 570.71 1144.87 568.266L1143.93 584.609C1143.89 585.3 1143.7 585.972 1143.37 586.578C1143.05 587.184 1142.6 587.709 1142.05 588.114C1141.5 588.519 1140.88 588.794 1140.21 588.92C1139.55 589.045 1138.87 589.018 1138.21 588.84Z" fill="#2F2E41"/>
<path d="M1213.44 333.378C1204.93 334.097 1195.64 339.15 1186.11 345.535L1178.81 316.145C1178.11 313.328 1178.28 310.357 1179.32 307.649C1180.35 304.942 1182.18 302.633 1184.56 301.047C1186.28 299.897 1188.24 299.164 1190.28 298.902C1192.33 298.641 1194.4 298.858 1196.35 299.537C1198.3 300.217 1200.07 301.341 1201.53 302.825C1202.99 304.309 1204.1 306.114 1204.79 308.103L1213.44 333.378Z" fill="#6C63FF"/>
<path d="M695.095 223.731C699.701 223.731 703.435 219.905 703.435 215.187C703.435 210.468 699.701 206.643 695.095 206.643C690.489 206.643 686.756 210.468 686.756 215.187C686.756 219.905 690.489 223.731 695.095 223.731Z" fill="white"/>
<path d="M708.742 236.935C708.745 238.285 708.433 239.616 707.832 240.818H682.358C681.709 239.516 681.397 238.064 681.453 236.603C681.508 235.141 681.928 233.719 682.674 232.472C683.42 231.224 684.465 230.194 685.711 229.48C686.957 228.765 688.361 228.39 689.788 228.391H700.402C701.498 228.39 702.582 228.611 703.595 229.04C704.607 229.469 705.526 230.098 706.301 230.892C707.075 231.685 707.69 232.628 708.108 233.664C708.527 234.701 708.743 235.813 708.742 236.935Z" fill="white"/>
<path d="M1247.67 588.434H773.446V586.588H1248L1247.67 588.434Z" fill="#3F3D56"/>
</g>
<defs>
<linearGradient id="paint0_linear" x1="-25908.4" y1="203529" x2="-50194.9" y2="203529" gradientUnits="userSpaceOnUse">
<stop stop-color="#808080" stop-opacity="0.25"/>
<stop offset="0.54" stop-color="#808080" stop-opacity="0.12"/>
<stop offset="1" stop-color="#808080" stop-opacity="0.1"/>
</linearGradient>
</defs>
</svg>
