<svg width="706" height="437" viewBox="0 0 706 437" fill="none" xmlns="http://www.w3.org/2000/svg">
<g opacity="0.9">
<path d="M351.5 306C570.391 264.026 680.667 120.833 735 68H751.5V441H71.535C54.8932 451.197 38.6613 453.159 12 441H71.535C111.695 416.392 154.242 343.826 351.5 306Z" fill="#B6D3FF"/>
<path d="M351.5 306C570.391 264.026 680.667 120.833 735 68H751.5V441H71.535C54.8932 451.197 38.6613 453.159 12 441H71.535C111.695 416.392 154.242 343.826 351.5 306Z" fill="url(#paint0_linear)"/>
</g>
<g opacity="0.7">
<path d="M352.125 280.184C579.156 230.771 693.533 62.1977 749.886 0H767V439.112H61.749C44.4883 451.116 27.6527 453.425 0 439.112H61.749C103.402 410.143 147.531 324.714 352.125 280.184Z" fill="#7BAFFE"/>
<path d="M352.125 280.184C579.156 230.771 693.533 62.1977 749.886 0H767V439.112H61.749C44.4883 451.116 27.6527 453.425 0 439.112H61.749C103.402 410.143 147.531 324.714 352.125 280.184Z" fill="url(#paint1_linear)"/>
</g>
<defs>
<linearGradient id="paint0_linear" x1="381.75" y1="68" x2="382" y2="703" gradientUnits="userSpaceOnUse">
<stop stop-color="white" stop-opacity="0"/>
<stop offset="1" stop-color="white"/>
</linearGradient>
<linearGradient id="paint1_linear" x1="383.5" y1="-1.70065e-08" x2="383.834" y2="747.549" gradientUnits="userSpaceOnUse">
<stop stop-color="white" stop-opacity="0"/>
<stop offset="1" stop-color="white"/>
</linearGradient>
</defs>
</svg>
