<svg width="966" height="613" viewBox="0 0 966 613" fill="none" xmlns="http://www.w3.org/2000/svg">
<path d="M718.566 94.8733C520.439 176.89 260.166 -120.021 102.235 57.8009C-5.59784 179.214 -32.818 322.592 43.1343 465.139C147.777 661.532 401.751 628.991 616.313 557.133C811.113 491.894 1010.16 363.533 992.96 196.937C984.048 128.742 916.692 12.8564 718.566 94.8733Z" fill="#0019FD"/>
<path d="M718.566 94.8733C520.439 176.89 260.166 -120.021 102.235 57.8009C-5.59784 179.214 -32.818 322.592 43.1343 465.139C147.777 661.532 401.751 628.991 616.313 557.133C811.113 491.894 1010.16 363.533 992.96 196.937C984.048 128.742 916.692 12.8564 718.566 94.8733Z" fill="url(#paint0_linear)"/>
<path d="M307.884 434.013C302.909 454.142 285.474 466.721 285.474 466.721C285.474 466.721 276.107 446.665 281.082 426.536C286.058 406.406 303.492 393.827 303.492 393.827C303.492 393.827 312.859 413.884 307.884 434.013Z" fill="#0B0B0B"/>
<path d="M300.338 429.755C286.402 444.381 284.843 466.71 284.843 466.71C284.843 466.71 305.878 465.324 319.813 450.697C333.748 436.07 335.307 413.742 335.307 413.742C335.307 413.742 314.273 415.128 300.338 429.755Z" fill="#EEEEEE"/>
<path d="M317.813 460.828H263.303C257.324 460.828 252.478 465.977 252.478 472.329V483.757C252.478 490.11 257.324 495.259 263.303 495.259H317.813C323.792 495.259 328.639 490.11 328.639 483.757V472.329C328.639 465.977 323.792 460.828 317.813 460.828Z" fill="#77AC4D"/>
<g opacity="0.7">
<path opacity="0.7" d="M841.9 438.833V426.426H783.51V483.808C783.51 485.396 783.805 486.969 784.377 488.437C784.949 489.904 785.788 491.238 786.845 492.361C787.902 493.484 789.157 494.375 790.539 494.983C791.92 495.591 793.401 495.904 794.896 495.904H830.514C833.534 495.904 836.43 494.63 838.565 492.361C840.701 490.093 841.9 487.016 841.9 483.808V471.091C845.922 471.082 849.775 469.379 852.616 466.355C855.457 463.332 857.052 459.234 857.052 454.962C857.052 450.689 855.457 446.592 852.616 443.568C849.775 440.544 845.922 438.841 841.9 438.833ZM841.9 464.887V445.036C844.378 445.036 846.754 446.082 848.506 447.943C850.258 449.805 851.243 452.329 851.243 454.962C851.243 457.594 850.258 460.119 848.506 461.98C846.754 463.841 844.378 464.887 841.9 464.887Z" fill="url(#paint1_linear)"/>
</g>
<path d="M840.022 440.775C837.28 440.775 834.6 441.638 832.321 443.257C830.041 444.875 828.264 447.175 827.215 449.866C826.166 452.557 825.892 455.517 826.427 458.374C826.961 461.231 828.282 463.855 830.22 465.914C832.159 467.974 834.629 469.376 837.317 469.945C840.006 470.513 842.793 470.221 845.326 469.107C847.859 467.992 850.024 466.104 851.547 463.683C853.07 461.261 853.883 458.414 853.883 455.501C853.883 451.595 852.423 447.85 849.823 445.088C847.224 442.326 843.698 440.775 840.022 440.775ZM840.022 464.564C838.334 464.564 836.685 464.032 835.283 463.036C833.88 462.04 832.786 460.625 832.141 458.969C831.495 457.313 831.326 455.491 831.655 453.733C831.985 451.975 832.797 450.36 833.99 449.093C835.183 447.826 836.703 446.963 838.357 446.613C840.012 446.263 841.727 446.443 843.286 447.129C844.845 447.815 846.177 448.976 847.114 450.466C848.051 451.957 848.552 453.709 848.552 455.501C848.552 457.905 847.653 460.21 846.053 461.909C844.454 463.609 842.284 464.564 840.022 464.564Z" fill="#6C63FF"/>
<path opacity="0.1" d="M840.022 440.775C837.28 440.775 834.6 441.638 832.321 443.257C830.041 444.875 828.264 447.175 827.215 449.866C826.166 452.557 825.892 455.517 826.427 458.374C826.961 461.231 828.282 463.855 830.22 465.914C832.159 467.974 834.629 469.376 837.317 469.945C840.006 470.513 842.793 470.221 845.326 469.107C847.859 467.992 850.024 466.104 851.547 463.683C853.07 461.261 853.883 458.414 853.883 455.501C853.883 451.595 852.423 447.85 849.823 445.088C847.224 442.326 843.698 440.775 840.022 440.775ZM840.022 464.564C838.334 464.564 836.685 464.032 835.283 463.036C833.88 462.04 832.786 460.625 832.141 458.969C831.495 457.313 831.326 455.491 831.655 453.733C831.985 451.975 832.797 450.36 833.99 449.093C835.183 447.826 836.703 446.963 838.357 446.613C840.012 446.263 841.727 446.443 843.286 447.129C844.845 447.815 846.177 448.976 847.114 450.466C848.051 451.957 848.552 453.709 848.552 455.501C848.552 457.905 847.653 460.21 846.053 461.909C844.454 463.609 842.284 464.564 840.022 464.564Z" fill="black"/>
<path d="M786.709 429.447H840.022V485.505C840.022 487.462 839.29 489.338 837.987 490.722C836.685 492.106 834.918 492.883 833.076 492.883H793.654C791.812 492.883 790.045 492.106 788.743 490.722C787.44 489.338 786.709 487.462 786.709 485.505V429.447Z" fill="#7773AF"/>
<path d="M896 492.883H204V517.805H896V492.883Z" fill="#E0E0E0"/>
<g opacity="0.7">
<path opacity="0.7" d="M659.166 326.135C651.75 297.535 609.703 276.649 578.065 272.018C578.07 271.807 578.08 271.598 578.08 271.386V246.903C578.114 246.89 578.149 246.879 578.182 246.866V245.938C589.41 241.502 599.542 234.412 607.812 225.204C616.081 215.996 622.272 204.911 625.917 192.787C627.872 189.031 629.574 185.133 631.01 181.121C634.387 179.814 636.938 173.897 636.938 166.788C636.951 164.356 636.63 161.935 635.985 159.602C636.399 155.981 636.611 152.337 636.618 148.689C636.631 135.938 634.121 123.327 629.249 111.673C624.377 100.019 617.254 89.5843 608.34 81.045C608.605 79.5802 608.695 78.0858 608.608 76.5972C607.892 64.8463 596.078 56.863 585.006 56.329C587.93 52.804 589.853 48.4694 590.551 43.8292C591.248 39.1889 590.692 34.4336 588.946 30.1162C581.886 41.0438 567.392 42.2054 554.916 42.2913C560.299 40.0765 562.722 32.1524 559.591 27C546.552 45.5672 521.135 49.0054 505.627 65.2892C502.248 68.851 499.416 72.9539 497.235 77.4484C487.157 85.9784 479.02 96.8144 473.43 109.149C467.841 121.484 464.943 135 464.952 148.689C464.959 152.304 465.167 155.915 465.574 159.503C464.909 161.866 464.577 164.321 464.591 166.788C464.591 173.93 467.165 179.865 470.566 181.135C472.008 185.161 473.717 189.072 475.682 192.84C479.314 204.894 485.464 215.919 493.672 225.091C501.88 234.262 511.935 241.344 523.083 245.805V271.386C523.083 271.583 523.093 271.777 523.097 271.973C491.339 276.525 448.956 297.574 441.606 326.405C435.258 351.303 428.482 378.645 425.11 394.699C454.009 416.272 514.647 428.939 552.649 428.939C588.756 428.939 647.77 417.506 675.818 397.863C672.78 380.223 665.79 351.68 659.166 326.135Z" fill="url(#paint2_linear)"/>
</g>
<path d="M552.572 421.838C587.403 421.838 644.332 410.809 671.389 391.859C668.458 374.843 661.715 347.308 655.325 322.667C647.187 291.284 595.825 269.527 565.185 269.527H535.659C504.924 269.527 453.488 291.41 445.452 322.927C439.329 346.944 432.792 373.321 429.54 388.807C457.417 409.618 515.913 421.838 552.572 421.838Z" fill="#8DF409"/>
<path d="M550.774 239.458C596.503 239.458 633.574 200.074 633.574 151.491C633.574 102.908 596.503 63.5238 550.774 63.5238C505.045 63.5238 467.974 102.908 467.974 151.491C467.974 200.074 505.045 239.458 550.774 239.458Z" fill="#72351C"/>
<path opacity="0.1" d="M524.05 224.76H577.105V269.852C577.105 277.326 574.31 284.495 569.335 289.78C564.36 295.065 557.613 298.034 550.577 298.034H550.577C543.542 298.034 536.795 295.065 531.82 289.78C526.845 284.495 524.05 277.326 524.05 269.852V224.76H524.05Z" fill="black"/>
<path d="M531.66 222.672H569.495C571.513 222.672 573.449 223.524 574.876 225.04C576.303 226.556 577.105 228.613 577.105 230.757V267.764C577.105 275.239 574.31 282.407 569.335 287.692C564.36 292.978 557.613 295.947 550.577 295.947C543.542 295.947 536.795 292.978 531.82 287.692C526.845 282.407 524.05 275.239 524.05 267.764V230.757C524.05 228.613 524.852 226.556 526.279 225.04C527.706 223.524 529.642 222.672 531.66 222.672Z" fill="#FFCDB6"/>
<path opacity="0.1" d="M524.148 246.043C541.247 252.83 560.069 252.885 577.203 246.198V239.274H524.148V246.043Z" fill="black"/>
<path d="M550.774 249.817C592.772 249.817 626.818 213.646 626.818 169.027C626.818 124.407 592.772 88.2365 550.774 88.2365C508.775 88.2365 474.729 124.407 474.729 169.027C474.729 213.646 508.775 249.817 550.774 249.817Z" fill="#FFCDB6"/>
<path opacity="0.1" d="M496.607 95.5393C496.607 95.5393 528.655 164.652 619.06 124.506L598.013 89.4411L560.704 75.212L496.607 95.5393Z" fill="black"/>
<path d="M496.607 94.5229C496.607 94.5229 528.655 163.636 619.06 123.489L598.013 88.4247L560.704 74.1956L496.607 94.5229Z" fill="#72351C"/>
<path d="M496.322 89.8537C498.483 82.7465 502.217 76.2938 507.211 71.0377C522.171 55.3292 546.69 52.0126 559.268 34.1015C562.288 39.0718 559.952 46.716 554.759 48.8525C566.793 48.7696 580.776 47.649 587.586 37.1075C589.27 41.2725 589.807 45.8597 589.134 50.336C588.462 54.8123 586.607 58.9937 583.785 62.3942C594.466 62.9093 605.863 70.6104 606.553 81.9461C607.013 89.4979 602.556 96.648 596.715 100.979C590.873 105.31 583.806 107.298 576.85 108.927C556.545 113.684 483.073 133.619 496.322 89.8537Z" fill="#72351C"/>
<path d="M626.816 169.734H624.8L585.577 206.831C547.789 188.028 520.045 206.831 520.045 206.831L478.909 171.258L474.761 171.812C475.323 193.016 483.713 213.134 498.117 227.823C512.522 242.511 531.787 250.591 551.752 250.318C571.716 250.046 590.779 241.441 604.823 226.364C618.868 211.287 626.767 190.946 626.816 169.734ZM550.659 221.06C535.865 221.06 523.872 217.875 523.872 213.946C523.872 210.016 535.865 206.831 550.659 206.831C565.452 206.831 577.445 210.016 577.445 213.946C577.445 217.875 565.452 221.06 550.659 221.06Z" fill="#72351C"/>
<path d="M474.699 183.041C478.606 183.041 481.773 176.732 481.773 168.95C481.773 161.167 478.606 154.858 474.699 154.858C470.792 154.858 467.625 161.167 467.625 168.95C467.625 176.732 470.792 183.041 474.699 183.041Z" fill="#FDA57D"/>
<path d="M626.808 183.041C630.715 183.041 633.882 176.732 633.882 168.95C633.882 161.167 630.715 154.858 626.808 154.858C622.902 154.858 619.735 161.167 619.735 168.95C619.735 176.732 622.902 183.041 626.808 183.041Z" fill="#FDA57D"/>
<g opacity="0.7">
<path opacity="0.7" d="M686.814 312.846H413.186C407.481 312.846 402.857 317.759 402.857 323.819V481.91C402.857 487.97 407.481 492.883 413.186 492.883H686.814C692.519 492.883 697.143 487.97 697.143 481.91V323.819C697.143 317.759 692.519 312.846 686.814 312.846Z" fill="url(#paint3_linear)"/>
</g>
<path d="M672.696 316.167H427.304C416.746 316.167 408.188 325.26 408.188 336.476V472.575C408.188 483.791 416.746 492.883 427.304 492.883H672.696C683.254 492.883 691.812 483.791 691.812 472.575V336.476C691.812 325.26 683.254 316.167 672.696 316.167Z" fill="#535461"/>
<path d="M550 414.721C555.3 414.721 559.596 410.156 559.596 404.525C559.596 398.895 555.3 394.33 550 394.33C544.7 394.33 540.404 398.895 540.404 404.525C540.404 410.156 544.7 414.721 550 414.721Z" fill="white"/>
<path d="M866.678 517.805H233.322V528H866.678V517.805Z" fill="#E0E0E0"/>
<path opacity="0.1" d="M866.678 517.805H233.322V521.203H866.678V517.805Z" fill="black"/>
<path opacity="0.1" d="M830.425 429.447V481.839C830.425 484.768 829.33 487.577 827.38 489.648C825.431 491.72 822.786 492.883 820.029 492.883H825.361C828.118 492.883 830.762 491.72 832.712 489.648C834.661 487.577 835.757 484.768 835.757 481.839V429.447H830.425Z" fill="black"/>
<path d="M797.229 387.22C796.33 387.384 795.316 387.641 794.875 388.49C794.176 389.837 795.443 391.355 796.599 392.281C798.736 393.991 800.988 395.67 802.44 398.057C803.892 400.443 804.348 403.773 802.761 406.061C800.688 409.047 795.743 409.689 795.264 413.365C794.957 415.724 796.877 417.738 798.823 418.922C803.625 421.844 809.815 422.624 813.294 427.197C814.733 424.054 817.951 422.237 821.16 421.461C824.368 420.685 827.701 420.743 830.954 420.216C832.004 420.046 833.187 419.705 833.656 418.693C834.565 416.733 831.974 414.381 832.868 412.413C833.549 410.915 835.549 411.032 837.009 410.432C839.387 409.455 840.368 406.204 839.693 403.592C839.018 400.98 837.111 398.939 835.107 397.265C829.704 392.755 823.208 390.103 816.638 388.195C813.582 387.308 809.995 385.916 806.821 385.782C803.757 385.652 800.262 386.669 797.229 387.22Z" fill="#EEEEEE"/>
<defs>
<linearGradient id="paint0_linear" x1="648.5" y1="-96.5" x2="356.861" y2="799.523" gradientUnits="userSpaceOnUse">
<stop stop-color="white"/>
<stop offset="1" stop-color="white" stop-opacity="0"/>
</linearGradient>
<linearGradient id="paint1_linear" x1="820.296" y1="495.904" x2="820.296" y2="426.426" gradientUnits="userSpaceOnUse">
<stop stop-color="#808080" stop-opacity="0.25"/>
<stop offset="0.53514" stop-color="#808080" stop-opacity="0.12"/>
<stop offset="1" stop-color="#808080" stop-opacity="0.1"/>
</linearGradient>
<linearGradient id="paint2_linear" x1="151013" y1="261330" x2="151013" y2="47857.7" gradientUnits="userSpaceOnUse">
<stop stop-color="#808080" stop-opacity="0.25"/>
<stop offset="0.53514" stop-color="#808080" stop-opacity="0.12"/>
<stop offset="1" stop-color="#808080" stop-opacity="0.1"/>
</linearGradient>
<linearGradient id="paint3_linear" x1="143344" y1="111144" x2="143344" y2="68313.8" gradientUnits="userSpaceOnUse">
<stop stop-color="#808080" stop-opacity="0.25"/>
<stop offset="0.53514" stop-color="#808080" stop-opacity="0.12"/>
<stop offset="1" stop-color="#808080" stop-opacity="0.1"/>
</linearGradient>
</defs>
</svg>
