<svg width="1057" height="284" viewBox="0 0 1057 284" fill="none" xmlns="http://www.w3.org/2000/svg">
<path fill-rule="evenodd" clip-rule="evenodd" d="M0 27.1794L24.9569 16.7878C50.6479 6.39621 100.562 -15.1292 151.21 16.7878C201.124 48.7048 251.772 134.064 301.685 150.394C352.333 166.724 402.981 113.281 452.895 107.343C503.543 102.147 553.457 145.198 604.105 150.394C654.019 155.59 704.667 123.673 755.315 118.477C805.229 113.281 855.876 134.064 905.79 166.724C956.438 198.641 1006.35 240.949 1032.04 262.475L1057 284H1032.04C1006.35 284 956.438 284 905.79 284C855.876 284 805.229 284 755.315 284C704.667 284 654.019 284 604.105 284C553.457 284 503.543 284 452.895 284C402.981 284 352.333 284 301.685 284C251.772 284 201.124 284 151.21 284C100.562 284 50.6479 284 24.9569 284H0V27.1794Z" fill="#0099FF"/>
<path fill-rule="evenodd" clip-rule="evenodd" d="M0 27.1794L24.9569 16.7878C50.6479 6.39621 100.562 -15.1292 151.21 16.7878C201.124 48.7048 251.772 134.064 301.685 150.394C352.333 166.724 402.981 113.281 452.895 107.343C503.543 102.147 553.457 145.198 604.105 150.394C654.019 155.59 704.667 123.673 755.315 118.477C805.229 113.281 855.876 134.064 905.79 166.724C956.438 198.641 1006.35 240.949 1032.04 262.475L1057 284H1032.04C1006.35 284 956.438 284 905.79 284C855.876 284 805.229 284 755.315 284C704.667 284 654.019 284 604.105 284C553.457 284 503.543 284 452.895 284C402.981 284 352.333 284 301.685 284C251.772 284 201.124 284 151.21 284C100.562 284 50.6479 284 24.9569 284H0V27.1794Z" fill="url(#paint0_linear)"/>
<defs>
<linearGradient id="paint0_linear" x1="-215.5" y1="-143.5" x2="376" y2="364" gradientUnits="userSpaceOnUse">
<stop stop-color="#E4D0D0"/>
<stop offset="1" stop-color="white" stop-opacity="0"/>
</linearGradient>
</defs>
</svg>
