<svg width="1139" height="372" viewBox="0 0 1139 372" fill="none" xmlns="http://www.w3.org/2000/svg">
<path fill-rule="evenodd" clip-rule="evenodd" d="M55 372L129.5 334C178.5 311 268.167 271.879 355.25 275.5C442.333 279.121 529.417 305.138 616.5 316C703.583 326.862 793.5 305 877.5 282.5C980.75 249.5 1066 120.579 1066 120.579L1139 0V372H1095.46C1051.92 372 964.833 372 877.75 372C790.667 372 703.583 372 616.5 372C529.417 372 442.333 372 355.25 372C268.167 372 181.083 372 137.542 372H94H55Z" fill="#0071BC"/>
<path d="M13.6773 291.471C13.6773 291.471 -36.8316 324.501 56.2759 375.352C56.2759 375.352 76.8054 334.076 54.1075 300.42C49.7053 293.86 43.2362 289.278 35.9256 287.541C28.615 285.805 20.9706 287.034 14.4407 290.998L13.6773 291.471Z" fill="#6C63FF"/>
<path d="M14.2612 290.775C14.2612 290.775 57.4822 326.621 56.2761 375.352" stroke="#535461" stroke-miterlimit="10"/>
<path d="M58.6241 377.23C58.6241 377.23 42.7972 318.986 61.5944 276.117C69.4855 258.128 72.103 237.928 68.459 218.402C66.7165 209.132 64.1932 200.054 60.9208 191.283" stroke="#535461" stroke-width="2" stroke-miterlimit="10"/>
<path d="M72.5905 164.227C72.5905 171.368 60.6642 192.041 60.6642 192.041C60.6642 192.041 48.7378 171.34 48.7378 164.227C48.701 162.504 48.9821 160.791 49.5647 159.188C50.1474 157.586 51.0197 156.125 52.1305 154.893C53.2413 153.661 54.5682 152.681 56.0331 152.013C57.4981 151.344 59.0715 151 60.661 151C62.2504 151 63.8238 151.344 65.2888 152.013C66.7537 152.681 68.0806 153.661 69.1914 154.893C70.3022 156.125 71.1746 157.586 71.7572 159.188C72.3398 160.791 72.6209 162.504 72.5841 164.227H72.5905Z" fill="#6C63FF"/>
<path d="M92.3244 203.765C88.7445 209.759 68.3562 220.106 68.3562 220.106C68.3562 220.106 68.7283 195.706 72.3081 189.712C74.064 186.928 76.7541 184.998 79.8043 184.334C82.8545 183.67 86.0235 184.324 88.6351 186.156C91.2467 187.989 93.0942 190.855 93.7834 194.144C94.4726 197.432 93.9491 200.882 92.3244 203.758V203.765Z" fill="#6C63FF"/>
<path d="M91.4583 271.333C85.5753 274.546 63.1597 272.327 63.1597 272.327C63.1597 272.327 74.8422 251.467 80.7252 248.254C83.5401 246.791 86.7721 246.582 89.7274 247.673C92.6826 248.764 95.1254 251.067 96.5313 254.088C97.9372 257.109 98.1941 260.608 97.2468 263.832C96.2995 267.056 94.2235 269.749 91.4647 271.333H91.4583Z" fill="#6C63FF"/>
<path d="M80.1865 322.296C74.8937 326.538 52.446 328.457 52.446 328.457C52.446 328.457 60.7091 305.76 66.0019 301.512C67.26 300.486 68.6929 299.741 70.2181 299.318C71.7433 298.896 73.3306 298.805 74.8884 299.051C76.4462 299.296 77.9437 299.874 79.2945 300.75C80.6454 301.626 81.8228 302.783 82.759 304.155C83.6951 305.527 84.3715 307.086 84.749 308.742C85.1266 310.399 85.1978 312.12 84.9587 313.806C84.7195 315.493 84.1747 317.111 83.3557 318.568C82.5366 320.025 81.4595 321.292 80.1865 322.296V322.296Z" fill="#6C63FF"/>
<path d="M43.3167 221.49C48.0385 226.461 70.0499 231.614 70.0499 231.614C70.0499 231.614 64.6609 207.923 59.9392 202.944C58.8254 201.714 57.4959 200.738 56.0289 200.073C54.5619 199.408 52.987 199.067 51.3969 199.072C49.8068 199.076 48.2335 199.425 46.7696 200.098C45.3058 200.771 43.9809 201.755 42.8728 202.991C41.7648 204.227 40.8961 205.691 40.3177 207.297C39.7393 208.902 39.4629 210.617 39.5049 212.34C39.5468 214.063 39.9063 215.759 40.562 217.329C41.2177 218.899 42.1565 220.311 43.3231 221.483L43.3167 221.49Z" fill="#6C63FF"/>
<path d="M30.8323 281.27C36.7153 284.482 59.1309 282.264 59.1309 282.264C59.1309 282.264 47.4484 261.403 41.5654 258.191C38.7505 256.727 35.5184 256.519 32.5632 257.61C29.6079 258.7 27.1651 261.004 25.7592 264.025C24.3533 267.046 24.0965 270.544 25.0438 273.769C25.9911 276.993 28.067 279.686 30.8259 281.27H30.8323Z" fill="#6C63FF"/>
<path d="M26.0527 341.182C31.3455 345.424 53.7932 347.343 53.7932 347.343C53.7932 347.343 45.5301 324.64 40.2309 320.398C37.6864 318.392 34.5134 317.557 31.4034 318.075C28.2934 318.593 25.4982 320.422 23.627 323.164C21.7558 325.906 20.96 329.338 21.4132 332.713C21.8664 336.088 23.5317 339.132 26.0463 341.182H26.0527Z" fill="#6C63FF"/>
<path opacity="0.25" d="M72.5905 164.227C72.5905 171.368 60.6642 192.041 60.6642 192.041C60.6642 192.041 48.7378 171.34 48.7378 164.227C48.701 162.504 48.9821 160.791 49.5647 159.188C50.1474 157.586 51.0197 156.125 52.1305 154.893C53.2413 153.661 54.5682 152.681 56.0331 152.013C57.4981 151.344 59.0715 151 60.661 151C62.2504 151 63.8238 151.344 65.2888 152.013C66.7537 152.681 68.0806 153.661 69.1914 154.893C70.3022 156.125 71.1746 157.586 71.7572 159.188C72.3398 160.791 72.6209 162.504 72.5841 164.227H72.5905Z" fill="black"/>
<path opacity="0.25" d="M92.3244 203.765C88.7445 209.759 68.3562 220.106 68.3562 220.106C68.3562 220.106 68.7283 195.706 72.3081 189.712C74.064 186.928 76.7541 184.998 79.8043 184.334C82.8545 183.67 86.0235 184.324 88.6351 186.156C91.2467 187.989 93.0942 190.855 93.7834 194.144C94.4726 197.432 93.9491 200.882 92.3244 203.758V203.765Z" fill="black"/>
<path opacity="0.25" d="M91.4583 271.333C85.5753 274.546 63.1597 272.327 63.1597 272.327C63.1597 272.327 74.8422 251.467 80.7252 248.254C83.5401 246.791 86.7721 246.582 89.7274 247.673C92.6826 248.764 95.1254 251.067 96.5313 254.088C97.9372 257.109 98.1941 260.608 97.2468 263.832C96.2995 267.056 94.2235 269.749 91.4647 271.333H91.4583Z" fill="black"/>
<path opacity="0.25" d="M80.1865 322.296C74.8937 326.538 52.446 328.457 52.446 328.457C52.446 328.457 60.7091 305.76 66.0019 301.512C67.26 300.486 68.6929 299.741 70.2181 299.318C71.7433 298.896 73.3306 298.805 74.8884 299.051C76.4462 299.296 77.9437 299.874 79.2945 300.75C80.6454 301.626 81.8228 302.783 82.759 304.155C83.6951 305.527 84.3715 307.086 84.749 308.742C85.1266 310.399 85.1978 312.12 84.9587 313.806C84.7195 315.493 84.1747 317.111 83.3557 318.568C82.5366 320.025 81.4595 321.292 80.1865 322.296V322.296Z" fill="black"/>
<path opacity="0.25" d="M43.3167 221.49C48.0385 226.461 70.0499 231.614 70.0499 231.614C70.0499 231.614 64.6609 207.923 59.9392 202.944C58.8254 201.714 57.4959 200.738 56.0289 200.073C54.5619 199.408 52.987 199.067 51.3969 199.072C49.8068 199.076 48.2335 199.425 46.7696 200.098C45.3058 200.771 43.9809 201.755 42.8728 202.991C41.7648 204.227 40.8961 205.691 40.3177 207.297C39.7393 208.902 39.4629 210.617 39.5049 212.34C39.5468 214.063 39.9063 215.759 40.562 217.329C41.2177 218.899 42.1565 220.311 43.3231 221.483L43.3167 221.49Z" fill="black"/>
<path opacity="0.25" d="M30.8323 281.27C36.7153 284.482 59.1309 282.264 59.1309 282.264C59.1309 282.264 47.4484 261.403 41.5654 258.191C38.7505 256.727 35.5184 256.519 32.5632 257.61C29.6079 258.7 27.1651 261.004 25.7592 264.025C24.3533 267.046 24.0965 270.544 25.0438 273.769C25.9911 276.993 28.067 279.686 30.8259 281.27H30.8323Z" fill="black"/>
<path opacity="0.25" d="M26.0527 341.182C31.3455 345.424 53.7932 347.343 53.7932 347.343C53.7932 347.343 45.5301 324.64 40.2309 320.398C37.6864 318.392 34.5134 317.557 31.4034 318.075C28.2934 318.593 25.4982 320.422 23.627 323.164C21.7558 325.906 20.96 329.338 21.4132 332.713C21.8664 336.088 23.5317 339.132 26.0463 341.182H26.0527Z" fill="black"/>
<path d="M1000.19 371.963C1000.19 371.963 975.515 281.864 1004.82 215.548C1017.12 187.72 1021.2 156.472 1015.52 126.267C1012.8 111.926 1008.87 97.8833 1003.77 84.3153" stroke="#535461" stroke-width="2" stroke-miterlimit="10"/>
<path d="M1022 42.4606C1022 53.5079 1003.41 85.4878 1003.41 85.4878C1003.41 85.4878 984.816 53.4648 984.816 42.4606C984.758 39.7963 985.196 37.1465 986.104 34.6669C987.013 32.1873 988.372 29.9281 990.104 28.0219C991.835 26.1157 993.904 24.601 996.187 23.5668C998.47 22.5327 1000.92 22 1003.4 22C1005.88 22 1008.33 22.5327 1010.61 23.5668C1012.9 24.601 1014.97 26.1157 1016.7 28.0219C1018.43 29.9281 1019.79 32.1873 1020.7 34.6669C1021.6 37.1465 1022.04 39.7963 1021.99 42.4606H1022Z" fill="#6C63FF"/>
<path d="M1052.72 103.624C1047.14 112.896 1015.36 128.902 1015.36 128.902C1015.36 128.902 1015.94 91.1566 1021.52 81.8843C1022.81 79.6087 1024.52 77.635 1026.53 76.0795C1028.55 74.524 1030.83 73.4181 1033.25 72.827C1035.67 72.2358 1038.17 72.1714 1040.62 72.6376C1043.06 73.1037 1045.39 74.0909 1047.47 75.541C1049.56 76.9912 1051.35 78.875 1052.74 81.0814C1054.14 83.2878 1055.11 85.7721 1055.6 88.3882C1056.08 91.0042 1056.08 93.699 1055.59 96.3137C1055.09 98.9285 1054.12 101.41 1052.72 103.613V103.624Z" fill="#6C63FF"/>
<path d="M1051.38 208.148C1042.21 213.117 1007.27 209.686 1007.27 209.686C1007.27 209.686 1025.48 177.415 1034.65 172.446C1039.03 170.182 1044.07 169.859 1048.68 171.547C1053.28 173.234 1057.09 176.797 1059.28 181.471C1061.47 186.145 1061.88 191.556 1060.4 196.544C1058.92 201.532 1055.69 205.698 1051.39 208.148H1051.38Z" fill="#6C63FF"/>
<path d="M1033.81 286.984C1025.56 293.546 990.566 296.515 990.566 296.515C990.566 296.515 1003.45 261.404 1011.7 254.832C1015.66 251.728 1020.61 250.437 1025.46 251.238C1030.3 252.04 1034.66 254.87 1037.58 259.111C1040.49 263.353 1041.73 268.662 1041.03 273.883C1040.32 279.104 1037.73 283.813 1033.81 286.984V286.984Z" fill="#6C63FF"/>
<path d="M976.326 131.011C983.686 138.702 1018 146.672 1018 146.672C1018 146.672 1009.6 110.024 1002.24 102.322C998.699 98.6263 993.942 96.593 989.012 96.6697C984.082 96.7464 979.382 98.9266 975.946 102.731C972.51 106.535 970.62 111.652 970.691 116.955C970.762 122.259 972.789 127.315 976.326 131.011V131.011Z" fill="#6C63FF"/>
<path d="M956.906 223.519C966.076 228.489 1001.02 225.057 1001.02 225.057C1001.02 225.057 982.806 192.787 973.636 187.817C969.252 185.588 964.232 185.289 959.647 186.985C955.061 188.681 951.273 192.237 949.09 196.895C946.908 201.552 946.503 206.943 947.963 211.917C949.424 216.891 952.633 221.054 956.906 223.519V223.519Z" fill="#6C63FF"/>
<path d="M949.416 316.2C957.666 322.761 992.656 325.73 992.656 325.73C992.656 325.73 979.776 290.62 971.526 284.048C967.559 280.944 962.614 279.652 957.766 280.454C952.918 281.255 948.561 284.085 945.645 288.326C942.728 292.568 941.488 297.878 942.194 303.098C942.9 308.319 945.496 313.028 949.416 316.2V316.2Z" fill="#6C63FF"/>
<path d="M888.5 372.196C888.5 372.196 875.24 323.79 890.99 288.142C897.682 273.241 899.7 256.407 896.74 240.167C895.28 232.471 893.168 224.935 890.43 217.653" stroke="#535461" stroke-width="2" stroke-miterlimit="10"/>
<path d="M900.22 195.118C900.22 201.055 890.22 218.255 890.22 218.255C890.22 218.255 880.22 201.045 880.22 195.118C880.22 192.265 881.273 189.529 883.149 187.511C885.024 185.494 887.568 184.361 890.22 184.361C892.872 184.361 895.415 185.494 897.291 187.511C899.166 189.529 900.22 192.265 900.22 195.118Z" fill="#6C63FF"/>
<path d="M916.73 227.99C913.73 232.971 896.65 241.576 896.65 241.576C896.65 241.576 896.96 221.289 899.96 216.309C900.642 215.054 901.554 213.96 902.64 213.095C903.726 212.23 904.964 211.61 906.279 211.274C907.593 210.938 908.958 210.891 910.29 211.138C911.622 211.385 912.893 211.92 914.028 212.71C915.162 213.5 916.136 214.53 916.89 215.736C917.644 216.942 918.163 218.301 918.416 219.729C918.669 221.157 918.649 222.625 918.36 224.045C918.07 225.465 917.515 226.807 916.73 227.99V227.99Z" fill="#6C63FF"/>
<path d="M916.01 284.152C911.08 286.819 892.3 284.98 892.3 284.98C892.3 284.98 902.09 267.64 907.01 264.972C909.359 263.831 912.028 263.709 914.458 264.633C916.889 265.556 918.894 267.454 920.055 269.93C921.217 272.406 921.444 275.268 920.69 277.92C919.936 280.572 918.26 282.809 916.01 284.162V284.152Z" fill="#6C63FF"/>
<path d="M906.56 326.523C902.12 330.051 883.32 331.643 883.32 331.643C883.32 331.643 890.24 312.776 894.68 309.247C896.816 307.714 899.419 307.124 901.949 307.599C904.479 308.074 906.742 309.577 908.269 311.798C909.796 314.019 910.471 316.787 910.153 319.528C909.834 322.27 908.548 324.774 906.56 326.523V326.523Z" fill="#6C63FF"/>
<path d="M875.68 242.727C879.68 246.858 898.07 251.15 898.07 251.15C898.07 251.15 893.56 231.454 889.6 227.323C888.675 226.262 887.559 225.413 886.321 224.828C885.082 224.243 883.746 223.935 882.393 223.922C881.04 223.909 879.699 224.191 878.451 224.752C877.202 225.312 876.072 226.139 875.13 227.183C874.187 228.227 873.451 229.466 872.967 230.824C872.482 232.183 872.259 233.633 872.31 235.087C872.361 236.541 872.687 237.969 873.266 239.284C873.845 240.599 874.666 241.774 875.68 242.738V242.727Z" fill="#6C63FF"/>
<path d="M865.22 292.424C870.15 295.091 888.93 293.252 888.93 293.252C888.93 293.252 879.14 275.912 874.22 273.244C871.871 272.102 869.202 271.981 866.771 272.905C864.341 273.828 862.336 275.726 861.174 278.202C860.013 280.678 859.786 283.54 860.54 286.192C861.293 288.844 862.97 291.08 865.22 292.434V292.424Z" fill="#6C63FF"/>
<path d="M861.22 342.238C865.66 345.767 884.46 347.359 884.46 347.359C884.46 347.359 877.5 328.48 873.1 324.952C870.963 323.389 868.347 322.777 865.799 323.243C863.252 323.709 860.971 325.218 859.435 327.453C857.899 329.688 857.227 332.476 857.56 335.232C857.892 337.988 859.204 340.499 861.22 342.238V342.238Z" fill="#6C63FF"/>
</svg>
