<svg width="273" height="153" viewBox="0 0 273 153" fill="none" xmlns="http://www.w3.org/2000/svg">
<path d="M272.84 107.815C272.84 146.463 243.55 159.958 207.42 159.958C171.29 159.958 142 146.463 142 107.815C142 69.1667 207.42 20 207.42 20C207.42 20 272.84 69.1667 272.84 107.815Z" fill="#F1F4F6"/>
<path d="M205.037 154.046L205.706 121.701L233.59 81.6853L205.812 116.627L206.113 102.083L225.33 73.1321L206.192 98.2342L206.734 72.0768L227.312 49.0283L206.819 67.9638L207.158 20L205.031 83.495L205.205 80.8758L184.283 55.7543L204.87 85.9041L202.921 115.117L202.863 114.342L178.743 87.9054L202.79 117.081L202.546 120.735L202.502 120.79L202.522 121.09L197.576 195.206H204.184L204.977 156.924L228.965 127.819L205.037 154.046Z" fill="#ECEBEB"/>
<g opacity="0.4">
<path fill-rule="evenodd" clip-rule="evenodd" d="M7.01499 31.8796C20.1913 59.8162 35.5376 86.866 44.7537 117.41C44.3824 113.81 43.9885 110.213 43.5473 106.622C41.2094 87.5841 38.3026 68.6853 35.2489 49.8096C33.6939 40.1992 32.0485 30.6226 30.3614 21.0479C29.4544 15.905 28.5579 10.7595 27.6318 5.62193C27.4073 4.37658 27.2146 2.20256 26.9344 0C35.8906 37.1438 44.5278 74.3152 50.8454 112.351C51.6741 117.343 52.38 122.326 52.9581 127.301C53.1558 126.166 53.3506 125.031 53.5631 123.899C56.1198 110.333 59.9541 96.8752 64.5198 84.1898C66.7024 78.1245 69.2089 72.1912 72.1609 66.6621C74.0019 63.2159 78.3431 59.1195 80.0216 55.5895C70.8388 76.8764 67.5226 103.511 62.22 126.652C60.9261 132.3 59.6238 137.938 58.3475 143.586C66.3438 123.319 78.7504 106.668 96 99.4525C75.12 116.887 62.5962 147.421 54.1567 178.649C54.1292 179.019 54.096 179.39 54.0671 179.761C56.5511 173.804 59.6788 168.416 63.9184 164.643C72.9932 156.565 83.0591 158.918 91.8614 165.848C84.9529 160.298 72.468 165.352 66.6551 170.992C62.4939 175.03 58.9376 180.447 55.8494 185.732C55.1096 186.999 54.0995 188.477 53.0329 190.054C51.5379 202.321 49.1012 214.504 45.6508 226.59C46.2205 223.121 45.8089 217.573 45.9671 214.987C45.984 214.707 45.9981 214.426 46.0151 214.148C45.4906 216.794 44.9838 219.41 44.496 221.984C45.4659 217.072 45.9925 211.945 46.404 206.764C46.5099 204.538 46.6137 202.312 46.7224 200.086C46.6878 195.86 46.5501 191.619 46.3172 187.37C45.492 183.242 44.5673 179.347 43.8042 176.108C41.0534 164.42 37.0193 153.225 32.0548 142.779C27.5252 133.247 22.1029 124.614 15.8434 116.805C12.4689 112.596 8.93746 108.589 5.45569 104.526C4.19668 103.057 1.94626 99.4444 0 97.5612C14.1745 107.438 28.764 118.121 39.1045 134.034C37.8918 128.151 36.5753 122.351 35.1826 116.667C28.116 87.8295 19.1939 57.9437 7.01499 31.8796Z" fill="#DDE3E9"/>
</g>
</svg>
