<svg width="1395" height="900" viewBox="0 0 1395 900" fill="none" xmlns="http://www.w3.org/2000/svg">
<g opacity="0.8">
<path d="M347 98C363.5 40.5 308 10.6667 287 1.5L136 -47L-11.4999 1.5L-37.4999 908.5C133.167 949 527 1010.2 737 931C999.5 832 780.815 701.068 752.5 688C720 673 603.5 651.5 502.5 623.5C421.7 601.1 355.5 479.833 332.5 422C307.5 356 250.5 314.095 250.5 225C250.5 165 331.736 151.193 347 98Z" fill="#138EFF"/>
<path d="M347 98C363.5 40.5 308 10.6667 287 1.5L136 -47L-11.4999 1.5L-37.4999 908.5C133.167 949 527 1010.2 737 931C999.5 832 780.815 701.068 752.5 688C720 673 603.5 651.5 502.5 623.5C421.7 601.1 355.5 479.833 332.5 422C307.5 356 250.5 314.095 250.5 225C250.5 165 331.736 151.193 347 98Z" fill="url(#paint0_linear)"/>
<path d="M347 98C363.5 40.5 308 10.6667 287 1.5L136 -47L-11.4999 1.5L-37.4999 908.5C133.167 949 527 1010.2 737 931C999.5 832 780.815 701.068 752.5 688C720 673 603.5 651.5 502.5 623.5C421.7 601.1 355.5 479.833 332.5 422C307.5 356 250.5 314.095 250.5 225C250.5 165 331.736 151.193 347 98Z" fill="url(#paint1_linear)"/>
<path d="M1262 824.5C1295.83 837 1369 869.7 1391 900.5C1413 931.3 1314.17 862.667 1262 824.5Z" fill="#138EFF"/>
<path d="M1262 824.5C1295.83 837 1369 869.7 1391 900.5C1413 931.3 1314.17 862.667 1262 824.5Z" fill="url(#paint2_linear)"/>
<path d="M1262 824.5C1295.83 837 1369 869.7 1391 900.5C1413 931.3 1314.17 862.667 1262 824.5Z" fill="url(#paint3_linear)"/>
</g>
<defs>
<linearGradient id="paint0_linear" x1="362" y1="-181.5" x2="745" y2="1010.5" gradientUnits="userSpaceOnUse">
<stop stop-color="white"/>
<stop offset="1" stop-color="#1CEAA0" stop-opacity="0"/>
</linearGradient>
<linearGradient id="paint1_linear" x1="392" y1="635" x2="412.093" y2="969.474" gradientUnits="userSpaceOnUse">
<stop stop-color="white" stop-opacity="0"/>
<stop offset="1" stop-color="#CCEABE"/>
</linearGradient>
<linearGradient id="paint2_linear" x1="362" y1="-181.5" x2="745" y2="1010.5" gradientUnits="userSpaceOnUse">
<stop stop-color="white"/>
<stop offset="1" stop-color="#1CEAA0" stop-opacity="0"/>
</linearGradient>
<linearGradient id="paint3_linear" x1="392" y1="635" x2="412.093" y2="969.474" gradientUnits="userSpaceOnUse">
<stop stop-color="white" stop-opacity="0"/>
<stop offset="1" stop-color="#CCEABE"/>
</linearGradient>
</defs>
</svg>
