<svg width="763" height="472" viewBox="0 0 763 472" fill="none" xmlns="http://www.w3.org/2000/svg">
<path opacity="0.1" d="M754.912 436.99C751.951 445.257 748.306 453.189 744.025 460.679C742.017 464.251 739.814 467.678 737.43 470.94C737.408 470.973 737.384 471.003 737.357 471.03H0L0.0995215 470.94C0.763 470.354 4.65762 466.789 10.7152 460.679C15.061 456.303 20.5148 450.613 26.6387 443.768C76.7246 388.035 172.936 256.116 92.8074 135.267C18.3186 22.9237 98.5199 2.53711 151.426 0.157682C171.752 -0.743201 192.031 3.00718 211.046 11.1841C235.488 21.6927 280.16 37.8008 338.361 45.1868C340.271 45.4269 342.196 45.6671 344.146 45.8848C374.959 49.4342 405.98 50.0719 436.887 47.7914C437.796 47.7313 438.712 47.6562 439.634 47.5812C470.209 45.1523 500.551 39.8421 530.345 31.7058C532.276 31.1729 534.18 30.67 536.077 30.167C635.353 4.18095 726.874 92.7454 703.99 192.832C695.531 229.852 697.681 269.311 725.885 301.235C772.063 353.342 766.47 404.661 754.912 436.99Z" fill="#6B92F9"/>
<path d="M754.912 436.99C751.951 445.257 748.306 453.189 744.025 460.679C742.017 464.251 739.814 467.678 737.43 470.94H0.0996094C0.763088 470.354 4.65771 466.789 10.7153 460.679C15.061 456.303 20.5148 450.613 26.6387 443.768L104.352 425.603C105.356 425.369 106.379 425.251 107.404 425.25L190.253 425.115H190.339L231.375 425.055H231.468L266.101 425.01H288.772H311.994L407.15 424.86H407.303H414.674H427.625H443.794H448.093L464.435 424.65H469.836L517.367 424.575H532.548H539.846L594.749 424.492H611.097L663.1 424.41L706.996 424.35C708.218 424.35 709.437 424.514 710.625 424.838L754.912 436.99Z" fill="#454B69"/>
<path opacity="0.4" d="M10.7153 460.679H744.025C742.017 464.251 739.814 467.678 737.43 470.94H0.0996094C0.749818 470.317 4.64444 466.752 10.7153 460.679Z" fill="black"/>
<path d="M486.476 227.24L485.003 227.562L418.416 242.034C399.076 246.237 379.457 250.463 359.811 248.85C345.579 247.679 332.283 242.905 318.609 238.716C310.879 236.344 302.685 235.399 300.065 225.611C296.449 212.1 302.334 192.096 303.72 178.405C305.047 164.969 305.83 151.195 303.468 137.917C302.944 134.933 302.252 131.99 301.398 129.105C299.03 121.156 295.308 112.892 297.318 104.823C298.904 98.4199 303.74 93.8487 308.265 89.6152C317.129 81.3585 326.179 72.1035 329.696 59.7259C331.421 53.7211 331.746 47.2583 333.604 41.2985C337.127 29.9643 345.977 21.4899 355.823 17.0012C365.669 12.5126 376.497 11.5593 387.12 11.5593C396.499 11.5599 405.868 12.2645 415.165 13.6685C425.303 15.1698 435.534 17.6393 444.444 23.3289C453.355 29.0185 460.865 38.3411 462.942 49.7053C465.881 65.7759 457.72 82.8898 462.099 98.4949C464.302 106.384 469.398 112.757 472.934 119.977C475.817 126.018 477.597 132.653 478.167 139.487C478.737 146.322 478.086 153.216 476.251 159.76C472.018 174.599 461.655 189.611 466.963 204.001C470.34 213.151 478.965 218.037 484.976 225.288C485.511 225.938 486.011 226.589 486.476 227.24Z" fill="#454B69"/>
<path opacity="0.1" d="M485.003 225.348V227.562L418.416 242.034C399.076 246.238 379.457 250.463 359.811 248.85C345.579 247.679 332.283 242.905 318.609 238.716C310.879 236.345 302.686 235.399 300.065 225.611C296.449 212.1 302.334 192.096 303.721 178.405C305.047 164.969 325.476 115.917 323.114 102.638L445.194 108.643C446.017 115.977 478.282 152.787 476.271 159.82C472.038 174.659 461.675 189.672 466.983 204.061C470.366 213.211 478.992 218.097 485.003 225.348Z" fill="black"/>
<path d="M360.269 188.208C360.992 192.854 361.377 197.966 359.28 202.019C356.487 207.454 350.396 209.187 344.949 210.418L326.04 214.697C324.753 214.99 323.386 215.32 322.424 216.318C321.289 217.467 320.905 219.283 320.739 220.995C319.976 228.741 322.397 236.375 324.607 243.753C329.072 258.698 332.821 273.958 338.467 288.377C344.113 302.796 351.863 316.562 362.923 326.2C373.983 335.838 388.619 340.972 402.161 337.204C413.957 333.924 423.631 324.504 431.971 314.513C438.851 306.256 445.287 297.249 448.624 286.538C450.926 279.182 451.676 271.345 452.399 263.584C453.518 251.684 454.638 239.785 455.757 227.885C456.281 222.301 456.626 216.018 453.421 211.732C452.015 209.848 450.104 208.594 448.153 207.431C440.895 203.07 433.251 199.467 426.497 194.213C419.743 188.959 413.752 181.723 411.702 172.745C410.474 167.356 410.693 161.486 408.603 156.465C406.268 150.835 401.305 147.022 395.997 145.348C390.689 143.674 385.09 143.899 379.622 144.597C374.155 145.296 353.083 147.082 350.821 154.055C349.607 157.808 354.643 165.862 355.837 169.555C357.803 175.611 359.286 181.853 360.269 188.208Z" fill="#EFB7B9"/>
<path opacity="0.1" d="M360.269 188.208C360.992 192.854 361.377 197.966 359.28 202.019C356.487 207.454 350.396 209.187 344.949 210.418L326.04 214.697C324.753 214.99 323.386 215.32 322.424 216.318C321.289 217.467 320.905 219.283 320.739 220.995C319.976 228.741 322.397 236.375 324.607 243.753C329.072 258.698 332.821 273.958 338.467 288.377C344.113 302.796 351.863 316.562 362.923 326.2C373.983 335.838 388.619 340.972 402.161 337.204C413.957 333.924 423.631 324.504 431.971 314.513C438.851 306.256 445.287 297.249 448.624 286.538C450.926 279.182 451.676 271.345 452.399 263.584C453.518 251.684 454.638 239.785 455.757 227.885C456.281 222.301 456.626 216.018 453.421 211.732C452.015 209.848 450.104 208.594 448.153 207.431C440.895 203.07 433.251 199.467 426.497 194.213C419.743 188.959 413.752 181.723 411.702 172.745C410.474 167.356 410.693 161.486 408.603 156.465C406.268 150.835 401.305 147.022 395.997 145.348C390.689 143.674 385.09 143.899 379.622 144.597C374.155 145.296 353.083 147.082 350.821 154.055C349.607 157.808 354.643 165.862 355.837 169.555C357.803 175.611 359.286 181.853 360.269 188.208Z" fill="black"/>
<path d="M405.777 269.829L416.863 243.273C422.058 230.827 427.366 217.752 426.816 204.008C426.709 201.276 426.683 197.861 428.806 196.622C429.728 196.196 430.732 196.051 431.719 196.202C443.39 196.877 454.908 199.513 465.894 204.023C468.024 204.894 470.207 205.9 471.7 207.821C473.193 209.743 473.796 212.325 474.307 214.802C476.048 223.177 477.317 231.668 478.109 240.225C480.099 261.407 479.111 282.777 478.109 304.027L475.163 368.902C475.179 369.823 475.014 370.735 474.679 371.574C473.949 373.076 472.304 373.578 470.824 373.864C465.125 374.967 459.299 374.742 453.527 374.494C412.922 372.753 372.105 370.081 331.766 375.65C331.947 368.9 331.852 362.144 331.48 355.384C329.881 326.192 323.193 297.714 316.625 269.431C312.797 252.918 309.088 234.903 315.252 219.343C316.158 216.886 317.461 214.641 319.093 212.723C321.714 209.818 325.29 208.287 328.833 207.191C334.944 205.31 341.275 204.5 347.603 204.789L389.435 307.825C391.346 312.539 392.918 317.5 394.823 322.154C396.534 314.115 394.478 304.695 396.534 295.98C398.75 286.936 402.24 278.281 405.777 269.829Z" fill="white"/>
<path d="M401.404 340.724C408.888 341.257 416.16 336.919 421.309 330.786C426.457 324.654 429.854 316.877 432.727 309.018C436.857 297.816 440.14 286.238 442.54 274.408C444.53 264.35 445.944 253.939 444.57 243.745C442.673 229.671 435.633 216.881 434.432 202.71C434.227 200.233 434.359 197.335 436.118 195.842C437.206 194.918 438.639 194.791 439.992 194.701C452.505 193.86 466.253 194.018 475.946 203.002C478.899 205.735 481.294 209.15 484.18 211.965C491.054 218.72 500.767 222.158 505.179 231.128C506.718 234.25 507.455 237.786 508.53 241.148C511.064 249.105 515.45 256.1 519.809 262.984C515.582 283.16 510.726 303.351 506.499 323.528C504.025 335.365 501.53 347.247 497.642 358.581C495.094 366.012 491.89 373.593 492.672 381.55C492.984 384.68 493.907 387.675 494.709 390.692C497.524 401.283 498.842 412.31 498.617 423.366L309.3 423.892C318.37 409.18 321.031 391.135 320.108 373.233C319.664 364.654 317.952 356.022 314.137 348.598C308.126 336.964 297.55 329.382 287.127 322.89C279.829 318.386 271.993 343.727 264.104 340.822C265.378 330.628 265.962 291.282 265.431 281.021C265.259 277.658 264.993 274.205 265.909 270.993C266.533 268.793 267.68 266.827 268.457 264.687C271.568 256.123 268.603 245.172 273.632 237.883C277.108 232.817 283.206 231.375 288.162 228.253C293.251 225.04 297.185 219.996 301.617 215.688C310.314 207.333 320.94 201.966 332.243 200.218C335.541 206.102 337.545 212.794 338.089 219.733C338.427 224.094 338.182 228.516 338.719 232.854C339.455 238.731 341.605 244.248 343.735 249.683C352.606 272.344 361.509 295.072 372.749 316.352C375.927 322.357 379.384 328.362 383.988 333.038C388.593 337.714 395.221 341.054 401.404 340.724Z" fill="#6C63FF"/>
<path opacity="0.1" d="M401.404 340.724C408.888 341.257 416.16 336.919 421.309 330.786C426.457 324.654 429.854 316.877 432.727 309.018C436.857 297.816 440.14 286.238 442.54 274.408C444.53 264.35 445.944 253.939 444.57 243.745C442.673 229.671 435.633 216.881 434.432 202.71C434.227 200.233 434.359 197.335 436.118 195.842C437.206 194.918 438.639 194.791 439.992 194.701C452.505 193.86 466.253 194.018 475.946 203.002C478.899 205.735 481.294 209.15 484.18 211.965C491.054 218.72 500.767 222.158 505.179 231.128C506.718 234.25 507.455 237.786 508.53 241.148C511.064 249.105 515.45 256.1 519.809 262.984C515.582 283.16 510.726 303.351 506.499 323.528C504.025 335.365 501.53 347.247 497.642 358.581C495.094 366.012 491.89 373.593 492.672 381.55C492.984 384.68 493.907 387.675 494.709 390.692C497.524 401.283 498.842 412.31 498.617 423.366L309.3 423.892C318.37 409.18 321.031 391.135 320.108 373.233C319.664 364.654 317.952 356.022 314.137 348.598C308.126 336.964 297.55 329.382 287.127 322.89C279.829 318.386 271.993 343.727 264.104 340.822C265.378 330.628 265.962 291.282 265.431 281.021C265.259 277.658 264.993 274.205 265.909 270.993C266.533 268.793 267.68 266.827 268.457 264.687C271.568 256.123 268.603 245.172 273.632 237.883C277.108 232.817 283.206 231.375 288.162 228.253C293.251 225.04 297.185 219.996 301.617 215.688C310.314 207.333 320.94 201.966 332.243 200.218C335.541 206.102 337.545 212.794 338.089 219.733C338.427 224.094 338.182 228.516 338.719 232.854C339.455 238.731 341.605 244.248 343.735 249.683C352.606 272.344 361.509 295.072 372.749 316.352C375.927 322.357 379.384 328.362 383.988 333.038C388.593 337.714 395.221 341.054 401.404 340.724Z" fill="black"/>
<path d="M391.392 186.504C422.803 186.504 448.266 157.697 448.266 122.162C448.266 86.6265 422.803 57.8195 391.392 57.8195C359.982 57.8195 334.519 86.6265 334.519 122.162C334.519 157.697 359.982 186.504 391.392 186.504Z" fill="#EFB7B9"/>
<path d="M361.549 207.904C363.108 191.255 356.991 174.967 350.064 160.173C346.747 153.102 343.191 146.054 341.526 138.285C339.86 130.516 340.338 121.719 344.597 115.331C348.22 109.897 353.966 106.962 359.28 103.772C374.281 94.7645 387.996 81.5237 394.59 63.8168C390.862 66.1137 391.83 72.9668 395.121 75.9917C398.412 79.0167 402.897 79.6021 406.944 81.0433C421.7 86.2976 430.551 102.946 437.65 118.499C438.811 121.036 439.992 123.715 439.979 126.575C439.966 129.435 438.811 131.972 437.604 134.404C434.101 141.46 429.815 148.238 428.222 156.127C426.398 165.134 428.322 174.607 430.823 183.441C433.477 192.839 437 202.312 443.369 209.052C449.739 215.793 459.618 219.14 467.454 214.787C459.631 199.572 451.53 182.571 454.582 165.322C456.055 157.065 460.016 149.559 461.701 141.347C464.913 125.682 459.565 109.566 454.317 94.6143L438.632 49.9906C436.237 43.1676 433.51 35.8866 428.017 32.021C424.301 29.4164 419.803 28.7408 415.45 28.268C401.438 26.8568 386.921 27.3222 373.877 33.222C350.111 43.9632 335.209 70.4447 323.386 96.1306C319.843 103.824 316.346 111.998 316.492 120.676C316.572 125.434 317.746 130.066 318.702 134.704C322.59 153.59 322.802 173.158 323.001 192.546C323.154 207.423 322.47 221.445 316.718 234.993C324.6 236.765 336.032 241.546 343.834 238.048C354.006 233.5 360.269 219.486 361.549 207.904Z" fill="#454B69"/>
<g opacity="0.1">
<path opacity="0.1" d="M322.968 192.231C322.994 190.114 322.994 187.978 322.968 185.821C322.769 166.433 322.557 146.864 318.669 127.979C317.8 124.304 317.122 120.574 316.638 116.81C316.502 118.102 316.442 119.404 316.459 120.706C316.539 125.464 317.713 130.096 318.669 134.734C322.537 153.507 322.775 172.955 322.968 192.231Z" fill="black"/>
<path opacity="0.1" d="M461.701 141.347C462.572 136.962 462.863 132.454 462.564 127.971C462.433 130.201 462.145 132.415 461.701 134.592C460.016 142.849 456.055 150.287 454.582 158.566C453.947 162.218 453.769 165.952 454.051 169.66C454.157 168.204 454.334 166.756 454.582 165.322C456.055 157.043 460.016 149.574 461.701 141.347Z" fill="black"/>
<path opacity="0.1" d="M439.461 123.13C439.785 122.064 439.96 120.947 439.979 119.82C439.979 116.96 438.811 114.28 437.65 111.743C430.551 96.1906 421.727 79.5571 406.944 74.2878C402.897 72.8467 398.419 72.2612 395.121 69.2362C394.273 68.4095 393.578 67.3993 393.079 66.2651C392.58 65.1308 392.287 63.8953 392.215 62.6309C385.023 77.568 372.669 88.9923 359.28 97.0163C353.972 100.206 348.22 103.141 344.597 108.576C341.194 113.68 340.205 120.323 340.796 126.748C341.13 122.624 342.444 118.68 344.597 115.331C348.22 109.897 353.966 106.962 359.28 103.772C372.669 95.7478 385.023 84.3235 392.215 69.3863C392.287 70.6508 392.58 71.8863 393.079 73.0206C393.578 74.1548 394.273 75.165 395.121 75.9917C398.439 78.9941 402.897 79.6021 406.944 81.0433C421.7 86.2976 430.551 102.946 437.65 118.499C438.37 119.981 438.976 121.53 439.461 123.13Z" fill="black"/>
<path opacity="0.1" d="M443.369 202.297C437 195.541 433.49 186.084 430.823 176.686C429.223 171.407 428.154 165.94 427.638 160.39C427.021 168.099 428.713 175.988 430.823 183.441C433.477 192.839 437 202.312 443.369 209.052C449.739 215.793 459.618 219.14 467.454 214.787C466.511 212.963 465.576 211.109 464.647 209.24C457.369 211.559 449.009 208.257 443.369 202.297Z" fill="black"/>
<path opacity="0.1" d="M361.549 201.148C360.269 212.73 354.005 226.744 343.808 231.323C336.728 234.498 326.65 230.85 318.961 228.831C318.299 230.938 317.541 233.005 316.691 235.023C324.574 236.795 336.005 241.576 343.808 238.078C354.005 233.5 360.269 219.486 361.549 207.904C361.813 205.006 361.862 202.089 361.695 199.182C361.655 199.835 361.596 200.495 361.549 201.148Z" fill="black"/>
</g>
<path d="M441.943 387.255C431.692 385.416 421.289 381.865 411.124 384.252C405.233 385.633 399.845 388.951 394.949 392.959C397.642 395.399 400.787 397.575 402.499 400.968C403.562 403.316 404.36 405.804 404.874 408.377C405.949 412.88 407.031 417.474 407.197 422.158C407.362 426.842 406.533 431.721 404.065 435.496C416.989 436.937 429.516 433.334 442.122 429.814C443.564 429.528 444.936 428.901 446.149 427.975C448.14 426.204 448.724 423.051 448.737 420.176C448.737 415.042 447.463 410.036 446.169 405.111C444.63 399.204 443.489 393.124 441.943 387.255Z" fill="white"/>
<path d="M511.157 260.649C516.246 261.4 520.193 266.046 523.099 270.82C531.254 284.106 534.77 300.214 538.684 315.774C543.55 335.125 549.271 354.17 555.849 372.91C557.265 377.238 558.986 381.43 560.997 385.446C562.636 388.546 564.626 391.525 565.35 395.046C567.101 403.558 560.898 411.559 554.429 416.303C550.981 418.933 547.215 420.985 543.249 422.398C539.388 423.704 535.36 424.2 531.36 424.695L494.53 429.199C477.578 431.285 460.474 433.372 443.515 431.36C442.447 427.157 444.544 424.184 444.391 419.808C444.285 416.678 443.064 413.766 441.976 410.884C439.969 405.75 438.644 400.31 438.041 394.738C437.849 392.689 437.783 390.587 437.093 388.681C436.403 386.774 434.923 385.063 433.112 384.928C443.064 383.809 450.621 381.685 460.573 380.559C464.269 380.139 468.11 379.666 471.262 377.444C475.17 374.689 477.359 369.72 479.097 364.901C483.403 352.967 486.177 339.816 483.914 327.176C482.057 316.81 476.875 307.157 476.901 296.581C476.901 290.283 478.799 284.181 481.042 278.416C483.417 272.321 486.515 266.091 491.73 262.999C496.945 259.906 505.272 259.748 511.157 260.649Z" fill="#6C63FF"/>
<path opacity="0.08" d="M511.157 260.649C516.246 261.4 520.193 266.046 523.099 270.82C531.254 284.106 534.77 300.214 538.684 315.774C543.55 335.125 549.271 354.17 555.849 372.91C557.265 377.238 558.986 381.43 560.997 385.446C562.636 388.546 564.626 391.525 565.35 395.046C567.101 403.558 560.898 411.559 554.429 416.303C550.981 418.933 547.215 420.985 543.249 422.398C539.388 423.704 535.36 424.2 531.36 424.695L494.53 429.199C477.578 431.285 460.474 433.372 443.515 431.36C442.447 427.157 444.544 424.184 444.391 419.808C444.285 416.678 443.064 413.766 441.976 410.884C439.969 405.75 438.644 400.31 438.041 394.738C437.849 392.689 437.783 390.587 437.093 388.681C436.403 386.774 434.923 385.063 433.112 384.928C443.064 383.809 450.621 381.685 460.573 380.559C464.269 380.139 468.11 379.666 471.262 377.444C475.17 374.689 477.359 369.72 479.097 364.901C483.403 352.967 486.177 339.816 483.914 327.176C482.057 316.81 476.875 307.157 476.901 296.581C476.901 290.283 478.799 284.181 481.042 278.416C483.417 272.321 486.515 266.091 491.73 262.999C496.945 259.906 505.272 259.748 511.157 260.649Z" fill="black"/>
<path d="M280.525 250.899C282.934 244.428 285.382 237.748 285.448 230.73C285.521 223.141 282.794 215.935 280.711 208.729C278.135 199.913 276.419 190.804 275.596 181.565C275.425 180.68 275.543 179.755 275.927 178.96C276.478 178.082 277.54 177.902 278.475 177.669C283.066 176.483 286.536 172.287 289.403 168.061C293.849 161.535 297.604 154.441 300.589 146.924C302.785 141.392 305.757 134.644 311.118 134.592C308.96 146.061 306.285 157.397 303.104 168.557C308.71 166.936 314.038 164.579 319.644 162.957C320.742 162.565 321.891 162.392 323.041 162.447C326.398 162.845 328.455 167.986 326.504 171.101C329.245 174.734 333.803 175.71 337.385 178.202C340.968 180.694 343.543 186.864 340.358 189.994C339.734 190.602 338.945 191.03 338.493 191.811C336.954 194.498 340.723 197.583 340.411 200.766C340.159 203.37 337.206 204.586 334.97 203.896C332.734 203.205 330.99 201.313 328.999 199.925C327.009 198.536 324.408 197.673 322.477 199.114C321.96 206.177 321.402 213.376 318.702 219.809C317.713 222.158 316.446 224.357 315.65 226.797C314.888 229.457 314.416 232.212 314.243 235.001L311.835 259.914C300.343 262.518 290.04 258.623 280.525 250.899Z" fill="#EFB7B9"/>
<path d="M277.719 273.229L275.602 257.024C275.4 255.704 275.287 254.369 275.264 253.03C275.264 249.277 276.724 245.697 278.137 242.282C289.847 248.467 302.506 250.666 315.424 250.674C317.129 250.674 319.073 250.493 320.135 248.985C322.331 251.845 322.397 256.446 321.462 260.079C320.526 263.712 318.728 266.984 317.534 270.527C316.93 272.321 316.439 274.28 315.285 275.661C313.494 277.846 310.588 278.221 307.947 278.206C305.169 278.186 302.398 277.887 299.667 277.313C292.594 275.826 284.791 271.796 277.719 273.229Z" fill="white"/>
<path d="M321.396 272.569C312.306 271.398 303.276 269.747 294.306 267.615C289.907 266.571 285.468 265.408 280.983 265.611C278.064 265.746 274.926 266.406 272.358 264.77C274.859 274.4 275.012 284.549 272.02 293.999C270.248 299.628 267.548 304.875 266.247 310.67C263.54 322.792 267.256 336.01 263.872 347.915C263.514 349.471 262.811 350.897 261.828 352.058C260.793 353.132 259.38 353.687 258.425 354.851C257.018 356.562 256.932 359.137 256.925 361.471L256.866 382.15C256.826 395.316 256.978 409.277 263.122 420.431C270.129 433.192 284.878 439.805 297.716 435.924C301.13 434.937 304.327 433.166 307.111 430.722C311.569 426.714 314.409 420.919 317.189 415.275C320.506 408.519 323.824 401.614 324.892 394.01C325.648 388.628 325.224 383.134 324.68 377.722C321.681 347.697 315.172 317.928 316.572 287.791C316.782 282.282 318.464 276.974 321.396 272.569Z" fill="#6C63FF"/>
<path d="M359.386 397.17C354.775 397.47 350.131 397.77 345.539 397.17C342.222 396.72 338.984 395.796 335.693 395.166C326.706 393.524 317.511 394.101 308.74 396.858C299.968 399.615 291.828 404.487 284.878 411.139C282.33 413.601 279.756 417.376 281.162 420.822C282.675 424.53 287.299 424.425 290.862 423.734C287.016 425.812 283.62 428.817 280.91 432.539C279.915 433.912 278.973 435.541 279.165 437.32C279.57 441.036 284.028 441.711 287.326 441.388C286.251 442.694 286.974 445.006 288.341 445.892C289.708 446.778 291.406 446.598 292.952 446.275C296.37 445.567 299.672 444.273 302.745 442.439C302.121 444.278 303.203 446.432 304.736 447.348C306.268 448.264 308.133 448.196 309.851 447.881C317.959 446.38 324.726 440 332.635 437.493C345.281 433.492 358.51 439.872 371.654 440.323C375.767 440.465 379.987 439.992 383.736 438.071C388.334 435.706 392.043 431.27 396.899 429.694C402.293 427.952 408.484 429.957 413.42 426.947C417.009 424.762 413.772 407.926 412.856 404.684C411.177 398.754 409.492 394.821 403.899 394.22C389.747 392.651 373.644 396.239 359.386 397.17Z" fill="#EFB7B9"/>
<path d="M394.69 392.576C394.69 392.576 416.114 413.09 403.753 435.474L427.638 426.144V406.56C427.638 405.629 418.569 391.646 418.569 391.646L407.853 389.776L394.69 392.576Z" fill="white"/>
<path d="M170.375 391.308H178.409C182.808 391.308 187.027 393.285 190.138 396.804C193.249 400.323 194.996 405.096 194.996 410.073V437.928H153.788V410.073C153.788 407.609 154.217 405.169 155.05 402.892C155.884 400.615 157.106 398.546 158.646 396.804C160.186 395.061 162.015 393.679 164.027 392.736C166.039 391.793 168.196 391.308 170.375 391.308Z" fill="#C4E5D5"/>
<path opacity="0.1" d="M170.375 391.308H178.409C182.808 391.308 187.027 393.285 190.138 396.804C193.249 400.323 194.996 405.096 194.996 410.073V437.928H153.788V410.073C153.788 407.609 154.217 405.169 155.05 402.892C155.884 400.615 157.106 398.546 158.646 396.804C160.186 395.061 162.015 393.679 164.027 392.736C166.039 391.793 168.196 391.308 170.375 391.308Z" fill="#C4E5D5"/>
<path d="M172.743 401.561C174.564 401.561 176.041 399.891 176.041 397.831C176.041 395.77 174.564 394.1 172.743 394.1C170.922 394.1 169.446 395.77 169.446 397.831C169.446 399.891 170.922 401.561 172.743 401.561Z" fill="#3F3D56"/>
<path d="M172.743 396.9C174.564 396.9 176.041 395.23 176.041 393.169C176.041 391.109 174.564 389.439 172.743 389.439C170.922 389.439 169.446 391.109 169.446 393.169C169.446 395.23 170.922 396.9 172.743 396.9Z" fill="#3F3D56"/>
<path d="M172.743 392.238C174.564 392.238 176.041 390.568 176.041 388.508C176.041 386.448 174.564 384.777 172.743 384.777C170.922 384.777 169.446 386.448 169.446 388.508C169.446 390.568 170.922 392.238 172.743 392.238Z" fill="#3F3D56"/>
<path d="M172.743 387.577C174.564 387.577 176.041 385.907 176.041 383.847C176.041 381.786 174.564 380.116 172.743 380.116C170.922 380.116 169.446 381.786 169.446 383.847C169.446 385.907 170.922 387.577 172.743 387.577Z" fill="#3F3D56"/>
<path d="M172.743 382.916C174.564 382.916 176.041 381.246 176.041 379.185C176.041 377.125 174.564 375.455 172.743 375.455C170.922 375.455 169.446 377.125 169.446 379.185C169.446 381.246 170.922 382.916 172.743 382.916Z" fill="#3F3D56"/>
<path d="M172.743 378.255C174.564 378.255 176.041 376.584 176.041 374.524C176.041 372.464 174.564 370.794 172.743 370.794C170.922 370.794 169.446 372.464 169.446 374.524C169.446 376.584 170.922 378.255 172.743 378.255Z" fill="#3F3D56"/>
<path d="M172.743 373.586C174.564 373.586 176.041 371.916 176.041 369.855C176.041 367.795 174.564 366.125 172.743 366.125C170.922 366.125 169.446 367.795 169.446 369.855C169.446 371.916 170.922 373.586 172.743 373.586Z" fill="#3F3D56"/>
<path d="M177.693 375.455C179.514 375.455 180.99 373.785 180.99 371.724C180.99 369.664 179.514 367.994 177.693 367.994C175.872 367.994 174.395 369.664 174.395 371.724C174.395 373.785 175.872 375.455 177.693 375.455Z" fill="#3F3D56"/>
<path d="M180.99 373.586C182.811 373.586 184.288 371.916 184.288 369.855C184.288 367.795 182.811 366.125 180.99 366.125C179.169 366.125 177.693 367.795 177.693 369.855C177.693 371.916 179.169 373.586 180.99 373.586Z" fill="#3F3D56"/>
<path d="M184.288 371.724C186.109 371.724 187.585 370.054 187.585 367.994C187.585 365.934 186.109 364.263 184.288 364.263C182.467 364.263 180.99 365.934 180.99 367.994C180.99 370.054 182.467 371.724 184.288 371.724Z" fill="#3F3D56"/>
<path d="M172.743 368.925C174.564 368.925 176.041 367.254 176.041 365.194C176.041 363.134 174.564 361.464 172.743 361.464C170.922 361.464 169.446 363.134 169.446 365.194C169.446 367.254 170.922 368.925 172.743 368.925Z" fill="#3F3D56"/>
<path d="M172.743 364.263C174.564 364.263 176.041 362.593 176.041 360.533C176.041 358.472 174.564 356.802 172.743 356.802C170.922 356.802 169.446 358.472 169.446 360.533C169.446 362.593 170.922 364.263 172.743 364.263Z" fill="#3F3D56"/>
<path d="M172.743 359.602C174.564 359.602 176.041 357.932 176.041 355.871C176.041 353.811 174.564 352.141 172.743 352.141C170.922 352.141 169.446 353.811 169.446 355.871C169.446 357.932 170.922 359.602 172.743 359.602Z" fill="#3F3D56"/>
<path d="M172.743 354.941C174.564 354.941 176.041 353.271 176.041 351.21C176.041 349.15 174.564 347.48 172.743 347.48C170.922 347.48 169.446 349.15 169.446 351.21C169.446 353.271 170.922 354.941 172.743 354.941Z" fill="#3F3D56"/>
<path d="M186.438 339.178C185.615 339.313 184.792 339.411 183.969 339.471C184.734 338.716 185.444 337.892 186.093 337.009C185.636 335.441 184.964 333.964 184.102 332.633C183.285 333.152 182.381 333.474 181.448 333.578C180.632 333.713 179.809 333.811 178.987 333.879C180.068 332.88 181.077 331.379 182.138 330.126C179.76 327.687 176.713 326.247 173.507 326.047C170.302 325.847 167.134 326.899 164.533 329.027C161.932 331.155 160.056 334.23 159.22 337.737C158.384 341.243 158.639 344.968 159.942 348.287C161.244 351.606 163.515 354.318 166.375 355.969C169.234 357.619 172.508 358.107 175.648 357.352C178.788 356.597 181.603 354.644 183.621 351.82C185.64 348.997 186.74 345.474 186.736 341.843C186.736 340.929 186.665 340.017 186.524 339.118L186.438 339.178Z" fill="#DAFFED"/>
<path d="M197.431 357.711C196.59 358.296 195.641 358.653 194.658 358.754C193.842 358.889 193.019 358.994 192.196 359.054C193.071 358.167 193.887 357.209 194.638 356.187C192.65 355.6 190.54 355.874 188.721 356.954C186.901 358.034 185.503 359.843 184.8 362.027C184.097 364.211 184.139 366.613 184.919 368.764C185.698 370.915 187.158 372.659 189.014 373.657C190.87 374.654 192.988 374.832 194.954 374.157C196.92 373.482 198.592 372.001 199.645 370.005C200.697 368.009 201.053 365.64 200.644 363.362C200.235 361.084 199.089 359.061 197.431 357.688V357.711Z" fill="#DAFFED"/>
<path d="M167.8 375.455C169.622 375.455 171.098 373.785 171.098 371.724C171.098 369.664 169.622 367.994 167.8 367.994C165.979 367.994 164.503 369.664 164.503 371.724C164.503 373.785 165.979 375.455 167.8 375.455Z" fill="#3F3D56"/>
<path d="M164.503 373.586C166.324 373.586 167.8 371.916 167.8 369.855C167.8 367.795 166.324 366.125 164.503 366.125C162.682 366.125 161.205 367.795 161.205 369.855C161.205 371.916 162.682 373.586 164.503 373.586Z" fill="#3F3D56"/>
<path d="M161.205 371.724C163.026 371.724 164.503 370.054 164.503 367.994C164.503 365.934 163.026 364.263 161.205 364.263C159.384 364.263 157.908 365.934 157.908 367.994C157.908 370.054 159.384 371.724 161.205 371.724Z" fill="#3F3D56"/>
<path d="M148.062 357.711C148.903 358.296 149.852 358.653 150.835 358.754C151.651 358.889 152.474 358.994 153.297 359.054C152.42 358.169 151.604 357.21 150.855 356.187C152.843 355.6 154.953 355.874 156.772 356.954C158.592 358.034 159.99 359.843 160.693 362.027C161.396 364.211 161.354 366.613 160.574 368.764C159.795 370.915 158.335 372.659 156.479 373.657C154.623 374.654 152.505 374.832 150.539 374.157C148.573 373.482 146.901 372.001 145.848 370.005C144.796 368.009 144.44 365.64 144.849 363.362C145.258 361.084 146.404 359.061 148.062 357.688V357.711Z" fill="#DAFFED"/>
<path d="M170.375 394.07H178.409C182.809 394.07 187.027 396.047 190.138 399.566C193.249 403.085 194.996 407.858 194.996 412.835V437.508C194.996 438.352 194.7 439.161 194.172 439.758C193.645 440.355 192.929 440.69 192.183 440.69H156.581C155.835 440.69 155.119 440.355 154.592 439.758C154.064 439.161 153.768 438.352 153.768 437.508V412.835C153.768 410.369 154.198 407.927 155.032 405.649C155.867 403.371 157.091 401.301 158.633 399.558C160.175 397.816 162.006 396.434 164.021 395.492C166.036 394.55 168.195 394.067 170.375 394.07Z" fill="#DAFFED"/>
<g opacity="0.1">
<path opacity="0.1" d="M186.663 340.199C186.329 340.602 185.975 340.983 185.601 341.34C185.98 341.34 186.351 341.272 186.729 341.227C186.716 340.882 186.696 340.537 186.663 340.199Z" fill="black"/>
<path opacity="0.1" d="M180.652 335.74C181.481 335.68 182.297 335.582 183.12 335.447C183.858 335.342 184.579 335.119 185.263 334.787C184.927 334.036 184.541 333.316 184.109 332.633C183.696 332.917 183.249 333.132 182.782 333.271C182.131 334.157 181.419 334.982 180.652 335.74Z" fill="black"/>
<path opacity="0.1" d="M160.383 343.749C160.378 340.903 161.051 338.109 162.332 335.66C163.613 333.211 165.455 331.198 167.662 329.833C169.869 328.468 172.361 327.803 174.875 327.906C177.389 328.009 179.831 328.877 181.946 330.418L182.158 330.163C180.778 328.774 179.169 327.708 177.423 327.025C175.677 326.343 173.829 326.059 171.986 326.188C170.142 326.317 168.34 326.858 166.682 327.779C165.024 328.7 163.543 329.983 162.326 331.554C161.108 333.125 160.177 334.954 159.587 336.934C158.997 338.914 158.759 341.006 158.886 343.091C159.014 345.175 159.505 347.211 160.331 349.08C161.157 350.948 162.302 352.614 163.7 353.98C161.554 351.124 160.378 347.497 160.383 343.749Z" fill="black"/>
</g>
<g opacity="0.1">
<path opacity="0.1" d="M192.196 360.916C193.019 360.856 193.842 360.758 194.658 360.623C195.642 360.519 196.591 360.16 197.431 359.572C198.363 360.348 199.139 361.337 199.711 362.475C200.283 363.613 200.636 364.875 200.749 366.177C200.781 365.851 200.796 365.523 200.795 365.194C200.801 363.736 200.504 362.297 199.928 360.993C199.352 359.689 198.512 358.557 197.478 357.688C196.637 358.273 195.687 358.63 194.704 358.731L194.041 358.829C193.475 359.577 192.858 360.275 192.196 360.916Z" fill="black"/>
<path opacity="0.1" d="M192.528 357.733C192.803 357.737 193.078 357.759 193.351 357.801C193.782 357.283 194.207 356.727 194.638 356.187C193.418 355.818 192.14 355.772 190.902 356.052C189.664 356.332 188.499 356.931 187.499 357.802C186.498 358.673 185.688 359.792 185.131 361.074C184.574 362.356 184.286 363.766 184.288 365.194C184.288 365.509 184.288 365.817 184.327 366.125C184.531 363.825 185.483 361.692 186.999 360.142C188.514 358.591 190.485 357.733 192.528 357.733Z" fill="black"/>
</g>
<g opacity="0.1">
<path opacity="0.1" d="M153.297 360.916C152.474 360.856 151.651 360.758 150.835 360.623C149.851 360.519 148.902 360.16 148.062 359.572C147.13 360.348 146.353 361.337 145.782 362.475C145.21 363.613 144.857 364.875 144.744 366.177C144.712 365.851 144.697 365.523 144.698 365.194C144.692 363.736 144.989 362.297 145.565 360.993C146.141 359.689 146.981 358.557 148.015 357.688C148.856 358.273 149.805 358.63 150.789 358.731L151.452 358.829C152.015 359.581 152.632 360.279 153.297 360.916Z" fill="black"/>
<path opacity="0.1" d="M152.965 357.733C152.687 357.737 152.41 357.759 152.135 357.801C151.711 357.283 151.286 356.727 150.855 356.187C152.075 355.818 153.353 355.772 154.591 356.052C155.829 356.332 156.994 356.931 157.994 357.802C158.995 358.673 159.805 359.792 160.362 361.074C160.919 362.356 161.207 363.766 161.205 365.194C161.205 365.509 161.205 365.817 161.165 366.125C160.961 363.825 160.009 361.692 158.494 360.142C156.979 358.591 155.008 357.733 152.965 357.733Z" fill="black"/>
</g>
<path d="M130.606 449.713H65.784C65.0537 449.713 64.3533 449.385 63.837 448.8C63.3206 448.216 63.0305 447.424 63.0305 446.598V411.89C63.0304 411.364 63.1479 410.847 63.372 410.386C63.5961 409.926 63.9196 409.537 64.3123 409.256C64.705 408.975 65.1542 408.811 65.618 408.779C66.0818 408.748 66.5452 408.849 66.9649 409.075C85.5888 419.073 105.652 422.503 129.332 409.232C129.752 408.998 130.217 408.889 130.685 408.914C131.152 408.939 131.606 409.099 132.004 409.377C132.402 409.655 132.731 410.044 132.96 410.506C133.189 410.968 133.31 411.488 133.313 412.017V446.545C133.319 446.954 133.254 447.361 133.121 447.741C132.988 448.122 132.791 448.469 132.539 448.763C132.288 449.057 131.988 449.293 131.656 449.456C131.324 449.619 130.967 449.706 130.606 449.713Z" fill="#C4E5D5"/>
<path opacity="0.1" d="M130.606 449.713H65.784C65.0537 449.713 64.3533 449.385 63.837 448.8C63.3206 448.216 63.0305 447.424 63.0305 446.598V411.89C63.0304 411.364 63.1479 410.847 63.372 410.386C63.5961 409.926 63.9196 409.537 64.3123 409.256C64.705 408.975 65.1542 408.811 65.618 408.779C66.0818 408.748 66.5452 408.849 66.9649 409.075C85.5888 419.073 105.652 422.503 129.332 409.232C129.752 408.998 130.217 408.889 130.685 408.914C131.152 408.939 131.606 409.099 132.004 409.377C132.402 409.655 132.731 410.044 132.96 410.506C133.189 410.968 133.31 411.488 133.313 412.017V446.545C133.319 446.954 133.254 447.361 133.121 447.741C132.988 448.122 132.791 448.469 132.539 448.763C132.288 449.057 131.988 449.293 131.656 449.456C131.324 449.619 130.967 449.706 130.606 449.713Z" fill="#C4E5D5"/>
<path d="M97.7436 423.329C99.8616 423.329 101.579 420.785 101.579 417.647C101.579 414.509 99.8616 411.965 97.7436 411.965C95.6256 411.965 93.9087 414.509 93.9087 417.647C93.9087 420.785 95.6256 423.329 97.7436 423.329Z" fill="#3F3D56"/>
<path d="M97.7436 416.386C99.8616 416.386 101.579 413.842 101.579 410.704C101.579 407.565 99.8616 405.021 97.7436 405.021C95.6256 405.021 93.9087 407.565 93.9087 410.704C93.9087 413.842 95.6256 416.386 97.7436 416.386Z" fill="#3F3D56"/>
<path d="M97.7436 409.435C99.8616 409.435 101.579 406.891 101.579 403.753C101.579 400.615 99.8616 398.071 97.7436 398.071C95.6256 398.071 93.9087 400.615 93.9087 403.753C93.9087 406.891 95.6256 409.435 97.7436 409.435Z" fill="#3F3D56"/>
<path d="M97.7436 402.492C99.8616 402.492 101.579 399.948 101.579 396.81C101.579 393.672 99.8616 391.128 97.7436 391.128C95.6256 391.128 93.9087 393.672 93.9087 396.81C93.9087 399.948 95.6256 402.492 97.7436 402.492Z" fill="#3F3D56"/>
<path d="M97.7436 395.541C99.8616 395.541 101.579 392.997 101.579 389.859C101.579 386.721 99.8616 384.177 97.7436 384.177C95.6256 384.177 93.9087 386.721 93.9087 389.859C93.9087 392.997 95.6256 395.541 97.7436 395.541Z" fill="#3F3D56"/>
<path d="M97.7436 388.591C99.8616 388.591 101.579 386.047 101.579 382.908C101.579 379.77 99.8616 377.226 97.7436 377.226C95.6256 377.226 93.9087 379.77 93.9087 382.908C93.9087 386.047 95.6256 388.591 97.7436 388.591Z" fill="#3F3D56"/>
<path d="M97.7436 381.647C99.8616 381.647 101.579 379.103 101.579 375.965C101.579 372.827 99.8616 370.283 97.7436 370.283C95.6256 370.283 93.9087 372.827 93.9087 375.965C93.9087 379.103 95.6256 381.647 97.7436 381.647Z" fill="#3F3D56"/>
<path d="M112.128 328.422C112.649 327.664 113.125 326.87 113.554 326.042L103.469 324.166L114.377 324.256C115.429 321.676 116.004 318.88 116.064 316.04C116.125 313.2 115.67 310.376 114.729 307.742L100.099 316.329L113.594 305.07C112.331 302.598 110.63 300.447 108.6 298.75C106.569 297.054 104.251 295.849 101.791 295.21C99.3307 294.571 96.7804 294.512 94.2991 295.037C91.8177 295.562 89.4586 296.659 87.3685 298.261C85.2785 299.862 83.5023 301.934 82.1507 304.346C80.7992 306.758 79.9011 309.459 79.5126 312.28C79.124 315.102 79.2533 317.984 79.8923 320.747C80.5313 323.51 81.6663 326.094 83.2268 328.339C82.4069 329.512 81.7038 330.783 81.1302 332.13L94.214 339.906L80.2809 334.577C79.3043 337.853 79.0641 341.352 79.5819 344.759C80.0996 348.166 81.3591 351.374 83.2467 354.093C81.1136 357.161 79.7868 360.846 79.4177 364.727C79.0487 368.608 79.6524 372.528 81.1598 376.039C82.6672 379.55 85.0175 382.51 87.942 384.581C90.8664 386.652 94.247 387.751 97.6972 387.751C101.147 387.751 104.528 386.652 107.453 384.581C110.377 382.51 112.727 379.55 114.235 376.039C115.742 372.528 116.346 368.608 115.977 364.727C115.608 360.846 114.281 357.161 112.148 354.093C114.696 350.427 116.082 345.898 116.082 341.235C116.082 336.571 114.696 332.043 112.148 328.377L112.128 328.422Z" fill="#DAFFED"/>
<path opacity="0.1" d="M79.2791 341.28C79.273 345.945 80.6594 350.475 83.2135 354.138C81.0805 357.206 79.7536 360.891 79.3845 364.772C79.0155 368.653 79.6192 372.573 81.1266 376.084C82.634 379.595 84.9843 382.555 87.9088 384.626C90.8332 386.697 94.2138 387.796 97.6641 387.796C101.114 387.796 104.495 386.697 107.419 384.626C110.344 382.555 112.694 379.595 114.201 376.084C115.709 372.573 116.313 368.653 115.944 364.772C115.575 360.891 114.248 357.206 112.115 354.138C114.576 350.602 79.2791 338.945 79.2791 341.28Z" fill="black"/>
<path d="M130.606 451.552H65.784C65.0537 451.552 64.3533 451.224 63.837 450.639C63.3206 450.055 63.0305 449.263 63.0305 448.437V411.89C63.0304 411.364 63.1479 410.847 63.372 410.386C63.5961 409.926 63.9196 409.537 64.3123 409.256C64.705 408.975 65.1542 408.811 65.618 408.779C66.0818 408.748 66.5452 408.849 66.9649 409.075C85.5888 419.073 100.358 430.73 129.332 409.232C131.05 407.956 133.313 409.698 133.313 412.017V448.422C133.316 449.241 133.034 450.03 132.527 450.616C132.021 451.202 131.33 451.538 130.606 451.552Z" fill="#DAFFED"/>
<path d="M611.614 441.216L515.98 455.53L511.197 456.243L464.441 427.99V421.377L610.553 403.348L611.614 441.216Z" fill="#9C9CA1"/>
<path d="M491.538 430.993L595.14 417.174L594.078 438.814L513.38 445.509L491.538 430.993Z" fill="#939498"/>
<path opacity="0.4" d="M515.98 448.422V455.522L511.197 456.273L464.435 427.99V421.377L509.067 448.399C509.067 448.399 514.919 449.022 515.98 448.422Z" fill="black"/>
<path d="M534.339 335.718L512.869 448.347C512.652 449.474 512.679 450.644 512.946 451.758C513.214 452.871 513.714 453.896 514.405 454.744C515.096 455.593 515.957 456.241 516.916 456.634C517.875 457.027 518.904 457.153 519.915 457.001L655.749 436.66C656.932 436.483 658.047 435.933 658.967 435.073C659.887 434.213 660.574 433.077 660.95 431.796L690.256 331.815C690.58 330.705 690.661 329.523 690.491 328.371C690.321 327.219 689.906 326.13 689.282 325.199C688.658 324.269 687.843 323.524 686.908 323.029C685.973 322.533 684.945 322.303 683.913 322.357L540.257 330.073C538.86 330.148 537.523 330.741 536.453 331.762C535.383 332.782 534.64 334.172 534.339 335.718Z" fill="#3F3D56"/>
<path d="M608.977 377.268C609.31 373.682 607.929 370.578 605.892 370.335C603.855 370.093 601.933 372.804 601.6 376.391C601.267 379.978 602.648 383.082 604.685 383.324C606.722 383.567 608.644 380.855 608.977 377.268Z" fill="white"/>
</svg>
