<svg width="319" height="409" viewBox="0 0 319 409" fill="none" xmlns="http://www.w3.org/2000/svg">
<path d="M36.1259 162.919C7.5051 133.66 17.9996 72.3629 108 43.6812L258 43.6812L258 243.181C254 267.681 275.5 354.681 235.899 367.202C201.375 378.117 129.085 305.3 146.367 249.123C159.482 206.49 153.757 158.001 119.299 159.441C84.8418 160.882 59.5159 186.831 36.1259 162.919Z" fill="#DEF895"/>
<path d="M36.1259 162.919C7.5051 133.66 17.9996 72.3629 108 43.6812L258 43.6812L258 243.181C254 267.681 275.5 354.681 235.899 367.202C201.375 378.117 129.085 305.3 146.367 249.123C159.482 206.49 153.757 158.001 119.299 159.441C84.8418 160.882 59.5159 186.831 36.1259 162.919Z" fill="url(#paint0_linear)"/>
<path d="M36.1259 162.919C7.5051 133.66 17.9996 72.3629 108 43.6812L258 43.6812L258 243.181C254 267.681 275.5 354.681 235.899 367.202C201.375 378.117 129.085 305.3 146.367 249.123C159.482 206.49 153.757 158.001 119.299 159.441C84.8418 160.882 59.5159 186.831 36.1259 162.919Z" fill="url(#paint1_linear)"/>
<g opacity="0.8">
<path d="M57.5471 129.392C33.012 114.43 47.3241 65.3506 57.5471 42.6812H259V284.11C235.748 305.457 183.109 345.771 158.574 336.25C127.905 324.349 138.73 309.047 158.574 253.507C178.419 197.967 193.453 129.392 158.574 129.392C123.696 129.392 88.2161 148.094 57.5471 129.392Z" fill="#F5D35B"/>
<path d="M57.5471 129.392C33.012 114.43 47.3241 65.3506 57.5471 42.6812H259V284.11C235.748 305.457 183.109 345.771 158.574 336.25C127.905 324.349 138.73 309.047 158.574 253.507C178.419 197.967 193.453 129.392 158.574 129.392C123.696 129.392 88.2161 148.094 57.5471 129.392Z" fill="url(#paint2_linear)"/>
</g>
<defs>
<linearGradient id="paint0_linear" x1="77.2685" y1="76.9938" x2="194.072" y2="335.265" gradientUnits="userSpaceOnUse">
<stop offset="0.21875" stop-color="white" stop-opacity="0"/>
<stop offset="0.854167" stop-color="#F9DFDF"/>
</linearGradient>
<linearGradient id="paint1_linear" x1="119.79" y1="46.3771" x2="259.997" y2="356.397" gradientUnits="userSpaceOnUse">
<stop offset="0.0260417" stop-color="#C7DCFC"/>
<stop offset="0.572917" stop-color="white" stop-opacity="0"/>
</linearGradient>
<linearGradient id="paint2_linear" x1="151.5" y1="42.6812" x2="151.5" y2="337.681" gradientUnits="userSpaceOnUse">
<stop stop-color="#FBBCBC"/>
<stop offset="1" stop-color="white" stop-opacity="0"/>
</linearGradient>
</defs>
</svg>
