<svg width="895" height="794" viewBox="0 0 895 794" fill="none" xmlns="http://www.w3.org/2000/svg">
<path d="M495.5 68C749 148.5 850.167 39.5 908 1.5C899.333 180.667 898.5 502.345 898.5 564.5C898.5 650 819.63 671.894 759 650C723 637 650 633.5 650 708C650 780.007 569.5 776 533.5 793H80.0003C89.0003 780.5 114.2 734.4 143 650C171.8 565.6 54.5001 568 19.5 506C-50.9 396 99.5001 268 189 328.5C239.297 362.5 324.833 390.167 375.5 388.5C456 358 338 322.138 338 187.5C338 155 353 27 495.5 68Z" fill="url(#paint0_linear)"/>
<path d="M495.5 68C749 148.5 850.167 39.5 908 1.5C899.333 180.667 898.5 502.345 898.5 564.5C898.5 650 819.63 671.894 759 650C723 637 650 633.5 650 708C650 780.007 569.5 776 533.5 793H80.0003C89.0003 780.5 114.2 734.4 143 650C171.8 565.6 54.5001 568 19.5 506C-50.9 396 99.5001 268 189 328.5C239.297 362.5 324.833 390.167 375.5 388.5C456 358 338 322.138 338 187.5C338 155 353 27 495.5 68Z" fill="url(#paint1_linear)"/>
<path d="M495.5 68C749 148.5 850.167 39.5 908 1.5C899.333 180.667 898.5 502.345 898.5 564.5C898.5 650 819.63 671.894 759 650C723 637 650 633.5 650 708C650 780.007 569.5 776 533.5 793H80.0003C89.0003 780.5 114.2 734.4 143 650C171.8 565.6 54.5001 568 19.5 506C-50.9 396 99.5001 268 189 328.5C239.297 362.5 324.833 390.167 375.5 388.5C456 358 338 322.138 338 187.5C338 155 353 27 495.5 68Z" stroke="#96B2DD"/>
<defs>
<linearGradient id="paint0_linear" x1="998" y1="508.5" x2="331" y2="502.5" gradientUnits="userSpaceOnUse">
<stop offset="0.0451464" stop-color="#C4C4C4" stop-opacity="0"/>
<stop offset="0.940661" stop-color="#215BF0" stop-opacity="0.81"/>
</linearGradient>
<linearGradient id="paint1_linear" x1="1223.5" y1="522" x2="426" y2="110" gradientUnits="userSpaceOnUse">
<stop offset="0.211161" stop-color="#8BBAF0"/>
<stop offset="1" stop-color="white" stop-opacity="0"/>
</linearGradient>
</defs>
</svg>
