<svg width="564" height="520" viewBox="0 0 564 520" fill="none" xmlns="http://www.w3.org/2000/svg">
<path opacity="0.75" d="M573.653 447.709H461.718V449.198H573.653V447.709Z" fill="#3F3D56"/>
<path opacity="0.75" d="M293.879 157.844L92.2015 46.7589L8.88368 233.882L210.561 344.968L293.879 157.844Z" fill="#CFCCE0"/>
<path opacity="0.75" d="M284.995 126.226L83.3178 15.1406L-3.11754e-06 202.264L201.677 313.35L284.995 126.226Z" fill="#6C63FF"/>
<path opacity="0.75" d="M198.568 169.171L198.088 168.242L142.961 203.488V167.669L193.631 137.163L193.173 136.221L142.961 166.452V131.57L171.827 101.708L171.171 100.924L142.961 130.107V88.9186H141.998V130.152L111.213 100.005L110.577 100.809L141.998 131.58V166.445L88.9997 134.066L88.536 135.004L141.998 167.667V203.476L83.621 173.689L83.2194 174.663L141.998 204.654V245.782H142.961V204.724L198.568 169.171Z" fill="#CFCCE0"/>
<path opacity="0.75" d="M151.805 249.705H151.796L151.762 249.566L151.256 247.387C151.646 247.296 152.036 247.188 152.417 247.076C146.606 245.132 140.857 245.641 136.124 246.856H136.115C134.911 247.162 133.779 247.52 132.725 247.895C133.337 248.013 133.948 248.126 134.569 248.217L134.277 249.566H134.237L131.83 259.585L139.249 259.553L154.083 259.483L151.805 249.705Z" fill="#3F3D56"/>
<path opacity="0.75" d="M264.546 259.96H38.0402V49.8006H264.546V259.96ZM39.2247 258.642H263.362V51.118H39.2247V258.642Z" fill="#3F3D56"/>
<path opacity="0.75" d="M275.509 56.3498C275.509 56.7193 275.5 57.0834 275.471 57.4422C275.325 59.666 274.735 61.8256 273.744 63.7637C272.753 65.7019 271.385 67.3697 269.742 68.6458C268.098 69.9219 266.219 70.7742 264.241 71.1404C262.264 71.5066 260.238 71.3777 258.311 70.763C256.384 70.1482 254.604 69.0631 253.102 67.5868C251.6 66.1105 250.412 64.28 249.626 62.2288C248.841 60.1775 248.476 57.9572 248.559 55.7294C248.642 53.5017 249.171 51.3226 250.108 49.351C250.397 48.7331 250.729 48.1406 251.099 47.5785C252.711 45.0915 254.971 43.2143 257.572 42.2C260.173 41.1857 262.992 41.0831 265.647 41.9061C268.303 42.7291 270.667 44.4381 272.422 46.8025C274.177 49.1669 275.238 52.073 275.461 55.1289C275.495 55.5305 275.509 55.9375 275.509 56.3498Z" fill="#CFCCE0"/>
<path opacity="0.75" d="M279.804 49.1419C279.804 49.5114 279.794 49.8756 279.766 50.2343C279.62 52.4581 279.03 54.6177 278.039 56.5559C277.048 58.494 275.68 60.1619 274.036 61.438C272.393 62.7141 270.513 63.5663 268.536 63.9325C266.558 64.2988 264.532 64.1698 262.605 63.5551C260.678 62.9403 258.899 61.8553 257.397 60.3789C255.894 58.9026 254.707 57.0721 253.921 55.0209C253.135 52.9697 252.771 50.7493 252.854 48.5215C252.937 46.2938 253.466 44.1147 254.402 42.1431C254.692 41.5252 255.024 40.9327 255.394 40.3706C257.006 37.8837 259.265 36.0064 261.867 34.9922C264.468 33.9779 267.287 33.8753 269.942 34.6983C272.597 35.5213 274.962 37.2302 276.717 39.5946C278.472 41.959 279.532 44.8651 279.756 47.921C279.79 48.3226 279.804 48.7296 279.804 49.1419Z" fill="#6C63FF"/>
<path opacity="0.75" d="M279.804 49.1419C279.804 49.5114 279.794 49.8755 279.766 50.2343L259.583 47.5354L279.756 47.921C279.79 48.3226 279.804 48.7296 279.804 49.1419Z" fill="#3F3D56"/>
<path opacity="0.75" d="M274.989 56.6977L256.319 59.1984C255.789 58.5413 255.312 57.8334 254.893 57.0832L274.989 56.6977Z" fill="#3F3D56"/>
<path opacity="0.75" d="M269.693 40.0975L254.402 42.1431C254.692 41.5252 255.024 40.9327 255.394 40.3706L269.693 40.0975Z" fill="#3F3D56"/>
<path opacity="0.75" d="M226.215 268.94C231.001 268.94 234.881 264.624 234.881 259.301C234.881 253.978 231.001 249.662 226.215 249.662C221.429 249.662 217.549 253.978 217.549 259.301C217.549 264.624 221.429 268.94 226.215 268.94Z" fill="#3F3D56"/>
<path opacity="0.75" d="M151.432 61.1692C156.218 61.1692 160.098 56.8537 160.098 51.5303C160.098 46.207 156.218 41.8915 151.432 41.8915C146.645 41.8915 142.766 46.207 142.766 51.5303C142.766 56.8537 146.645 61.1692 151.432 61.1692Z" fill="#3F3D56"/>
<path opacity="0.75" d="M38.7709 126.47C43.5571 126.47 47.4371 122.155 47.4371 116.831C47.4371 111.508 43.5571 107.193 38.7709 107.193C33.9846 107.193 30.1046 111.508 30.1046 116.831C30.1046 122.155 33.9846 126.47 38.7709 126.47Z" fill="#FF6584"/>
<path d="M538.434 422.848H511.452V452.857H538.434V422.848Z" fill="#CFCCE0"/>
<path d="M534.884 448.909H506.482V417.319H534.884V448.909ZM507.902 447.329H533.464V418.899H507.902L507.902 447.329Z" fill="#3F3D56"/>
<path d="M430.203 22.2189C418.947 1.06562 396.679 0.0797942 396.679 0.0797942C396.679 0.0797942 374.979 -3.00655 361.059 29.2101C348.085 59.2387 330.178 88.232 358.176 95.2614L363.234 77.7541L366.366 96.5648C370.352 96.8837 374.351 96.9597 378.345 96.7925C408.329 95.7158 436.885 97.1075 435.965 85.1404C434.743 69.2318 441.033 42.5726 430.203 22.2189Z" fill="#2F2E41"/>
<path d="M371.836 223.306L362.947 213.902L344.737 187.861L331.523 194.766L352.975 225.476L362.27 239.144L362.297 239.22C362.297 239.22 377.473 259.475 387.879 250.794C398.285 242.114 371.836 223.306 371.836 223.306Z" fill="#FFB9B9"/>
<path d="M448.58 190.996L439.692 181.592L429.719 193.166L439.015 206.834L439.042 206.91C439.042 206.91 454.217 227.164 464.623 218.484C475.029 209.803 448.58 190.996 448.58 190.996Z" fill="#FFB9B9"/>
<path d="M430.153 168.571L445.762 184.486L435.79 190.755L421.481 171.465L430.153 168.571Z" fill="#CFCCE0"/>
<path d="M431.02 93.8229C431.02 93.8229 437.09 88.036 439.692 106.844C442.293 125.651 435.356 132.403 435.356 132.403L431.02 93.8229Z" fill="#CFCCE0"/>
<path d="M395.033 73.0863C407.724 73.0863 418.013 61.6431 418.013 47.5273C418.013 33.4114 407.724 21.9682 395.033 21.9682C382.341 21.9682 372.053 33.4114 372.053 47.5273C372.053 61.6431 382.341 73.0863 395.033 73.0863Z" fill="#FFB9B9"/>
<path d="M381.158 61.9948C381.158 61.9948 378.123 78.3911 365.983 80.3201C353.842 82.2491 334.765 89.0006 337.366 102.021C339.968 115.042 412.81 113.595 412.81 113.595L425.817 91.4118C425.817 91.4118 398.935 83.6959 401.537 66.335L381.158 61.9948Z" fill="#FFB9B9"/>
<path d="M416.929 87.7949C416.929 87.7949 399.802 102.021 359.479 101.057C359.479 101.057 336.692 105.141 340.064 92.0071C340.064 92.0071 337.366 87.5538 334.764 101.539C332.163 115.524 312.652 163.266 314.386 165.195L320.89 172.429L335.198 203.293L350.374 193.648L345.17 181.11C345.17 181.11 355.143 190.272 359.912 176.769C359.912 176.769 363.815 189.79 372.053 190.272C380.291 190.755 433.622 173.876 433.622 173.876C433.622 173.876 430.587 160.373 433.622 154.586C436.657 148.799 441.426 137.225 439.258 128.545L435.356 93.823C435.356 93.823 419.097 86.3482 416.929 87.7949Z" fill="#CFCCE0"/>
<path d="M372.703 189.549L374.221 203.293C374.221 203.293 360.346 214.867 362.514 256.34L319.155 457.437C319.155 457.437 327.394 469.493 349.073 468.528C370.752 467.564 412.81 275.63 412.81 275.63C412.81 275.63 401.103 463.706 415.411 468.528C429.719 473.351 450.098 470.94 450.098 470.94L463.539 219.207C463.539 219.207 450.098 194.13 442.293 189.308C434.489 184.485 431.454 172.429 431.454 172.429L372.703 189.549Z" fill="#2F2E41"/>
<path d="M321.323 455.026L319.155 472.869C319.155 472.869 299.211 520.611 317.421 519.164C335.632 517.718 336.065 488.3 336.065 488.3L339.534 463.224L321.323 455.026Z" fill="#2F2E41"/>
<path d="M434.922 455.026L437.09 472.869C437.09 472.869 457.035 520.611 438.825 519.164C420.614 517.718 420.181 488.3 420.181 488.3L416.712 463.224L434.922 455.026Z" fill="#2F2E41"/>
<path d="M425.227 21.1441L403.226 8.32679L372.845 13.5702L366.559 44.4487L382.206 43.7795L386.578 32.4351V43.5924L393.798 43.2835L397.989 25.2222L400.608 44.4487L426.275 43.8658L425.227 21.1441Z" fill="#2F2E41"/>
<path d="M544.295 251.301C531.404 251.609 521.149 261.999 521.149 261.999C521.149 261.999 531.795 271.89 544.686 271.583C557.576 271.275 567.831 260.885 567.831 260.885C567.831 260.885 557.185 250.994 544.295 251.301Z" fill="#6C63FF"/>
<path d="M560.851 198.717C562.081 212.993 554.001 225.533 554.001 225.533C554.001 225.533 543.925 214.929 542.695 200.654C541.464 186.378 549.544 173.838 549.544 173.838C549.544 173.838 559.62 184.442 560.851 198.717Z" fill="#3F3D56"/>
<path d="M500.38 286.267C507.114 298.496 504.797 313.708 504.797 313.708C504.797 313.708 491.561 309.092 484.826 296.863C478.092 284.634 480.409 269.423 480.409 269.423C480.409 269.423 493.645 274.038 500.38 286.267Z" fill="#3F3D56"/>
<path d="M519.918 419.228L518.937 418.49C522.396 412.906 524.285 406.305 524.363 399.524C524.336 389.605 519.956 380.431 515.719 371.559C514.933 369.912 514.149 368.271 513.396 366.63C510.231 359.941 507.709 352.9 505.872 345.622C499.301 318.463 505.77 286.421 523.177 259.909C536.985 238.877 557.569 220.486 586.105 203.684L586.659 204.848C558.286 221.554 537.833 239.819 524.133 260.686C506.936 286.879 500.537 318.503 507.016 345.28C508.832 352.468 511.323 359.423 514.45 366.031C515.201 367.665 515.982 369.3 516.766 370.941C521.069 379.955 525.519 389.275 525.548 399.52C525.47 406.565 523.51 413.425 519.918 419.228Z" fill="#3F3D56"/>
</svg>
